  0
SECTION
  2
HEADER
  9
$ANGBASE
  50
0.0
  9
$ANGDIR
  70
1
  9
$MEASUREMENT
  70
0
  0
ENDSEC
  0
SECTION
  2
TABLES
  0
TABLE
  2
LTYPE
  70
4
  0
LTYPE
  5
40F
  2
CONTINUOUS
  70
0
  3
Solid line
  72
65
  73
0
  40
0.0
  0
LTYPE
  5
410
  2
DASHDOT
 70
0
  3
Dash Dot ____ _ ____ _
 72
65
 73
4
 40
2.0
 49
1.25
 49
-0.25
 49
0.25
 49
-0.25
  0
LTYPE
  5
411
  2
DASHED
 70
0
  3
Dashed __ __ __ __ __
 72
65
 73
2
 40
0.75
 49
0.5
 49
-0.25
  0
LTYPE
  5
43B
  2
DOTTED
 70
0
  3
Dotted .  .  .  .
 72
65
 73
2
 40
0.2
 49
0.0
 49
-0.2
  0
ENDTAB
  0
TABLE
  2
STYLE
  70
4
  0
STYLE
  2
KICAD
  70
0
  40
0
  41
1
  42
1
  50
0
  71
0
  3
isocp.shx
  0
STYLE
  2
KICADB
  70
0
  40
0
  41
1
  42
1
  50
0
  71
0
  3
isocp.shx
  0
STYLE
  2
KICADI
  70
0
  40
0
  41
1
  42
1
  50
15
  71
0
  3
isocp.shx
  0
STYLE
  2
KICADBI
  70
0
  40
0
  41
1
  42
1
  50
15
  71
0
  3
isocp.shx
  0
ENDTAB
  0
TABLE
  2
LAYER
  70
1
  0
LAYER
  2
BLACK
  70
0
  62
7
  6
CONTINUOUS
  0
ENDTAB
  0
ENDSEC
  0
SECTION
  2
ENTITIES
0
LINE
8
BLACK
6
CONTINUOUS
10
0.9107
20
0.3062
11
0.8200999999999999
21
0.3062
0
LINE
8
BLACK
6
CONTINUOUS
10
0.8200999999999999
20
0.3062
11
0.8200999999999999
21
0.4046
0
LINE
8
BLACK
6
CONTINUOUS
10
0.8200999999999999
20
0.4046
11
0.9107
21
0.4046
0
LINE
8
BLACK
6
CONTINUOUS
10
0.9107
20
0.4046
11
0.9107
21
0.3062
0
LINE
8
BLACK
6
CONTINUOUS
10
1.1046
20
0.3447
11
1.0062
21
0.3447
0
LINE
8
BLACK
6
CONTINUOUS
10
1.0062
20
0.3447
11
1.0062
21
0.4353
0
LINE
8
BLACK
6
CONTINUOUS
10
1.0062
20
0.4353
11
1.1046
21
0.4353
0
LINE
8
BLACK
6
CONTINUOUS
10
1.1046
20
0.4353
11
1.1046
21
0.3447
0
LINE
8
BLACK
6
CONTINUOUS
10
1.2738
20
0.3447
11
1.1754
21
0.3447
0
LINE
8
BLACK
6
CONTINUOUS
10
1.1754
20
0.3447
11
1.1754
21
0.4353
0
LINE
8
BLACK
6
CONTINUOUS
10
1.1754
20
0.4353
11
1.2738
21
0.4353
0
LINE
8
BLACK
6
CONTINUOUS
10
1.2738
20
0.4353
11
1.2738
21
0.3447
0
LINE
8
BLACK
6
CONTINUOUS
10
0.9107
20
0.4754
11
0.8200999999999999
21
0.4754
0
LINE
8
BLACK
6
CONTINUOUS
10
0.8200999999999999
20
0.4754
11
0.8200999999999999
21
0.5738
0
LINE
8
BLACK
6
CONTINUOUS
10
0.8200999999999999
20
0.5738
11
0.9107
21
0.5738
0
LINE
8
BLACK
6
CONTINUOUS
10
0.9107
20
0.5738
11
0.9107
21
0.4754
0
LINE
8
BLACK
6
CONTINUOUS
10
1.0800000000000001
20
0.4825
11
1.0249999999999999
21
0.4825
0
LINE
8
BLACK
6
CONTINUOUS
10
1.0249999999999999
20
0.4825
11
1.0249999999999999
21
0.5175
0
LINE
8
BLACK
6
CONTINUOUS
10
1.0249999999999999
20
0.5175
11
1.0800000000000001
21
0.5175
0
LINE
8
BLACK
6
CONTINUOUS
10
1.0800000000000001
20
0.5175
11
1.0800000000000001
21
0.4825
0
LINE
8
BLACK
6
CONTINUOUS
10
1.2153
20
0.5162
11
1.1247
21
0.5162
0
LINE
8
BLACK
6
CONTINUOUS
10
1.1247
20
0.5162
11
1.1247
21
0.6146
0
LINE
8
BLACK
6
CONTINUOUS
10
1.1247
20
0.6146
11
1.2153
21
0.6146
0
LINE
8
BLACK
6
CONTINUOUS
10
1.2153
20
0.6146
11
1.2153
21
0.5162
0
LINE
8
BLACK
6
CONTINUOUS
10
0.6113999999999999
20
0.5407999999999999
11
0.511
21
0.5407999999999999
0
LINE
8
BLACK
6
CONTINUOUS
10
0.511
20
0.5407999999999999
11
0.511
21
0.6392
0
LINE
8
BLACK
6
CONTINUOUS
10
0.511
20
0.6392
11
0.6113999999999999
21
0.6392
0
LINE
8
BLACK
6
CONTINUOUS
10
0.6113999999999999
20
0.6392
11
0.6113999999999999
21
0.5407999999999999
0
LINE
8
BLACK
6
CONTINUOUS
10
0.8102
20
0.5407999999999999
11
0.7098
21
0.5407999999999999
0
LINE
8
BLACK
6
CONTINUOUS
10
0.7098
20
0.5407999999999999
11
0.7098
21
0.6392
0
LINE
8
BLACK
6
CONTINUOUS
10
0.7098
20
0.6392
11
0.8102
21
0.6392
0
LINE
8
BLACK
6
CONTINUOUS
10
0.8102
20
0.6392
11
0.8102
21
0.5407999999999999
0
LINE
8
BLACK
6
CONTINUOUS
10
1.0800000000000001
20
0.5575
11
1.0249999999999999
21
0.5575
0
LINE
8
BLACK
6
CONTINUOUS
10
1.0249999999999999
20
0.5575
11
1.0249999999999999
21
0.5925
0
LINE
8
BLACK
6
CONTINUOUS
10
1.0249999999999999
20
0.5925
11
1.0800000000000001
21
0.5925
0
LINE
8
BLACK
6
CONTINUOUS
10
1.0800000000000001
20
0.5925
11
1.0800000000000001
21
0.5575
0
LINE
8
BLACK
6
CONTINUOUS
10
0.3675
20
0.5725
11
0.3325
21
0.5725
0
LINE
8
BLACK
6
CONTINUOUS
10
0.3325
20
0.5725
11
0.3325
21
0.6274999999999999
0
LINE
8
BLACK
6
CONTINUOUS
10
0.3325
20
0.6274999999999999
11
0.3675
21
0.6274999999999999
0
LINE
8
BLACK
6
CONTINUOUS
10
0.3675
20
0.6274999999999999
11
0.3675
21
0.5725
0
LINE
8
BLACK
6
CONTINUOUS
10
0.4425
20
0.5725
11
0.4075
21
0.5725
0
LINE
8
BLACK
6
CONTINUOUS
10
0.4075
20
0.5725
11
0.4075
21
0.6274999999999999
0
LINE
8
BLACK
6
CONTINUOUS
10
0.4075
20
0.6274999999999999
11
0.4425
21
0.6274999999999999
0
LINE
8
BLACK
6
CONTINUOUS
10
0.4425
20
0.6274999999999999
11
0.4425
21
0.5725
0
LINE
8
BLACK
6
CONTINUOUS
10
0.9175
20
0.6025
11
0.8825
21
0.6025
0
LINE
8
BLACK
6
CONTINUOUS
10
0.8825
20
0.6025
11
0.8825
21
0.6575
0
LINE
8
BLACK
6
CONTINUOUS
10
0.8825
20
0.6575
11
0.9175
21
0.6575
0
LINE
8
BLACK
6
CONTINUOUS
10
0.9175
20
0.6575
11
0.9175
21
0.6025
0
LINE
8
BLACK
6
CONTINUOUS
10
0.9924999999999999
20
0.6025
11
0.9575
21
0.6025
0
LINE
8
BLACK
6
CONTINUOUS
10
0.9575
20
0.6025
11
0.9575
21
0.6575
0
LINE
8
BLACK
6
CONTINUOUS
10
0.9575
20
0.6575
11
0.9924999999999999
21
0.6575
0
LINE
8
BLACK
6
CONTINUOUS
10
0.9924999999999999
20
0.6575
11
0.9924999999999999
21
0.6025
0
LINE
8
BLACK
6
CONTINUOUS
10
0.3675
20
0.6525
11
0.3325
21
0.6525
0
LINE
8
BLACK
6
CONTINUOUS
10
0.3325
20
0.6525
11
0.3325
21
0.7075
0
LINE
8
BLACK
6
CONTINUOUS
10
0.3325
20
0.7075
11
0.3675
21
0.7075
0
LINE
8
BLACK
6
CONTINUOUS
10
0.3675
20
0.7075
11
0.3675
21
0.6525
0
LINE
8
BLACK
6
CONTINUOUS
10
0.4425
20
0.6525
11
0.4075
21
0.6525
0
LINE
8
BLACK
6
CONTINUOUS
10
0.4075
20
0.6525
11
0.4075
21
0.7075
0
LINE
8
BLACK
6
CONTINUOUS
10
0.4075
20
0.7075
11
0.4425
21
0.7075
0
LINE
8
BLACK
6
CONTINUOUS
10
0.4425
20
0.7075
11
0.4425
21
0.6525
0
LINE
8
BLACK
6
CONTINUOUS
10
1.2153
20
0.6854
11
1.1247
21
0.6854
0
LINE
8
BLACK
6
CONTINUOUS
10
1.1247
20
0.6854
11
1.1247
21
0.7837999999999999
0
LINE
8
BLACK
6
CONTINUOUS
10
1.1247
20
0.7837999999999999
11
1.2153
21
0.7837999999999999
0
LINE
8
BLACK
6
CONTINUOUS
10
1.2153
20
0.7837999999999999
11
1.2153
21
0.6854
0
LINE
8
BLACK
6
CONTINUOUS
10
0.6614960629921259
20
0.697007874015748
11
0.598503937007874
21
0.697007874015748
0
LINE
8
BLACK
6
CONTINUOUS
10
0.598503937007874
20
0.697007874015748
11
0.598503937007874
21
0.7088188976377953
0
LINE
8
BLACK
6
CONTINUOUS
10
0.598503937007874
20
0.7088188976377953
11
0.6614960629921259
21
0.7088188976377953
0
LINE
8
BLACK
6
CONTINUOUS
10
0.6614960629921259
20
0.7088188976377953
11
0.6614960629921259
21
0.697007874015748
0
LINE
8
BLACK
6
CONTINUOUS
10
0.8819685039370079
20
0.697007874015748
11
0.8189763779527559
21
0.697007874015748
0
LINE
8
BLACK
6
CONTINUOUS
10
0.8189763779527559
20
0.697007874015748
11
0.8189763779527559
21
0.7088188976377953
0
LINE
8
BLACK
6
CONTINUOUS
10
0.8189763779527559
20
0.7088188976377953
11
0.8819685039370079
21
0.7088188976377953
0
LINE
8
BLACK
6
CONTINUOUS
10
0.8819685039370079
20
0.7088188976377953
11
0.8819685039370079
21
0.697007874015748
0
LINE
8
BLACK
6
CONTINUOUS
10
0.6614960629921259
20
0.7225984251968504
11
0.598503937007874
21
0.7225984251968504
0
LINE
8
BLACK
6
CONTINUOUS
10
0.598503937007874
20
0.7225984251968504
11
0.598503937007874
21
0.7344094488188976
0
LINE
8
BLACK
6
CONTINUOUS
10
0.598503937007874
20
0.7344094488188976
11
0.6614960629921259
21
0.7344094488188976
0
LINE
8
BLACK
6
CONTINUOUS
10
0.6614960629921259
20
0.7344094488188976
11
0.6614960629921259
21
0.7225984251968504
0
LINE
8
BLACK
6
CONTINUOUS
10
0.8819685039370079
20
0.7225984251968504
11
0.8189763779527559
21
0.7225984251968504
0
LINE
8
BLACK
6
CONTINUOUS
10
0.8189763779527559
20
0.7225984251968504
11
0.8189763779527559
21
0.7344094488188976
0
LINE
8
BLACK
6
CONTINUOUS
10
0.8189763779527559
20
0.7344094488188976
11
0.8819685039370079
21
0.7344094488188976
0
LINE
8
BLACK
6
CONTINUOUS
10
0.8819685039370079
20
0.7344094488188976
11
0.8819685039370079
21
0.7225984251968504
0
LINE
8
BLACK
6
CONTINUOUS
10
0.3675
20
0.7324999999999999
11
0.3325
21
0.7324999999999999
0
LINE
8
BLACK
6
CONTINUOUS
10
0.3325
20
0.7324999999999999
11
0.3325
21
0.7875
0
LINE
8
BLACK
6
CONTINUOUS
10
0.3325
20
0.7875
11
0.3675
21
0.7875
0
LINE
8
BLACK
6
CONTINUOUS
10
0.3675
20
0.7875
11
0.3675
21
0.7324999999999999
0
LINE
8
BLACK
6
CONTINUOUS
10
0.4425
20
0.7324999999999999
11
0.4075
21
0.7324999999999999
0
LINE
8
BLACK
6
CONTINUOUS
10
0.4075
20
0.7324999999999999
11
0.4075
21
0.7875
0
LINE
8
BLACK
6
CONTINUOUS
10
0.4075
20
0.7875
11
0.4425
21
0.7875
0
LINE
8
BLACK
6
CONTINUOUS
10
0.4425
20
0.7875
11
0.4425
21
0.7324999999999999
0
LINE
8
BLACK
6
CONTINUOUS
10
0.6614960629921259
20
0.7481889763779528
11
0.598503937007874
21
0.7481889763779528
0
LINE
8
BLACK
6
CONTINUOUS
10
0.598503937007874
20
0.7481889763779528
11
0.598503937007874
21
0.76
0
LINE
8
BLACK
6
CONTINUOUS
10
0.598503937007874
20
0.76
11
0.6614960629921259
21
0.76
0
LINE
8
BLACK
6
CONTINUOUS
10
0.6614960629921259
20
0.76
11
0.6614960629921259
21
0.7481889763779528
0
LINE
8
BLACK
6
CONTINUOUS
10
0.8819685039370079
20
0.7481889763779528
11
0.8189763779527559
21
0.7481889763779528
0
LINE
8
BLACK
6
CONTINUOUS
10
0.8189763779527559
20
0.7481889763779528
11
0.8189763779527559
21
0.76
0
LINE
8
BLACK
6
CONTINUOUS
10
0.8189763779527559
20
0.76
11
0.8819685039370079
21
0.76
0
LINE
8
BLACK
6
CONTINUOUS
10
0.8819685039370079
20
0.76
11
0.8819685039370079
21
0.7481889763779528
0
LINE
8
BLACK
6
CONTINUOUS
10
0.8012598425196851
20
0.7672834645669291
11
0.6792125984251969
21
0.7672834645669291
0
LINE
8
BLACK
6
CONTINUOUS
10
0.6792125984251969
20
0.7672834645669291
11
0.6792125984251969
21
0.9712204724409449
0
LINE
8
BLACK
6
CONTINUOUS
10
0.6792125984251969
20
0.9712204724409449
11
0.8012598425196851
21
0.9712204724409449
0
LINE
8
BLACK
6
CONTINUOUS
10
0.8012598425196851
20
0.9712204724409449
11
0.8012598425196851
21
0.7672834645669291
0
LINE
8
BLACK
6
CONTINUOUS
10
0.6614960629921259
20
0.7737795275590551
11
0.598503937007874
21
0.7737795275590551
0
LINE
8
BLACK
6
CONTINUOUS
10
0.598503937007874
20
0.7737795275590551
11
0.598503937007874
21
0.7855905511811023
0
LINE
8
BLACK
6
CONTINUOUS
10
0.598503937007874
20
0.7855905511811023
11
0.6614960629921259
21
0.7855905511811023
0
LINE
8
BLACK
6
CONTINUOUS
10
0.6614960629921259
20
0.7855905511811023
11
0.6614960629921259
21
0.7737795275590551
0
LINE
8
BLACK
6
CONTINUOUS
10
0.8819685039370079
20
0.7737795275590551
11
0.8189763779527559
21
0.7737795275590551
0
LINE
8
BLACK
6
CONTINUOUS
10
0.8189763779527559
20
0.7737795275590551
11
0.8189763779527559
21
0.7855905511811023
0
LINE
8
BLACK
6
CONTINUOUS
10
0.8189763779527559
20
0.7855905511811023
11
0.8819685039370079
21
0.7855905511811023
0
LINE
8
BLACK
6
CONTINUOUS
10
0.8819685039370079
20
0.7855905511811023
11
0.8819685039370079
21
0.7737795275590551
0
LINE
8
BLACK
6
CONTINUOUS
10
0.6614960629921259
20
0.7993700787401574
11
0.598503937007874
21
0.7993700787401574
0
LINE
8
BLACK
6
CONTINUOUS
10
0.598503937007874
20
0.7993700787401574
11
0.598503937007874
21
0.8111811023622048
0
LINE
8
BLACK
6
CONTINUOUS
10
0.598503937007874
20
0.8111811023622048
11
0.6614960629921259
21
0.8111811023622048
0
LINE
8
BLACK
6
CONTINUOUS
10
0.6614960629921259
20
0.8111811023622048
11
0.6614960629921259
21
0.7993700787401574
0
LINE
8
BLACK
6
CONTINUOUS
10
0.8819685039370079
20
0.7993700787401574
11
0.8189763779527559
21
0.7993700787401574
0
LINE
8
BLACK
6
CONTINUOUS
10
0.8189763779527559
20
0.7993700787401574
11
0.8189763779527559
21
0.8111811023622048
0
LINE
8
BLACK
6
CONTINUOUS
10
0.8189763779527559
20
0.8111811023622048
11
0.8819685039370079
21
0.8111811023622048
0
LINE
8
BLACK
6
CONTINUOUS
10
0.8819685039370079
20
0.8111811023622048
11
0.8819685039370079
21
0.7993700787401574
0
LINE
8
BLACK
6
CONTINUOUS
10
0.37
20
0.8125
11
0.335
21
0.8125
0
LINE
8
BLACK
6
CONTINUOUS
10
0.335
20
0.8125
11
0.335
21
0.8674999999999999
0
LINE
8
BLACK
6
CONTINUOUS
10
0.335
20
0.8674999999999999
11
0.37
21
0.8674999999999999
0
LINE
8
BLACK
6
CONTINUOUS
10
0.37
20
0.8674999999999999
11
0.37
21
0.8125
0
LINE
8
BLACK
6
CONTINUOUS
10
0.445
20
0.8125
11
0.41
21
0.8125
0
LINE
8
BLACK
6
CONTINUOUS
10
0.41
20
0.8125
11
0.41
21
0.8674999999999999
0
LINE
8
BLACK
6
CONTINUOUS
10
0.41
20
0.8674999999999999
11
0.445
21
0.8674999999999999
0
LINE
8
BLACK
6
CONTINUOUS
10
0.445
20
0.8674999999999999
11
0.445
21
0.8125
0
LINE
8
BLACK
6
CONTINUOUS
10
0.6614960629921259
20
0.8249606299212598
11
0.598503937007874
21
0.8249606299212598
0
LINE
8
BLACK
6
CONTINUOUS
10
0.598503937007874
20
0.8249606299212598
11
0.598503937007874
21
0.8367716535433071
0
LINE
8
BLACK
6
CONTINUOUS
10
0.598503937007874
20
0.8367716535433071
11
0.6614960629921259
21
0.8367716535433071
0
LINE
8
BLACK
6
CONTINUOUS
10
0.6614960629921259
20
0.8367716535433071
11
0.6614960629921259
21
0.8249606299212598
0
LINE
8
BLACK
6
CONTINUOUS
10
0.8819685039370079
20
0.8249606299212598
11
0.8189763779527559
21
0.8249606299212598
0
LINE
8
BLACK
6
CONTINUOUS
10
0.8189763779527559
20
0.8249606299212598
11
0.8189763779527559
21
0.8367716535433071
0
LINE
8
BLACK
6
CONTINUOUS
10
0.8189763779527559
20
0.8367716535433071
11
0.8819685039370079
21
0.8367716535433071
0
LINE
8
BLACK
6
CONTINUOUS
10
0.8819685039370079
20
0.8367716535433071
11
0.8819685039370079
21
0.8249606299212598
0
LINE
8
BLACK
6
CONTINUOUS
10
0.6614960629921259
20
0.8505511811023622
11
0.598503937007874
21
0.8505511811023622
0
LINE
8
BLACK
6
CONTINUOUS
10
0.598503937007874
20
0.8505511811023622
11
0.598503937007874
21
0.8623622047244094
0
LINE
8
BLACK
6
CONTINUOUS
10
0.598503937007874
20
0.8623622047244094
11
0.6614960629921259
21
0.8623622047244094
0
LINE
8
BLACK
6
CONTINUOUS
10
0.6614960629921259
20
0.8623622047244094
11
0.6614960629921259
21
0.8505511811023622
0
LINE
8
BLACK
6
CONTINUOUS
10
0.8819685039370079
20
0.8505511811023622
11
0.8189763779527559
21
0.8505511811023622
0
LINE
8
BLACK
6
CONTINUOUS
10
0.8189763779527559
20
0.8505511811023622
11
0.8189763779527559
21
0.8623622047244094
0
LINE
8
BLACK
6
CONTINUOUS
10
0.8189763779527559
20
0.8623622047244094
11
0.8819685039370079
21
0.8623622047244094
0
LINE
8
BLACK
6
CONTINUOUS
10
0.8819685039370079
20
0.8623622047244094
11
0.8819685039370079
21
0.8505511811023622
0
LINE
8
BLACK
6
CONTINUOUS
10
1.0474999999999999
20
0.8724999999999999
11
0.9924999999999999
21
0.8724999999999999
0
LINE
8
BLACK
6
CONTINUOUS
10
0.9924999999999999
20
0.8724999999999999
11
0.9924999999999999
21
0.9075
0
LINE
8
BLACK
6
CONTINUOUS
10
0.9924999999999999
20
0.9075
11
1.0474999999999999
21
0.9075
0
LINE
8
BLACK
6
CONTINUOUS
10
1.0474999999999999
20
0.9075
11
1.0474999999999999
21
0.8724999999999999
0
LINE
8
BLACK
6
CONTINUOUS
10
0.6614960629921259
20
0.8761417322834646
11
0.598503937007874
21
0.8761417322834646
0
LINE
8
BLACK
6
CONTINUOUS
10
0.598503937007874
20
0.8761417322834646
11
0.598503937007874
21
0.8879527559055118
0
LINE
8
BLACK
6
CONTINUOUS
10
0.598503937007874
20
0.8879527559055118
11
0.6614960629921259
21
0.8879527559055118
0
LINE
8
BLACK
6
CONTINUOUS
10
0.6614960629921259
20
0.8879527559055118
11
0.6614960629921259
21
0.8761417322834646
0
LINE
8
BLACK
6
CONTINUOUS
10
0.8819685039370079
20
0.8761417322834646
11
0.8189763779527559
21
0.8761417322834646
0
LINE
8
BLACK
6
CONTINUOUS
10
0.8189763779527559
20
0.8761417322834646
11
0.8189763779527559
21
0.8879527559055118
0
LINE
8
BLACK
6
CONTINUOUS
10
0.8189763779527559
20
0.8879527559055118
11
0.8819685039370079
21
0.8879527559055118
0
LINE
8
BLACK
6
CONTINUOUS
10
0.8819685039370079
20
0.8879527559055118
11
0.8819685039370079
21
0.8761417322834646
0
LINE
8
BLACK
6
CONTINUOUS
10
0.37
20
0.8925
11
0.335
21
0.8925
0
LINE
8
BLACK
6
CONTINUOUS
10
0.335
20
0.8925
11
0.335
21
0.9475
0
LINE
8
BLACK
6
CONTINUOUS
10
0.335
20
0.9475
11
0.37
21
0.9475
0
LINE
8
BLACK
6
CONTINUOUS
10
0.37
20
0.9475
11
0.37
21
0.8925
0
LINE
8
BLACK
6
CONTINUOUS
10
0.445
20
0.8925
11
0.41
21
0.8925
0
LINE
8
BLACK
6
CONTINUOUS
10
0.41
20
0.8925
11
0.41
21
0.9475
0
LINE
8
BLACK
6
CONTINUOUS
10
0.41
20
0.9475
11
0.445
21
0.9475
0
LINE
8
BLACK
6
CONTINUOUS
10
0.445
20
0.9475
11
0.445
21
0.8925
0
LINE
8
BLACK
6
CONTINUOUS
10
0.6614960629921259
20
0.9017322834645669
11
0.598503937007874
21
0.9017322834645669
0
LINE
8
BLACK
6
CONTINUOUS
10
0.598503937007874
20
0.9017322834645669
11
0.598503937007874
21
0.9135433070866141
0
LINE
8
BLACK
6
CONTINUOUS
10
0.598503937007874
20
0.9135433070866141
11
0.6614960629921259
21
0.9135433070866141
0
LINE
8
BLACK
6
CONTINUOUS
10
0.6614960629921259
20
0.9135433070866141
11
0.6614960629921259
21
0.9017322834645669
0
LINE
8
BLACK
6
CONTINUOUS
10
0.8819685039370079
20
0.9017322834645669
11
0.8189763779527559
21
0.9017322834645669
0
LINE
8
BLACK
6
CONTINUOUS
10
0.8189763779527559
20
0.9017322834645669
11
0.8189763779527559
21
0.9135433070866141
0
LINE
8
BLACK
6
CONTINUOUS
10
0.8189763779527559
20
0.9135433070866141
11
0.8819685039370079
21
0.9135433070866141
0
LINE
8
BLACK
6
CONTINUOUS
10
0.8819685039370079
20
0.9135433070866141
11
0.8819685039370079
21
0.9017322834645669
0
LINE
8
BLACK
6
CONTINUOUS
10
0.6614960629921259
20
0.9273228346456692
11
0.598503937007874
21
0.9273228346456692
0
LINE
8
BLACK
6
CONTINUOUS
10
0.598503937007874
20
0.9273228346456692
11
0.598503937007874
21
0.9391338582677166
0
LINE
8
BLACK
6
CONTINUOUS
10
0.598503937007874
20
0.9391338582677166
11
0.6614960629921259
21
0.9391338582677166
0
LINE
8
BLACK
6
CONTINUOUS
10
0.6614960629921259
20
0.9391338582677166
11
0.6614960629921259
21
0.9273228346456692
0
LINE
8
BLACK
6
CONTINUOUS
10
0.8819685039370079
20
0.9273228346456692
11
0.8189763779527559
21
0.9273228346456692
0
LINE
8
BLACK
6
CONTINUOUS
10
0.8189763779527559
20
0.9273228346456692
11
0.8189763779527559
21
0.9391338582677166
0
LINE
8
BLACK
6
CONTINUOUS
10
0.8189763779527559
20
0.9391338582677166
11
0.8819685039370079
21
0.9391338582677166
0
LINE
8
BLACK
6
CONTINUOUS
10
0.8819685039370079
20
0.9391338582677166
11
0.8819685039370079
21
0.9273228346456692
0
LINE
8
BLACK
6
CONTINUOUS
10
1.2353000000000001
20
0.9362
11
1.1447000000000001
21
0.9362
0
LINE
8
BLACK
6
CONTINUOUS
10
1.1447000000000001
20
0.9362
11
1.1447000000000001
21
1.0346
0
LINE
8
BLACK
6
CONTINUOUS
10
1.1447000000000001
20
1.0346
11
1.2353000000000001
21
1.0346
0
LINE
8
BLACK
6
CONTINUOUS
10
1.2353000000000001
20
1.0346
11
1.2353000000000001
21
0.9362
0
LINE
8
BLACK
6
CONTINUOUS
10
1.0474999999999999
20
0.9475
11
0.9924999999999999
21
0.9475
0
LINE
8
BLACK
6
CONTINUOUS
10
0.9924999999999999
20
0.9475
11
0.9924999999999999
21
0.9824999999999999
0
LINE
8
BLACK
6
CONTINUOUS
10
0.9924999999999999
20
0.9824999999999999
11
1.0474999999999999
21
0.9824999999999999
0
LINE
8
BLACK
6
CONTINUOUS
10
1.0474999999999999
20
0.9824999999999999
11
1.0474999999999999
21
0.9475
0
LINE
8
BLACK
6
CONTINUOUS
10
0.6614960629921259
20
0.9529133858267717
11
0.598503937007874
21
0.9529133858267717
0
LINE
8
BLACK
6
CONTINUOUS
10
0.598503937007874
20
0.9529133858267717
11
0.598503937007874
21
0.9647244094488189
0
LINE
8
BLACK
6
CONTINUOUS
10
0.598503937007874
20
0.9647244094488189
11
0.6614960629921259
21
0.9647244094488189
0
LINE
8
BLACK
6
CONTINUOUS
10
0.6614960629921259
20
0.9647244094488189
11
0.6614960629921259
21
0.9529133858267717
0
LINE
8
BLACK
6
CONTINUOUS
10
0.8819685039370079
20
0.9529133858267717
11
0.8189763779527559
21
0.9529133858267717
0
LINE
8
BLACK
6
CONTINUOUS
10
0.8189763779527559
20
0.9529133858267717
11
0.8189763779527559
21
0.9647244094488189
0
LINE
8
BLACK
6
CONTINUOUS
10
0.8189763779527559
20
0.9647244094488189
11
0.8819685039370079
21
0.9647244094488189
0
LINE
8
BLACK
6
CONTINUOUS
10
0.8819685039370079
20
0.9647244094488189
11
0.8819685039370079
21
0.9529133858267717
0
LINE
8
BLACK
6
CONTINUOUS
10
0.37
20
0.9725
11
0.335
21
0.9725
0
LINE
8
BLACK
6
CONTINUOUS
10
0.335
20
0.9725
11
0.335
21
1.0275000000000001
0
LINE
8
BLACK
6
CONTINUOUS
10
0.335
20
1.0275000000000001
11
0.37
21
1.0275000000000001
0
LINE
8
BLACK
6
CONTINUOUS
10
0.37
20
1.0275000000000001
11
0.37
21
0.9725
0
LINE
8
BLACK
6
CONTINUOUS
10
0.445
20
0.9725
11
0.41
21
0.9725
0
LINE
8
BLACK
6
CONTINUOUS
10
0.41
20
0.9725
11
0.41
21
1.0275000000000001
0
LINE
8
BLACK
6
CONTINUOUS
10
0.41
20
1.0275000000000001
11
0.445
21
1.0275000000000001
0
LINE
8
BLACK
6
CONTINUOUS
10
0.445
20
1.0275000000000001
11
0.445
21
0.9725
0
LINE
8
BLACK
6
CONTINUOUS
10
0.6614960629921259
20
0.978503937007874
11
0.598503937007874
21
0.978503937007874
0
LINE
8
BLACK
6
CONTINUOUS
10
0.598503937007874
20
0.978503937007874
11
0.598503937007874
21
0.9903149606299212
0
LINE
8
BLACK
6
CONTINUOUS
10
0.598503937007874
20
0.9903149606299212
11
0.6614960629921259
21
0.9903149606299212
0
LINE
8
BLACK
6
CONTINUOUS
10
0.6614960629921259
20
0.9903149606299212
11
0.6614960629921259
21
0.978503937007874
0
LINE
8
BLACK
6
CONTINUOUS
10
0.8819685039370079
20
0.978503937007874
11
0.8189763779527559
21
0.978503937007874
0
LINE
8
BLACK
6
CONTINUOUS
10
0.8189763779527559
20
0.978503937007874
11
0.8189763779527559
21
0.9903149606299212
0
LINE
8
BLACK
6
CONTINUOUS
10
0.8189763779527559
20
0.9903149606299212
11
0.8819685039370079
21
0.9903149606299212
0
LINE
8
BLACK
6
CONTINUOUS
10
0.8819685039370079
20
0.9903149606299212
11
0.8819685039370079
21
0.978503937007874
0
LINE
8
BLACK
6
CONTINUOUS
10
0.6614960629921259
20
1.0040944881889764
11
0.598503937007874
21
1.0040944881889764
0
LINE
8
BLACK
6
CONTINUOUS
10
0.598503937007874
20
1.0040944881889764
11
0.598503937007874
21
1.0159055118110236
0
LINE
8
BLACK
6
CONTINUOUS
10
0.598503937007874
20
1.0159055118110236
11
0.6614960629921259
21
1.0159055118110236
0
LINE
8
BLACK
6
CONTINUOUS
10
0.6614960629921259
20
1.0159055118110236
11
0.6614960629921259
21
1.0040944881889764
0
LINE
8
BLACK
6
CONTINUOUS
10
0.8819685039370079
20
1.0040944881889764
11
0.8189763779527559
21
1.0040944881889764
0
LINE
8
BLACK
6
CONTINUOUS
10
0.8189763779527559
20
1.0040944881889764
11
0.8189763779527559
21
1.0159055118110236
0
LINE
8
BLACK
6
CONTINUOUS
10
0.8189763779527559
20
1.0159055118110236
11
0.8819685039370079
21
1.0159055118110236
0
LINE
8
BLACK
6
CONTINUOUS
10
0.8819685039370079
20
1.0159055118110236
11
0.8819685039370079
21
1.0040944881889764
0
LINE
8
BLACK
6
CONTINUOUS
10
0.95
20
1.0249999999999999
11
0.9149999999999999
21
1.0249999999999999
0
LINE
8
BLACK
6
CONTINUOUS
10
0.9149999999999999
20
1.0249999999999999
11
0.9149999999999999
21
1.0800000000000001
0
LINE
8
BLACK
6
CONTINUOUS
10
0.9149999999999999
20
1.0800000000000001
11
0.95
21
1.0800000000000001
0
LINE
8
BLACK
6
CONTINUOUS
10
0.95
20
1.0800000000000001
11
0.95
21
1.0249999999999999
0
LINE
8
BLACK
6
CONTINUOUS
10
1.0249999999999999
20
1.0249999999999999
11
0.99
21
1.0249999999999999
0
LINE
8
BLACK
6
CONTINUOUS
10
0.99
20
1.0249999999999999
11
0.99
21
1.0800000000000001
0
LINE
8
BLACK
6
CONTINUOUS
10
0.99
20
1.0800000000000001
11
1.0249999999999999
21
1.0800000000000001
0
LINE
8
BLACK
6
CONTINUOUS
10
1.0249999999999999
20
1.0800000000000001
11
1.0249999999999999
21
1.0249999999999999
0
LINE
8
BLACK
6
CONTINUOUS
10
0.6614960629921259
20
1.0296850393700787
11
0.598503937007874
21
1.0296850393700787
0
LINE
8
BLACK
6
CONTINUOUS
10
0.598503937007874
20
1.0296850393700787
11
0.598503937007874
21
1.0414960629921259
0
LINE
8
BLACK
6
CONTINUOUS
10
0.598503937007874
20
1.0414960629921259
11
0.6614960629921259
21
1.0414960629921259
0
LINE
8
BLACK
6
CONTINUOUS
10
0.6614960629921259
20
1.0414960629921259
11
0.6614960629921259
21
1.0296850393700787
0
LINE
8
BLACK
6
CONTINUOUS
10
0.8819685039370079
20
1.0296850393700787
11
0.8189763779527559
21
1.0296850393700787
0
LINE
8
BLACK
6
CONTINUOUS
10
0.8189763779527559
20
1.0296850393700787
11
0.8189763779527559
21
1.0414960629921259
0
LINE
8
BLACK
6
CONTINUOUS
10
0.8189763779527559
20
1.0414960629921259
11
0.8819685039370079
21
1.0414960629921259
0
LINE
8
BLACK
6
CONTINUOUS
10
0.8819685039370079
20
1.0414960629921259
11
0.8819685039370079
21
1.0296850393700787
0
LINE
8
BLACK
6
CONTINUOUS
10
0.37
20
1.0525
11
0.335
21
1.0525
0
LINE
8
BLACK
6
CONTINUOUS
10
0.335
20
1.0525
11
0.335
21
1.1074999999999999
0
LINE
8
BLACK
6
CONTINUOUS
10
0.335
20
1.1074999999999999
11
0.37
21
1.1074999999999999
0
LINE
8
BLACK
6
CONTINUOUS
10
0.37
20
1.1074999999999999
11
0.37
21
1.0525
0
LINE
8
BLACK
6
CONTINUOUS
10
0.445
20
1.0525
11
0.41
21
1.0525
0
LINE
8
BLACK
6
CONTINUOUS
10
0.41
20
1.0525
11
0.41
21
1.1074999999999999
0
LINE
8
BLACK
6
CONTINUOUS
10
0.41
20
1.1074999999999999
11
0.445
21
1.1074999999999999
0
LINE
8
BLACK
6
CONTINUOUS
10
0.445
20
1.1074999999999999
11
0.445
21
1.0525
0
LINE
8
BLACK
6
CONTINUOUS
10
0.6675
20
1.0825
11
0.6124999999999999
21
1.0825
0
LINE
8
BLACK
6
CONTINUOUS
10
0.6124999999999999
20
1.0825
11
0.6124999999999999
21
1.1174999999999999
0
LINE
8
BLACK
6
CONTINUOUS
10
0.6124999999999999
20
1.1174999999999999
11
0.6675
21
1.1174999999999999
0
LINE
8
BLACK
6
CONTINUOUS
10
0.6675
20
1.1174999999999999
11
0.6675
21
1.0825
0
LINE
8
BLACK
6
CONTINUOUS
10
0.5575
20
1.085
11
0.5024999999999999
21
1.085
0
LINE
8
BLACK
6
CONTINUOUS
10
0.5024999999999999
20
1.085
11
0.5024999999999999
21
1.1199999999999999
0
LINE
8
BLACK
6
CONTINUOUS
10
0.5024999999999999
20
1.1199999999999999
11
0.5575
21
1.1199999999999999
0
LINE
8
BLACK
6
CONTINUOUS
10
0.5575
20
1.1199999999999999
11
0.5575
21
1.085
0
LINE
8
BLACK
6
CONTINUOUS
10
1.2353000000000001
20
1.1053999999999999
11
1.1447000000000001
21
1.1053999999999999
0
LINE
8
BLACK
6
CONTINUOUS
10
1.1447000000000001
20
1.1053999999999999
11
1.1447000000000001
21
1.2038
0
LINE
8
BLACK
6
CONTINUOUS
10
1.1447000000000001
20
1.2038
11
1.2353000000000001
21
1.2038
0
LINE
8
BLACK
6
CONTINUOUS
10
1.2353000000000001
20
1.2038
11
1.2353000000000001
21
1.1053999999999999
0
LINE
8
BLACK
6
CONTINUOUS
10
0.37
20
1.1325000000000001
11
0.335
21
1.1325000000000001
0
LINE
8
BLACK
6
CONTINUOUS
10
0.335
20
1.1325000000000001
11
0.335
21
1.1875
0
LINE
8
BLACK
6
CONTINUOUS
10
0.335
20
1.1875
11
0.37
21
1.1875
0
LINE
8
BLACK
6
CONTINUOUS
10
0.37
20
1.1875
11
0.37
21
1.1325000000000001
0
LINE
8
BLACK
6
CONTINUOUS
10
0.445
20
1.1325000000000001
11
0.41
21
1.1325000000000001
0
LINE
8
BLACK
6
CONTINUOUS
10
0.41
20
1.1325000000000001
11
0.41
21
1.1875
0
LINE
8
BLACK
6
CONTINUOUS
10
0.41
20
1.1875
11
0.445
21
1.1875
0
LINE
8
BLACK
6
CONTINUOUS
10
0.445
20
1.1875
11
0.445
21
1.1325000000000001
0
LINE
8
BLACK
6
CONTINUOUS
10
0.9399999999999999
20
1.1347
11
0.8416
21
1.1347
0
LINE
8
BLACK
6
CONTINUOUS
10
0.8416
20
1.1347
11
0.8416
21
1.2253000000000001
0
LINE
8
BLACK
6
CONTINUOUS
10
0.8416
20
1.2253000000000001
11
0.9399999999999999
21
1.2253000000000001
0
LINE
8
BLACK
6
CONTINUOUS
10
0.9399999999999999
20
1.2253000000000001
11
0.9399999999999999
21
1.1347
0
LINE
8
BLACK
6
CONTINUOUS
10
1.1092
20
1.1347
11
1.0107999999999999
21
1.1347
0
LINE
8
BLACK
6
CONTINUOUS
10
1.0107999999999999
20
1.1347
11
1.0107999999999999
21
1.2253000000000001
0
LINE
8
BLACK
6
CONTINUOUS
10
1.0107999999999999
20
1.2253000000000001
11
1.1092
21
1.2253000000000001
0
LINE
8
BLACK
6
CONTINUOUS
10
1.1092
20
1.2253000000000001
11
1.1092
21
1.1347
0
LINE
8
BLACK
6
CONTINUOUS
10
0.6675
20
1.1575
11
0.6124999999999999
21
1.1575
0
LINE
8
BLACK
6
CONTINUOUS
10
0.6124999999999999
20
1.1575
11
0.6124999999999999
21
1.1924999999999999
0
LINE
8
BLACK
6
CONTINUOUS
10
0.6124999999999999
20
1.1924999999999999
11
0.6675
21
1.1924999999999999
0
LINE
8
BLACK
6
CONTINUOUS
10
0.6675
20
1.1924999999999999
11
0.6675
21
1.1575
0
LINE
8
BLACK
6
CONTINUOUS
10
0.5575
20
1.1599999999999999
11
0.5024999999999999
21
1.1599999999999999
0
LINE
8
BLACK
6
CONTINUOUS
10
0.5024999999999999
20
1.1599999999999999
11
0.5024999999999999
21
1.1950000000000001
0
LINE
8
BLACK
6
CONTINUOUS
10
0.5024999999999999
20
1.1950000000000001
11
0.5575
21
1.1950000000000001
0
LINE
8
BLACK
6
CONTINUOUS
10
0.5575
20
1.1950000000000001
11
0.5575
21
1.1599999999999999
0
LINE
8
BLACK
6
CONTINUOUS
10
0.36
20
1.2224999999999999
11
0.325
21
1.2224999999999999
0
LINE
8
BLACK
6
CONTINUOUS
10
0.325
20
1.2224999999999999
11
0.325
21
1.2775000000000001
0
LINE
8
BLACK
6
CONTINUOUS
10
0.325
20
1.2775000000000001
11
0.36
21
1.2775000000000001
0
LINE
8
BLACK
6
CONTINUOUS
10
0.36
20
1.2775000000000001
11
0.36
21
1.2224999999999999
0
LINE
8
BLACK
6
CONTINUOUS
10
0.435
20
1.2224999999999999
11
0.4
21
1.2224999999999999
0
LINE
8
BLACK
6
CONTINUOUS
10
0.4
20
1.2224999999999999
11
0.4
21
1.2775000000000001
0
LINE
8
BLACK
6
CONTINUOUS
10
0.4
20
1.2775000000000001
11
0.435
21
1.2775000000000001
0
LINE
8
BLACK
6
CONTINUOUS
10
0.435
20
1.2775000000000001
11
0.435
21
1.2224999999999999
0
LINE
8
BLACK
6
CONTINUOUS
10
0.5
20
1.2224999999999999
11
0.465
21
1.2224999999999999
0
LINE
8
BLACK
6
CONTINUOUS
10
0.465
20
1.2224999999999999
11
0.465
21
1.2775000000000001
0
LINE
8
BLACK
6
CONTINUOUS
10
0.465
20
1.2775000000000001
11
0.5
21
1.2775000000000001
0
LINE
8
BLACK
6
CONTINUOUS
10
0.5
20
1.2775000000000001
11
0.5
21
1.2224999999999999
0
LINE
8
BLACK
6
CONTINUOUS
10
0.575
20
1.2224999999999999
11
0.54
21
1.2224999999999999
0
LINE
8
BLACK
6
CONTINUOUS
10
0.54
20
1.2224999999999999
11
0.54
21
1.2775000000000001
0
LINE
8
BLACK
6
CONTINUOUS
10
0.54
20
1.2775000000000001
11
0.575
21
1.2775000000000001
0
LINE
8
BLACK
6
CONTINUOUS
10
0.575
20
1.2775000000000001
11
0.575
21
1.2224999999999999
0
LINE
8
BLACK
6
CONTINUOUS
10
0.65
20
1.2249999999999999
11
0.615
21
1.2249999999999999
0
LINE
8
BLACK
6
CONTINUOUS
10
0.615
20
1.2249999999999999
11
0.615
21
1.28
0
LINE
8
BLACK
6
CONTINUOUS
10
0.615
20
1.28
11
0.65
21
1.28
0
LINE
8
BLACK
6
CONTINUOUS
10
0.65
20
1.28
11
0.65
21
1.2249999999999999
0
LINE
8
BLACK
6
CONTINUOUS
10
0.725
20
1.2249999999999999
11
0.6899999999999999
21
1.2249999999999999
0
LINE
8
BLACK
6
CONTINUOUS
10
0.6899999999999999
20
1.2249999999999999
11
0.6899999999999999
21
1.28
0
LINE
8
BLACK
6
CONTINUOUS
10
0.6899999999999999
20
1.28
11
0.725
21
1.28
0
LINE
8
BLACK
6
CONTINUOUS
10
0.725
20
1.28
11
0.725
21
1.2249999999999999
0
LINE
8
BLACK
6
CONTINUOUS
10
0.4375
20
1.345
11
0.3825
21
1.345
0
LINE
8
BLACK
6
CONTINUOUS
10
0.3825
20
1.345
11
0.3825
21
1.3799999999999999
0
LINE
8
BLACK
6
CONTINUOUS
10
0.3825
20
1.3799999999999999
11
0.4375
21
1.3799999999999999
0
LINE
8
BLACK
6
CONTINUOUS
10
0.4375
20
1.3799999999999999
11
0.4375
21
1.345
0
LINE
8
BLACK
6
CONTINUOUS
10
0.4375
20
1.4199999999999999
11
0.3825
21
1.4199999999999999
0
LINE
8
BLACK
6
CONTINUOUS
10
0.3825
20
1.4199999999999999
11
0.3825
21
1.4550000000000001
0
LINE
8
BLACK
6
CONTINUOUS
10
0.3825
20
1.4550000000000001
11
0.4375
21
1.4550000000000001
0
LINE
8
BLACK
6
CONTINUOUS
10
0.4375
20
1.4550000000000001
11
0.4375
21
1.4199999999999999
  0
ENDSEC
  0
EOF
