  0
SECTION
  2
HEADER
  9
$ANGBASE
  50
0.0
  9
$ANGDIR
  70
1
  9
$MEASUREMENT
  70
0
  0
ENDSEC
  0
SECTION
  2
TABLES
  0
TABLE
  2
LTYPE
  70
4
  0
LTYPE
  5
40F
  2
CONTINUOUS
  70
0
  3
Solid line
  72
65
  73
0
  40
0.0
  0
LTYPE
  5
410
  2
DASHDOT
 70
0
  3
Dash Dot ____ _ ____ _
 72
65
 73
4
 40
2.0
 49
1.25
 49
-0.25
 49
0.25
 49
-0.25
  0
LTYPE
  5
411
  2
DASHED
 70
0
  3
Dashed __ __ __ __ __
 72
65
 73
2
 40
0.75
 49
0.5
 49
-0.25
  0
LTYPE
  5
43B
  2
DOTTED
 70
0
  3
Dotted .  .  .  .
 72
65
 73
2
 40
0.2
 49
0.0
 49
-0.2
  0
ENDTAB
  0
TABLE
  2
STYLE
  70
4
  0
STYLE
  2
KICAD
  70
0
  40
0
  41
1
  42
1
  50
0
  71
0
  3
isocp.shx
  0
STYLE
  2
KICADB
  70
0
  40
0
  41
1
  42
1
  50
0
  71
0
  3
isocp.shx
  0
STYLE
  2
KICADI
  70
0
  40
0
  41
1
  42
1
  50
15
  71
0
  3
isocp.shx
  0
STYLE
  2
KICADBI
  70
0
  40
0
  41
1
  42
1
  50
15
  71
0
  3
isocp.shx
  0
ENDTAB
  0
TABLE
  2
LAYER
  70
1
  0
LAYER
  2
BLACK
  70
0
  62
7
  6
CONTINUOUS
  0
ENDTAB
  0
ENDSEC
  0
SECTION
  2
ENTITIES
0
LINE
8
BLACK
6
CONTINUOUS
10
0.2205096456692913
20
0.3163158661417323
11
0.2338744094488189
21
0.3131483858267716
0
LINE
8
BLACK
6
CONTINUOUS
10
0.2338744094488189
20
0.3131483858267716
11
0.246781062992126
21
0.3084507086614173
0
LINE
8
BLACK
6
CONTINUOUS
10
0.246781062992126
20
0.3084507086614173
11
0.2590551181102362
21
0.3022864566929134
0
LINE
8
BLACK
6
CONTINUOUS
10
0.2590551181102362
20
0.3022864566929134
11
0.2705305511811024
21
0.2947389763779528
0
LINE
8
BLACK
6
CONTINUOUS
10
0.2705305511811024
20
0.2947389763779528
11
0.2810521653543307
21
0.2859102755905512
0
LINE
8
BLACK
6
CONTINUOUS
10
0.2810521653543307
20
0.2859102755905512
11
0.2904776771653543
21
0.2759198031496063
0
LINE
8
BLACK
6
CONTINUOUS
10
0.2904776771653543
20
0.2759198031496063
11
0.2986796456692913
21
0.2649026377952756
0
LINE
8
BLACK
6
CONTINUOUS
10
0.2986796456692913
20
0.2649026377952756
11
0.3055471653543307
21
0.2530077952755905
0
LINE
8
BLACK
6
CONTINUOUS
10
0.3055471653543307
20
0.2530077952755905
11
0.3109873228346456
21
0.240396062992126
0
LINE
8
BLACK
6
CONTINUOUS
10
0.3109873228346456
20
0.240396062992126
11
0.3149265748031496
21
0.2272381102362205
0
LINE
8
BLACK
6
CONTINUOUS
10
0.3149265748031496
20
0.2272381102362205
11
0.3173116141732283
21
0.2137117716535433
0
LINE
8
BLACK
6
CONTINUOUS
10
0.3173116141732283
20
0.2137117716535433
11
0.3181102362204724
21
0.2
0
LINE
8
BLACK
6
CONTINUOUS
10
0.3181102362204724
20
0.2
11
0.3173116141732283
21
0.1862882283464567
0
LINE
8
BLACK
6
CONTINUOUS
10
0.3173116141732283
20
0.1862882283464567
11
0.3149265748031496
21
0.1727618897637795
0
LINE
8
BLACK
6
CONTINUOUS
10
0.3149265748031496
20
0.1727618897637795
11
0.3109873228346456
21
0.159603937007874
0
LINE
8
BLACK
6
CONTINUOUS
10
0.3109873228346456
20
0.159603937007874
11
0.3055471653543307
21
0.1469922047244094
0
LINE
8
BLACK
6
CONTINUOUS
10
0.3055471653543307
20
0.1469922047244094
11
0.2986796456692913
21
0.1350973622047244
0
LINE
8
BLACK
6
CONTINUOUS
10
0.2986796456692913
20
0.1350973622047244
11
0.2904776771653543
21
0.1240801968503937
0
LINE
8
BLACK
6
CONTINUOUS
10
0.2904776771653543
20
0.1240801968503937
11
0.2810521653543307
21
0.1140897244094488
0
LINE
8
BLACK
6
CONTINUOUS
10
0.2810521653543307
20
0.1140897244094488
11
0.2705305511811024
21
0.1052610236220472
0
LINE
8
BLACK
6
CONTINUOUS
10
0.2705305511811024
20
0.1052610236220472
11
0.2590551181102362
21
0.0977135433070866
0
LINE
8
BLACK
6
CONTINUOUS
10
0.2590551181102362
20
0.0977135433070866
11
0.246781062992126
21
0.0915492913385827
0
LINE
8
BLACK
6
CONTINUOUS
10
0.246781062992126
20
0.0915492913385827
11
0.2338744094488189
21
0.0868516141732283
0
LINE
8
BLACK
6
CONTINUOUS
10
0.2338744094488189
20
0.0868516141732283
11
0.2205096456692913
21
0.0836841338582677
0
LINE
8
BLACK
6
CONTINUOUS
10
0.2205096456692913
20
0.0836841338582677
11
0.2068674803149606
21
0.0820896062992126
0
LINE
8
BLACK
6
CONTINUOUS
10
0.2068674803149606
20
0.0820896062992126
11
0.1931325196850394
21
0.0820896062992126
0
LINE
8
BLACK
6
CONTINUOUS
10
0.1931325196850394
20
0.0820896062992126
11
0.1794903543307086
21
0.0836841338582677
0
LINE
8
BLACK
6
CONTINUOUS
10
0.1794903543307086
20
0.0836841338582677
11
0.1661255905511811
21
0.0868516141732283
0
LINE
8
BLACK
6
CONTINUOUS
10
0.1661255905511811
20
0.0868516141732283
11
0.153218937007874
21
0.0915492913385827
0
LINE
8
BLACK
6
CONTINUOUS
10
0.153218937007874
20
0.0915492913385827
11
0.1409448818897638
21
0.0977135433070866
0
LINE
8
BLACK
6
CONTINUOUS
10
0.1409448818897638
20
0.0977135433070866
11
0.1294694488188976
21
0.1052610236220472
0
LINE
8
BLACK
6
CONTINUOUS
10
0.1294694488188976
20
0.1052610236220472
11
0.1189478346456693
21
0.1140897244094488
0
LINE
8
BLACK
6
CONTINUOUS
10
0.1189478346456693
20
0.1140897244094488
11
0.1095223228346457
21
0.1240801968503937
0
LINE
8
BLACK
6
CONTINUOUS
10
0.1095223228346457
20
0.1240801968503937
11
0.1013203543307087
21
0.1350973622047244
0
LINE
8
BLACK
6
CONTINUOUS
10
0.1013203543307087
20
0.1350973622047244
11
0.0944528346456693
21
0.1469922047244094
0
LINE
8
BLACK
6
CONTINUOUS
10
0.0944528346456693
20
0.1469922047244094
11
0.0890126771653543
21
0.159603937007874
0
LINE
8
BLACK
6
CONTINUOUS
10
0.0890126771653543
20
0.159603937007874
11
0.0850734251968504
21
0.1727618897637795
0
LINE
8
BLACK
6
CONTINUOUS
10
0.0850734251968504
20
0.1727618897637795
11
0.0826883858267717
21
0.1862882283464567
0
LINE
8
BLACK
6
CONTINUOUS
10
0.0826883858267717
20
0.1862882283464567
11
0.0818897637795276
21
0.2
0
LINE
8
BLACK
6
CONTINUOUS
10
0.0818897637795276
20
0.2
11
0.0826883858267717
21
0.2137117716535433
0
LINE
8
BLACK
6
CONTINUOUS
10
0.0826883858267717
20
0.2137117716535433
11
0.0850734251968504
21
0.2272381102362205
0
LINE
8
BLACK
6
CONTINUOUS
10
0.0850734251968504
20
0.2272381102362205
11
0.0890126771653543
21
0.240396062992126
0
LINE
8
BLACK
6
CONTINUOUS
10
0.0890126771653543
20
0.240396062992126
11
0.0944528346456693
21
0.2530077952755905
0
LINE
8
BLACK
6
CONTINUOUS
10
0.0944528346456693
20
0.2530077952755905
11
0.1013203543307087
21
0.2649026377952756
0
LINE
8
BLACK
6
CONTINUOUS
10
0.1013203543307087
20
0.2649026377952756
11
0.1095223228346457
21
0.2759198031496063
0
LINE
8
BLACK
6
CONTINUOUS
10
0.1095223228346457
20
0.2759198031496063
11
0.1189478346456693
21
0.2859102755905512
0
LINE
8
BLACK
6
CONTINUOUS
10
0.1189478346456693
20
0.2859102755905512
11
0.1294694488188976
21
0.2947389763779528
0
LINE
8
BLACK
6
CONTINUOUS
10
0.1294694488188976
20
0.2947389763779528
11
0.1409448818897638
21
0.3022864566929134
0
LINE
8
BLACK
6
CONTINUOUS
10
0.1409448818897638
20
0.3022864566929134
11
0.153218937007874
21
0.3084507086614173
0
LINE
8
BLACK
6
CONTINUOUS
10
0.153218937007874
20
0.3084507086614173
11
0.1661255905511811
21
0.3131483858267716
0
LINE
8
BLACK
6
CONTINUOUS
10
0.1661255905511811
20
0.3131483858267716
11
0.1794903543307086
21
0.3163158661417323
0
LINE
8
BLACK
6
CONTINUOUS
10
0.1794903543307086
20
0.3163158661417323
11
0.1931325196850394
21
0.3179103937007874
0
LINE
8
BLACK
6
CONTINUOUS
10
0.1931325196850394
20
0.3179103937007874
11
0.2068674803149606
21
0.3179103937007874
0
LINE
8
BLACK
6
CONTINUOUS
10
0.2068674803149606
20
0.3179103937007874
11
0.2205096456692913
21
0.3163158661417323
0
LINE
8
BLACK
6
CONTINUOUS
10
1.4205096456692914
20
0.3163158661417323
11
1.4338744094488189
21
0.3131483858267716
0
LINE
8
BLACK
6
CONTINUOUS
10
1.4338744094488189
20
0.3131483858267716
11
1.4467810629921261
21
0.3084507086614173
0
LINE
8
BLACK
6
CONTINUOUS
10
1.4467810629921261
20
0.3084507086614173
11
1.4590551181102362
21
0.3022864566929134
0
LINE
8
BLACK
6
CONTINUOUS
10
1.4590551181102362
20
0.3022864566929134
11
1.4705305511811024
21
0.2947389763779528
0
LINE
8
BLACK
6
CONTINUOUS
10
1.4705305511811024
20
0.2947389763779528
11
1.4810521653543307
21
0.2859102755905512
0
LINE
8
BLACK
6
CONTINUOUS
10
1.4810521653543307
20
0.2859102755905512
11
1.4904776771653543
21
0.2759198031496063
0
LINE
8
BLACK
6
CONTINUOUS
10
1.4904776771653543
20
0.2759198031496063
11
1.4986796456692912
21
0.2649026377952756
0
LINE
8
BLACK
6
CONTINUOUS
10
1.4986796456692912
20
0.2649026377952756
11
1.5055471653543306
21
0.2530077952755905
0
LINE
8
BLACK
6
CONTINUOUS
10
1.5055471653543306
20
0.2530077952755905
11
1.5109873228346455
21
0.240396062992126
0
LINE
8
BLACK
6
CONTINUOUS
10
1.5109873228346455
20
0.240396062992126
11
1.5149265748031495
21
0.2272381102362205
0
LINE
8
BLACK
6
CONTINUOUS
10
1.5149265748031495
20
0.2272381102362205
11
1.5173116141732284
21
0.2137117716535433
0
LINE
8
BLACK
6
CONTINUOUS
10
1.5173116141732284
20
0.2137117716535433
11
1.5181102362204724
21
0.2
0
LINE
8
BLACK
6
CONTINUOUS
10
1.5181102362204724
20
0.2
11
1.5173116141732284
21
0.1862882283464567
0
LINE
8
BLACK
6
CONTINUOUS
10
1.5173116141732284
20
0.1862882283464567
11
1.5149265748031495
21
0.1727618897637795
0
LINE
8
BLACK
6
CONTINUOUS
10
1.5149265748031495
20
0.1727618897637795
11
1.5109873228346455
21
0.159603937007874
0
LINE
8
BLACK
6
CONTINUOUS
10
1.5109873228346455
20
0.159603937007874
11
1.5055471653543306
21
0.1469922047244094
0
LINE
8
BLACK
6
CONTINUOUS
10
1.5055471653543306
20
0.1469922047244094
11
1.4986796456692912
21
0.1350973622047244
0
LINE
8
BLACK
6
CONTINUOUS
10
1.4986796456692912
20
0.1350973622047244
11
1.4904776771653543
21
0.1240801968503937
0
LINE
8
BLACK
6
CONTINUOUS
10
1.4904776771653543
20
0.1240801968503937
11
1.4810521653543307
21
0.1140897244094488
0
LINE
8
BLACK
6
CONTINUOUS
10
1.4810521653543307
20
0.1140897244094488
11
1.4705305511811024
21
0.1052610236220472
0
LINE
8
BLACK
6
CONTINUOUS
10
1.4705305511811024
20
0.1052610236220472
11
1.4590551181102362
21
0.0977135433070866
0
LINE
8
BLACK
6
CONTINUOUS
10
1.4590551181102362
20
0.0977135433070866
11
1.4467810629921261
21
0.0915492913385827
0
LINE
8
BLACK
6
CONTINUOUS
10
1.4467810629921261
20
0.0915492913385827
11
1.4338744094488189
21
0.0868516141732283
0
LINE
8
BLACK
6
CONTINUOUS
10
1.4338744094488189
20
0.0868516141732283
11
1.4205096456692914
21
0.0836841338582677
0
LINE
8
BLACK
6
CONTINUOUS
10
1.4205096456692914
20
0.0836841338582677
11
1.4068674803149606
21
0.0820896062992126
0
LINE
8
BLACK
6
CONTINUOUS
10
1.4068674803149606
20
0.0820896062992126
11
1.3931325196850393
21
0.0820896062992126
0
LINE
8
BLACK
6
CONTINUOUS
10
1.3931325196850393
20
0.0820896062992126
11
1.3794903543307087
21
0.0836841338582677
0
LINE
8
BLACK
6
CONTINUOUS
10
1.3794903543307087
20
0.0836841338582677
11
1.3661255905511811
21
0.0868516141732283
0
LINE
8
BLACK
6
CONTINUOUS
10
1.3661255905511811
20
0.0868516141732283
11
1.353218937007874
21
0.0915492913385827
0
LINE
8
BLACK
6
CONTINUOUS
10
1.353218937007874
20
0.0915492913385827
11
1.3409448818897638
21
0.0977135433070866
0
LINE
8
BLACK
6
CONTINUOUS
10
1.3409448818897638
20
0.0977135433070866
11
1.3294694488188976
21
0.1052610236220472
0
LINE
8
BLACK
6
CONTINUOUS
10
1.3294694488188976
20
0.1052610236220472
11
1.3189478346456693
21
0.1140897244094488
0
LINE
8
BLACK
6
CONTINUOUS
10
1.3189478346456693
20
0.1140897244094488
11
1.3095223228346455
21
0.1240801968503937
0
LINE
8
BLACK
6
CONTINUOUS
10
1.3095223228346455
20
0.1240801968503937
11
1.3013203543307086
21
0.1350973622047244
0
LINE
8
BLACK
6
CONTINUOUS
10
1.3013203543307086
20
0.1350973622047244
11
1.2944528346456692
21
0.1469922047244094
0
LINE
8
BLACK
6
CONTINUOUS
10
1.2944528346456692
20
0.1469922047244094
11
1.2890126771653543
21
0.159603937007874
0
LINE
8
BLACK
6
CONTINUOUS
10
1.2890126771653543
20
0.159603937007874
11
1.2850734251968503
21
0.1727618897637795
0
LINE
8
BLACK
6
CONTINUOUS
10
1.2850734251968503
20
0.1727618897637795
11
1.2826883858267717
21
0.1862882283464567
0
LINE
8
BLACK
6
CONTINUOUS
10
1.2826883858267717
20
0.1862882283464567
11
1.2818897637795275
21
0.2
0
LINE
8
BLACK
6
CONTINUOUS
10
1.2818897637795275
20
0.2
11
1.2826883858267717
21
0.2137117716535433
0
LINE
8
BLACK
6
CONTINUOUS
10
1.2826883858267717
20
0.2137117716535433
11
1.2850734251968503
21
0.2272381102362205
0
LINE
8
BLACK
6
CONTINUOUS
10
1.2850734251968503
20
0.2272381102362205
11
1.2890126771653543
21
0.240396062992126
0
LINE
8
BLACK
6
CONTINUOUS
10
1.2890126771653543
20
0.240396062992126
11
1.2944528346456692
21
0.2530077952755905
0
LINE
8
BLACK
6
CONTINUOUS
10
1.2944528346456692
20
0.2530077952755905
11
1.3013203543307086
21
0.2649026377952756
0
LINE
8
BLACK
6
CONTINUOUS
10
1.3013203543307086
20
0.2649026377952756
11
1.3095223228346455
21
0.2759198031496063
0
LINE
8
BLACK
6
CONTINUOUS
10
1.3095223228346455
20
0.2759198031496063
11
1.3189478346456693
21
0.2859102755905512
0
LINE
8
BLACK
6
CONTINUOUS
10
1.3189478346456693
20
0.2859102755905512
11
1.3294694488188976
21
0.2947389763779528
0
LINE
8
BLACK
6
CONTINUOUS
10
1.3294694488188976
20
0.2947389763779528
11
1.3409448818897638
21
0.3022864566929134
0
LINE
8
BLACK
6
CONTINUOUS
10
1.3409448818897638
20
0.3022864566929134
11
1.353218937007874
21
0.3084507086614173
0
LINE
8
BLACK
6
CONTINUOUS
10
1.353218937007874
20
0.3084507086614173
11
1.3661255905511811
21
0.3131483858267716
0
LINE
8
BLACK
6
CONTINUOUS
10
1.3661255905511811
20
0.3131483858267716
11
1.3794903543307087
21
0.3163158661417323
0
LINE
8
BLACK
6
CONTINUOUS
10
1.3794903543307087
20
0.3163158661417323
11
1.3931325196850393
21
0.3179103937007874
0
LINE
8
BLACK
6
CONTINUOUS
10
1.3931325196850393
20
0.3179103937007874
11
1.4068674803149606
21
0.3179103937007874
0
LINE
8
BLACK
6
CONTINUOUS
10
1.4068674803149606
20
0.3179103937007874
11
1.4205096456692914
21
0.3163158661417323
0
LINE
8
BLACK
6
CONTINUOUS
10
1.1490866141732283
20
0.4139593700787402
11
1.1545564173228346
21
0.4110886220472441
0
LINE
8
BLACK
6
CONTINUOUS
10
1.1545564173228346
20
0.4110886220472441
11
1.1591802755905511
21
0.4069922440944882
0
LINE
8
BLACK
6
CONTINUOUS
10
1.1591802755905511
20
0.4069922440944882
11
1.1626894094488189
21
0.4019083464566929
0
LINE
8
BLACK
6
CONTINUOUS
10
1.1626894094488189
20
0.4019083464566929
11
1.1648799606299212
21
0.3961323622047244
0
LINE
8
BLACK
6
CONTINUOUS
10
1.1648799606299212
20
0.3961323622047244
11
1.1656245669291339
21
0.39
0
LINE
8
BLACK
6
CONTINUOUS
10
1.1656245669291339
20
0.39
11
1.1648799606299212
21
0.3838676377952756
0
LINE
8
BLACK
6
CONTINUOUS
10
1.1648799606299212
20
0.3838676377952756
11
1.1626894094488189
21
0.3780916535433071
0
LINE
8
BLACK
6
CONTINUOUS
10
1.1626894094488189
20
0.3780916535433071
11
1.1591802755905511
21
0.3730077559055118
0
LINE
8
BLACK
6
CONTINUOUS
10
1.1591802755905511
20
0.3730077559055118
11
1.1545564173228346
21
0.3689113779527559
0
LINE
8
BLACK
6
CONTINUOUS
10
1.1545564173228346
20
0.3689113779527559
11
1.1490866141732283
21
0.3660406299212599
0
LINE
8
BLACK
6
CONTINUOUS
10
1.1490866141732283
20
0.3660406299212599
11
1.1430887007874015
21
0.3645622834645669
0
LINE
8
BLACK
6
CONTINUOUS
10
1.1430887007874015
20
0.3645622834645669
11
1.1369112992125985
21
0.3645622834645669
0
LINE
8
BLACK
6
CONTINUOUS
10
1.1369112992125985
20
0.3645622834645669
11
1.1309133858267717
21
0.3660406299212599
0
LINE
8
BLACK
6
CONTINUOUS
10
1.1309133858267717
20
0.3660406299212599
11
1.1254435826771654
21
0.3689113779527559
0
LINE
8
BLACK
6
CONTINUOUS
10
1.1254435826771654
20
0.3689113779527559
11
1.1208197244094489
21
0.3730077559055118
0
LINE
8
BLACK
6
CONTINUOUS
10
1.1208197244094489
20
0.3730077559055118
11
1.1173105905511811
21
0.3780916535433071
0
LINE
8
BLACK
6
CONTINUOUS
10
1.1173105905511811
20
0.3780916535433071
11
1.1151200393700786
21
0.3838676377952756
0
LINE
8
BLACK
6
CONTINUOUS
10
1.1151200393700786
20
0.3838676377952756
11
1.1143754330708662
21
0.39
0
LINE
8
BLACK
6
CONTINUOUS
10
1.1143754330708662
20
0.39
11
1.1151200393700786
21
0.3961323622047244
0
LINE
8
BLACK
6
CONTINUOUS
10
1.1151200393700786
20
0.3961323622047244
11
1.1173105905511811
21
0.4019083464566929
0
LINE
8
BLACK
6
CONTINUOUS
10
1.1173105905511811
20
0.4019083464566929
11
1.1208197244094489
21
0.4069922440944882
0
LINE
8
BLACK
6
CONTINUOUS
10
1.1208197244094489
20
0.4069922440944882
11
1.1254435826771654
21
0.4110886220472441
0
LINE
8
BLACK
6
CONTINUOUS
10
1.1254435826771654
20
0.4110886220472441
11
1.1309133858267717
21
0.4139593700787402
0
LINE
8
BLACK
6
CONTINUOUS
10
1.1309133858267717
20
0.4139593700787402
11
1.1369112992125985
21
0.415437716535433
0
LINE
8
BLACK
6
CONTINUOUS
10
1.1369112992125985
20
0.415437716535433
11
1.1430887007874015
21
0.415437716535433
0
LINE
8
BLACK
6
CONTINUOUS
10
1.1430887007874015
20
0.415437716535433
11
1.1490866141732283
21
0.4139593700787402
0
LINE
8
BLACK
6
CONTINUOUS
10
1.1389972047244095
20
0.3889972047244095
11
1.1399999999999999
21
0.388581811023622
0
LINE
8
BLACK
6
CONTINUOUS
10
1.1399999999999999
20
0.388581811023622
11
1.1410027952755906
21
0.3889972047244095
0
LINE
8
BLACK
6
CONTINUOUS
10
1.1410027952755906
20
0.3889972047244095
11
1.1414181889763779
21
0.39
0
LINE
8
BLACK
6
CONTINUOUS
10
1.1414181889763779
20
0.39
11
1.1410027952755906
21
0.3910027952755906
0
LINE
8
BLACK
6
CONTINUOUS
10
1.1410027952755906
20
0.3910027952755906
11
1.1399999999999999
21
0.3914181889763779
0
LINE
8
BLACK
6
CONTINUOUS
10
1.1399999999999999
20
0.3914181889763779
11
1.1389972047244095
21
0.3910027952755906
0
LINE
8
BLACK
6
CONTINUOUS
10
1.1389972047244095
20
0.3910027952755906
11
1.1385818110236221
21
0.39
0
LINE
8
BLACK
6
CONTINUOUS
10
1.1385818110236221
20
0.39
11
1.1389972047244095
21
0.3889972047244095
0
LINE
8
BLACK
6
CONTINUOUS
10
0.8744866141732284
20
0.4639593700787402
11
0.8799564173228346
21
0.4610886220472441
0
LINE
8
BLACK
6
CONTINUOUS
10
0.8799564173228346
20
0.4610886220472441
11
0.8845802755905512
21
0.4569922440944882
0
LINE
8
BLACK
6
CONTINUOUS
10
0.8845802755905512
20
0.4569922440944882
11
0.8880894094488189
21
0.4519083464566929
0
LINE
8
BLACK
6
CONTINUOUS
10
0.8880894094488189
20
0.4519083464566929
11
0.8902799606299212
21
0.4461323622047244
0
LINE
8
BLACK
6
CONTINUOUS
10
0.8902799606299212
20
0.4461323622047244
11
0.8910245669291338
21
0.44
0
LINE
8
BLACK
6
CONTINUOUS
10
0.8910245669291338
20
0.44
11
0.8902799606299212
21
0.4338676377952756
0
LINE
8
BLACK
6
CONTINUOUS
10
0.8902799606299212
20
0.4338676377952756
11
0.8880894094488189
21
0.4280916535433071
0
LINE
8
BLACK
6
CONTINUOUS
10
0.8880894094488189
20
0.4280916535433071
11
0.8845802755905512
21
0.4230077559055118
0
LINE
8
BLACK
6
CONTINUOUS
10
0.8845802755905512
20
0.4230077559055118
11
0.8799564173228346
21
0.4189113779527559
0
LINE
8
BLACK
6
CONTINUOUS
10
0.8799564173228346
20
0.4189113779527559
11
0.8744866141732284
21
0.4160406299212598
0
LINE
8
BLACK
6
CONTINUOUS
10
0.8744866141732284
20
0.4160406299212598
11
0.8684887007874016
21
0.4145622834645669
0
LINE
8
BLACK
6
CONTINUOUS
10
0.8684887007874016
20
0.4145622834645669
11
0.8623112992125984
21
0.4145622834645669
0
LINE
8
BLACK
6
CONTINUOUS
10
0.8623112992125984
20
0.4145622834645669
11
0.8563133858267716
21
0.4160406299212598
0
LINE
8
BLACK
6
CONTINUOUS
10
0.8563133858267716
20
0.4160406299212598
11
0.8508435826771653
21
0.4189113779527559
0
LINE
8
BLACK
6
CONTINUOUS
10
0.8508435826771653
20
0.4189113779527559
11
0.8462197244094488
21
0.4230077559055118
0
LINE
8
BLACK
6
CONTINUOUS
10
0.8462197244094488
20
0.4230077559055118
11
0.8427105905511811
21
0.4280916535433071
0
LINE
8
BLACK
6
CONTINUOUS
10
0.8427105905511811
20
0.4280916535433071
11
0.8405200393700787
21
0.4338676377952756
0
LINE
8
BLACK
6
CONTINUOUS
10
0.8405200393700787
20
0.4338676377952756
11
0.8397754330708661
21
0.44
0
LINE
8
BLACK
6
CONTINUOUS
10
0.8397754330708661
20
0.44
11
0.8405200393700787
21
0.4461323622047244
0
LINE
8
BLACK
6
CONTINUOUS
10
0.8405200393700787
20
0.4461323622047244
11
0.8427105905511811
21
0.4519083464566929
0
LINE
8
BLACK
6
CONTINUOUS
10
0.8427105905511811
20
0.4519083464566929
11
0.8462197244094488
21
0.4569922440944882
0
LINE
8
BLACK
6
CONTINUOUS
10
0.8462197244094488
20
0.4569922440944882
11
0.8508435826771653
21
0.4610886220472441
0
LINE
8
BLACK
6
CONTINUOUS
10
0.8508435826771653
20
0.4610886220472441
11
0.8563133858267716
21
0.4639593700787402
0
LINE
8
BLACK
6
CONTINUOUS
10
0.8563133858267716
20
0.4639593700787402
11
0.8623112992125984
21
0.465437716535433
0
LINE
8
BLACK
6
CONTINUOUS
10
0.8623112992125984
20
0.465437716535433
11
0.8684887007874016
21
0.465437716535433
0
LINE
8
BLACK
6
CONTINUOUS
10
0.8684887007874016
20
0.465437716535433
11
0.8744866141732284
21
0.4639593700787402
0
LINE
8
BLACK
6
CONTINUOUS
10
0.8643972047244094
20
0.4389972047244095
11
0.8653999999999999
21
0.438581811023622
0
LINE
8
BLACK
6
CONTINUOUS
10
0.8653999999999999
20
0.438581811023622
11
0.8664027952755905
21
0.4389972047244095
0
LINE
8
BLACK
6
CONTINUOUS
10
0.8664027952755905
20
0.4389972047244095
11
0.866818188976378
21
0.44
0
LINE
8
BLACK
6
CONTINUOUS
10
0.866818188976378
20
0.44
11
0.8664027952755905
21
0.4410027952755906
0
LINE
8
BLACK
6
CONTINUOUS
10
0.8664027952755905
20
0.4410027952755906
11
0.8653999999999999
21
0.441418188976378
0
LINE
8
BLACK
6
CONTINUOUS
10
0.8653999999999999
20
0.441418188976378
11
0.8643972047244094
21
0.4410027952755906
0
LINE
8
BLACK
6
CONTINUOUS
10
0.8643972047244094
20
0.4410027952755906
11
0.863981811023622
21
0.44
0
LINE
8
BLACK
6
CONTINUOUS
10
0.863981811023622
20
0.44
11
0.8643972047244094
21
0.4389972047244095
0
LINE
8
BLACK
6
CONTINUOUS
10
1.1790866141732284
20
0.6739593700787402
11
1.1845564173228347
21
0.6710886220472441
0
LINE
8
BLACK
6
CONTINUOUS
10
1.1845564173228347
20
0.6710886220472441
11
1.1891802755905512
21
0.6669922440944882
0
LINE
8
BLACK
6
CONTINUOUS
10
1.1891802755905512
20
0.6669922440944882
11
1.192689409448819
21
0.6619083464566929
0
LINE
8
BLACK
6
CONTINUOUS
10
1.192689409448819
20
0.6619083464566929
11
1.1948799606299212
21
0.6561323622047244
0
LINE
8
BLACK
6
CONTINUOUS
10
1.1948799606299212
20
0.6561323622047244
11
1.1956245669291339
21
0.65
0
LINE
8
BLACK
6
CONTINUOUS
10
1.1956245669291339
20
0.65
11
1.1948799606299212
21
0.6438676377952756
0
LINE
8
BLACK
6
CONTINUOUS
10
1.1948799606299212
20
0.6438676377952756
11
1.192689409448819
21
0.6380916535433071
0
LINE
8
BLACK
6
CONTINUOUS
10
1.192689409448819
20
0.6380916535433071
11
1.1891802755905512
21
0.6330077559055118
0
LINE
8
BLACK
6
CONTINUOUS
10
1.1891802755905512
20
0.6330077559055118
11
1.1845564173228347
21
0.6289113779527559
0
LINE
8
BLACK
6
CONTINUOUS
10
1.1845564173228347
20
0.6289113779527559
11
1.1790866141732284
21
0.6260406299212599
0
LINE
8
BLACK
6
CONTINUOUS
10
1.1790866141732284
20
0.6260406299212599
11
1.1730887007874016
21
0.6245622834645669
0
LINE
8
BLACK
6
CONTINUOUS
10
1.1730887007874016
20
0.6245622834645669
11
1.1669112992125985
21
0.6245622834645669
0
LINE
8
BLACK
6
CONTINUOUS
10
1.1669112992125985
20
0.6245622834645669
11
1.1609133858267717
21
0.6260406299212599
0
LINE
8
BLACK
6
CONTINUOUS
10
1.1609133858267717
20
0.6260406299212599
11
1.1554435826771654
21
0.6289113779527559
0
LINE
8
BLACK
6
CONTINUOUS
10
1.1554435826771654
20
0.6289113779527559
11
1.1508197244094487
21
0.6330077559055118
0
LINE
8
BLACK
6
CONTINUOUS
10
1.1508197244094487
20
0.6330077559055118
11
1.1473105905511811
21
0.6380916535433071
0
LINE
8
BLACK
6
CONTINUOUS
10
1.1473105905511811
20
0.6380916535433071
11
1.1451200393700787
21
0.6438676377952756
0
LINE
8
BLACK
6
CONTINUOUS
10
1.1451200393700787
20
0.6438676377952756
11
1.1443754330708662
21
0.65
0
LINE
8
BLACK
6
CONTINUOUS
10
1.1443754330708662
20
0.65
11
1.1451200393700787
21
0.6561323622047244
0
LINE
8
BLACK
6
CONTINUOUS
10
1.1451200393700787
20
0.6561323622047244
11
1.1473105905511811
21
0.6619083464566929
0
LINE
8
BLACK
6
CONTINUOUS
10
1.1473105905511811
20
0.6619083464566929
11
1.1508197244094487
21
0.6669922440944882
0
LINE
8
BLACK
6
CONTINUOUS
10
1.1508197244094487
20
0.6669922440944882
11
1.1554435826771654
21
0.6710886220472441
0
LINE
8
BLACK
6
CONTINUOUS
10
1.1554435826771654
20
0.6710886220472441
11
1.1609133858267717
21
0.6739593700787402
0
LINE
8
BLACK
6
CONTINUOUS
10
1.1609133858267717
20
0.6739593700787402
11
1.1669112992125985
21
0.6754377165354331
0
LINE
8
BLACK
6
CONTINUOUS
10
1.1669112992125985
20
0.6754377165354331
11
1.1730887007874016
21
0.6754377165354331
0
LINE
8
BLACK
6
CONTINUOUS
10
1.1730887007874016
20
0.6754377165354331
11
1.1790866141732284
21
0.6739593700787402
0
LINE
8
BLACK
6
CONTINUOUS
10
1.1689972047244095
20
0.6489972047244095
11
1.1699999999999999
21
0.648581811023622
0
LINE
8
BLACK
6
CONTINUOUS
10
1.1699999999999999
20
0.648581811023622
11
1.1710027952755906
21
0.6489972047244095
0
LINE
8
BLACK
6
CONTINUOUS
10
1.1710027952755906
20
0.6489972047244095
11
1.1714181889763779
21
0.65
0
LINE
8
BLACK
6
CONTINUOUS
10
1.1714181889763779
20
0.65
11
1.1710027952755906
21
0.6510027952755906
0
LINE
8
BLACK
6
CONTINUOUS
10
1.1710027952755906
20
0.6510027952755906
11
1.1699999999999999
21
0.6514181889763779
0
LINE
8
BLACK
6
CONTINUOUS
10
1.1699999999999999
20
0.6514181889763779
11
1.1689972047244095
21
0.6510027952755906
0
LINE
8
BLACK
6
CONTINUOUS
10
1.1689972047244095
20
0.6510027952755906
11
1.1685818110236221
21
0.65
0
LINE
8
BLACK
6
CONTINUOUS
10
1.1685818110236221
20
0.65
11
1.1689972047244095
21
0.6489972047244095
0
LINE
8
BLACK
6
CONTINUOUS
10
1.1990866141732284
20
1.0939593700787402
11
1.2045564173228347
21
1.091088622047244
0
LINE
8
BLACK
6
CONTINUOUS
10
1.2045564173228347
20
1.091088622047244
11
1.2091802755905512
21
1.0869922440944881
0
LINE
8
BLACK
6
CONTINUOUS
10
1.2091802755905512
20
1.0869922440944881
11
1.212689409448819
21
1.081908346456693
0
LINE
8
BLACK
6
CONTINUOUS
10
1.212689409448819
20
1.081908346456693
11
1.2148799606299212
21
1.0761323622047243
0
LINE
8
BLACK
6
CONTINUOUS
10
1.2148799606299212
20
1.0761323622047243
11
1.2156245669291339
21
1.0700000000000001
0
LINE
8
BLACK
6
CONTINUOUS
10
1.2156245669291339
20
1.0700000000000001
11
1.2148799606299212
21
1.0638676377952756
0
LINE
8
BLACK
6
CONTINUOUS
10
1.2148799606299212
20
1.0638676377952756
11
1.212689409448819
21
1.0580916535433071
0
LINE
8
BLACK
6
CONTINUOUS
10
1.212689409448819
20
1.0580916535433071
11
1.2091802755905512
21
1.0530077559055118
0
LINE
8
BLACK
6
CONTINUOUS
10
1.2091802755905512
20
1.0530077559055118
11
1.2045564173228347
21
1.0489113779527559
0
LINE
8
BLACK
6
CONTINUOUS
10
1.2045564173228347
20
1.0489113779527559
11
1.1990866141732284
21
1.0460406299212599
0
LINE
8
BLACK
6
CONTINUOUS
10
1.1990866141732284
20
1.0460406299212599
11
1.1930887007874016
21
1.0445622834645669
0
LINE
8
BLACK
6
CONTINUOUS
10
1.1930887007874016
20
1.0445622834645669
11
1.1869112992125983
21
1.0445622834645669
0
LINE
8
BLACK
6
CONTINUOUS
10
1.1869112992125983
20
1.0445622834645669
11
1.1809133858267715
21
1.0460406299212599
0
LINE
8
BLACK
6
CONTINUOUS
10
1.1809133858267715
20
1.0460406299212599
11
1.1754435826771654
21
1.0489113779527559
0
LINE
8
BLACK
6
CONTINUOUS
10
1.1754435826771654
20
1.0489113779527559
11
1.1708197244094487
21
1.0530077559055118
0
LINE
8
BLACK
6
CONTINUOUS
10
1.1708197244094487
20
1.0530077559055118
11
1.1673105905511811
21
1.0580916535433071
0
LINE
8
BLACK
6
CONTINUOUS
10
1.1673105905511811
20
1.0580916535433071
11
1.1651200393700787
21
1.0638676377952756
0
LINE
8
BLACK
6
CONTINUOUS
10
1.1651200393700787
20
1.0638676377952756
11
1.1643754330708662
21
1.0700000000000001
0
LINE
8
BLACK
6
CONTINUOUS
10
1.1643754330708662
20
1.0700000000000001
11
1.1651200393700787
21
1.0761323622047243
0
LINE
8
BLACK
6
CONTINUOUS
10
1.1651200393700787
20
1.0761323622047243
11
1.1673105905511811
21
1.081908346456693
0
LINE
8
BLACK
6
CONTINUOUS
10
1.1673105905511811
20
1.081908346456693
11
1.1708197244094487
21
1.0869922440944881
0
LINE
8
BLACK
6
CONTINUOUS
10
1.1708197244094487
20
1.0869922440944881
11
1.1754435826771654
21
1.091088622047244
0
LINE
8
BLACK
6
CONTINUOUS
10
1.1754435826771654
20
1.091088622047244
11
1.1809133858267715
21
1.0939593700787402
0
LINE
8
BLACK
6
CONTINUOUS
10
1.1809133858267715
20
1.0939593700787402
11
1.1869112992125983
21
1.095437716535433
0
LINE
8
BLACK
6
CONTINUOUS
10
1.1869112992125983
20
1.095437716535433
11
1.1930887007874016
21
1.095437716535433
0
LINE
8
BLACK
6
CONTINUOUS
10
1.1930887007874016
20
1.095437716535433
11
1.1990866141732284
21
1.0939593700787402
0
LINE
8
BLACK
6
CONTINUOUS
10
1.1889972047244095
20
1.0689972047244094
11
1.1899999999999999
21
1.068581811023622
0
LINE
8
BLACK
6
CONTINUOUS
10
1.1899999999999999
20
1.068581811023622
11
1.1910027952755906
21
1.0689972047244094
0
LINE
8
BLACK
6
CONTINUOUS
10
1.1910027952755906
20
1.0689972047244094
11
1.191418188976378
21
1.0700000000000001
0
LINE
8
BLACK
6
CONTINUOUS
10
1.191418188976378
20
1.0700000000000001
11
1.1910027952755906
21
1.0710027952755905
0
LINE
8
BLACK
6
CONTINUOUS
10
1.1910027952755906
20
1.0710027952755905
11
1.1899999999999999
21
1.0714181889763779
0
LINE
8
BLACK
6
CONTINUOUS
10
1.1899999999999999
20
1.0714181889763779
11
1.1889972047244095
21
1.0710027952755905
0
LINE
8
BLACK
6
CONTINUOUS
10
1.1889972047244095
20
1.0710027952755905
11
1.1885818110236219
21
1.0700000000000001
0
LINE
8
BLACK
6
CONTINUOUS
10
1.1885818110236219
20
1.0700000000000001
11
1.1889972047244095
21
1.0689972047244094
0
LINE
8
BLACK
6
CONTINUOUS
10
0.9844866141732284
20
1.2039593700787401
11
0.9899564173228346
21
1.2010886220472441
0
LINE
8
BLACK
6
CONTINUOUS
10
0.9899564173228346
20
1.2010886220472441
11
0.9945802755905512
21
1.1969922440944882
0
LINE
8
BLACK
6
CONTINUOUS
10
0.9945802755905512
20
1.1969922440944882
11
0.9980894094488189
21
1.1919083464566929
0
LINE
8
BLACK
6
CONTINUOUS
10
0.9980894094488189
20
1.1919083464566929
11
1.0002799606299213
21
1.1861323622047244
0
LINE
8
BLACK
6
CONTINUOUS
10
1.0002799606299213
20
1.1861323622047244
11
1.0010245669291338
21
1.1799999999999999
0
LINE
8
BLACK
6
CONTINUOUS
10
1.0010245669291338
20
1.1799999999999999
11
1.0002799606299213
21
1.1738676377952755
0
LINE
8
BLACK
6
CONTINUOUS
10
1.0002799606299213
20
1.1738676377952755
11
0.9980894094488189
21
1.168091653543307
0
LINE
8
BLACK
6
CONTINUOUS
10
0.9980894094488189
20
1.168091653543307
11
0.9945802755905512
21
1.1630077559055119
0
LINE
8
BLACK
6
CONTINUOUS
10
0.9945802755905512
20
1.1630077559055119
11
0.9899564173228346
21
1.1589113779527558
0
LINE
8
BLACK
6
CONTINUOUS
10
0.9899564173228346
20
1.1589113779527558
11
0.9844866141732284
21
1.1560406299212598
0
LINE
8
BLACK
6
CONTINUOUS
10
0.9844866141732284
20
1.1560406299212598
11
0.9784887007874016
21
1.1545622834645668
0
LINE
8
BLACK
6
CONTINUOUS
10
0.9784887007874016
20
1.1545622834645668
11
0.9723112992125984
21
1.1545622834645668
0
LINE
8
BLACK
6
CONTINUOUS
10
0.9723112992125984
20
1.1545622834645668
11
0.9663133858267716
21
1.1560406299212598
0
LINE
8
BLACK
6
CONTINUOUS
10
0.9663133858267716
20
1.1560406299212598
11
0.9608435826771653
21
1.1589113779527558
0
LINE
8
BLACK
6
CONTINUOUS
10
0.9608435826771653
20
1.1589113779527558
11
0.9562197244094488
21
1.1630077559055119
0
LINE
8
BLACK
6
CONTINUOUS
10
0.9562197244094488
20
1.1630077559055119
11
0.9527105905511811
21
1.168091653543307
0
LINE
8
BLACK
6
CONTINUOUS
10
0.9527105905511811
20
1.168091653543307
11
0.9505200393700787
21
1.1738676377952755
0
LINE
8
BLACK
6
CONTINUOUS
10
0.9505200393700787
20
1.1738676377952755
11
0.9497754330708661
21
1.1799999999999999
0
LINE
8
BLACK
6
CONTINUOUS
10
0.9497754330708661
20
1.1799999999999999
11
0.9505200393700787
21
1.1861323622047244
0
LINE
8
BLACK
6
CONTINUOUS
10
0.9505200393700787
20
1.1861323622047244
11
0.9527105905511811
21
1.1919083464566929
0
LINE
8
BLACK
6
CONTINUOUS
10
0.9527105905511811
20
1.1919083464566929
11
0.9562197244094488
21
1.1969922440944882
0
LINE
8
BLACK
6
CONTINUOUS
10
0.9562197244094488
20
1.1969922440944882
11
0.9608435826771653
21
1.2010886220472441
0
LINE
8
BLACK
6
CONTINUOUS
10
0.9608435826771653
20
1.2010886220472441
11
0.9663133858267716
21
1.2039593700787401
0
LINE
8
BLACK
6
CONTINUOUS
10
0.9663133858267716
20
1.2039593700787401
11
0.9723112992125984
21
1.2054377165354331
0
LINE
8
BLACK
6
CONTINUOUS
10
0.9723112992125984
20
1.2054377165354331
11
0.9784887007874016
21
1.2054377165354331
0
LINE
8
BLACK
6
CONTINUOUS
10
0.9784887007874016
20
1.2054377165354331
11
0.9844866141732284
21
1.2039593700787401
0
LINE
8
BLACK
6
CONTINUOUS
10
0.9743972047244094
20
1.1789972047244095
11
0.9753999999999999
21
1.1785818110236219
0
LINE
8
BLACK
6
CONTINUOUS
10
0.9753999999999999
20
1.1785818110236219
11
0.9764027952755905
21
1.1789972047244095
0
LINE
8
BLACK
6
CONTINUOUS
10
0.9764027952755905
20
1.1789972047244095
11
0.976818188976378
21
1.1799999999999999
0
LINE
8
BLACK
6
CONTINUOUS
10
0.976818188976378
20
1.1799999999999999
11
0.9764027952755905
21
1.1810027952755906
0
LINE
8
BLACK
6
CONTINUOUS
10
0.9764027952755905
20
1.1810027952755906
11
0.9753999999999999
21
1.181418188976378
0
LINE
8
BLACK
6
CONTINUOUS
10
0.9753999999999999
20
1.181418188976378
11
0.9743972047244094
21
1.1810027952755906
0
LINE
8
BLACK
6
CONTINUOUS
10
0.9743972047244094
20
1.1810027952755906
11
0.973981811023622
21
1.1799999999999999
0
LINE
8
BLACK
6
CONTINUOUS
10
0.973981811023622
20
1.1799999999999999
11
0.9743972047244094
21
1.1789972047244095
0
LINE
8
BLACK
6
CONTINUOUS
10
0.2205096456692913
20
1.5163158661417322
11
0.2338744094488189
21
1.5131483858267716
0
LINE
8
BLACK
6
CONTINUOUS
10
0.2338744094488189
20
1.5131483858267716
11
0.246781062992126
21
1.5084507086614174
0
LINE
8
BLACK
6
CONTINUOUS
10
0.246781062992126
20
1.5084507086614174
11
0.2590551181102362
21
1.5022864566929133
0
LINE
8
BLACK
6
CONTINUOUS
10
0.2590551181102362
20
1.5022864566929133
11
0.2705305511811024
21
1.4947389763779528
0
LINE
8
BLACK
6
CONTINUOUS
10
0.2705305511811024
20
1.4947389763779528
11
0.2810521653543307
21
1.4859102755905511
0
LINE
8
BLACK
6
CONTINUOUS
10
0.2810521653543307
20
1.4859102755905511
11
0.2904776771653543
21
1.4759198031496064
0
LINE
8
BLACK
6
CONTINUOUS
10
0.2904776771653543
20
1.4759198031496064
11
0.2986796456692913
21
1.4649026377952756
0
LINE
8
BLACK
6
CONTINUOUS
10
0.2986796456692913
20
1.4649026377952756
11
0.3055471653543307
21
1.4530077952755904
0
LINE
8
BLACK
6
CONTINUOUS
10
0.3055471653543307
20
1.4530077952755904
11
0.3109873228346456
21
1.440396062992126
0
LINE
8
BLACK
6
CONTINUOUS
10
0.3109873228346456
20
1.440396062992126
11
0.3149265748031496
21
1.4272381102362204
0
LINE
8
BLACK
6
CONTINUOUS
10
0.3149265748031496
20
1.4272381102362204
11
0.3173116141732283
21
1.4137117716535432
0
LINE
8
BLACK
6
CONTINUOUS
10
0.3173116141732283
20
1.4137117716535432
11
0.3181102362204724
21
1.3999999999999999
0
LINE
8
BLACK
6
CONTINUOUS
10
0.3181102362204724
20
1.3999999999999999
11
0.3173116141732283
21
1.3862882283464566
0
LINE
8
BLACK
6
CONTINUOUS
10
0.3173116141732283
20
1.3862882283464566
11
0.3149265748031496
21
1.3727618897637794
0
LINE
8
BLACK
6
CONTINUOUS
10
0.3149265748031496
20
1.3727618897637794
11
0.3109873228346456
21
1.3596039370078741
0
LINE
8
BLACK
6
CONTINUOUS
10
0.3109873228346456
20
1.3596039370078741
11
0.3055471653543307
21
1.3469922047244094
0
LINE
8
BLACK
6
CONTINUOUS
10
0.3055471653543307
20
1.3469922047244094
11
0.2986796456692913
21
1.3350973622047244
0
LINE
8
BLACK
6
CONTINUOUS
10
0.2986796456692913
20
1.3350973622047244
11
0.2904776771653543
21
1.3240801968503937
0
LINE
8
BLACK
6
CONTINUOUS
10
0.2904776771653543
20
1.3240801968503937
11
0.2810521653543307
21
1.3140897244094487
0
LINE
8
BLACK
6
CONTINUOUS
10
0.2810521653543307
20
1.3140897244094487
11
0.2705305511811024
21
1.3052610236220472
0
LINE
8
BLACK
6
CONTINUOUS
10
0.2705305511811024
20
1.3052610236220472
11
0.2590551181102362
21
1.2977135433070865
0
LINE
8
BLACK
6
CONTINUOUS
10
0.2590551181102362
20
1.2977135433070865
11
0.246781062992126
21
1.2915492913385827
0
LINE
8
BLACK
6
CONTINUOUS
10
0.246781062992126
20
1.2915492913385827
11
0.2338744094488189
21
1.2868516141732282
0
LINE
8
BLACK
6
CONTINUOUS
10
0.2338744094488189
20
1.2868516141732282
11
0.2205096456692913
21
1.2836841338582676
0
LINE
8
BLACK
6
CONTINUOUS
10
0.2205096456692913
20
1.2836841338582676
11
0.2068674803149606
21
1.2820896062992126
0
LINE
8
BLACK
6
CONTINUOUS
10
0.2068674803149606
20
1.2820896062992126
11
0.1931325196850394
21
1.2820896062992126
0
LINE
8
BLACK
6
CONTINUOUS
10
0.1931325196850394
20
1.2820896062992126
11
0.1794903543307086
21
1.2836841338582676
0
LINE
8
BLACK
6
CONTINUOUS
10
0.1794903543307086
20
1.2836841338582676
11
0.1661255905511811
21
1.2868516141732282
0
LINE
8
BLACK
6
CONTINUOUS
10
0.1661255905511811
20
1.2868516141732282
11
0.153218937007874
21
1.2915492913385827
0
LINE
8
BLACK
6
CONTINUOUS
10
0.153218937007874
20
1.2915492913385827
11
0.1409448818897638
21
1.2977135433070865
0
LINE
8
BLACK
6
CONTINUOUS
10
0.1409448818897638
20
1.2977135433070865
11
0.1294694488188976
21
1.3052610236220472
0
LINE
8
BLACK
6
CONTINUOUS
10
0.1294694488188976
20
1.3052610236220472
11
0.1189478346456693
21
1.3140897244094487
0
LINE
8
BLACK
6
CONTINUOUS
10
0.1189478346456693
20
1.3140897244094487
11
0.1095223228346457
21
1.3240801968503937
0
LINE
8
BLACK
6
CONTINUOUS
10
0.1095223228346457
20
1.3240801968503937
11
0.1013203543307087
21
1.3350973622047244
0
LINE
8
BLACK
6
CONTINUOUS
10
0.1013203543307087
20
1.3350973622047244
11
0.0944528346456693
21
1.3469922047244094
0
LINE
8
BLACK
6
CONTINUOUS
10
0.0944528346456693
20
1.3469922047244094
11
0.0890126771653543
21
1.3596039370078741
0
LINE
8
BLACK
6
CONTINUOUS
10
0.0890126771653543
20
1.3596039370078741
11
0.0850734251968504
21
1.3727618897637794
0
LINE
8
BLACK
6
CONTINUOUS
10
0.0850734251968504
20
1.3727618897637794
11
0.0826883858267717
21
1.3862882283464566
0
LINE
8
BLACK
6
CONTINUOUS
10
0.0826883858267717
20
1.3862882283464566
11
0.0818897637795276
21
1.3999999999999999
0
LINE
8
BLACK
6
CONTINUOUS
10
0.0818897637795276
20
1.3999999999999999
11
0.0826883858267717
21
1.4137117716535432
0
LINE
8
BLACK
6
CONTINUOUS
10
0.0826883858267717
20
1.4137117716535432
11
0.0850734251968504
21
1.4272381102362204
0
LINE
8
BLACK
6
CONTINUOUS
10
0.0850734251968504
20
1.4272381102362204
11
0.0890126771653543
21
1.440396062992126
0
LINE
8
BLACK
6
CONTINUOUS
10
0.0890126771653543
20
1.440396062992126
11
0.0944528346456693
21
1.4530077952755904
0
LINE
8
BLACK
6
CONTINUOUS
10
0.0944528346456693
20
1.4530077952755904
11
0.1013203543307087
21
1.4649026377952756
0
LINE
8
BLACK
6
CONTINUOUS
10
0.1013203543307087
20
1.4649026377952756
11
0.1095223228346457
21
1.4759198031496064
0
LINE
8
BLACK
6
CONTINUOUS
10
0.1095223228346457
20
1.4759198031496064
11
0.1189478346456693
21
1.4859102755905511
0
LINE
8
BLACK
6
CONTINUOUS
10
0.1189478346456693
20
1.4859102755905511
11
0.1294694488188976
21
1.4947389763779528
0
LINE
8
BLACK
6
CONTINUOUS
10
0.1294694488188976
20
1.4947389763779528
11
0.1409448818897638
21
1.5022864566929133
0
LINE
8
BLACK
6
CONTINUOUS
10
0.1409448818897638
20
1.5022864566929133
11
0.153218937007874
21
1.5084507086614174
0
LINE
8
BLACK
6
CONTINUOUS
10
0.153218937007874
20
1.5084507086614174
11
0.1661255905511811
21
1.5131483858267716
0
LINE
8
BLACK
6
CONTINUOUS
10
0.1661255905511811
20
1.5131483858267716
11
0.1794903543307086
21
1.5163158661417322
0
LINE
8
BLACK
6
CONTINUOUS
10
0.1794903543307086
20
1.5163158661417322
11
0.1931325196850394
21
1.5179103937007874
0
LINE
8
BLACK
6
CONTINUOUS
10
0.1931325196850394
20
1.5179103937007874
11
0.2068674803149606
21
1.5179103937007874
0
LINE
8
BLACK
6
CONTINUOUS
10
0.2068674803149606
20
1.5179103937007874
11
0.2205096456692913
21
1.5163158661417322
0
LINE
8
BLACK
6
CONTINUOUS
10
1.4205096456692914
20
1.5163158661417322
11
1.4338744094488189
21
1.5131483858267716
0
LINE
8
BLACK
6
CONTINUOUS
10
1.4338744094488189
20
1.5131483858267716
11
1.4467810629921261
21
1.5084507086614174
0
LINE
8
BLACK
6
CONTINUOUS
10
1.4467810629921261
20
1.5084507086614174
11
1.4590551181102362
21
1.5022864566929133
0
LINE
8
BLACK
6
CONTINUOUS
10
1.4590551181102362
20
1.5022864566929133
11
1.4705305511811024
21
1.4947389763779528
0
LINE
8
BLACK
6
CONTINUOUS
10
1.4705305511811024
20
1.4947389763779528
11
1.4810521653543307
21
1.4859102755905511
0
LINE
8
BLACK
6
CONTINUOUS
10
1.4810521653543307
20
1.4859102755905511
11
1.4904776771653543
21
1.4759198031496064
0
LINE
8
BLACK
6
CONTINUOUS
10
1.4904776771653543
20
1.4759198031496064
11
1.4986796456692912
21
1.4649026377952756
0
LINE
8
BLACK
6
CONTINUOUS
10
1.4986796456692912
20
1.4649026377952756
11
1.5055471653543306
21
1.4530077952755904
0
LINE
8
BLACK
6
CONTINUOUS
10
1.5055471653543306
20
1.4530077952755904
11
1.5109873228346455
21
1.440396062992126
0
LINE
8
BLACK
6
CONTINUOUS
10
1.5109873228346455
20
1.440396062992126
11
1.5149265748031495
21
1.4272381102362204
0
LINE
8
BLACK
6
CONTINUOUS
10
1.5149265748031495
20
1.4272381102362204
11
1.5173116141732284
21
1.4137117716535432
0
LINE
8
BLACK
6
CONTINUOUS
10
1.5173116141732284
20
1.4137117716535432
11
1.5181102362204724
21
1.3999999999999999
0
LINE
8
BLACK
6
CONTINUOUS
10
1.5181102362204724
20
1.3999999999999999
11
1.5173116141732284
21
1.3862882283464566
0
LINE
8
BLACK
6
CONTINUOUS
10
1.5173116141732284
20
1.3862882283464566
11
1.5149265748031495
21
1.3727618897637794
0
LINE
8
BLACK
6
CONTINUOUS
10
1.5149265748031495
20
1.3727618897637794
11
1.5109873228346455
21
1.3596039370078741
0
LINE
8
BLACK
6
CONTINUOUS
10
1.5109873228346455
20
1.3596039370078741
11
1.5055471653543306
21
1.3469922047244094
0
LINE
8
BLACK
6
CONTINUOUS
10
1.5055471653543306
20
1.3469922047244094
11
1.4986796456692912
21
1.3350973622047244
0
LINE
8
BLACK
6
CONTINUOUS
10
1.4986796456692912
20
1.3350973622047244
11
1.4904776771653543
21
1.3240801968503937
0
LINE
8
BLACK
6
CONTINUOUS
10
1.4904776771653543
20
1.3240801968503937
11
1.4810521653543307
21
1.3140897244094487
0
LINE
8
BLACK
6
CONTINUOUS
10
1.4810521653543307
20
1.3140897244094487
11
1.4705305511811024
21
1.3052610236220472
0
LINE
8
BLACK
6
CONTINUOUS
10
1.4705305511811024
20
1.3052610236220472
11
1.4590551181102362
21
1.2977135433070865
0
LINE
8
BLACK
6
CONTINUOUS
10
1.4590551181102362
20
1.2977135433070865
11
1.4467810629921261
21
1.2915492913385827
0
LINE
8
BLACK
6
CONTINUOUS
10
1.4467810629921261
20
1.2915492913385827
11
1.4338744094488189
21
1.2868516141732282
0
LINE
8
BLACK
6
CONTINUOUS
10
1.4338744094488189
20
1.2868516141732282
11
1.4205096456692914
21
1.2836841338582676
0
LINE
8
BLACK
6
CONTINUOUS
10
1.4205096456692914
20
1.2836841338582676
11
1.4068674803149606
21
1.2820896062992126
0
LINE
8
BLACK
6
CONTINUOUS
10
1.4068674803149606
20
1.2820896062992126
11
1.3931325196850393
21
1.2820896062992126
0
LINE
8
BLACK
6
CONTINUOUS
10
1.3931325196850393
20
1.2820896062992126
11
1.3794903543307087
21
1.2836841338582676
0
LINE
8
BLACK
6
CONTINUOUS
10
1.3794903543307087
20
1.2836841338582676
11
1.3661255905511811
21
1.2868516141732282
0
LINE
8
BLACK
6
CONTINUOUS
10
1.3661255905511811
20
1.2868516141732282
11
1.353218937007874
21
1.2915492913385827
0
LINE
8
BLACK
6
CONTINUOUS
10
1.353218937007874
20
1.2915492913385827
11
1.3409448818897638
21
1.2977135433070865
0
LINE
8
BLACK
6
CONTINUOUS
10
1.3409448818897638
20
1.2977135433070865
11
1.3294694488188976
21
1.3052610236220472
0
LINE
8
BLACK
6
CONTINUOUS
10
1.3294694488188976
20
1.3052610236220472
11
1.3189478346456693
21
1.3140897244094487
0
LINE
8
BLACK
6
CONTINUOUS
10
1.3189478346456693
20
1.3140897244094487
11
1.3095223228346455
21
1.3240801968503937
0
LINE
8
BLACK
6
CONTINUOUS
10
1.3095223228346455
20
1.3240801968503937
11
1.3013203543307086
21
1.3350973622047244
0
LINE
8
BLACK
6
CONTINUOUS
10
1.3013203543307086
20
1.3350973622047244
11
1.2944528346456692
21
1.3469922047244094
0
LINE
8
BLACK
6
CONTINUOUS
10
1.2944528346456692
20
1.3469922047244094
11
1.2890126771653543
21
1.3596039370078741
0
LINE
8
BLACK
6
CONTINUOUS
10
1.2890126771653543
20
1.3596039370078741
11
1.2850734251968503
21
1.3727618897637794
0
LINE
8
BLACK
6
CONTINUOUS
10
1.2850734251968503
20
1.3727618897637794
11
1.2826883858267717
21
1.3862882283464566
0
LINE
8
BLACK
6
CONTINUOUS
10
1.2826883858267717
20
1.3862882283464566
11
1.2818897637795275
21
1.3999999999999999
0
LINE
8
BLACK
6
CONTINUOUS
10
1.2818897637795275
20
1.3999999999999999
11
1.2826883858267717
21
1.4137117716535432
0
LINE
8
BLACK
6
CONTINUOUS
10
1.2826883858267717
20
1.4137117716535432
11
1.2850734251968503
21
1.4272381102362204
0
LINE
8
BLACK
6
CONTINUOUS
10
1.2850734251968503
20
1.4272381102362204
11
1.2890126771653543
21
1.440396062992126
0
LINE
8
BLACK
6
CONTINUOUS
10
1.2890126771653543
20
1.440396062992126
11
1.2944528346456692
21
1.4530077952755904
0
LINE
8
BLACK
6
CONTINUOUS
10
1.2944528346456692
20
1.4530077952755904
11
1.3013203543307086
21
1.4649026377952756
0
LINE
8
BLACK
6
CONTINUOUS
10
1.3013203543307086
20
1.4649026377952756
11
1.3095223228346455
21
1.4759198031496064
0
LINE
8
BLACK
6
CONTINUOUS
10
1.3095223228346455
20
1.4759198031496064
11
1.3189478346456693
21
1.4859102755905511
0
LINE
8
BLACK
6
CONTINUOUS
10
1.3189478346456693
20
1.4859102755905511
11
1.3294694488188976
21
1.4947389763779528
0
LINE
8
BLACK
6
CONTINUOUS
10
1.3294694488188976
20
1.4947389763779528
11
1.3409448818897638
21
1.5022864566929133
0
LINE
8
BLACK
6
CONTINUOUS
10
1.3409448818897638
20
1.5022864566929133
11
1.353218937007874
21
1.5084507086614174
0
LINE
8
BLACK
6
CONTINUOUS
10
1.353218937007874
20
1.5084507086614174
11
1.3661255905511811
21
1.5131483858267716
0
LINE
8
BLACK
6
CONTINUOUS
10
1.3661255905511811
20
1.5131483858267716
11
1.3794903543307087
21
1.5163158661417322
0
LINE
8
BLACK
6
CONTINUOUS
10
1.3794903543307087
20
1.5163158661417322
11
1.3931325196850393
21
1.5179103937007874
0
LINE
8
BLACK
6
CONTINUOUS
10
1.3931325196850393
20
1.5179103937007874
11
1.4068674803149606
21
1.5179103937007874
0
LINE
8
BLACK
6
CONTINUOUS
10
1.4068674803149606
20
1.5179103937007874
11
1.4205096456692914
21
1.5163158661417322
  0
ENDSEC
  0
EOF
