  0
SECTION
  2
HEADER
  9
$ANGBASE
  50
0.0
  9
$ANGDIR
  70
1
  9
$MEASUREMENT
  70
0
  0
ENDSEC
  0
SECTION
  2
TABLES
  0
TABLE
  2
LTYPE
  70
4
  0
LTYPE
  5
40F
  2
CONTINUOUS
  70
0
  3
Solid line
  72
65
  73
0
  40
0.0
  0
LTYPE
  5
410
  2
DASHDOT
 70
0
  3
Dash Dot ____ _ ____ _
 72
65
 73
4
 40
2.0
 49
1.25
 49
-0.25
 49
0.25
 49
-0.25
  0
LTYPE
  5
411
  2
DASHED
 70
0
  3
Dashed __ __ __ __ __
 72
65
 73
2
 40
0.75
 49
0.5
 49
-0.25
  0
LTYPE
  5
43B
  2
DOTTED
 70
0
  3
Dotted .  .  .  .
 72
65
 73
2
 40
0.2
 49
0.0
 49
-0.2
  0
ENDTAB
  0
TABLE
  2
STYLE
  70
4
  0
STYLE
  2
KICAD
  70
0
  40
0
  41
1
  42
1
  50
0
  71
0
  3
isocp.shx
  0
STYLE
  2
KICADB
  70
0
  40
0
  41
1
  42
1
  50
0
  71
0
  3
isocp.shx
  0
STYLE
  2
KICADI
  70
0
  40
0
  41
1
  42
1
  50
15
  71
0
  3
isocp.shx
  0
STYLE
  2
KICADBI
  70
0
  40
0
  41
1
  42
1
  50
15
  71
0
  3
isocp.shx
  0
ENDTAB
  0
TABLE
  2
LAYER
  70
1
  0
LAYER
  2
BLACK
  70
0
  62
7
  6
CONTINUOUS
  0
ENDTAB
  0
ENDSEC
  0
SECTION
  2
ENTITIES
0
LINE
8
BLACK
6
CONTINUOUS
10
0.7782110236220472
20
0.6452903937007873
11
0.7783402755905512
21
0.6453131889763779
0
LINE
8
BLACK
6
CONTINUOUS
10
0.7783402755905512
20
0.6453131889763779
11
0.7784538582677165
21
0.6452475590551181
0
LINE
8
BLACK
6
CONTINUOUS
10
0.7784538582677165
20
0.6452475590551181
11
0.7788374409448818
21
0.6451799606299212
0
LINE
8
BLACK
6
CONTINUOUS
10
0.7788374409448818
20
0.6451799606299212
11
0.7794251181102362
21
0.644686811023622
0
LINE
8
BLACK
6
CONTINUOUS
10
0.7794251181102362
20
0.644686811023622
11
0.7800894488188976
21
0.6443032677165355
0
LINE
8
BLACK
6
CONTINUOUS
10
0.7800894488188976
20
0.6443032677165355
11
0.7801805511811023
21
0.6440529133858267
0
LINE
8
BLACK
6
CONTINUOUS
10
0.7801805511811023
20
0.6440529133858267
11
0.7803846850393701
21
0.6438816535433071
0
LINE
8
BLACK
6
CONTINUOUS
10
0.7803846850393701
20
0.6438816535433071
11
0.7805179133858268
21
0.6431260629921259
0
LINE
8
BLACK
6
CONTINUOUS
10
0.7805179133858268
20
0.6431260629921259
11
0.7807802755905512
21
0.6424052755905512
0
LINE
8
BLACK
6
CONTINUOUS
10
0.7807802755905512
20
0.6424052755905512
11
0.7807802755905512
21
0.6274071653543307
0
LINE
8
BLACK
6
CONTINUOUS
10
0.7807802755905512
20
0.6274071653543307
11
0.7806022047244094
21
0.6263972440944882
0
LINE
8
BLACK
6
CONTINUOUS
10
0.7806022047244094
20
0.6263972440944882
11
0.7804887007874015
21
0.626261968503937
0
LINE
8
BLACK
6
CONTINUOUS
10
0.7804887007874015
20
0.626261968503937
11
0.7804685433070866
21
0.6260866535433071
0
LINE
8
BLACK
6
CONTINUOUS
10
0.7804685433070866
20
0.6260866535433071
11
0.778593779527559
21
0.6223371259842519
0
LINE
8
BLACK
6
CONTINUOUS
10
0.778593779527559
20
0.6223371259842519
11
0.7780677952755906
21
0.6216279921259842
0
LINE
8
BLACK
6
CONTINUOUS
10
0.7780677952755906
20
0.6216279921259842
11
0.7780406299212598
21
0.62156968503937
0
LINE
8
BLACK
6
CONTINUOUS
10
0.7780406299212598
20
0.62156968503937
11
0.7761658267716536
21
0.6196949212598425
0
LINE
8
BLACK
6
CONTINUOUS
10
0.7761658267716536
20
0.6196949212598425
11
0.7754427559055118
21
0.6191886220472441
0
LINE
8
BLACK
6
CONTINUOUS
10
0.7754427559055118
20
0.6191886220472441
11
0.7753984645669291
21
0.6191418503937007
0
LINE
8
BLACK
6
CONTINUOUS
10
0.7753984645669291
20
0.6191418503937007
11
0.771648937007874
21
0.6172670866141732
0
LINE
8
BLACK
6
CONTINUOUS
10
0.771648937007874
20
0.6172670866141732
11
0.7706659842519685
21
0.6169747244094488
0
LINE
8
BLACK
6
CONTINUOUS
10
0.7706659842519685
20
0.6169747244094488
11
0.7704942913385826
21
0.6170157086614173
0
LINE
8
BLACK
6
CONTINUOUS
10
0.7704942913385826
20
0.6170157086614173
11
0.7703284251968504
21
0.6169553543307087
0
LINE
8
BLACK
6
CONTINUOUS
10
0.7703284251968504
20
0.6169553543307087
11
0.7647041338582677
21
0.6169553543307087
0
LINE
8
BLACK
6
CONTINUOUS
10
0.7647041338582677
20
0.6169553543307087
11
0.7636942125984252
21
0.6171334251968503
0
LINE
8
BLACK
6
CONTINUOUS
10
0.7636942125984252
20
0.6171334251968503
11
0.763558937007874
21
0.6172468897637795
0
LINE
8
BLACK
6
CONTINUOUS
10
0.763558937007874
20
0.6172468897637795
11
0.7633836220472441
21
0.6172670866141732
0
LINE
8
BLACK
6
CONTINUOUS
10
0.7633836220472441
20
0.6172670866141732
11
0.759634094488189
21
0.6191418503937007
0
LINE
8
BLACK
6
CONTINUOUS
10
0.759634094488189
20
0.6191418503937007
11
0.758925
21
0.6196677165354331
0
LINE
8
BLACK
6
CONTINUOUS
10
0.758925
20
0.6196677165354331
11
0.7588666929133858
21
0.6196949606299212
0
LINE
8
BLACK
6
CONTINUOUS
10
0.7588666929133858
20
0.6196949606299212
11
0.7569919291338583
21
0.6215697244094488
0
LINE
8
BLACK
6
CONTINUOUS
10
0.7569919291338583
20
0.6215697244094488
11
0.7564037401574804
21
0.6224097637795275
0
LINE
8
BLACK
6
CONTINUOUS
10
0.7564037401574804
20
0.6224097637795275
11
0.7564020866141732
21
0.6224283464566929
0
LINE
8
BLACK
6
CONTINUOUS
10
0.7564020866141732
20
0.6224283464566929
11
0.7555434645669291
21
0.6215697244094488
0
LINE
8
BLACK
6
CONTINUOUS
10
0.7555434645669291
20
0.6215697244094488
11
0.7548203543307086
21
0.6210634251968504
0
LINE
8
BLACK
6
CONTINUOUS
10
0.7548203543307086
20
0.6210634251968504
11
0.754776062992126
21
0.6210166141732283
0
LINE
8
BLACK
6
CONTINUOUS
10
0.754776062992126
20
0.6210166141732283
11
0.7510265354330709
21
0.6191418503937007
0
LINE
8
BLACK
6
CONTINUOUS
10
0.7510265354330709
20
0.6191418503937007
11
0.7500435826771653
21
0.6188494881889763
0
LINE
8
BLACK
6
CONTINUOUS
10
0.7500435826771653
20
0.6188494881889763
11
0.7498718897637795
21
0.6188904724409449
0
LINE
8
BLACK
6
CONTINUOUS
10
0.7498718897637795
20
0.6188904724409449
11
0.7497060236220472
21
0.6188301181102362
0
LINE
8
BLACK
6
CONTINUOUS
10
0.7497060236220472
20
0.6188301181102362
11
0.7459564960629921
21
0.6188301181102362
0
LINE
8
BLACK
6
CONTINUOUS
10
0.7459564960629921
20
0.6188301181102362
11
0.7449465748031496
21
0.619008188976378
0
LINE
8
BLACK
6
CONTINUOUS
10
0.7449465748031496
20
0.619008188976378
11
0.7448112992125984
21
0.6191216535433071
0
LINE
8
BLACK
6
CONTINUOUS
10
0.7448112992125984
20
0.6191216535433071
11
0.7446359842519685
21
0.6191418503937007
0
LINE
8
BLACK
6
CONTINUOUS
10
0.7446359842519685
20
0.6191418503937007
11
0.7408864566929134
21
0.6210166141732283
0
LINE
8
BLACK
6
CONTINUOUS
10
0.7408864566929134
20
0.6210166141732283
11
0.7401773622047244
21
0.6215424803149606
0
LINE
8
BLACK
6
CONTINUOUS
10
0.7401773622047244
20
0.6215424803149606
11
0.7401190551181103
21
0.6215697244094488
0
LINE
8
BLACK
6
CONTINUOUS
10
0.7401190551181103
20
0.6215697244094488
11
0.7382442913385827
21
0.6234444881889764
0
LINE
8
BLACK
6
CONTINUOUS
10
0.7382442913385827
20
0.6234444881889764
11
0.7377379921259842
21
0.6241675590551181
0
LINE
8
BLACK
6
CONTINUOUS
10
0.7377379921259842
20
0.6241675590551181
11
0.7376911811023622
21
0.6242118897637795
0
LINE
8
BLACK
6
CONTINUOUS
10
0.7376911811023622
20
0.6242118897637795
11
0.7358164173228346
21
0.6279614173228346
0
LINE
8
BLACK
6
CONTINUOUS
10
0.7358164173228346
20
0.6279614173228346
11
0.7355240551181103
21
0.6289443700787402
0
LINE
8
BLACK
6
CONTINUOUS
10
0.7355240551181103
20
0.6289443700787402
11
0.7355650393700788
21
0.6291160236220472
0
LINE
8
BLACK
6
CONTINUOUS
10
0.7355650393700788
20
0.6291160236220472
11
0.7355046850393701
21
0.6292819291338583
0
LINE
8
BLACK
6
CONTINUOUS
10
0.7355046850393701
20
0.6292819291338583
11
0.7355046850393701
21
0.6424052755905512
0
LINE
8
BLACK
6
CONTINUOUS
10
0.7355046850393701
20
0.6424052755905512
11
0.7355722834645669
21
0.6427887795275591
0
LINE
8
BLACK
6
CONTINUOUS
10
0.7355722834645669
20
0.6427887795275591
11
0.7355495275590551
21
0.642918031496063
0
LINE
8
BLACK
6
CONTINUOUS
10
0.7355495275590551
20
0.642918031496063
11
0.7356151181102362
21
0.6430316141732283
0
LINE
8
BLACK
6
CONTINUOUS
10
0.7356151181102362
20
0.6430316141732283
11
0.7356827559055118
21
0.6434151968503937
0
LINE
8
BLACK
6
CONTINUOUS
10
0.7356827559055118
20
0.6434151968503937
11
0.7361758661417322
21
0.644002874015748
0
LINE
8
BLACK
6
CONTINUOUS
10
0.7361758661417322
20
0.644002874015748
11
0.7365594488188976
21
0.6446672047244094
0
LINE
8
BLACK
6
CONTINUOUS
10
0.7365594488188976
20
0.6446672047244094
11
0.7368097637795276
21
0.6447583070866142
0
LINE
8
BLACK
6
CONTINUOUS
10
0.7368097637795276
20
0.6447583070866142
11
0.736981062992126
21
0.6449624409448819
0
LINE
8
BLACK
6
CONTINUOUS
10
0.736981062992126
20
0.6449624409448819
11
0.7377366141732283
21
0.6450956692913385
0
LINE
8
BLACK
6
CONTINUOUS
10
0.7377366141732283
20
0.6450956692913385
11
0.7384574409448819
21
0.645358031496063
0
LINE
8
BLACK
6
CONTINUOUS
10
0.7384574409448819
20
0.645358031496063
11
0.7778275196850394
21
0.645358031496063
0
LINE
8
BLACK
6
CONTINUOUS
10
0.7778275196850394
20
0.645358031496063
11
0.7782110236220472
21
0.6452903937007873
0
LINE
8
BLACK
6
CONTINUOUS
10
0.7601578346456693
20
0.629761062992126
11
0.7616606299212598
21
0.6252526377952756
0
LINE
8
BLACK
6
CONTINUOUS
10
0.7616606299212598
20
0.6252526377952756
11
0.7627037007874016
21
0.6242096062992126
0
LINE
8
BLACK
6
CONTINUOUS
10
0.7627037007874016
20
0.6242096062992126
11
0.7654011811023622
21
0.6228608661417323
0
LINE
8
BLACK
6
CONTINUOUS
10
0.7654011811023622
20
0.6228608661417323
11
0.7696313779527559
21
0.6228608661417323
0
LINE
8
BLACK
6
CONTINUOUS
10
0.7696313779527559
20
0.6228608661417323
11
0.7723288582677165
21
0.6242096062992126
0
LINE
8
BLACK
6
CONTINUOUS
10
0.7723288582677165
20
0.6242096062992126
11
0.7735260236220473
21
0.6254067322834646
0
LINE
8
BLACK
6
CONTINUOUS
10
0.7735260236220473
20
0.6254067322834646
11
0.7748747637795276
21
0.6281042125984252
0
LINE
8
BLACK
6
CONTINUOUS
10
0.7748747637795276
20
0.6281042125984252
11
0.7748747637795276
21
0.6394525196850394
0
LINE
8
BLACK
6
CONTINUOUS
10
0.7748747637795276
20
0.6394525196850394
11
0.7601578346456693
21
0.6394525196850394
0
LINE
8
BLACK
6
CONTINUOUS
10
0.7601578346456693
20
0.6394525196850394
11
0.7601578346456693
21
0.629761062992126
0
LINE
8
BLACK
6
CONTINUOUS
10
0.7414101968503937
20
0.6299789763779527
11
0.742758937007874
21
0.6272814960629921
0
LINE
8
BLACK
6
CONTINUOUS
10
0.742758937007874
20
0.6272814960629921
11
0.743956062992126
21
0.6260843700787402
0
LINE
8
BLACK
6
CONTINUOUS
10
0.743956062992126
20
0.6260843700787402
11
0.7466535433070866
21
0.6247356299212599
0
LINE
8
BLACK
6
CONTINUOUS
10
0.7466535433070866
20
0.6247356299212599
11
0.7490089763779527
21
0.6247356299212599
0
LINE
8
BLACK
6
CONTINUOUS
10
0.7490089763779527
20
0.6247356299212599
11
0.7517064566929134
21
0.6260843700787402
0
LINE
8
BLACK
6
CONTINUOUS
10
0.7517064566929134
20
0.6260843700787402
11
0.7529035826771653
21
0.6272814960629921
0
LINE
8
BLACK
6
CONTINUOUS
10
0.7529035826771653
20
0.6272814960629921
11
0.7542523228346456
21
0.6299789763779527
0
LINE
8
BLACK
6
CONTINUOUS
10
0.7542523228346456
20
0.6299789763779527
11
0.7542523228346456
21
0.6394525196850394
0
LINE
8
BLACK
6
CONTINUOUS
10
0.7542523228346456
20
0.6394525196850394
11
0.7414101968503937
21
0.6394525196850394
0
LINE
8
BLACK
6
CONTINUOUS
10
0.7414101968503937
20
0.6394525196850394
11
0.7414101968503937
21
0.6299789763779527
0
LINE
8
BLACK
6
CONTINUOUS
10
0.7650912992125984
20
0.6930471653543306
11
0.765782125984252
21
0.6911491732283465
0
LINE
8
BLACK
6
CONTINUOUS
10
0.765782125984252
20
0.6911491732283465
11
0.765782125984252
21
0.6611529527559055
0
LINE
8
BLACK
6
CONTINUOUS
10
0.765782125984252
20
0.6611529527559055
11
0.7656040551181102
21
0.660143031496063
0
LINE
8
BLACK
6
CONTINUOUS
10
0.7656040551181102
20
0.660143031496063
11
0.7643057480314961
21
0.6585957874015748
0
LINE
8
BLACK
6
CONTINUOUS
10
0.7643057480314961
20
0.6585957874015748
11
0.7623166141732284
21
0.6582450393700787
0
LINE
8
BLACK
6
CONTINUOUS
10
0.7623166141732284
20
0.6582450393700787
11
0.7605674409448818
21
0.6592549606299213
0
LINE
8
BLACK
6
CONTINUOUS
10
0.7605674409448818
20
0.6592549606299213
11
0.7598766141732284
21
0.6611529527559055
0
LINE
8
BLACK
6
CONTINUOUS
10
0.7598766141732284
20
0.6611529527559055
11
0.7598766141732284
21
0.6911491732283465
0
LINE
8
BLACK
6
CONTINUOUS
10
0.7598766141732284
20
0.6911491732283465
11
0.76005468503937
21
0.6921590944881889
0
LINE
8
BLACK
6
CONTINUOUS
10
0.76005468503937
20
0.6921590944881889
11
0.7613529921259843
21
0.6937063385826772
0
LINE
8
BLACK
6
CONTINUOUS
10
0.7613529921259843
20
0.6937063385826772
11
0.763342125984252
21
0.6940570866141732
0
LINE
8
BLACK
6
CONTINUOUS
10
0.763342125984252
20
0.6940570866141732
11
0.7650912992125984
21
0.6930471653543306
0
LINE
8
BLACK
6
CONTINUOUS
10
0.7514651181102362
20
0.7328908267716535
11
0.7525779527559054
21
0.7312052755905512
0
LINE
8
BLACK
6
CONTINUOUS
10
0.7525779527559054
20
0.7312052755905512
11
0.7523470472440945
21
0.7291987401574803
0
LINE
8
BLACK
6
CONTINUOUS
10
0.7523470472440945
20
0.7291987401574803
11
0.750472283464567
21
0.7254492125984252
0
LINE
8
BLACK
6
CONTINUOUS
10
0.750472283464567
20
0.7254492125984252
11
0.7499463385826771
21
0.7247401181102362
0
LINE
8
BLACK
6
CONTINUOUS
10
0.7499463385826771
20
0.7247401181102362
11
0.7499191732283464
21
0.7246818110236221
0
LINE
8
BLACK
6
CONTINUOUS
10
0.7499191732283464
20
0.7246818110236221
11
0.7474607874015747
21
0.7222234251968503
0
LINE
8
BLACK
6
CONTINUOUS
10
0.7474607874015747
20
0.7222234251968503
11
0.7748747637795276
21
0.7222234251968503
0
LINE
8
BLACK
6
CONTINUOUS
10
0.7748747637795276
20
0.7222234251968503
11
0.7748747637795276
21
0.7305192519685039
0
LINE
8
BLACK
6
CONTINUOUS
10
0.7748747637795276
20
0.7305192519685039
11
0.7750528346456693
21
0.7315291732283464
0
LINE
8
BLACK
6
CONTINUOUS
10
0.7750528346456693
20
0.7315291732283464
11
0.7763511417322835
21
0.7330764173228347
0
LINE
8
BLACK
6
CONTINUOUS
10
0.7763511417322835
20
0.7330764173228347
11
0.7783402755905512
21
0.7334271653543307
0
LINE
8
BLACK
6
CONTINUOUS
10
0.7783402755905512
20
0.7334271653543307
11
0.7800894488188976
21
0.7324172440944882
0
LINE
8
BLACK
6
CONTINUOUS
10
0.7800894488188976
20
0.7324172440944882
11
0.7807802755905512
21
0.7305192519685039
0
LINE
8
BLACK
6
CONTINUOUS
10
0.7807802755905512
20
0.7305192519685039
11
0.7807802755905512
21
0.7080220866141732
0
LINE
8
BLACK
6
CONTINUOUS
10
0.7807802755905512
20
0.7080220866141732
11
0.7806022047244094
21
0.7070121653543306
0
LINE
8
BLACK
6
CONTINUOUS
10
0.7806022047244094
20
0.7070121653543306
11
0.7793038976377953
21
0.7054649212598425
0
LINE
8
BLACK
6
CONTINUOUS
10
0.7793038976377953
20
0.7054649212598425
11
0.7773147637795276
21
0.7051141732283465
0
LINE
8
BLACK
6
CONTINUOUS
10
0.7773147637795276
20
0.7051141732283465
11
0.7755655905511811
21
0.7061240944881889
0
LINE
8
BLACK
6
CONTINUOUS
10
0.7755655905511811
20
0.7061240944881889
11
0.7748747637795276
21
0.7080220866141732
0
LINE
8
BLACK
6
CONTINUOUS
10
0.7748747637795276
20
0.7080220866141732
11
0.7748747637795276
21
0.7163179133858267
0
LINE
8
BLACK
6
CONTINUOUS
10
0.7748747637795276
20
0.7163179133858267
11
0.7384574409448819
21
0.7163179133858267
0
LINE
8
BLACK
6
CONTINUOUS
10
0.7384574409448819
20
0.7163179133858267
11
0.7374475196850393
21
0.7164959842519685
0
LINE
8
BLACK
6
CONTINUOUS
10
0.7374475196850393
20
0.7164959842519685
11
0.7373174409448818
21
0.7166050787401574
0
LINE
8
BLACK
6
CONTINUOUS
10
0.7373174409448818
20
0.7166050787401574
11
0.7371487007874016
21
0.7166237795275591
0
LINE
8
BLACK
6
CONTINUOUS
10
0.7371487007874016
20
0.7166237795275591
11
0.7365567716535433
21
0.7172433858267716
0
LINE
8
BLACK
6
CONTINUOUS
10
0.7365567716535433
20
0.7172433858267716
11
0.7359002755905512
21
0.7177942913385826
0
LINE
8
BLACK
6
CONTINUOUS
10
0.7359002755905512
20
0.7177942913385826
11
0.7358707874015747
21
0.7179614960629921
0
LINE
8
BLACK
6
CONTINUOUS
10
0.7358707874015747
20
0.7179614960629921
11
0.7357535039370079
21
0.7180842913385826
0
LINE
8
BLACK
6
CONTINUOUS
10
0.7357535039370079
20
0.7180842913385826
11
0.7356983464566929
21
0.7189394094488188
0
LINE
8
BLACK
6
CONTINUOUS
10
0.7356983464566929
20
0.7189394094488188
11
0.7355495275590551
21
0.7197834251968503
0
LINE
8
BLACK
6
CONTINUOUS
10
0.7355495275590551
20
0.7197834251968503
11
0.7356344094488189
21
0.7199304724409449
0
LINE
8
BLACK
6
CONTINUOUS
10
0.7356344094488189
20
0.7199304724409449
11
0.7356235039370078
21
0.7200998818897638
0
LINE
8
BLACK
6
CONTINUOUS
10
0.7356235039370078
20
0.7200998818897638
11
0.7361309448818898
21
0.7207904724409449
0
LINE
8
BLACK
6
CONTINUOUS
10
0.7361309448818898
20
0.7207904724409449
11
0.7365594488188976
21
0.7215325984251968
0
LINE
8
BLACK
6
CONTINUOUS
10
0.7365594488188976
20
0.7215325984251968
11
0.7367189370078741
21
0.7215906299212598
0
LINE
8
BLACK
6
CONTINUOUS
10
0.7367189370078741
20
0.7215906299212598
11
0.7368195275590551
21
0.7217275196850393
0
LINE
8
BLACK
6
CONTINUOUS
10
0.7368195275590551
20
0.7217275196850393
11
0.7422005511811024
21
0.725314842519685
0
LINE
8
BLACK
6
CONTINUOUS
10
0.7422005511811024
20
0.725314842519685
11
0.7454045275590551
21
0.7285188188976378
0
LINE
8
BLACK
6
CONTINUOUS
10
0.7454045275590551
20
0.7285188188976378
11
0.747065
21
0.7318397637795275
0
LINE
8
BLACK
6
CONTINUOUS
10
0.747065
20
0.7318397637795275
11
0.747675905511811
21
0.7326634251968503
0
LINE
8
BLACK
6
CONTINUOUS
10
0.747675905511811
20
0.7326634251968503
11
0.7495290944881889
21
0.7334666929133858
0
LINE
8
BLACK
6
CONTINUOUS
10
0.7495290944881889
20
0.7334666929133858
11
0.7514651181102362
21
0.7328908267716535
0
LINE
8
BLACK
6
CONTINUOUS
10
0.7652844881889763
20
0.7746144881889764
11
0.7654202755905511
21
0.7746287007874015
0
LINE
8
BLACK
6
CONTINUOUS
10
0.7654202755905511
20
0.7746287007874015
11
0.7729193307086614
21
0.772753937007874
0
LINE
8
BLACK
6
CONTINUOUS
10
0.7729193307086614
20
0.772753937007874
11
0.773855905511811
21
0.7723362204724409
0
LINE
8
BLACK
6
CONTINUOUS
10
0.773855905511811
20
0.7723362204724409
11
0.7740270078740157
21
0.7721003543307087
0
LINE
8
BLACK
6
CONTINUOUS
10
0.7740270078740157
20
0.7721003543307087
11
0.7742911023622047
21
0.7719772440944882
0
LINE
8
BLACK
6
CONTINUOUS
10
0.7742911023622047
20
0.7719772440944882
11
0.7780406692913385
21
0.7682277165354331
0
LINE
8
BLACK
6
CONTINUOUS
10
0.7780406692913385
20
0.7682277165354331
11
0.7785470472440945
21
0.7675045275590551
0
LINE
8
BLACK
6
CONTINUOUS
10
0.7785470472440945
20
0.7675045275590551
11
0.778593779527559
21
0.7674603149606299
0
LINE
8
BLACK
6
CONTINUOUS
10
0.778593779527559
20
0.7674603149606299
11
0.7804685433070866
21
0.7637107874015748
0
LINE
8
BLACK
6
CONTINUOUS
10
0.7804685433070866
20
0.7637107874015748
11
0.780760905511811
21
0.762727874015748
0
LINE
8
BLACK
6
CONTINUOUS
10
0.780760905511811
20
0.762727874015748
11
0.7807198818897637
21
0.7625561417322835
0
LINE
8
BLACK
6
CONTINUOUS
10
0.7807198818897637
20
0.7625561417322835
11
0.7807802755905512
21
0.7623902755905512
0
LINE
8
BLACK
6
CONTINUOUS
10
0.7807802755905512
20
0.7623902755905512
11
0.7807802755905512
21
0.7548912204724409
0
LINE
8
BLACK
6
CONTINUOUS
10
0.7807802755905512
20
0.7548912204724409
11
0.7806022047244094
21
0.7538812992125984
0
LINE
8
BLACK
6
CONTINUOUS
10
0.7806022047244094
20
0.7538812992125984
11
0.7804887007874015
21
0.7537460236220472
0
LINE
8
BLACK
6
CONTINUOUS
10
0.7804887007874015
20
0.7537460236220472
11
0.7804685433070866
21
0.7535707086614173
0
LINE
8
BLACK
6
CONTINUOUS
10
0.7804685433070866
20
0.7535707086614173
11
0.7795455511811024
21
0.7517247244094488
0
LINE
8
BLACK
6
CONTINUOUS
10
0.7795455511811024
20
0.7517247244094488
11
0.7817901968503936
21
0.7494800787401574
0
LINE
8
BLACK
6
CONTINUOUS
10
0.7817901968503936
20
0.7494800787401574
11
0.7822965748031496
21
0.7487568897637795
0
LINE
8
BLACK
6
CONTINUOUS
10
0.7822965748031496
20
0.7487568897637795
11
0.7823433070866141
21
0.7487126771653543
0
LINE
8
BLACK
6
CONTINUOUS
10
0.7823433070866141
20
0.7487126771653543
11
0.7842180708661417
21
0.7449631496062992
0
LINE
8
BLACK
6
CONTINUOUS
10
0.7842180708661417
20
0.7449631496062992
11
0.7845104330708661
21
0.7439802362204724
0
LINE
8
BLACK
6
CONTINUOUS
10
0.7845104330708661
20
0.7439802362204724
11
0.7840411417322835
21
0.7420157086614173
0
LINE
8
BLACK
6
CONTINUOUS
10
0.7840411417322835
20
0.7420157086614173
11
0.7824188582677165
21
0.7408124015748031
0
LINE
8
BLACK
6
CONTINUOUS
10
0.7824188582677165
20
0.7408124015748031
11
0.780402716535433
21
0.7409334645669291
0
LINE
8
BLACK
6
CONTINUOUS
10
0.780402716535433
20
0.7409334645669291
11
0.7789360236220473
21
0.742322125984252
0
LINE
8
BLACK
6
CONTINUOUS
10
0.7789360236220473
20
0.742322125984252
11
0.7772755511811024
21
0.7456430708661417
0
LINE
8
BLACK
6
CONTINUOUS
10
0.7772755511811024
20
0.7456430708661417
11
0.7759527165354331
21
0.7469658661417322
0
LINE
8
BLACK
6
CONTINUOUS
10
0.7759527165354331
20
0.7469658661417322
11
0.7742911023622047
21
0.7453042519685039
0
LINE
8
BLACK
6
CONTINUOUS
10
0.7742911023622047
20
0.7453042519685039
11
0.773451062992126
21
0.7447160236220473
0
LINE
8
BLACK
6
CONTINUOUS
10
0.773451062992126
20
0.7447160236220473
11
0.773160748031496
21
0.7446906299212598
0
LINE
8
BLACK
6
CONTINUOUS
10
0.773160748031496
20
0.7446906299212598
11
0.7729193307086614
21
0.7445275590551181
0
LINE
8
BLACK
6
CONTINUOUS
10
0.7729193307086614
20
0.7445275590551181
11
0.7654202755905511
21
0.7426527952755906
0
LINE
8
BLACK
6
CONTINUOUS
10
0.7654202755905511
20
0.7426527952755906
11
0.7648323622047244
21
0.7426112992125984
0
LINE
8
BLACK
6
CONTINUOUS
10
0.7648323622047244
20
0.7426112992125984
11
0.7647041338582677
21
0.7425646456692914
0
LINE
8
BLACK
6
CONTINUOUS
10
0.7647041338582677
20
0.7425646456692914
11
0.7515807874015747
21
0.7425646456692914
0
LINE
8
BLACK
6
CONTINUOUS
10
0.7515807874015747
20
0.7425646456692914
11
0.7510003937007874
21
0.742666968503937
0
LINE
8
BLACK
6
CONTINUOUS
10
0.7510003937007874
20
0.742666968503937
11
0.7508646456692913
21
0.7426527952755906
0
LINE
8
BLACK
6
CONTINUOUS
10
0.7508646456692913
20
0.7426527952755906
11
0.7433655905511811
21
0.7445275590551181
0
LINE
8
BLACK
6
CONTINUOUS
10
0.7433655905511811
20
0.7445275590551181
11
0.7424290157480314
21
0.7449452755905511
0
LINE
8
BLACK
6
CONTINUOUS
10
0.7424290157480314
20
0.7449452755905511
11
0.7422578740157481
21
0.7451811023622047
0
LINE
8
BLACK
6
CONTINUOUS
10
0.7422578740157481
20
0.7451811023622047
11
0.7419938188976378
21
0.7453042519685039
0
LINE
8
BLACK
6
CONTINUOUS
10
0.7419938188976378
20
0.7453042519685039
11
0.7382442913385827
21
0.749053779527559
0
LINE
8
BLACK
6
CONTINUOUS
10
0.7382442913385827
20
0.749053779527559
11
0.7377379921259842
21
0.7497768503937008
0
LINE
8
BLACK
6
CONTINUOUS
10
0.7377379921259842
20
0.7497768503937008
11
0.7376911811023622
21
0.7498211811023622
0
LINE
8
BLACK
6
CONTINUOUS
10
0.7376911811023622
20
0.7498211811023622
11
0.7358164173228346
21
0.7535707086614173
0
LINE
8
BLACK
6
CONTINUOUS
10
0.7358164173228346
20
0.7535707086614173
11
0.7355240551181103
21
0.7545536614173228
0
LINE
8
BLACK
6
CONTINUOUS
10
0.7355240551181103
20
0.7545536614173228
11
0.7355650393700788
21
0.7547253149606299
0
LINE
8
BLACK
6
CONTINUOUS
10
0.7355650393700788
20
0.7547253149606299
11
0.7355046850393701
21
0.7548912204724409
0
LINE
8
BLACK
6
CONTINUOUS
10
0.7355046850393701
20
0.7548912204724409
11
0.7355046850393701
21
0.7623902755905512
0
LINE
8
BLACK
6
CONTINUOUS
10
0.7355046850393701
20
0.7623902755905512
11
0.7356827559055118
21
0.7634001968503937
0
LINE
8
BLACK
6
CONTINUOUS
10
0.7356827559055118
20
0.7634001968503937
11
0.735796220472441
21
0.7635354330708661
0
LINE
8
BLACK
6
CONTINUOUS
10
0.735796220472441
20
0.7635354330708661
11
0.7358164173228346
21
0.7637107874015748
0
LINE
8
BLACK
6
CONTINUOUS
10
0.7358164173228346
20
0.7637107874015748
11
0.7376911811023622
21
0.7674603149606299
0
LINE
8
BLACK
6
CONTINUOUS
10
0.7376911811023622
20
0.7674603149606299
11
0.7382170866141732
21
0.7681693700787401
0
LINE
8
BLACK
6
CONTINUOUS
10
0.7382170866141732
20
0.7681693700787401
11
0.7382442913385827
21
0.7682277165354331
0
LINE
8
BLACK
6
CONTINUOUS
10
0.7382442913385827
20
0.7682277165354331
11
0.7419938188976378
21
0.7719772440944882
0
LINE
8
BLACK
6
CONTINUOUS
10
0.7419938188976378
20
0.7719772440944882
11
0.7428338582677165
21
0.7725654724409449
0
LINE
8
BLACK
6
CONTINUOUS
10
0.7428338582677165
20
0.7725654724409449
11
0.7431241338582677
21
0.7725908661417322
0
LINE
8
BLACK
6
CONTINUOUS
10
0.7431241338582677
20
0.7725908661417322
11
0.7433655905511811
21
0.772753937007874
0
LINE
8
BLACK
6
CONTINUOUS
10
0.7433655905511811
20
0.772753937007874
11
0.7508646456692913
21
0.7746287007874015
0
LINE
8
BLACK
6
CONTINUOUS
10
0.7508646456692913
20
0.7746287007874015
11
0.7514525196850393
21
0.774670157480315
0
LINE
8
BLACK
6
CONTINUOUS
10
0.7514525196850393
20
0.774670157480315
11
0.7515807874015747
21
0.7747168503937008
0
LINE
8
BLACK
6
CONTINUOUS
10
0.7515807874015747
20
0.7747168503937008
11
0.7647041338582677
21
0.7747168503937008
0
LINE
8
BLACK
6
CONTINUOUS
10
0.7647041338582677
20
0.7747168503937008
11
0.7652844881889763
21
0.7746144881889764
0
LINE
8
BLACK
6
CONTINUOUS
10
0.7455912992125984
20
0.7672230708661417
11
0.742758937007874
21
0.7643907086614173
0
LINE
8
BLACK
6
CONTINUOUS
10
0.742758937007874
20
0.7643907086614173
11
0.7414101968503937
21
0.7616932283464567
0
LINE
8
BLACK
6
CONTINUOUS
10
0.7414101968503937
20
0.7616932283464567
11
0.7414101968503937
21
0.7555882677165354
0
LINE
8
BLACK
6
CONTINUOUS
10
0.7414101968503937
20
0.7555882677165354
11
0.742758937007874
21
0.7528907874015748
0
LINE
8
BLACK
6
CONTINUOUS
10
0.742758937007874
20
0.7528907874015748
11
0.7455912992125984
21
0.7500583858267716
0
LINE
8
BLACK
6
CONTINUOUS
10
0.7455912992125984
20
0.7500583858267716
11
0.7519443307086614
21
0.748470157480315
0
LINE
8
BLACK
6
CONTINUOUS
10
0.7519443307086614
20
0.748470157480315
11
0.7643405905511811
21
0.748470157480315
0
LINE
8
BLACK
6
CONTINUOUS
10
0.7643405905511811
20
0.748470157480315
11
0.7706935826771654
21
0.7500583858267716
0
LINE
8
BLACK
6
CONTINUOUS
10
0.7706935826771654
20
0.7500583858267716
11
0.7717768897637796
21
0.7511416929133858
0
LINE
8
BLACK
6
CONTINUOUS
10
0.7717768897637796
20
0.7511416929133858
11
0.7682405118110236
21
0.7546780708661417
0
LINE
8
BLACK
6
CONTINUOUS
10
0.7682405118110236
20
0.7546780708661417
11
0.7677342125984252
21
0.7554011417322835
0
LINE
8
BLACK
6
CONTINUOUS
10
0.7677342125984252
20
0.7554011417322835
11
0.7676874015748031
21
0.7554454724409448
0
LINE
8
BLACK
6
CONTINUOUS
10
0.7676874015748031
20
0.7554454724409448
11
0.7658126377952755
21
0.759195
0
LINE
8
BLACK
6
CONTINUOUS
10
0.7658126377952755
20
0.759195
11
0.7655202755905511
21
0.7601779527559055
0
LINE
8
BLACK
6
CONTINUOUS
10
0.7655202755905511
20
0.7601779527559055
11
0.7655612598425197
21
0.7603496062992126
0
LINE
8
BLACK
6
CONTINUOUS
10
0.7655612598425197
20
0.7603496062992126
11
0.765500905511811
21
0.7605155118110236
0
LINE
8
BLACK
6
CONTINUOUS
10
0.765500905511811
20
0.7605155118110236
11
0.765500905511811
21
0.7642650393700787
0
LINE
8
BLACK
6
CONTINUOUS
10
0.765500905511811
20
0.7642650393700787
11
0.7656789763779528
21
0.7652749606299213
0
LINE
8
BLACK
6
CONTINUOUS
10
0.7656789763779528
20
0.7652749606299213
11
0.766977283464567
21
0.7668222047244094
0
LINE
8
BLACK
6
CONTINUOUS
10
0.766977283464567
20
0.7668222047244094
11
0.7689664173228347
21
0.7671729527559055
0
LINE
8
BLACK
6
CONTINUOUS
10
0.7689664173228347
20
0.7671729527559055
11
0.7707155905511811
21
0.766163031496063
0
LINE
8
BLACK
6
CONTINUOUS
10
0.7707155905511811
20
0.766163031496063
11
0.7714064173228347
21
0.7642650393700787
0
LINE
8
BLACK
6
CONTINUOUS
10
0.7714064173228347
20
0.7642650393700787
11
0.7714064173228347
21
0.7612125590551181
0
LINE
8
BLACK
6
CONTINUOUS
10
0.7714064173228347
20
0.7612125590551181
11
0.7727551181102362
21
0.7585150787401574
0
LINE
8
BLACK
6
CONTINUOUS
10
0.7727551181102362
20
0.7585150787401574
11
0.7748747637795276
21
0.7563954724409448
0
LINE
8
BLACK
6
CONTINUOUS
10
0.7748747637795276
20
0.7563954724409448
11
0.7748747637795276
21
0.7616932283464567
0
LINE
8
BLACK
6
CONTINUOUS
10
0.7748747637795276
20
0.7616932283464567
11
0.7735260236220473
21
0.7643906692913386
0
LINE
8
BLACK
6
CONTINUOUS
10
0.7735260236220473
20
0.7643906692913386
11
0.7706935826771654
21
0.7672230708661417
0
LINE
8
BLACK
6
CONTINUOUS
10
0.7706935826771654
20
0.7672230708661417
11
0.7643405905511811
21
0.7688113385826771
0
LINE
8
BLACK
6
CONTINUOUS
10
0.7643405905511811
20
0.7688113385826771
11
0.7519443307086614
21
0.7688113385826771
0
LINE
8
BLACK
6
CONTINUOUS
10
0.7519443307086614
20
0.7688113385826771
11
0.7455912992125984
21
0.7672230708661417
0
LINE
8
BLACK
6
CONTINUOUS
10
0.7650912992125984
20
0.820531220472441
11
0.765782125984252
21
0.8186332283464567
0
LINE
8
BLACK
6
CONTINUOUS
10
0.765782125984252
20
0.8186332283464567
11
0.765782125984252
21
0.7886370078740157
0
LINE
8
BLACK
6
CONTINUOUS
10
0.765782125984252
20
0.7886370078740157
11
0.7656040551181102
21
0.7876270866141732
0
LINE
8
BLACK
6
CONTINUOUS
10
0.7656040551181102
20
0.7876270866141732
11
0.7643057480314961
21
0.786079842519685
0
LINE
8
BLACK
6
CONTINUOUS
10
0.7643057480314961
20
0.786079842519685
11
0.7623166141732284
21
0.785729094488189
0
LINE
8
BLACK
6
CONTINUOUS
10
0.7623166141732284
20
0.785729094488189
11
0.7605674409448818
21
0.7867390157480315
0
LINE
8
BLACK
6
CONTINUOUS
10
0.7605674409448818
20
0.7867390157480315
11
0.7598766141732284
21
0.7886370078740157
0
LINE
8
BLACK
6
CONTINUOUS
10
0.7598766141732284
20
0.7886370078740157
11
0.7598766141732284
21
0.8186332283464567
0
LINE
8
BLACK
6
CONTINUOUS
10
0.7598766141732284
20
0.8186332283464567
11
0.76005468503937
21
0.8196431496062992
0
LINE
8
BLACK
6
CONTINUOUS
10
0.76005468503937
20
0.8196431496062992
11
0.7613529921259843
21
0.8211903937007874
0
LINE
8
BLACK
6
CONTINUOUS
10
0.7613529921259843
20
0.8211903937007874
11
0.763342125984252
21
0.8215411417322834
0
LINE
8
BLACK
6
CONTINUOUS
10
0.763342125984252
20
0.8215411417322834
11
0.7650912992125984
21
0.820531220472441
0
LINE
8
BLACK
6
CONTINUOUS
10
0.7634097244094488
20
0.8608537007874015
11
0.7635455118110236
21
0.8608679133858268
0
LINE
8
BLACK
6
CONTINUOUS
10
0.7635455118110236
20
0.8608679133858268
11
0.7710445669291338
21
0.8589931496062992
0
LINE
8
BLACK
6
CONTINUOUS
10
0.7710445669291338
20
0.8589931496062992
11
0.77151
21
0.8587855511811023
0
LINE
8
BLACK
6
CONTINUOUS
10
0.77151
20
0.8587855511811023
11
0.771648937007874
21
0.8587695669291339
0
LINE
8
BLACK
6
CONTINUOUS
10
0.771648937007874
20
0.8587695669291339
11
0.7753984645669291
21
0.8568948031496063
0
LINE
8
BLACK
6
CONTINUOUS
10
0.7753984645669291
20
0.8568948031496063
11
0.7761074409448818
21
0.856368937007874
0
LINE
8
BLACK
6
CONTINUOUS
10
0.7761074409448818
20
0.856368937007874
11
0.7761658267716536
21
0.8563417322834646
0
LINE
8
BLACK
6
CONTINUOUS
10
0.7761658267716536
20
0.8563417322834646
11
0.7780406299212598
21
0.854466968503937
0
LINE
8
BLACK
6
CONTINUOUS
10
0.7780406299212598
20
0.854466968503937
11
0.7785470078740158
21
0.8537437795275591
0
LINE
8
BLACK
6
CONTINUOUS
10
0.7785470078740158
20
0.8537437795275591
11
0.778593779527559
21
0.8536995275590551
0
LINE
8
BLACK
6
CONTINUOUS
10
0.778593779527559
20
0.8536995275590551
11
0.7804685433070866
21
0.84995
0
LINE
8
BLACK
6
CONTINUOUS
10
0.7804685433070866
20
0.84995
11
0.780760905511811
21
0.8489670866141732
0
LINE
8
BLACK
6
CONTINUOUS
10
0.780760905511811
20
0.8489670866141732
11
0.7807198818897637
21
0.8487953543307086
0
LINE
8
BLACK
6
CONTINUOUS
10
0.7807198818897637
20
0.8487953543307086
11
0.7807802755905512
21
0.8486294881889763
0
LINE
8
BLACK
6
CONTINUOUS
10
0.7807802755905512
20
0.8486294881889763
11
0.7807802755905512
21
0.8448799606299212
0
LINE
8
BLACK
6
CONTINUOUS
10
0.7807802755905512
20
0.8448799606299212
11
0.7806022047244094
21
0.8438700393700788
0
LINE
8
BLACK
6
CONTINUOUS
10
0.7806022047244094
20
0.8438700393700788
11
0.7804887007874015
21
0.8437347637795275
0
LINE
8
BLACK
6
CONTINUOUS
10
0.7804887007874015
20
0.8437347637795275
11
0.7804685433070866
21
0.8435594488188977
0
LINE
8
BLACK
6
CONTINUOUS
10
0.7804685433070866
20
0.8435594488188977
11
0.778593779527559
21
0.8398099212598426
0
LINE
8
BLACK
6
CONTINUOUS
10
0.778593779527559
20
0.8398099212598426
11
0.7780677952755906
21
0.8391007874015748
0
LINE
8
BLACK
6
CONTINUOUS
10
0.7780677952755906
20
0.8391007874015748
11
0.7780406299212598
21
0.8390424803149606
0
LINE
8
BLACK
6
CONTINUOUS
10
0.7780406299212598
20
0.8390424803149606
11
0.7761658267716536
21
0.8371677165354331
0
LINE
8
BLACK
6
CONTINUOUS
10
0.7761658267716536
20
0.8371677165354331
11
0.7754427559055118
21
0.8366614173228346
0
LINE
8
BLACK
6
CONTINUOUS
10
0.7754427559055118
20
0.8366614173228346
11
0.7753984645669291
21
0.8366146456692913
0
LINE
8
BLACK
6
CONTINUOUS
10
0.7753984645669291
20
0.8366146456692913
11
0.771648937007874
21
0.8347398818897638
0
LINE
8
BLACK
6
CONTINUOUS
10
0.771648937007874
20
0.8347398818897638
11
0.7711604724409449
21
0.8345945669291338
0
LINE
8
BLACK
6
CONTINUOUS
10
0.7711604724409449
20
0.8345945669291338
11
0.7710445669291338
21
0.8345162992125984
0
LINE
8
BLACK
6
CONTINUOUS
10
0.7710445669291338
20
0.8345162992125984
11
0.7635455118110236
21
0.8326415354330708
0
LINE
8
BLACK
6
CONTINUOUS
10
0.7635455118110236
20
0.8326415354330708
11
0.7629575984251968
21
0.8326000393700788
0
LINE
8
BLACK
6
CONTINUOUS
10
0.7629575984251968
20
0.8326000393700788
11
0.7628293700787402
21
0.8325533858267716
0
LINE
8
BLACK
6
CONTINUOUS
10
0.7628293700787402
20
0.8325533858267716
11
0.7534555511811023
21
0.8325533858267716
0
LINE
8
BLACK
6
CONTINUOUS
10
0.7534555511811023
20
0.8325533858267716
11
0.752875157480315
21
0.8326557086614172
0
LINE
8
BLACK
6
CONTINUOUS
10
0.752875157480315
20
0.8326557086614172
11
0.7527394094488189
21
0.8326415354330708
0
LINE
8
BLACK
6
CONTINUOUS
10
0.7527394094488189
20
0.8326415354330708
11
0.7452403543307087
21
0.8345162992125984
0
LINE
8
BLACK
6
CONTINUOUS
10
0.7452403543307087
20
0.8345162992125984
11
0.7447748818897638
21
0.8347238582677166
0
LINE
8
BLACK
6
CONTINUOUS
10
0.7447748818897638
20
0.8347238582677166
11
0.7446359842519685
21
0.8347398818897638
0
LINE
8
BLACK
6
CONTINUOUS
10
0.7446359842519685
20
0.8347398818897638
11
0.7408864566929134
21
0.8366146456692913
0
LINE
8
BLACK
6
CONTINUOUS
10
0.7408864566929134
20
0.8366146456692913
11
0.7401773622047244
21
0.8371405118110236
0
LINE
8
BLACK
6
CONTINUOUS
10
0.7401773622047244
20
0.8371405118110236
11
0.7401190551181103
21
0.8371677559055118
0
LINE
8
BLACK
6
CONTINUOUS
10
0.7401190551181103
20
0.8371677559055118
11
0.7382442913385827
21
0.8390425196850394
0
LINE
8
BLACK
6
CONTINUOUS
10
0.7382442913385827
20
0.8390425196850394
11
0.7377379921259842
21
0.8397655905511811
0
LINE
8
BLACK
6
CONTINUOUS
10
0.7377379921259842
20
0.8397655905511811
11
0.7376911811023622
21
0.8398099212598426
0
LINE
8
BLACK
6
CONTINUOUS
10
0.7376911811023622
20
0.8398099212598426
11
0.7358164173228346
21
0.8435594488188977
0
LINE
8
BLACK
6
CONTINUOUS
10
0.7358164173228346
20
0.8435594488188977
11
0.7355240551181103
21
0.8445424015748031
0
LINE
8
BLACK
6
CONTINUOUS
10
0.7355240551181103
20
0.8445424015748031
11
0.7355650393700788
21
0.8447140551181103
0
LINE
8
BLACK
6
CONTINUOUS
10
0.7355650393700788
20
0.8447140551181103
11
0.7355046850393701
21
0.8448799606299212
0
LINE
8
BLACK
6
CONTINUOUS
10
0.7355046850393701
20
0.8448799606299212
11
0.7355046850393701
21
0.8486294881889763
0
LINE
8
BLACK
6
CONTINUOUS
10
0.7355046850393701
20
0.8486294881889763
11
0.7356827559055118
21
0.8496394094488189
0
LINE
8
BLACK
6
CONTINUOUS
10
0.7356827559055118
20
0.8496394094488189
11
0.735796220472441
21
0.8497746456692913
0
LINE
8
BLACK
6
CONTINUOUS
10
0.735796220472441
20
0.8497746456692913
11
0.7358164173228346
21
0.84995
0
LINE
8
BLACK
6
CONTINUOUS
10
0.7358164173228346
20
0.84995
11
0.7376911811023622
21
0.8536995275590551
0
LINE
8
BLACK
6
CONTINUOUS
10
0.7376911811023622
20
0.8536995275590551
11
0.7382170866141732
21
0.8544085826771654
0
LINE
8
BLACK
6
CONTINUOUS
10
0.7382170866141732
20
0.8544085826771654
11
0.7382442913385827
21
0.8544669291338582
0
LINE
8
BLACK
6
CONTINUOUS
10
0.7382442913385827
20
0.8544669291338582
11
0.7401190551181103
21
0.8563416929133858
0
LINE
8
BLACK
6
CONTINUOUS
10
0.7401190551181103
20
0.8563416929133858
11
0.7408421259842519
21
0.8568479527559055
0
LINE
8
BLACK
6
CONTINUOUS
10
0.7408421259842519
20
0.8568479527559055
11
0.7408864566929134
21
0.8568948031496063
0
LINE
8
BLACK
6
CONTINUOUS
10
0.7408864566929134
20
0.8568948031496063
11
0.7446359842519685
21
0.8587695669291339
0
LINE
8
BLACK
6
CONTINUOUS
10
0.7446359842519685
20
0.8587695669291339
11
0.7451244094488189
21
0.858914842519685
0
LINE
8
BLACK
6
CONTINUOUS
10
0.7451244094488189
20
0.858914842519685
11
0.7452403543307087
21
0.8589931496062992
0
LINE
8
BLACK
6
CONTINUOUS
10
0.7452403543307087
20
0.8589931496062992
11
0.7527394094488189
21
0.8608679133858268
0
LINE
8
BLACK
6
CONTINUOUS
10
0.7527394094488189
20
0.8608679133858268
11
0.7533272834645669
21
0.8609093700787401
0
LINE
8
BLACK
6
CONTINUOUS
10
0.7533272834645669
20
0.8609093700787401
11
0.7534555511811023
21
0.860956062992126
0
LINE
8
BLACK
6
CONTINUOUS
10
0.7534555511811023
20
0.860956062992126
11
0.7628293700787402
21
0.860956062992126
0
LINE
8
BLACK
6
CONTINUOUS
10
0.7628293700787402
20
0.860956062992126
11
0.7634097244094488
21
0.8608537007874015
0
LINE
8
BLACK
6
CONTINUOUS
10
0.7469870472440945
20
0.8533425196850394
11
0.743956062992126
21
0.8518270472440944
0
LINE
8
BLACK
6
CONTINUOUS
10
0.743956062992126
20
0.8518270472440944
11
0.742758937007874
21
0.8506299212598425
0
LINE
8
BLACK
6
CONTINUOUS
10
0.742758937007874
20
0.8506299212598425
11
0.7414101968503937
21
0.8479324409448818
0
LINE
8
BLACK
6
CONTINUOUS
10
0.7414101968503937
20
0.8479324409448818
11
0.7414101968503937
21
0.8455770078740157
0
LINE
8
BLACK
6
CONTINUOUS
10
0.7414101968503937
20
0.8455770078740157
11
0.742758937007874
21
0.8428795275590552
0
LINE
8
BLACK
6
CONTINUOUS
10
0.742758937007874
20
0.8428795275590552
11
0.743956062992126
21
0.8416824015748031
0
LINE
8
BLACK
6
CONTINUOUS
10
0.743956062992126
20
0.8416824015748031
11
0.7469870472440945
21
0.8401668897637795
0
LINE
8
BLACK
6
CONTINUOUS
10
0.7469870472440945
20
0.8401668897637795
11
0.753819094488189
21
0.8384588976377952
0
LINE
8
BLACK
6
CONTINUOUS
10
0.753819094488189
20
0.8384588976377952
11
0.7624658267716535
21
0.8384588976377952
0
LINE
8
BLACK
6
CONTINUOUS
10
0.7624658267716535
20
0.8384588976377952
11
0.769297874015748
21
0.8401668897637795
0
LINE
8
BLACK
6
CONTINUOUS
10
0.769297874015748
20
0.8401668897637795
11
0.7723288582677165
21
0.8416824015748031
0
LINE
8
BLACK
6
CONTINUOUS
10
0.7723288582677165
20
0.8416824015748031
11
0.7735260236220473
21
0.8428795275590552
0
LINE
8
BLACK
6
CONTINUOUS
10
0.7735260236220473
20
0.8428795275590552
11
0.7748747637795276
21
0.8455770078740157
0
LINE
8
BLACK
6
CONTINUOUS
10
0.7748747637795276
20
0.8455770078740157
11
0.7748747637795276
21
0.8479324409448818
0
LINE
8
BLACK
6
CONTINUOUS
10
0.7748747637795276
20
0.8479324409448818
11
0.7735260236220473
21
0.8506298818897637
0
LINE
8
BLACK
6
CONTINUOUS
10
0.7735260236220473
20
0.8506298818897637
11
0.7723288582677165
21
0.8518270078740158
0
LINE
8
BLACK
6
CONTINUOUS
10
0.7723288582677165
20
0.8518270078740158
11
0.769297874015748
21
0.8533425196850394
0
LINE
8
BLACK
6
CONTINUOUS
10
0.769297874015748
20
0.8533425196850394
11
0.7624658267716535
21
0.8550505511811023
0
LINE
8
BLACK
6
CONTINUOUS
10
0.7624658267716535
20
0.8550505511811023
11
0.753819094488189
21
0.8550505511811023
0
LINE
8
BLACK
6
CONTINUOUS
10
0.753819094488189
20
0.8550505511811023
11
0.7469870472440945
21
0.8533425196850394
0
LINE
8
BLACK
6
CONTINUOUS
10
0.7713383464566929
20
0.8982733070866141
11
0.7714735826771654
21
0.8981598031496063
0
LINE
8
BLACK
6
CONTINUOUS
10
0.7714735826771654
20
0.8981598031496063
11
0.771648937007874
21
0.8981396456692913
0
LINE
8
BLACK
6
CONTINUOUS
10
0.771648937007874
20
0.8981396456692913
11
0.7753984645669291
21
0.8962648818897637
0
LINE
8
BLACK
6
CONTINUOUS
10
0.7753984645669291
20
0.8962648818897637
11
0.7761074409448818
21
0.8957390157480315
0
LINE
8
BLACK
6
CONTINUOUS
10
0.7761074409448818
20
0.8957390157480315
11
0.7761658267716536
21
0.8957118110236221
0
LINE
8
BLACK
6
CONTINUOUS
10
0.7761658267716536
20
0.8957118110236221
11
0.7780406299212598
21
0.8938370472440945
0
LINE
8
BLACK
6
CONTINUOUS
10
0.7780406299212598
20
0.8938370472440945
11
0.7785470078740158
21
0.8931138582677165
0
LINE
8
BLACK
6
CONTINUOUS
10
0.7785470078740158
20
0.8931138582677165
11
0.778593779527559
21
0.8930696062992126
0
LINE
8
BLACK
6
CONTINUOUS
10
0.778593779527559
20
0.8930696062992126
11
0.7804685433070866
21
0.8893200787401575
0
LINE
8
BLACK
6
CONTINUOUS
10
0.7804685433070866
20
0.8893200787401575
11
0.780760905511811
21
0.8883371653543307
0
LINE
8
BLACK
6
CONTINUOUS
10
0.780760905511811
20
0.8883371653543307
11
0.7807198818897637
21
0.8881654330708662
0
LINE
8
BLACK
6
CONTINUOUS
10
0.7807198818897637
20
0.8881654330708662
11
0.7807802755905512
21
0.8879995669291338
0
LINE
8
BLACK
6
CONTINUOUS
10
0.7807802755905512
20
0.8879995669291338
11
0.7807802755905512
21
0.8805005118110236
0
LINE
8
BLACK
6
CONTINUOUS
10
0.7807802755905512
20
0.8805005118110236
11
0.7806022047244094
21
0.8794905905511811
0
LINE
8
BLACK
6
CONTINUOUS
10
0.7806022047244094
20
0.8794905905511811
11
0.7804887007874015
21
0.8793553149606299
0
LINE
8
BLACK
6
CONTINUOUS
10
0.7804887007874015
20
0.8793553149606299
11
0.7804685433070866
21
0.87918
0
LINE
8
BLACK
6
CONTINUOUS
10
0.7804685433070866
20
0.87918
11
0.778593779527559
21
0.8754304724409449
0
LINE
8
BLACK
6
CONTINUOUS
10
0.778593779527559
20
0.8754304724409449
11
0.7780677952755906
21
0.8747213385826772
0
LINE
8
BLACK
6
CONTINUOUS
10
0.7780677952755906
20
0.8747213385826772
11
0.7780406299212598
21
0.8746630314960629
0
LINE
8
BLACK
6
CONTINUOUS
10
0.7780406299212598
20
0.8746630314960629
11
0.7761658267716536
21
0.8727882677165354
0
LINE
8
BLACK
6
CONTINUOUS
10
0.7761658267716536
20
0.8727882677165354
11
0.7754427559055118
21
0.872281968503937
0
LINE
8
BLACK
6
CONTINUOUS
10
0.7754427559055118
20
0.872281968503937
11
0.7753984645669291
21
0.8722351968503936
0
LINE
8
BLACK
6
CONTINUOUS
10
0.7753984645669291
20
0.8722351968503936
11
0.771648937007874
21
0.8703604330708661
0
LINE
8
BLACK
6
CONTINUOUS
10
0.771648937007874
20
0.8703604330708661
11
0.7706659842519685
21
0.8700680708661417
0
LINE
8
BLACK
6
CONTINUOUS
10
0.7706659842519685
20
0.8700680708661417
11
0.7704942913385826
21
0.8701090551181102
0
LINE
8
BLACK
6
CONTINUOUS
10
0.7704942913385826
20
0.8701090551181102
11
0.7703284251968504
21
0.8700487007874016
0
LINE
8
BLACK
6
CONTINUOUS
10
0.7703284251968504
20
0.8700487007874016
11
0.7609546062992126
21
0.8700487007874016
0
LINE
8
BLACK
6
CONTINUOUS
10
0.7609546062992126
20
0.8700487007874016
11
0.7599446850393701
21
0.8702267716535433
0
LINE
8
BLACK
6
CONTINUOUS
10
0.7599446850393701
20
0.8702267716535433
11
0.7598094094488189
21
0.8703402362204724
0
LINE
8
BLACK
6
CONTINUOUS
10
0.7598094094488189
20
0.8703402362204724
11
0.759634094488189
21
0.8703604330708661
0
LINE
8
BLACK
6
CONTINUOUS
10
0.759634094488189
20
0.8703604330708661
11
0.7558845669291339
21
0.8722351968503936
0
LINE
8
BLACK
6
CONTINUOUS
10
0.7558845669291339
20
0.8722351968503936
11
0.7551754724409449
21
0.872761062992126
0
LINE
8
BLACK
6
CONTINUOUS
10
0.7551754724409449
20
0.872761062992126
11
0.7551171653543307
21
0.8727883070866141
0
LINE
8
BLACK
6
CONTINUOUS
10
0.7551171653543307
20
0.8727883070866141
11
0.7532424015748032
21
0.8746630708661417
0
LINE
8
BLACK
6
CONTINUOUS
10
0.7532424015748032
20
0.8746630708661417
11
0.7527361023622047
21
0.8753861417322835
0
LINE
8
BLACK
6
CONTINUOUS
10
0.7527361023622047
20
0.8753861417322835
11
0.7526892913385826
21
0.8754304724409449
0
LINE
8
BLACK
6
CONTINUOUS
10
0.7526892913385826
20
0.8754304724409449
11
0.7508145275590551
21
0.87918
0
LINE
8
BLACK
6
CONTINUOUS
10
0.7508145275590551
20
0.87918
11
0.7505221653543307
21
0.8801629527559055
0
LINE
8
BLACK
6
CONTINUOUS
10
0.7505221653543307
20
0.8801629527559055
11
0.7505631496062992
21
0.8803346062992126
0
LINE
8
BLACK
6
CONTINUOUS
10
0.7505631496062992
20
0.8803346062992126
11
0.7505027952755905
21
0.8805005118110236
0
LINE
8
BLACK
6
CONTINUOUS
10
0.7505027952755905
20
0.8805005118110236
11
0.7505027952755905
21
0.8879995669291338
0
LINE
8
BLACK
6
CONTINUOUS
10
0.7505027952755905
20
0.8879995669291338
11
0.7506808661417322
21
0.8890094881889764
0
LINE
8
BLACK
6
CONTINUOUS
10
0.7506808661417322
20
0.8890094881889764
11
0.7507943307086614
21
0.8891447244094488
0
LINE
8
BLACK
6
CONTINUOUS
10
0.7507943307086614
20
0.8891447244094488
11
0.7508145275590551
21
0.8893200787401575
0
LINE
8
BLACK
6
CONTINUOUS
10
0.7508145275590551
20
0.8893200787401575
11
0.7519607874015748
21
0.8916125984251968
0
LINE
8
BLACK
6
CONTINUOUS
10
0.7519607874015748
20
0.8916125984251968
11
0.7490436220472441
21
0.8908833070866141
0
LINE
8
BLACK
6
CONTINUOUS
10
0.7490436220472441
20
0.8908833070866141
11
0.7440880708661417
21
0.8875796062992126
0
LINE
8
BLACK
6
CONTINUOUS
10
0.7440880708661417
20
0.8875796062992126
11
0.742758937007874
21
0.8862504724409449
0
LINE
8
BLACK
6
CONTINUOUS
10
0.742758937007874
20
0.8862504724409449
11
0.7414101968503937
21
0.8835529921259843
0
LINE
8
BLACK
6
CONTINUOUS
10
0.7414101968503937
20
0.8835529921259843
11
0.7414101968503937
21
0.8767509842519685
0
LINE
8
BLACK
6
CONTINUOUS
10
0.7414101968503937
20
0.8767509842519685
11
0.7412321259842519
21
0.875741062992126
0
LINE
8
BLACK
6
CONTINUOUS
10
0.7412321259842519
20
0.875741062992126
11
0.7399338188976378
21
0.8741938188976378
0
LINE
8
BLACK
6
CONTINUOUS
10
0.7399338188976378
20
0.8741938188976378
11
0.7379446850393701
21
0.8738430708661417
0
LINE
8
BLACK
6
CONTINUOUS
10
0.7379446850393701
20
0.8738430708661417
11
0.7361955118110236
21
0.8748529921259842
0
LINE
8
BLACK
6
CONTINUOUS
10
0.7361955118110236
20
0.8748529921259842
11
0.7355046850393701
21
0.8767509842519685
0
LINE
8
BLACK
6
CONTINUOUS
10
0.7355046850393701
20
0.8767509842519685
11
0.7355046850393701
21
0.8842500393700787
0
LINE
8
BLACK
6
CONTINUOUS
10
0.7355046850393701
20
0.8842500393700787
11
0.7356827559055118
21
0.8852599606299213
0
LINE
8
BLACK
6
CONTINUOUS
10
0.7356827559055118
20
0.8852599606299213
11
0.735796220472441
21
0.8853951968503937
0
LINE
8
BLACK
6
CONTINUOUS
10
0.735796220472441
20
0.8853951968503937
11
0.7358164173228346
21
0.8855705511811024
0
LINE
8
BLACK
6
CONTINUOUS
10
0.7358164173228346
20
0.8855705511811024
11
0.7376911811023622
21
0.8893200787401575
0
LINE
8
BLACK
6
CONTINUOUS
10
0.7376911811023622
20
0.8893200787401575
11
0.7382170866141732
21
0.8900291338582677
0
LINE
8
BLACK
6
CONTINUOUS
10
0.7382170866141732
20
0.8900291338582677
11
0.7382442913385827
21
0.8900874803149607
0
LINE
8
BLACK
6
CONTINUOUS
10
0.7382442913385827
20
0.8900874803149607
11
0.7401190551181103
21
0.8919622440944882
0
LINE
8
BLACK
6
CONTINUOUS
10
0.7401190551181103
20
0.8919622440944882
11
0.7404875196850393
21
0.8922202362204724
0
LINE
8
BLACK
6
CONTINUOUS
10
0.7404875196850393
20
0.8922202362204724
11
0.7405690551181102
21
0.8923311811023622
0
LINE
8
BLACK
6
CONTINUOUS
10
0.7405690551181102
20
0.8923311811023622
11
0.7461933858267716
21
0.8960807086614173
0
LINE
8
BLACK
6
CONTINUOUS
10
0.7461933858267716
20
0.8960807086614173
11
0.7471011023622047
21
0.8964790157480315
0
LINE
8
BLACK
6
CONTINUOUS
10
0.7471011023622047
20
0.8964790157480315
11
0.7471151181102362
21
0.8964884645669291
0
LINE
8
BLACK
6
CONTINUOUS
10
0.7471151181102362
20
0.8964884645669291
11
0.7546141732283465
21
0.8983632283464567
0
LINE
8
BLACK
6
CONTINUOUS
10
0.7546141732283465
20
0.8983632283464567
11
0.7552020472440945
21
0.8984046850393701
0
LINE
8
BLACK
6
CONTINUOUS
10
0.7552020472440945
20
0.8984046850393701
11
0.7553303149606299
21
0.8984513779527559
0
LINE
8
BLACK
6
CONTINUOUS
10
0.7553303149606299
20
0.8984513779527559
11
0.7703284251968504
21
0.8984513779527559
0
LINE
8
BLACK
6
CONTINUOUS
10
0.7703284251968504
20
0.8984513779527559
11
0.7713383464566929
21
0.8982733070866141
0
LINE
8
BLACK
6
CONTINUOUS
10
0.7589541732283465
20
0.8911971259842519
11
0.7577570472440944
21
0.89
0
LINE
8
BLACK
6
CONTINUOUS
10
0.7577570472440944
20
0.89
11
0.7564083070866141
21
0.8873025196850394
0
LINE
8
BLACK
6
CONTINUOUS
10
0.7564083070866141
20
0.8873025196850394
11
0.7564083070866141
21
0.8811975590551181
0
LINE
8
BLACK
6
CONTINUOUS
10
0.7564083070866141
20
0.8811975590551181
11
0.7577570472440944
21
0.8785000787401575
0
LINE
8
BLACK
6
CONTINUOUS
10
0.7577570472440944
20
0.8785000787401575
11
0.7589541732283465
21
0.8773029527559055
0
LINE
8
BLACK
6
CONTINUOUS
10
0.7589541732283465
20
0.8773029527559055
11
0.7616516535433071
21
0.8759542125984252
0
LINE
8
BLACK
6
CONTINUOUS
10
0.7616516535433071
20
0.8759542125984252
11
0.7696313779527559
21
0.8759542125984252
0
LINE
8
BLACK
6
CONTINUOUS
10
0.7696313779527559
20
0.8759542125984252
11
0.7723288582677165
21
0.8773029527559055
0
LINE
8
BLACK
6
CONTINUOUS
10
0.7723288582677165
20
0.8773029527559055
11
0.7735260236220473
21
0.8785000787401575
0
LINE
8
BLACK
6
CONTINUOUS
10
0.7735260236220473
20
0.8785000787401575
11
0.7748747637795276
21
0.8811975590551181
0
LINE
8
BLACK
6
CONTINUOUS
10
0.7748747637795276
20
0.8811975590551181
11
0.7748747637795276
21
0.8873025196850394
0
LINE
8
BLACK
6
CONTINUOUS
10
0.7748747637795276
20
0.8873025196850394
11
0.7735260236220473
21
0.8899999606299213
0
LINE
8
BLACK
6
CONTINUOUS
10
0.7735260236220473
20
0.8899999606299213
11
0.7723288582677165
21
0.8911970866141732
0
LINE
8
BLACK
6
CONTINUOUS
10
0.7723288582677165
20
0.8911970866141732
11
0.7696313779527559
21
0.8925458661417323
0
LINE
8
BLACK
6
CONTINUOUS
10
0.7696313779527559
20
0.8925458661417323
11
0.7616516535433071
21
0.8925458661417323
0
LINE
8
BLACK
6
CONTINUOUS
10
0.7616516535433071
20
0.8925458661417323
11
0.7589541732283465
21
0.8911971259842519
0
LINE
8
BLACK
6
CONTINUOUS
10
0.7514651181102362
20
0.9353655118110236
11
0.7525779527559054
21
0.9336799606299212
0
LINE
8
BLACK
6
CONTINUOUS
10
0.7525779527559054
20
0.9336799606299212
11
0.7523470472440945
21
0.9316734251968504
0
LINE
8
BLACK
6
CONTINUOUS
10
0.7523470472440945
20
0.9316734251968504
11
0.750472283464567
21
0.9279238976377953
0
LINE
8
BLACK
6
CONTINUOUS
10
0.750472283464567
20
0.9279238976377953
11
0.7499463385826771
21
0.9272148031496062
0
LINE
8
BLACK
6
CONTINUOUS
10
0.7499463385826771
20
0.9272148031496062
11
0.7499191732283464
21
0.9271564960629921
0
LINE
8
BLACK
6
CONTINUOUS
10
0.7499191732283464
20
0.9271564960629921
11
0.7474607874015747
21
0.9246981102362205
0
LINE
8
BLACK
6
CONTINUOUS
10
0.7474607874015747
20
0.9246981102362205
11
0.7748747637795276
21
0.9246981102362205
0
LINE
8
BLACK
6
CONTINUOUS
10
0.7748747637795276
20
0.9246981102362205
11
0.7748747637795276
21
0.932993937007874
0
LINE
8
BLACK
6
CONTINUOUS
10
0.7748747637795276
20
0.932993937007874
11
0.7750528346456693
21
0.9340038582677165
0
LINE
8
BLACK
6
CONTINUOUS
10
0.7750528346456693
20
0.9340038582677165
11
0.7763511417322835
21
0.9355511023622047
0
LINE
8
BLACK
6
CONTINUOUS
10
0.7763511417322835
20
0.9355511023622047
11
0.7783402755905512
21
0.9359018503937008
0
LINE
8
BLACK
6
CONTINUOUS
10
0.7783402755905512
20
0.9359018503937008
11
0.7800894488188976
21
0.9348919291338582
0
LINE
8
BLACK
6
CONTINUOUS
10
0.7800894488188976
20
0.9348919291338582
11
0.7807802755905512
21
0.932993937007874
0
LINE
8
BLACK
6
CONTINUOUS
10
0.7807802755905512
20
0.932993937007874
11
0.7807802755905512
21
0.9104967716535433
0
LINE
8
BLACK
6
CONTINUOUS
10
0.7807802755905512
20
0.9104967716535433
11
0.7806022047244094
21
0.9094868503937008
0
LINE
8
BLACK
6
CONTINUOUS
10
0.7806022047244094
20
0.9094868503937008
11
0.7793038976377953
21
0.9079396062992126
0
LINE
8
BLACK
6
CONTINUOUS
10
0.7793038976377953
20
0.9079396062992126
11
0.7773147637795276
21
0.9075888582677165
0
LINE
8
BLACK
6
CONTINUOUS
10
0.7773147637795276
20
0.9075888582677165
11
0.7755655905511811
21
0.9085987795275591
0
LINE
8
BLACK
6
CONTINUOUS
10
0.7755655905511811
20
0.9085987795275591
11
0.7748747637795276
21
0.9104967716535433
0
LINE
8
BLACK
6
CONTINUOUS
10
0.7748747637795276
20
0.9104967716535433
11
0.7748747637795276
21
0.9187925984251968
0
LINE
8
BLACK
6
CONTINUOUS
10
0.7748747637795276
20
0.9187925984251968
11
0.7384574409448819
21
0.9187925984251968
0
LINE
8
BLACK
6
CONTINUOUS
10
0.7384574409448819
20
0.9187925984251968
11
0.7374475196850393
21
0.9189706692913385
0
LINE
8
BLACK
6
CONTINUOUS
10
0.7374475196850393
20
0.9189706692913385
11
0.7373174409448818
21
0.9190797637795275
0
LINE
8
BLACK
6
CONTINUOUS
10
0.7373174409448818
20
0.9190797637795275
11
0.7371487007874016
21
0.9190984645669291
0
LINE
8
BLACK
6
CONTINUOUS
10
0.7371487007874016
20
0.9190984645669291
11
0.7365567716535433
21
0.9197180708661417
0
LINE
8
BLACK
6
CONTINUOUS
10
0.7365567716535433
20
0.9197180708661417
11
0.7359002755905512
21
0.9202689763779527
0
LINE
8
BLACK
6
CONTINUOUS
10
0.7359002755905512
20
0.9202689763779527
11
0.7358707874015747
21
0.9204361811023621
0
LINE
8
BLACK
6
CONTINUOUS
10
0.7358707874015747
20
0.9204361811023621
11
0.7357535039370079
21
0.9205589763779527
0
LINE
8
BLACK
6
CONTINUOUS
10
0.7357535039370079
20
0.9205589763779527
11
0.7356983464566929
21
0.921414094488189
0
LINE
8
BLACK
6
CONTINUOUS
10
0.7356983464566929
20
0.921414094488189
11
0.7355495275590551
21
0.9222581102362204
0
LINE
8
BLACK
6
CONTINUOUS
10
0.7355495275590551
20
0.9222581102362204
11
0.7356344094488189
21
0.9224051574803149
0
LINE
8
BLACK
6
CONTINUOUS
10
0.7356344094488189
20
0.9224051574803149
11
0.7356235039370078
21
0.9225745669291339
0
LINE
8
BLACK
6
CONTINUOUS
10
0.7356235039370078
20
0.9225745669291339
11
0.7361309448818898
21
0.9232651574803149
0
LINE
8
BLACK
6
CONTINUOUS
10
0.7361309448818898
20
0.9232651574803149
11
0.7365594488188976
21
0.924007283464567
0
LINE
8
BLACK
6
CONTINUOUS
10
0.7365594488188976
20
0.924007283464567
11
0.7367189370078741
21
0.9240653149606299
0
LINE
8
BLACK
6
CONTINUOUS
10
0.7367189370078741
20
0.9240653149606299
11
0.7368195275590551
21
0.9242022047244094
0
LINE
8
BLACK
6
CONTINUOUS
10
0.7368195275590551
20
0.9242022047244094
11
0.7422005511811024
21
0.9277895275590551
0
LINE
8
BLACK
6
CONTINUOUS
10
0.7422005511811024
20
0.9277895275590551
11
0.7454045275590551
21
0.9309935039370079
0
LINE
8
BLACK
6
CONTINUOUS
10
0.7454045275590551
20
0.9309935039370079
11
0.747065
21
0.9343144488188976
0
LINE
8
BLACK
6
CONTINUOUS
10
0.747065
20
0.9343144488188976
11
0.747675905511811
21
0.9351381102362204
0
LINE
8
BLACK
6
CONTINUOUS
10
0.747675905511811
20
0.9351381102362204
11
0.7495290944881889
21
0.9359413779527559
0
LINE
8
BLACK
6
CONTINUOUS
10
0.7495290944881889
20
0.9359413779527559
11
0.7514651181102362
21
0.9353655118110236
0
LINE
8
BLACK
6
CONTINUOUS
10
0.7788374409448818
20
0.9751387007874015
11
0.7803846850393701
21
0.9738403937007873
0
LINE
8
BLACK
6
CONTINUOUS
10
0.7803846850393701
20
0.9738403937007873
11
0.7807354330708661
21
0.9718512598425196
0
LINE
8
BLACK
6
CONTINUOUS
10
0.7807354330708661
20
0.9718512598425196
11
0.7797255118110236
21
0.9701020866141732
0
LINE
8
BLACK
6
CONTINUOUS
10
0.7797255118110236
20
0.9701020866141732
11
0.7778275196850394
21
0.9694112598425196
0
LINE
8
BLACK
6
CONTINUOUS
10
0.7778275196850394
20
0.9694112598425196
11
0.7601578346456693
21
0.9694112598425196
0
LINE
8
BLACK
6
CONTINUOUS
10
0.7601578346456693
20
0.9694112598425196
11
0.7601578346456693
21
0.9528196062992126
0
LINE
8
BLACK
6
CONTINUOUS
10
0.7601578346456693
20
0.9528196062992126
11
0.7778275196850394
21
0.9528196062992126
0
LINE
8
BLACK
6
CONTINUOUS
10
0.7778275196850394
20
0.9528196062992126
11
0.7788374409448818
21
0.9526415354330708
0
LINE
8
BLACK
6
CONTINUOUS
10
0.7788374409448818
20
0.9526415354330708
11
0.7803846850393701
21
0.9513432283464567
0
LINE
8
BLACK
6
CONTINUOUS
10
0.7803846850393701
20
0.9513432283464567
11
0.7807354330708661
21
0.949354094488189
0
LINE
8
BLACK
6
CONTINUOUS
10
0.7807354330708661
20
0.949354094488189
11
0.7797255118110236
21
0.9476049212598425
0
LINE
8
BLACK
6
CONTINUOUS
10
0.7797255118110236
20
0.9476049212598425
11
0.7778275196850394
21
0.946914094488189
0
LINE
8
BLACK
6
CONTINUOUS
10
0.7778275196850394
20
0.946914094488189
11
0.7384574409448819
21
0.946914094488189
0
LINE
8
BLACK
6
CONTINUOUS
10
0.7384574409448819
20
0.946914094488189
11
0.7374475196850393
21
0.9470921653543307
0
LINE
8
BLACK
6
CONTINUOUS
10
0.7374475196850393
20
0.9470921653543307
11
0.7359002755905512
21
0.9483904724409449
0
LINE
8
BLACK
6
CONTINUOUS
10
0.7359002755905512
20
0.9483904724409449
11
0.7355495275590551
21
0.9503796062992126
0
LINE
8
BLACK
6
CONTINUOUS
10
0.7355495275590551
20
0.9503796062992126
11
0.7365594488188976
21
0.952128779527559
0
LINE
8
BLACK
6
CONTINUOUS
10
0.7365594488188976
20
0.952128779527559
11
0.7384574409448819
21
0.9528196062992126
0
LINE
8
BLACK
6
CONTINUOUS
10
0.7384574409448819
20
0.9528196062992126
11
0.7542523228346456
21
0.9528196062992126
0
LINE
8
BLACK
6
CONTINUOUS
10
0.7542523228346456
20
0.9528196062992126
11
0.7542523228346456
21
0.9694112598425196
0
LINE
8
BLACK
6
CONTINUOUS
10
0.7542523228346456
20
0.9694112598425196
11
0.7384574409448819
21
0.9694112598425196
0
LINE
8
BLACK
6
CONTINUOUS
10
0.7384574409448819
20
0.9694112598425196
11
0.7374475196850393
21
0.9695893307086614
0
LINE
8
BLACK
6
CONTINUOUS
10
0.7374475196850393
20
0.9695893307086614
11
0.7359002755905512
21
0.9708876377952755
0
LINE
8
BLACK
6
CONTINUOUS
10
0.7359002755905512
20
0.9708876377952755
11
0.7355495275590551
21
0.9728767716535432
0
LINE
8
BLACK
6
CONTINUOUS
10
0.7355495275590551
20
0.9728767716535432
11
0.7365594488188976
21
0.9746259448818897
0
LINE
8
BLACK
6
CONTINUOUS
10
0.7365594488188976
20
0.9746259448818897
11
0.7384574409448819
21
0.9753167716535432
0
LINE
8
BLACK
6
CONTINUOUS
10
0.7384574409448819
20
0.9753167716535432
11
0.7778275196850394
21
0.9753167716535432
0
LINE
8
BLACK
6
CONTINUOUS
10
0.7778275196850394
20
0.9753167716535432
11
0.7788374409448818
21
0.9751387007874015
0
LINE
8
BLACK
6
CONTINUOUS
10
0.7649946062992126
20
1.0146027952755905
11
0.7652168897637796
21
1.0146420078740157
0
LINE
8
BLACK
6
CONTINUOUS
10
0.7652168897637796
20
1.0146420078740157
11
0.7659143700787402
21
1.014239251968504
0
LINE
8
BLACK
6
CONTINUOUS
10
0.7659143700787402
20
1.014239251968504
11
0.766663188976378
21
1.0139433464566929
0
LINE
8
BLACK
6
CONTINUOUS
10
0.766663188976378
20
1.0139433464566929
11
0.7667706299212598
21
1.0137448818897639
0
LINE
8
BLACK
6
CONTINUOUS
10
0.7667706299212598
20
1.0137448818897639
11
0.766966062992126
21
1.0136320866141733
0
LINE
8
BLACK
6
CONTINUOUS
10
0.766966062992126
20
1.0136320866141733
11
0.7672414566929133
21
1.0128753543307087
0
LINE
8
BLACK
6
CONTINUOUS
10
0.7672414566929133
20
1.0128753543307087
11
0.7676249606299212
21
1.0121672047244095
0
LINE
8
BLACK
6
CONTINUOUS
10
0.7676249606299212
20
1.0121672047244095
11
0.76757968503937
21
1.0119461023622047
0
LINE
8
BLACK
6
CONTINUOUS
10
0.76757968503937
20
1.0119461023622047
11
0.7676568897637795
21
1.011734094488189
0
LINE
8
BLACK
6
CONTINUOUS
10
0.7676568897637795
20
1.011734094488189
11
0.7676568897637795
21
0.9959392125984252
0
LINE
8
BLACK
6
CONTINUOUS
10
0.7676568897637795
20
0.9959392125984252
11
0.7778275196850394
21
0.9959392125984252
0
LINE
8
BLACK
6
CONTINUOUS
10
0.7778275196850394
20
0.9959392125984252
11
0.7788374409448818
21
0.9957611417322835
0
LINE
8
BLACK
6
CONTINUOUS
10
0.7788374409448818
20
0.9957611417322835
11
0.7803846850393701
21
0.9944628346456693
0
LINE
8
BLACK
6
CONTINUOUS
10
0.7803846850393701
20
0.9944628346456693
11
0.7807354330708661
21
0.9924737007874016
0
LINE
8
BLACK
6
CONTINUOUS
10
0.7807354330708661
20
0.9924737007874016
11
0.7797255118110236
21
0.990724527559055
0
LINE
8
BLACK
6
CONTINUOUS
10
0.7797255118110236
20
0.990724527559055
11
0.7778275196850394
21
0.9900337007874016
0
LINE
8
BLACK
6
CONTINUOUS
10
0.7778275196850394
20
0.9900337007874016
11
0.7676568897637795
21
0.9900337007874016
0
LINE
8
BLACK
6
CONTINUOUS
10
0.7676568897637795
20
0.9900337007874016
11
0.7676568897637795
21
0.9873621653543306
0
LINE
8
BLACK
6
CONTINUOUS
10
0.7676568897637795
20
0.9873621653543306
11
0.7674788188976378
21
0.9863522440944882
0
LINE
8
BLACK
6
CONTINUOUS
10
0.7674788188976378
20
0.9863522440944882
11
0.7661805118110236
21
0.9848049999999999
0
LINE
8
BLACK
6
CONTINUOUS
10
0.7661805118110236
20
0.9848049999999999
11
0.7641913779527559
21
0.9844542519685039
0
LINE
8
BLACK
6
CONTINUOUS
10
0.7641913779527559
20
0.9844542519685039
11
0.7624422047244094
21
0.9854641732283465
0
LINE
8
BLACK
6
CONTINUOUS
10
0.7624422047244094
20
0.9854641732283465
11
0.7617513779527559
21
0.9873621653543306
0
LINE
8
BLACK
6
CONTINUOUS
10
0.7617513779527559
20
0.9873621653543306
11
0.7617513779527559
21
0.9900337007874016
0
LINE
8
BLACK
6
CONTINUOUS
10
0.7617513779527559
20
0.9900337007874016
11
0.7515807874015747
21
0.9900337007874016
0
LINE
8
BLACK
6
CONTINUOUS
10
0.7515807874015747
20
0.9900337007874016
11
0.7505708661417323
21
0.9902117716535432
0
LINE
8
BLACK
6
CONTINUOUS
10
0.7505708661417323
20
0.9902117716535432
11
0.749023622047244
21
0.9915100787401575
0
LINE
8
BLACK
6
CONTINUOUS
10
0.749023622047244
20
0.9915100787401575
11
0.748672874015748
21
0.9934992125984252
0
LINE
8
BLACK
6
CONTINUOUS
10
0.748672874015748
20
0.9934992125984252
11
0.7496827952755906
21
0.9952483858267717
0
LINE
8
BLACK
6
CONTINUOUS
10
0.7496827952755906
20
0.9952483858267717
11
0.7515807874015747
21
0.9959392125984252
0
LINE
8
BLACK
6
CONTINUOUS
10
0.7515807874015747
20
0.9959392125984252
11
0.7617513779527559
21
0.9959392125984252
0
LINE
8
BLACK
6
CONTINUOUS
10
0.7617513779527559
20
0.9959392125984252
11
0.7617513779527559
21
1.0076373622047243
0
LINE
8
BLACK
6
CONTINUOUS
10
0.7617513779527559
20
1.0076373622047243
11
0.7375164173228347
21
0.9995590551181102
0
LINE
8
BLACK
6
CONTINUOUS
10
0.7375164173228347
20
0.9995590551181102
11
0.7365020078740158
21
0.9994086220472441
0
LINE
8
BLACK
6
CONTINUOUS
10
0.7365020078740158
20
0.9994086220472441
11
0.7346236220472441
21
1.0001510236220472
0
LINE
8
BLACK
6
CONTINUOUS
10
0.7346236220472441
20
1.0001510236220472
11
0.7336618503937008
21
1.0019271653543307
0
LINE
8
BLACK
6
CONTINUOUS
10
0.7336618503937008
20
1.0019271653543307
11
0.734066811023622
21
1.0039059448818897
0
LINE
8
BLACK
6
CONTINUOUS
10
0.734066811023622
20
1.0039059448818897
11
0.735648937007874
21
1.0051614960629922
0
LINE
8
BLACK
6
CONTINUOUS
10
0.735648937007874
20
1.0051614960629922
11
0.7637703543307086
21
1.01453531496063
0
LINE
8
BLACK
6
CONTINUOUS
10
0.7637703543307086
20
1.01453531496063
11
0.7647847637795275
21
1.0146857480314961
0
LINE
8
BLACK
6
CONTINUOUS
10
0.7647847637795275
20
1.0146857480314961
11
0.7649946062992126
21
1.0146027952755905
0
LINE
8
BLACK
6
CONTINUOUS
10
0.7507159448818898
20
1.052004094488189
11
0.7508511811023622
21
1.0518905905511811
0
LINE
8
BLACK
6
CONTINUOUS
10
0.7508511811023622
20
1.0518905905511811
11
0.7510265354330709
21
1.0518704330708661
0
LINE
8
BLACK
6
CONTINUOUS
10
0.7510265354330709
20
1.0518704330708661
11
0.754776062992126
21
1.0499956692913386
0
LINE
8
BLACK
6
CONTINUOUS
10
0.754776062992126
20
1.0499956692913386
11
0.7554851181102362
21
1.0494697244094489
0
LINE
8
BLACK
6
CONTINUOUS
10
0.7554851181102362
20
1.0494697244094489
11
0.7555434645669291
21
1.0494425590551182
0
LINE
8
BLACK
6
CONTINUOUS
10
0.7555434645669291
20
1.0494425590551182
11
0.7574182283464567
21
1.0475677952755906
0
LINE
8
BLACK
6
CONTINUOUS
10
0.7574182283464567
20
1.0475677952755906
11
0.7579244881889764
21
1.04684468503937
0
LINE
8
BLACK
6
CONTINUOUS
10
0.7579244881889764
20
1.04684468503937
11
0.7579713385826772
21
1.0468003937007875
0
LINE
8
BLACK
6
CONTINUOUS
10
0.7579713385826772
20
1.0468003937007875
11
0.7598461023622047
21
1.0430508661417324
0
LINE
8
BLACK
6
CONTINUOUS
10
0.7598461023622047
20
1.0430508661417324
11
0.7599913779527558
21
1.0425624015748032
0
LINE
8
BLACK
6
CONTINUOUS
10
0.7599913779527558
20
1.0425624015748032
11
0.7600696850393701
21
1.042446496062992
0
LINE
8
BLACK
6
CONTINUOUS
10
0.7600696850393701
20
1.042446496062992
11
0.7618658267716535
21
1.0352618503937008
0
LINE
8
BLACK
6
CONTINUOUS
10
0.7618658267716535
20
1.0352618503937008
11
0.7633813385826771
21
1.0322308661417323
0
LINE
8
BLACK
6
CONTINUOUS
10
0.7633813385826771
20
1.0322308661417323
11
0.7645784645669291
21
1.0310337401574803
0
LINE
8
BLACK
6
CONTINUOUS
10
0.7645784645669291
20
1.0310337401574803
11
0.7672759448818898
21
1.029685
0
LINE
8
BLACK
6
CONTINUOUS
10
0.7672759448818898
20
1.029685
11
0.7696313779527559
21
1.029685
0
LINE
8
BLACK
6
CONTINUOUS
10
0.7696313779527559
20
1.029685
11
0.7723288582677165
21
1.0310337401574803
0
LINE
8
BLACK
6
CONTINUOUS
10
0.7723288582677165
20
1.0310337401574803
11
0.7735260236220473
21
1.0322308661417323
0
LINE
8
BLACK
6
CONTINUOUS
10
0.7735260236220473
20
1.0322308661417323
11
0.7748747637795276
21
1.034928346456693
0
LINE
8
BLACK
6
CONTINUOUS
10
0.7748747637795276
20
1.034928346456693
11
0.7748747637795276
21
1.0431259842519685
0
LINE
8
BLACK
6
CONTINUOUS
10
0.7748747637795276
20
1.0431259842519685
11
0.7731515354330708
21
1.0482956692913385
0
LINE
8
BLACK
6
CONTINUOUS
10
0.7731515354330708
20
1.0482956692913385
11
0.7730011023622048
21
1.0493100787401575
0
LINE
8
BLACK
6
CONTINUOUS
10
0.7730011023622048
20
1.0493100787401575
11
0.7737435039370079
21
1.0511884645669292
0
LINE
8
BLACK
6
CONTINUOUS
10
0.7737435039370079
20
1.0511884645669292
11
0.7755196456692913
21
1.0521502362204724
0
LINE
8
BLACK
6
CONTINUOUS
10
0.7755196456692913
20
1.0521502362204724
11
0.7774984251968504
21
1.0517452755905512
0
LINE
8
BLACK
6
CONTINUOUS
10
0.7774984251968504
20
1.0517452755905512
11
0.7787539763779527
21
1.0501631496062991
0
LINE
8
BLACK
6
CONTINUOUS
10
0.7787539763779527
20
1.0501631496062991
11
0.7806287401574803
21
1.0445388976377952
0
LINE
8
BLACK
6
CONTINUOUS
10
0.7806287401574803
20
1.0445388976377952
11
0.7807582283464567
21
1.0436656299212599
0
LINE
8
BLACK
6
CONTINUOUS
10
0.7807582283464567
20
1.0436656299212599
11
0.7807802755905512
21
1.0436051181102362
0
LINE
8
BLACK
6
CONTINUOUS
10
0.7807802755905512
20
1.0436051181102362
11
0.7807802755905512
21
1.0342312992125984
0
LINE
8
BLACK
6
CONTINUOUS
10
0.7807802755905512
20
1.0342312992125984
11
0.7806022047244094
21
1.0332213779527559
0
LINE
8
BLACK
6
CONTINUOUS
10
0.7806022047244094
20
1.0332213779527559
11
0.7804887007874015
21
1.0330861023622047
0
LINE
8
BLACK
6
CONTINUOUS
10
0.7804887007874015
20
1.0330861023622047
11
0.7804685433070866
21
1.0329107874015748
0
LINE
8
BLACK
6
CONTINUOUS
10
0.7804685433070866
20
1.0329107874015748
11
0.778593779527559
21
1.0291612598425197
0
LINE
8
BLACK
6
CONTINUOUS
10
0.778593779527559
20
1.0291612598425197
11
0.7780677952755906
21
1.0284521259842518
0
LINE
8
BLACK
6
CONTINUOUS
10
0.7780677952755906
20
1.0284521259842518
11
0.7780406299212598
21
1.0283938188976378
0
LINE
8
BLACK
6
CONTINUOUS
10
0.7780406299212598
20
1.0283938188976378
11
0.7761658267716536
21
1.0265190551181103
0
LINE
8
BLACK
6
CONTINUOUS
10
0.7761658267716536
20
1.0265190551181103
11
0.7754427559055118
21
1.0260127559055119
0
LINE
8
BLACK
6
CONTINUOUS
10
0.7754427559055118
20
1.0260127559055119
11
0.7753984645669291
21
1.0259659842519684
0
LINE
8
BLACK
6
CONTINUOUS
10
0.7753984645669291
20
1.0259659842519684
11
0.771648937007874
21
1.0240912204724408
0
LINE
8
BLACK
6
CONTINUOUS
10
0.771648937007874
20
1.0240912204724408
11
0.7706659842519685
21
1.0237988582677164
0
LINE
8
BLACK
6
CONTINUOUS
10
0.7706659842519685
20
1.0237988582677164
11
0.7704942913385826
21
1.0238398425196851
0
LINE
8
BLACK
6
CONTINUOUS
10
0.7704942913385826
20
1.0238398425196851
11
0.7703284251968504
21
1.0237794881889763
0
LINE
8
BLACK
6
CONTINUOUS
10
0.7703284251968504
20
1.0237794881889763
11
0.7665788976377953
21
1.0237794881889763
0
LINE
8
BLACK
6
CONTINUOUS
10
0.7665788976377953
20
1.0237794881889763
11
0.7655689763779527
21
1.023957559055118
0
LINE
8
BLACK
6
CONTINUOUS
10
0.7655689763779527
20
1.023957559055118
11
0.7654337007874016
21
1.0240710236220472
0
LINE
8
BLACK
6
CONTINUOUS
10
0.7654337007874016
20
1.0240710236220472
11
0.7652583858267716
21
1.0240912204724408
0
LINE
8
BLACK
6
CONTINUOUS
10
0.7652583858267716
20
1.0240912204724408
11
0.7615088582677165
21
1.0259659842519684
0
LINE
8
BLACK
6
CONTINUOUS
10
0.7615088582677165
20
1.0259659842519684
11
0.7607997637795275
21
1.0264918503937008
0
LINE
8
BLACK
6
CONTINUOUS
10
0.7607997637795275
20
1.0264918503937008
11
0.7607414566929134
21
1.026519094488189
0
LINE
8
BLACK
6
CONTINUOUS
10
0.7607414566929134
20
1.026519094488189
11
0.7588666929133858
21
1.0283938582677166
0
LINE
8
BLACK
6
CONTINUOUS
10
0.7588666929133858
20
1.0283938582677166
11
0.7583603937007873
21
1.0291169291338582
0
LINE
8
BLACK
6
CONTINUOUS
10
0.7583603937007873
20
1.0291169291338582
11
0.7583135826771653
21
1.0291612598425197
0
LINE
8
BLACK
6
CONTINUOUS
10
0.7583135826771653
20
1.0291612598425197
11
0.7564388188976378
21
1.0329107874015748
0
LINE
8
BLACK
6
CONTINUOUS
10
0.7564388188976378
20
1.0329107874015748
11
0.7562935039370079
21
1.0333992125984253
0
LINE
8
BLACK
6
CONTINUOUS
10
0.7562935039370079
20
1.0333992125984253
11
0.7562152362204724
21
1.033515157480315
0
LINE
8
BLACK
6
CONTINUOUS
10
0.7562152362204724
20
1.033515157480315
11
0.7544190551181102
21
1.0406998031496062
0
LINE
8
BLACK
6
CONTINUOUS
10
0.7544190551181102
20
1.0406998031496062
11
0.7529035826771653
21
1.0437307874015749
0
LINE
8
BLACK
6
CONTINUOUS
10
0.7529035826771653
20
1.0437307874015749
11
0.7517064566929134
21
1.0449279133858267
0
LINE
8
BLACK
6
CONTINUOUS
10
0.7517064566929134
20
1.0449279133858267
11
0.7490089763779527
21
1.046276653543307
0
LINE
8
BLACK
6
CONTINUOUS
10
0.7490089763779527
20
1.046276653543307
11
0.7466535433070866
21
1.046276653543307
0
LINE
8
BLACK
6
CONTINUOUS
10
0.7466535433070866
20
1.046276653543307
11
0.743956062992126
21
1.0449279133858267
0
LINE
8
BLACK
6
CONTINUOUS
10
0.743956062992126
20
1.0449279133858267
11
0.742758937007874
21
1.0437307874015749
0
LINE
8
BLACK
6
CONTINUOUS
10
0.742758937007874
20
1.0437307874015749
11
0.7414101968503937
21
1.0410333070866142
0
LINE
8
BLACK
6
CONTINUOUS
10
0.7414101968503937
20
1.0410333070866142
11
0.7414101968503937
21
1.0328356692913385
0
LINE
8
BLACK
6
CONTINUOUS
10
0.7414101968503937
20
1.0328356692913385
11
0.7431334251968503
21
1.0276660236220472
0
LINE
8
BLACK
6
CONTINUOUS
10
0.7431334251968503
20
1.0276660236220472
11
0.7432838582677165
21
1.0266516141732283
0
LINE
8
BLACK
6
CONTINUOUS
10
0.7432838582677165
20
1.0266516141732283
11
0.7425414566929134
21
1.024773188976378
0
LINE
8
BLACK
6
CONTINUOUS
10
0.7425414566929134
20
1.024773188976378
11
0.7407653149606299
21
1.0238114173228345
0
LINE
8
BLACK
6
CONTINUOUS
10
0.7407653149606299
20
1.0238114173228345
11
0.7387865354330708
21
1.0242163779527558
0
LINE
8
BLACK
6
CONTINUOUS
10
0.7387865354330708
20
1.0242163779527558
11
0.7375309842519685
21
1.0257985039370079
0
LINE
8
BLACK
6
CONTINUOUS
10
0.7375309842519685
20
1.0257985039370079
11
0.7356562204724409
21
1.0314227952755906
0
LINE
8
BLACK
6
CONTINUOUS
10
0.7356562204724409
20
1.0314227952755906
11
0.7355267322834645
21
1.0322959448818898
0
LINE
8
BLACK
6
CONTINUOUS
10
0.7355267322834645
20
1.0322959448818898
11
0.7355046850393701
21
1.0323565354330708
0
LINE
8
BLACK
6
CONTINUOUS
10
0.7355046850393701
20
1.0323565354330708
11
0.7355046850393701
21
1.0417303543307086
0
LINE
8
BLACK
6
CONTINUOUS
10
0.7355046850393701
20
1.0417303543307086
11
0.7356827559055118
21
1.042740275590551
0
LINE
8
BLACK
6
CONTINUOUS
10
0.7356827559055118
20
1.042740275590551
11
0.735796220472441
21
1.0428755118110236
0
LINE
8
BLACK
6
CONTINUOUS
10
0.735796220472441
20
1.0428755118110236
11
0.7358164173228346
21
1.0430508661417324
0
LINE
8
BLACK
6
CONTINUOUS
10
0.7358164173228346
20
1.0430508661417324
11
0.7376911811023622
21
1.0468003937007875
0
LINE
8
BLACK
6
CONTINUOUS
10
0.7376911811023622
20
1.0468003937007875
11
0.7382170866141732
21
1.0475094488188976
0
LINE
8
BLACK
6
CONTINUOUS
10
0.7382170866141732
20
1.0475094488188976
11
0.7382442913385827
21
1.0475677952755906
0
LINE
8
BLACK
6
CONTINUOUS
10
0.7382442913385827
20
1.0475677952755906
11
0.7401190551181103
21
1.0494425590551182
0
LINE
8
BLACK
6
CONTINUOUS
10
0.7401190551181103
20
1.0494425590551182
11
0.7408421259842519
21
1.0499488188976378
0
LINE
8
BLACK
6
CONTINUOUS
10
0.7408421259842519
20
1.0499488188976378
11
0.7408864566929134
21
1.0499956692913386
0
LINE
8
BLACK
6
CONTINUOUS
10
0.7408864566929134
20
1.0499956692913386
11
0.7446359842519685
21
1.0518704330708661
0
LINE
8
BLACK
6
CONTINUOUS
10
0.7446359842519685
20
1.0518704330708661
11
0.7456188976377952
21
1.0521627952755905
0
LINE
8
BLACK
6
CONTINUOUS
10
0.7456188976377952
20
1.0521627952755905
11
0.7457905905511811
21
1.0521217716535434
0
LINE
8
BLACK
6
CONTINUOUS
10
0.7457905905511811
20
1.0521217716535434
11
0.7459564960629921
21
1.0521821653543306
0
LINE
8
BLACK
6
CONTINUOUS
10
0.7459564960629921
20
1.0521821653543306
11
0.7497060236220472
21
1.0521821653543306
0
LINE
8
BLACK
6
CONTINUOUS
10
0.7497060236220472
20
1.0521821653543306
11
0.7507159448818898
21
1.052004094488189
0
LINE
8
BLACK
6
CONTINUOUS
10
0.7788374409448818
20
1.0894994094488188
11
0.7803846850393701
21
1.0882011023622047
0
LINE
8
BLACK
6
CONTINUOUS
10
0.7803846850393701
20
1.0882011023622047
11
0.7807354330708661
21
1.0862119685039371
0
LINE
8
BLACK
6
CONTINUOUS
10
0.7807354330708661
20
1.0862119685039371
11
0.7797255118110236
21
1.0844627952755905
0
LINE
8
BLACK
6
CONTINUOUS
10
0.7797255118110236
20
1.0844627952755905
11
0.7778275196850394
21
1.0837719685039371
0
LINE
8
BLACK
6
CONTINUOUS
10
0.7778275196850394
20
1.0837719685039371
11
0.7620325984251969
21
1.0837719685039371
0
LINE
8
BLACK
6
CONTINUOUS
10
0.7620325984251969
20
1.0837719685039371
11
0.7620325984251969
21
1.0717266141732282
0
LINE
8
BLACK
6
CONTINUOUS
10
0.7620325984251969
20
1.0717266141732282
11
0.7618545275590551
21
1.0707166929133858
0
LINE
8
BLACK
6
CONTINUOUS
10
0.7618545275590551
20
1.0707166929133858
11
0.7617410236220472
21
1.0705814173228345
0
LINE
8
BLACK
6
CONTINUOUS
10
0.7617410236220472
20
1.0705814173228345
11
0.7617208661417323
21
1.0704061023622047
0
LINE
8
BLACK
6
CONTINUOUS
10
0.7617208661417323
20
1.0704061023622047
11
0.7598461023622047
21
1.0666565748031496
0
LINE
8
BLACK
6
CONTINUOUS
10
0.7598461023622047
20
1.0666565748031496
11
0.7593201968503936
21
1.0659474803149607
0
LINE
8
BLACK
6
CONTINUOUS
10
0.7593201968503936
20
1.0659474803149607
11
0.7592929921259842
21
1.0658891732283464
0
LINE
8
BLACK
6
CONTINUOUS
10
0.7592929921259842
20
1.0658891732283464
11
0.7574182283464567
21
1.0640144094488189
0
LINE
8
BLACK
6
CONTINUOUS
10
0.7574182283464567
20
1.0640144094488189
11
0.7566951181102362
21
1.0635081102362205
0
LINE
8
BLACK
6
CONTINUOUS
10
0.7566951181102362
20
1.0635081102362205
11
0.7566508267716535
21
1.0634612992125985
0
LINE
8
BLACK
6
CONTINUOUS
10
0.7566508267716535
20
1.0634612992125985
11
0.7529012992125984
21
1.0615865354330709
0
LINE
8
BLACK
6
CONTINUOUS
10
0.7529012992125984
20
1.0615865354330709
11
0.7519183464566929
21
1.0612941732283465
0
LINE
8
BLACK
6
CONTINUOUS
10
0.7519183464566929
20
1.0612941732283465
11
0.7517466535433071
21
1.0613351574803149
0
LINE
8
BLACK
6
CONTINUOUS
10
0.7517466535433071
20
1.0613351574803149
11
0.7515807874015747
21
1.0612748031496062
0
LINE
8
BLACK
6
CONTINUOUS
10
0.7515807874015747
20
1.0612748031496062
11
0.7459564960629921
21
1.0612748031496062
0
LINE
8
BLACK
6
CONTINUOUS
10
0.7459564960629921
20
1.0612748031496062
11
0.7449465748031496
21
1.0614528740157481
0
LINE
8
BLACK
6
CONTINUOUS
10
0.7449465748031496
20
1.0614528740157481
11
0.7448112992125984
21
1.0615663385826772
0
LINE
8
BLACK
6
CONTINUOUS
10
0.7448112992125984
20
1.0615663385826772
11
0.7446359842519685
21
1.0615865354330709
0
LINE
8
BLACK
6
CONTINUOUS
10
0.7446359842519685
20
1.0615865354330709
11
0.7408864566929134
21
1.0634612992125985
0
LINE
8
BLACK
6
CONTINUOUS
10
0.7408864566929134
20
1.0634612992125985
11
0.7401773622047244
21
1.0639871653543307
0
LINE
8
BLACK
6
CONTINUOUS
10
0.7401773622047244
20
1.0639871653543307
11
0.7401190551181103
21
1.0640144094488189
0
LINE
8
BLACK
6
CONTINUOUS
10
0.7401190551181103
20
1.0640144094488189
11
0.7382442913385827
21
1.0658891732283464
0
LINE
8
BLACK
6
CONTINUOUS
10
0.7382442913385827
20
1.0658891732283464
11
0.7377379921259842
21
1.0666122440944881
0
LINE
8
BLACK
6
CONTINUOUS
10
0.7377379921259842
20
1.0666122440944881
11
0.7376911811023622
21
1.0666565748031496
0
LINE
8
BLACK
6
CONTINUOUS
10
0.7376911811023622
20
1.0666565748031496
11
0.7358164173228346
21
1.0704061023622047
0
LINE
8
BLACK
6
CONTINUOUS
10
0.7358164173228346
20
1.0704061023622047
11
0.7355240551181103
21
1.0713890551181102
0
LINE
8
BLACK
6
CONTINUOUS
10
0.7355240551181103
20
1.0713890551181102
11
0.7355650393700788
21
1.0715607086614174
0
LINE
8
BLACK
6
CONTINUOUS
10
0.7355650393700788
20
1.0715607086614174
11
0.7355046850393701
21
1.0717266141732282
0
LINE
8
BLACK
6
CONTINUOUS
10
0.7355046850393701
20
1.0717266141732282
11
0.7355046850393701
21
1.0867247244094489
0
LINE
8
BLACK
6
CONTINUOUS
10
0.7355046850393701
20
1.0867247244094489
11
0.7355722834645669
21
1.0871082283464566
0
LINE
8
BLACK
6
CONTINUOUS
10
0.7355722834645669
20
1.0871082283464566
11
0.7355495275590551
21
1.0872374803149607
0
LINE
8
BLACK
6
CONTINUOUS
10
0.7355495275590551
20
1.0872374803149607
11
0.7356151181102362
21
1.0873510629921259
0
LINE
8
BLACK
6
CONTINUOUS
10
0.7356151181102362
20
1.0873510629921259
11
0.7356827559055118
21
1.0877346456692913
0
LINE
8
BLACK
6
CONTINUOUS
10
0.7356827559055118
20
1.0877346456692913
11
0.7361758661417322
21
1.0883223228346457
0
LINE
8
BLACK
6
CONTINUOUS
10
0.7361758661417322
20
1.0883223228346457
11
0.7365594488188976
21
1.088986653543307
0
LINE
8
BLACK
6
CONTINUOUS
10
0.7365594488188976
20
1.088986653543307
11
0.7368097637795276
21
1.0890777559055118
0
LINE
8
BLACK
6
CONTINUOUS
10
0.7368097637795276
20
1.0890777559055118
11
0.736981062992126
21
1.0892818897637795
0
LINE
8
BLACK
6
CONTINUOUS
10
0.736981062992126
20
1.0892818897637795
11
0.7377366141732283
21
1.0894151181102363
0
LINE
8
BLACK
6
CONTINUOUS
10
0.7377366141732283
20
1.0894151181102363
11
0.7384574409448819
21
1.0896774803149607
0
LINE
8
BLACK
6
CONTINUOUS
10
0.7384574409448819
20
1.0896774803149607
11
0.7778275196850394
21
1.0896774803149607
0
LINE
8
BLACK
6
CONTINUOUS
10
0.7778275196850394
20
1.0896774803149607
11
0.7788374409448818
21
1.0894994094488188
0
LINE
8
BLACK
6
CONTINUOUS
10
0.7414101968503937
20
1.0724236614173228
11
0.742758937007874
21
1.0697261811023622
0
LINE
8
BLACK
6
CONTINUOUS
10
0.742758937007874
20
1.0697261811023622
11
0.743956062992126
21
1.0685290551181101
0
LINE
8
BLACK
6
CONTINUOUS
10
0.743956062992126
20
1.0685290551181101
11
0.7466535433070866
21
1.0671803149606298
0
LINE
8
BLACK
6
CONTINUOUS
10
0.7466535433070866
20
1.0671803149606298
11
0.7508837401574803
21
1.0671803149606298
0
LINE
8
BLACK
6
CONTINUOUS
10
0.7508837401574803
20
1.0671803149606298
11
0.7535812204724409
21
1.0685290551181101
0
LINE
8
BLACK
6
CONTINUOUS
10
0.7535812204724409
20
1.0685290551181101
11
0.754778346456693
21
1.0697261811023622
0
LINE
8
BLACK
6
CONTINUOUS
10
0.754778346456693
20
1.0697261811023622
11
0.7561270866141732
21
1.0724236614173228
0
LINE
8
BLACK
6
CONTINUOUS
10
0.7561270866141732
20
1.0724236614173228
11
0.7561270866141732
21
1.0837719685039371
0
LINE
8
BLACK
6
CONTINUOUS
10
0.7561270866141732
20
1.0837719685039371
11
0.7414101968503937
21
1.0837719685039371
0
LINE
8
BLACK
6
CONTINUOUS
10
0.7414101968503937
20
1.0837719685039371
11
0.7414101968503937
21
1.0724236614173228
0
LINE
8
BLACK
6
CONTINUOUS
10
0.7407193700787401
20
1.1242432677165355
11
0.7414101968503937
21
1.1223452755905512
0
LINE
8
BLACK
6
CONTINUOUS
10
0.7414101968503937
20
1.1223452755905512
11
0.7414101968503937
21
1.1140494488188977
0
LINE
8
BLACK
6
CONTINUOUS
10
0.7414101968503937
20
1.1140494488188977
11
0.7778275196850394
21
1.1140494488188977
0
LINE
8
BLACK
6
CONTINUOUS
10
0.7778275196850394
20
1.1140494488188977
11
0.7788374409448818
21
1.1138713779527558
0
LINE
8
BLACK
6
CONTINUOUS
10
0.7788374409448818
20
1.1138713779527558
11
0.7803846850393701
21
1.1125730708661417
0
LINE
8
BLACK
6
CONTINUOUS
10
0.7803846850393701
20
1.1125730708661417
11
0.7807354330708661
21
1.1105839370078741
0
LINE
8
BLACK
6
CONTINUOUS
10
0.7807354330708661
20
1.1105839370078741
11
0.7797255118110236
21
1.1088347637795275
0
LINE
8
BLACK
6
CONTINUOUS
10
0.7797255118110236
20
1.1088347637795275
11
0.7778275196850394
21
1.1081439370078741
0
LINE
8
BLACK
6
CONTINUOUS
10
0.7778275196850394
20
1.1081439370078741
11
0.7414101968503937
21
1.1081439370078741
0
LINE
8
BLACK
6
CONTINUOUS
10
0.7414101968503937
20
1.1081439370078741
11
0.7414101968503937
21
1.0998481102362205
0
LINE
8
BLACK
6
CONTINUOUS
10
0.7414101968503937
20
1.0998481102362205
11
0.7412321259842519
21
1.0988381889763779
0
LINE
8
BLACK
6
CONTINUOUS
10
0.7412321259842519
20
1.0988381889763779
11
0.7399338188976378
21
1.0972909448818897
0
LINE
8
BLACK
6
CONTINUOUS
10
0.7399338188976378
20
1.0972909448818897
11
0.7379446850393701
21
1.0969401968503936
0
LINE
8
BLACK
6
CONTINUOUS
10
0.7379446850393701
20
1.0969401968503936
11
0.7361955118110236
21
1.0979501181102362
0
LINE
8
BLACK
6
CONTINUOUS
10
0.7361955118110236
20
1.0979501181102362
11
0.7355046850393701
21
1.0998481102362205
0
LINE
8
BLACK
6
CONTINUOUS
10
0.7355046850393701
20
1.0998481102362205
11
0.7355046850393701
21
1.1223452755905512
0
LINE
8
BLACK
6
CONTINUOUS
10
0.7355046850393701
20
1.1223452755905512
11
0.7356827559055118
21
1.1233551968503936
0
LINE
8
BLACK
6
CONTINUOUS
10
0.7356827559055118
20
1.1233551968503936
11
0.736981062992126
21
1.1249024409448818
0
LINE
8
BLACK
6
CONTINUOUS
10
0.736981062992126
20
1.1249024409448818
11
0.7389701968503937
21
1.1252531889763779
0
LINE
8
BLACK
6
CONTINUOUS
10
0.7389701968503937
20
1.1252531889763779
11
0.7407193700787401
21
1.1242432677165355
  0
ENDSEC
  0
EOF
