%TF.GenerationSoftware,KiCad,Pcbnew,7.0.11+1*%
%TF.CreationDate,2024-07-06T19:30:40+00:00*%
%TF.ProjectId,DIG4SW01,44494734-5357-4303-912e-6b696361645f,rev?*%
%TF.SameCoordinates,Original*%
%TF.FileFunction,Soldermask,Top*%
%TF.FilePolarity,Negative*%
%FSLAX46Y46*%
G04 Gerber Fmt 4.6, Leading zero omitted, Abs format (unit mm)*
G04 Created by KiCad (PCBNEW 7.0.11+1) date 2024-07-06 19:30:40*
%MOMM*%
%LPD*%
G01*
G04 APERTURE LIST*
G04 APERTURE END LIST*
G36*
X5166184Y8275160D02*
G01*
X5253234Y8275160D01*
X5346177Y8265051D01*
X5438286Y8259879D01*
X5517513Y8246417D01*
X5597680Y8237699D01*
X5695312Y8216208D01*
X5792067Y8199769D01*
X5863535Y8179179D01*
X5936053Y8163217D01*
X6036973Y8129213D01*
X6136893Y8100427D01*
X6200048Y8074267D01*
X6264384Y8052590D01*
X6367038Y8005097D01*
X6468428Y7963100D01*
X6522969Y7932955D01*
X6578837Y7907109D01*
X6681484Y7845348D01*
X6782503Y7789517D01*
X6828398Y7756952D01*
X6875720Y7728480D01*
X6976503Y7651866D01*
X7075167Y7581861D01*
X7112602Y7548407D01*
X7151539Y7518808D01*
X7248498Y7426962D01*
X7342742Y7342742D01*
X7372153Y7309830D01*
X7403075Y7280540D01*
X7494181Y7173281D01*
X7581861Y7075167D01*
X7603884Y7044127D01*
X7627383Y7016463D01*
X7710624Y6893691D01*
X7789517Y6782503D01*
X7804968Y6754544D01*
X7821819Y6729693D01*
X7895172Y6591334D01*
X7963100Y6468428D01*
X7972984Y6444563D01*
X7984104Y6423591D01*
X8045517Y6269456D01*
X8100427Y6136893D01*
X8105887Y6117939D01*
X8112353Y6101712D01*
X8159945Y5930299D01*
X8199769Y5792067D01*
X8202046Y5778664D01*
X8205041Y5767878D01*
X8236964Y5573153D01*
X8259879Y5438286D01*
X8260298Y5430818D01*
X8261095Y5425959D01*
X8275741Y5155822D01*
X8280000Y5080000D01*
X8275742Y5004184D01*
X8261095Y4734040D01*
X8260298Y4729180D01*
X8259879Y4721714D01*
X8236968Y4586874D01*
X8205041Y4392121D01*
X8202045Y4381333D01*
X8199769Y4367933D01*
X8159952Y4229726D01*
X8112353Y4058287D01*
X8105886Y4042057D01*
X8100427Y4023107D01*
X8045527Y3890569D01*
X7984104Y3736408D01*
X7972983Y3715431D01*
X7963100Y3691572D01*
X7895185Y3568689D01*
X7821819Y3430306D01*
X7804965Y3405449D01*
X7789517Y3377497D01*
X7710639Y3266329D01*
X7627383Y3143536D01*
X7603880Y3115866D01*
X7581861Y3084833D01*
X7494198Y2986738D01*
X7403075Y2879459D01*
X7372147Y2850162D01*
X7342742Y2817258D01*
X7248517Y2733053D01*
X7151539Y2641191D01*
X7112594Y2611586D01*
X7075167Y2578139D01*
X6976523Y2508147D01*
X6875720Y2431519D01*
X6828388Y2403040D01*
X6782503Y2370483D01*
X6681504Y2314663D01*
X6578837Y2252890D01*
X6522958Y2227037D01*
X6468428Y2196900D01*
X6367059Y2154911D01*
X6264384Y2107409D01*
X6200035Y2085727D01*
X6136893Y2059573D01*
X6036993Y2030792D01*
X5936053Y1996782D01*
X5863520Y1980816D01*
X5792067Y1960231D01*
X5695332Y1943795D01*
X5597680Y1922300D01*
X5517500Y1913580D01*
X5438286Y1900121D01*
X5346182Y1894948D01*
X5253234Y1884840D01*
X5166184Y1884840D01*
X5080000Y1880000D01*
X4993816Y1884840D01*
X4906766Y1884840D01*
X4813816Y1894948D01*
X4721714Y1900121D01*
X4642500Y1913579D01*
X4562319Y1922300D01*
X4464662Y1943795D01*
X4367933Y1960231D01*
X4296482Y1980815D01*
X4223946Y1996782D01*
X4122999Y2030794D01*
X4023107Y2059573D01*
X3959969Y2085725D01*
X3895615Y2107409D01*
X3792931Y2154915D01*
X3691572Y2196900D01*
X3637046Y2227035D01*
X3581162Y2252890D01*
X3478483Y2314670D01*
X3377497Y2370483D01*
X3331616Y2403036D01*
X3284279Y2431519D01*
X3183461Y2508158D01*
X3084833Y2578139D01*
X3047411Y2611581D01*
X3008460Y2641191D01*
X2911465Y2733069D01*
X2817258Y2817258D01*
X2787857Y2850156D01*
X2756924Y2879459D01*
X2665781Y2986760D01*
X2578139Y3084833D01*
X2556124Y3115859D01*
X2532616Y3143536D01*
X2449337Y3266361D01*
X2370483Y3377497D01*
X2355038Y3405441D01*
X2338180Y3430306D01*
X2264790Y3568733D01*
X2196900Y3691572D01*
X2187020Y3715423D01*
X2175895Y3736408D01*
X2114445Y3890632D01*
X2059573Y4023107D01*
X2054116Y4042048D01*
X2047646Y4058287D01*
X2000019Y4229822D01*
X1960231Y4367933D01*
X1957955Y4381323D01*
X1954958Y4392121D01*
X1923002Y4587041D01*
X1900121Y4721714D01*
X1899702Y4729170D01*
X1898904Y4734040D01*
X1884228Y5004699D01*
X1880000Y5080000D01*
X1884229Y5155306D01*
X1898904Y5425959D01*
X1899702Y5430827D01*
X1900121Y5438286D01*
X1923007Y5572985D01*
X1954958Y5767878D01*
X1957955Y5778673D01*
X1960231Y5792067D01*
X2000027Y5930204D01*
X2047646Y6101712D01*
X2054115Y6117948D01*
X2059573Y6136893D01*
X2114456Y6269392D01*
X2175895Y6423591D01*
X2187018Y6444572D01*
X2196900Y6468428D01*
X2264803Y6591289D01*
X2338180Y6729693D01*
X2355035Y6754552D01*
X2370483Y6782503D01*
X2449352Y6893659D01*
X2532616Y7016463D01*
X2556120Y7044134D01*
X2578139Y7075167D01*
X2665798Y7173258D01*
X2756924Y7280540D01*
X2787852Y7309836D01*
X2817258Y7342742D01*
X2911483Y7426947D01*
X3008460Y7518808D01*
X3047403Y7548412D01*
X3084833Y7581861D01*
X3183481Y7651855D01*
X3284279Y7728480D01*
X3331607Y7756956D01*
X3377497Y7789517D01*
X3478503Y7845341D01*
X3581162Y7907109D01*
X3637035Y7932958D01*
X3691572Y7963100D01*
X3792952Y8005093D01*
X3895615Y8052590D01*
X3959956Y8074269D01*
X4023107Y8100427D01*
X4123019Y8129211D01*
X4223946Y8163217D01*
X4296467Y8179180D01*
X4367933Y8199769D01*
X4464682Y8216207D01*
X4562319Y8237699D01*
X4642488Y8246417D01*
X4721714Y8259879D01*
X4813822Y8265051D01*
X4906766Y8275160D01*
X4993816Y8275160D01*
X5080000Y8280000D01*
X5166184Y8275160D01*
G37*
G36*
X35646184Y8275160D02*
G01*
X35733234Y8275160D01*
X35826177Y8265051D01*
X35918286Y8259879D01*
X35997513Y8246417D01*
X36077680Y8237699D01*
X36175312Y8216208D01*
X36272067Y8199769D01*
X36343535Y8179179D01*
X36416053Y8163217D01*
X36516973Y8129213D01*
X36616893Y8100427D01*
X36680048Y8074267D01*
X36744384Y8052590D01*
X36847038Y8005097D01*
X36948428Y7963100D01*
X37002969Y7932955D01*
X37058837Y7907109D01*
X37161484Y7845348D01*
X37262503Y7789517D01*
X37308398Y7756952D01*
X37355720Y7728480D01*
X37456503Y7651866D01*
X37555167Y7581861D01*
X37592602Y7548407D01*
X37631539Y7518808D01*
X37728498Y7426962D01*
X37822742Y7342742D01*
X37852153Y7309830D01*
X37883075Y7280540D01*
X37974181Y7173281D01*
X38061861Y7075167D01*
X38083884Y7044127D01*
X38107383Y7016463D01*
X38190624Y6893691D01*
X38269517Y6782503D01*
X38284968Y6754544D01*
X38301819Y6729693D01*
X38375172Y6591334D01*
X38443100Y6468428D01*
X38452984Y6444563D01*
X38464104Y6423591D01*
X38525517Y6269456D01*
X38580427Y6136893D01*
X38585887Y6117939D01*
X38592353Y6101712D01*
X38639945Y5930299D01*
X38679769Y5792067D01*
X38682046Y5778664D01*
X38685041Y5767878D01*
X38716964Y5573153D01*
X38739879Y5438286D01*
X38740298Y5430818D01*
X38741095Y5425959D01*
X38755741Y5155822D01*
X38760000Y5080000D01*
X38755742Y5004184D01*
X38741095Y4734040D01*
X38740298Y4729180D01*
X38739879Y4721714D01*
X38716968Y4586874D01*
X38685041Y4392121D01*
X38682045Y4381333D01*
X38679769Y4367933D01*
X38639952Y4229726D01*
X38592353Y4058287D01*
X38585886Y4042057D01*
X38580427Y4023107D01*
X38525527Y3890569D01*
X38464104Y3736408D01*
X38452983Y3715431D01*
X38443100Y3691572D01*
X38375185Y3568689D01*
X38301819Y3430306D01*
X38284965Y3405449D01*
X38269517Y3377497D01*
X38190639Y3266329D01*
X38107383Y3143536D01*
X38083880Y3115866D01*
X38061861Y3084833D01*
X37974198Y2986738D01*
X37883075Y2879459D01*
X37852147Y2850162D01*
X37822742Y2817258D01*
X37728517Y2733053D01*
X37631539Y2641191D01*
X37592594Y2611586D01*
X37555167Y2578139D01*
X37456523Y2508147D01*
X37355720Y2431519D01*
X37308388Y2403040D01*
X37262503Y2370483D01*
X37161504Y2314663D01*
X37058837Y2252890D01*
X37002958Y2227037D01*
X36948428Y2196900D01*
X36847059Y2154911D01*
X36744384Y2107409D01*
X36680035Y2085727D01*
X36616893Y2059573D01*
X36516993Y2030792D01*
X36416053Y1996782D01*
X36343520Y1980816D01*
X36272067Y1960231D01*
X36175332Y1943795D01*
X36077680Y1922300D01*
X35997500Y1913580D01*
X35918286Y1900121D01*
X35826182Y1894948D01*
X35733234Y1884840D01*
X35646184Y1884840D01*
X35560000Y1880000D01*
X35473816Y1884840D01*
X35386766Y1884840D01*
X35293816Y1894948D01*
X35201714Y1900121D01*
X35122500Y1913579D01*
X35042319Y1922300D01*
X34944662Y1943795D01*
X34847933Y1960231D01*
X34776482Y1980815D01*
X34703946Y1996782D01*
X34602999Y2030794D01*
X34503107Y2059573D01*
X34439969Y2085725D01*
X34375615Y2107409D01*
X34272931Y2154915D01*
X34171572Y2196900D01*
X34117046Y2227035D01*
X34061162Y2252890D01*
X33958483Y2314670D01*
X33857497Y2370483D01*
X33811616Y2403036D01*
X33764279Y2431519D01*
X33663461Y2508158D01*
X33564833Y2578139D01*
X33527411Y2611581D01*
X33488460Y2641191D01*
X33391465Y2733069D01*
X33297258Y2817258D01*
X33267857Y2850156D01*
X33236924Y2879459D01*
X33145781Y2986760D01*
X33058139Y3084833D01*
X33036124Y3115859D01*
X33012616Y3143536D01*
X32929337Y3266361D01*
X32850483Y3377497D01*
X32835038Y3405441D01*
X32818180Y3430306D01*
X32744790Y3568733D01*
X32676900Y3691572D01*
X32667020Y3715423D01*
X32655895Y3736408D01*
X32594445Y3890632D01*
X32539573Y4023107D01*
X32534116Y4042048D01*
X32527646Y4058287D01*
X32480019Y4229822D01*
X32440231Y4367933D01*
X32437955Y4381323D01*
X32434958Y4392121D01*
X32403002Y4587041D01*
X32380121Y4721714D01*
X32379702Y4729170D01*
X32378904Y4734040D01*
X32364228Y5004699D01*
X32360000Y5080000D01*
X32364229Y5155306D01*
X32378904Y5425959D01*
X32379702Y5430827D01*
X32380121Y5438286D01*
X32403007Y5572985D01*
X32434958Y5767878D01*
X32437955Y5778673D01*
X32440231Y5792067D01*
X32480027Y5930204D01*
X32527646Y6101712D01*
X32534115Y6117948D01*
X32539573Y6136893D01*
X32594456Y6269392D01*
X32655895Y6423591D01*
X32667018Y6444572D01*
X32676900Y6468428D01*
X32744803Y6591289D01*
X32818180Y6729693D01*
X32835035Y6754552D01*
X32850483Y6782503D01*
X32929352Y6893659D01*
X33012616Y7016463D01*
X33036120Y7044134D01*
X33058139Y7075167D01*
X33145798Y7173258D01*
X33236924Y7280540D01*
X33267852Y7309836D01*
X33297258Y7342742D01*
X33391483Y7426947D01*
X33488460Y7518808D01*
X33527403Y7548412D01*
X33564833Y7581861D01*
X33663481Y7651855D01*
X33764279Y7728480D01*
X33811607Y7756956D01*
X33857497Y7789517D01*
X33958503Y7845341D01*
X34061162Y7907109D01*
X34117035Y7932958D01*
X34171572Y7963100D01*
X34272952Y8005093D01*
X34375615Y8052590D01*
X34439956Y8074269D01*
X34503107Y8100427D01*
X34603019Y8129211D01*
X34703946Y8163217D01*
X34776467Y8179180D01*
X34847933Y8199769D01*
X34944682Y8216207D01*
X35042319Y8237699D01*
X35122488Y8246417D01*
X35201714Y8259879D01*
X35293822Y8265051D01*
X35386766Y8275160D01*
X35473816Y8275160D01*
X35560000Y8280000D01*
X35646184Y8275160D01*
G37*
G36*
X22360107Y4516387D02*
G01*
X22394134Y4512440D01*
X22405759Y4507306D01*
X22428537Y4502776D01*
X22452921Y4486482D01*
X22464047Y4481570D01*
X22471646Y4473970D01*
X22493421Y4459421D01*
X22507970Y4437646D01*
X22515570Y4430047D01*
X22520482Y4418921D01*
X22536776Y4394537D01*
X22541306Y4371759D01*
X22546440Y4360134D01*
X22550387Y4326105D01*
X22552000Y4318000D01*
X22552000Y2794000D01*
X22550387Y2785894D01*
X22546440Y2751865D01*
X22541306Y2740238D01*
X22536776Y2717463D01*
X22520483Y2693080D01*
X22515570Y2681952D01*
X22507968Y2674350D01*
X22493421Y2652579D01*
X22471649Y2638031D01*
X22464047Y2630429D01*
X22452917Y2625514D01*
X22428537Y2609224D01*
X22405764Y2604694D01*
X22394134Y2599559D01*
X22360093Y2595609D01*
X22352000Y2594000D01*
X22346217Y2594000D01*
X20833784Y2594000D01*
X20828000Y2594000D01*
X20819906Y2595609D01*
X20785865Y2599559D01*
X20774234Y2604694D01*
X20751463Y2609224D01*
X20727084Y2625513D01*
X20715952Y2630429D01*
X20708347Y2638033D01*
X20686579Y2652579D01*
X20672033Y2674347D01*
X20664429Y2681952D01*
X20659513Y2693084D01*
X20643224Y2717463D01*
X20638694Y2740234D01*
X20633559Y2751865D01*
X20629609Y2785908D01*
X20628000Y2794000D01*
X20628000Y4318000D01*
X20629610Y4326095D01*
X20633559Y4360134D01*
X20638694Y4371764D01*
X20643224Y4394537D01*
X20659514Y4418917D01*
X20664429Y4430047D01*
X20672031Y4437649D01*
X20686579Y4459421D01*
X20708350Y4473968D01*
X20715952Y4481570D01*
X20727080Y4486483D01*
X20751463Y4502776D01*
X20774238Y4507306D01*
X20785865Y4512440D01*
X20819896Y4516388D01*
X20828000Y4518000D01*
X22352000Y4518000D01*
X22360107Y4516387D01*
G37*
G36*
X24900107Y4516387D02*
G01*
X24934134Y4512440D01*
X24945759Y4507306D01*
X24968537Y4502776D01*
X24992921Y4486482D01*
X25004047Y4481570D01*
X25011646Y4473970D01*
X25033421Y4459421D01*
X25047970Y4437646D01*
X25055570Y4430047D01*
X25060482Y4418921D01*
X25076776Y4394537D01*
X25081306Y4371759D01*
X25086440Y4360134D01*
X25090387Y4326105D01*
X25092000Y4318000D01*
X25092000Y2794000D01*
X25090387Y2785894D01*
X25086440Y2751865D01*
X25081306Y2740238D01*
X25076776Y2717463D01*
X25060483Y2693080D01*
X25055570Y2681952D01*
X25047968Y2674350D01*
X25033421Y2652579D01*
X25011649Y2638031D01*
X25004047Y2630429D01*
X24992917Y2625514D01*
X24968537Y2609224D01*
X24945764Y2604694D01*
X24934134Y2599559D01*
X24900093Y2595609D01*
X24892000Y2594000D01*
X24886217Y2594000D01*
X23373784Y2594000D01*
X23368000Y2594000D01*
X23359906Y2595609D01*
X23325865Y2599559D01*
X23314234Y2604694D01*
X23291463Y2609224D01*
X23267084Y2625513D01*
X23255952Y2630429D01*
X23248347Y2638033D01*
X23226579Y2652579D01*
X23212033Y2674347D01*
X23204429Y2681952D01*
X23199513Y2693084D01*
X23183224Y2717463D01*
X23178694Y2740234D01*
X23173559Y2751865D01*
X23169609Y2785908D01*
X23168000Y2794000D01*
X23168000Y4318000D01*
X23169610Y4326095D01*
X23173559Y4360134D01*
X23178694Y4371764D01*
X23183224Y4394537D01*
X23199514Y4418917D01*
X23204429Y4430047D01*
X23212031Y4437649D01*
X23226579Y4459421D01*
X23248350Y4473968D01*
X23255952Y4481570D01*
X23267080Y4486483D01*
X23291463Y4502776D01*
X23314238Y4507306D01*
X23325865Y4512440D01*
X23359896Y4516388D01*
X23368000Y4518000D01*
X24892000Y4518000D01*
X24900107Y4516387D01*
G37*
G36*
X27440107Y4516387D02*
G01*
X27474134Y4512440D01*
X27485759Y4507306D01*
X27508537Y4502776D01*
X27532921Y4486482D01*
X27544047Y4481570D01*
X27551646Y4473970D01*
X27573421Y4459421D01*
X27587970Y4437646D01*
X27595570Y4430047D01*
X27600482Y4418921D01*
X27616776Y4394537D01*
X27621306Y4371759D01*
X27626440Y4360134D01*
X27630387Y4326105D01*
X27632000Y4318000D01*
X27632000Y2794000D01*
X27630387Y2785894D01*
X27626440Y2751865D01*
X27621306Y2740238D01*
X27616776Y2717463D01*
X27600483Y2693080D01*
X27595570Y2681952D01*
X27587968Y2674350D01*
X27573421Y2652579D01*
X27551649Y2638031D01*
X27544047Y2630429D01*
X27532917Y2625514D01*
X27508537Y2609224D01*
X27485764Y2604694D01*
X27474134Y2599559D01*
X27440093Y2595609D01*
X27432000Y2594000D01*
X27426217Y2594000D01*
X25913784Y2594000D01*
X25908000Y2594000D01*
X25899906Y2595609D01*
X25865865Y2599559D01*
X25854234Y2604694D01*
X25831463Y2609224D01*
X25807084Y2625513D01*
X25795952Y2630429D01*
X25788347Y2638033D01*
X25766579Y2652579D01*
X25752033Y2674347D01*
X25744429Y2681952D01*
X25739513Y2693084D01*
X25723224Y2717463D01*
X25718694Y2740234D01*
X25713559Y2751865D01*
X25709609Y2785908D01*
X25708000Y2794000D01*
X25708000Y4318000D01*
X25709610Y4326095D01*
X25713559Y4360134D01*
X25718694Y4371764D01*
X25723224Y4394537D01*
X25739514Y4418917D01*
X25744429Y4430047D01*
X25752031Y4437649D01*
X25766579Y4459421D01*
X25788350Y4473968D01*
X25795952Y4481570D01*
X25807080Y4486483D01*
X25831463Y4502776D01*
X25854238Y4507306D01*
X25865865Y4512440D01*
X25899896Y4516388D01*
X25908000Y4518000D01*
X27432000Y4518000D01*
X27440107Y4516387D01*
G37*
G36*
X29980107Y4516387D02*
G01*
X30014134Y4512440D01*
X30025759Y4507306D01*
X30048537Y4502776D01*
X30072921Y4486482D01*
X30084047Y4481570D01*
X30091646Y4473970D01*
X30113421Y4459421D01*
X30127970Y4437646D01*
X30135570Y4430047D01*
X30140482Y4418921D01*
X30156776Y4394537D01*
X30161306Y4371759D01*
X30166440Y4360134D01*
X30170387Y4326105D01*
X30172000Y4318000D01*
X30172000Y2794000D01*
X30170387Y2785894D01*
X30166440Y2751865D01*
X30161306Y2740238D01*
X30156776Y2717463D01*
X30140483Y2693080D01*
X30135570Y2681952D01*
X30127968Y2674350D01*
X30113421Y2652579D01*
X30091649Y2638031D01*
X30084047Y2630429D01*
X30072917Y2625514D01*
X30048537Y2609224D01*
X30025764Y2604694D01*
X30014134Y2599559D01*
X29980093Y2595609D01*
X29972000Y2594000D01*
X29966217Y2594000D01*
X28453784Y2594000D01*
X28448000Y2594000D01*
X28439906Y2595609D01*
X28405865Y2599559D01*
X28394234Y2604694D01*
X28371463Y2609224D01*
X28347084Y2625513D01*
X28335952Y2630429D01*
X28328347Y2638033D01*
X28306579Y2652579D01*
X28292033Y2674347D01*
X28284429Y2681952D01*
X28279513Y2693084D01*
X28263224Y2717463D01*
X28258694Y2740234D01*
X28253559Y2751865D01*
X28249609Y2785908D01*
X28248000Y2794000D01*
X28248000Y4318000D01*
X28249610Y4326095D01*
X28253559Y4360134D01*
X28258694Y4371764D01*
X28263224Y4394537D01*
X28279514Y4418917D01*
X28284429Y4430047D01*
X28292031Y4437649D01*
X28306579Y4459421D01*
X28328350Y4473968D01*
X28335952Y4481570D01*
X28347080Y4486483D01*
X28371463Y4502776D01*
X28394238Y4507306D01*
X28405865Y4512440D01*
X28439896Y4516388D01*
X28448000Y4518000D01*
X29972000Y4518000D01*
X29980107Y4516387D01*
G37*
G36*
X13851107Y7517387D02*
G01*
X13885134Y7513440D01*
X13896759Y7508306D01*
X13919537Y7503776D01*
X13943921Y7487482D01*
X13955047Y7482570D01*
X13962646Y7474970D01*
X13984421Y7460421D01*
X13998970Y7438646D01*
X14006570Y7431047D01*
X14011482Y7419921D01*
X14027776Y7395537D01*
X14032306Y7372759D01*
X14037440Y7361134D01*
X14041387Y7327105D01*
X14043000Y7319000D01*
X14043000Y3509000D01*
X14041387Y3500894D01*
X14037440Y3466865D01*
X14032306Y3455238D01*
X14027776Y3432463D01*
X14011483Y3408080D01*
X14006570Y3396952D01*
X13998968Y3389350D01*
X13984421Y3367579D01*
X13962649Y3353031D01*
X13955047Y3345429D01*
X13943917Y3340514D01*
X13919537Y3324224D01*
X13896764Y3319694D01*
X13885134Y3314559D01*
X13851093Y3310609D01*
X13843000Y3309000D01*
X13837217Y3309000D01*
X10038784Y3309000D01*
X10033000Y3309000D01*
X10024906Y3310609D01*
X9990865Y3314559D01*
X9979234Y3319694D01*
X9956463Y3324224D01*
X9932084Y3340513D01*
X9920952Y3345429D01*
X9913347Y3353033D01*
X9891579Y3367579D01*
X9877033Y3389347D01*
X9869429Y3396952D01*
X9864513Y3408084D01*
X9848224Y3432463D01*
X9843694Y3455234D01*
X9838559Y3466865D01*
X9834609Y3500908D01*
X9833000Y3509000D01*
X9833000Y7319000D01*
X9834610Y7327095D01*
X9838559Y7361134D01*
X9843694Y7372764D01*
X9848224Y7395537D01*
X9864514Y7419917D01*
X9869429Y7431047D01*
X9877031Y7438649D01*
X9891579Y7460421D01*
X9913350Y7474968D01*
X9920952Y7482570D01*
X9932080Y7487483D01*
X9956463Y7503776D01*
X9979238Y7508306D01*
X9990865Y7513440D01*
X10024896Y7517388D01*
X10033000Y7519000D01*
X13843000Y7519000D01*
X13851107Y7517387D01*
G37*
G36*
X18931107Y7517387D02*
G01*
X18965134Y7513440D01*
X18976759Y7508306D01*
X18999537Y7503776D01*
X19023921Y7487482D01*
X19035047Y7482570D01*
X19042646Y7474970D01*
X19064421Y7460421D01*
X19078970Y7438646D01*
X19086570Y7431047D01*
X19091482Y7419921D01*
X19107776Y7395537D01*
X19112306Y7372759D01*
X19117440Y7361134D01*
X19121387Y7327105D01*
X19123000Y7319000D01*
X19123000Y3509000D01*
X19121387Y3500894D01*
X19117440Y3466865D01*
X19112306Y3455238D01*
X19107776Y3432463D01*
X19091483Y3408080D01*
X19086570Y3396952D01*
X19078968Y3389350D01*
X19064421Y3367579D01*
X19042649Y3353031D01*
X19035047Y3345429D01*
X19023917Y3340514D01*
X18999537Y3324224D01*
X18976764Y3319694D01*
X18965134Y3314559D01*
X18931093Y3310609D01*
X18923000Y3309000D01*
X18917217Y3309000D01*
X15118784Y3309000D01*
X15113000Y3309000D01*
X15104906Y3310609D01*
X15070865Y3314559D01*
X15059234Y3319694D01*
X15036463Y3324224D01*
X15012084Y3340513D01*
X15000952Y3345429D01*
X14993347Y3353033D01*
X14971579Y3367579D01*
X14957033Y3389347D01*
X14949429Y3396952D01*
X14944513Y3408084D01*
X14928224Y3432463D01*
X14923694Y3455234D01*
X14918559Y3466865D01*
X14914609Y3500908D01*
X14913000Y3509000D01*
X14913000Y7319000D01*
X14914610Y7327095D01*
X14918559Y7361134D01*
X14923694Y7372764D01*
X14928224Y7395537D01*
X14944514Y7419917D01*
X14949429Y7431047D01*
X14957031Y7438649D01*
X14971579Y7460421D01*
X14993350Y7474968D01*
X15000952Y7482570D01*
X15012080Y7487483D01*
X15036463Y7503776D01*
X15059238Y7508306D01*
X15070865Y7513440D01*
X15104896Y7517388D01*
X15113000Y7519000D01*
X18923000Y7519000D01*
X18931107Y7517387D01*
G37*
G36*
X22360107Y7056387D02*
G01*
X22394134Y7052440D01*
X22405759Y7047306D01*
X22428537Y7042776D01*
X22452921Y7026482D01*
X22464047Y7021570D01*
X22471646Y7013970D01*
X22493421Y6999421D01*
X22507970Y6977646D01*
X22515570Y6970047D01*
X22520482Y6958921D01*
X22536776Y6934537D01*
X22541306Y6911759D01*
X22546440Y6900134D01*
X22550387Y6866105D01*
X22552000Y6858000D01*
X22552000Y5334000D01*
X22550387Y5325894D01*
X22546440Y5291865D01*
X22541306Y5280238D01*
X22536776Y5257463D01*
X22520483Y5233080D01*
X22515570Y5221952D01*
X22507968Y5214350D01*
X22493421Y5192579D01*
X22471649Y5178031D01*
X22464047Y5170429D01*
X22452917Y5165514D01*
X22428537Y5149224D01*
X22405764Y5144694D01*
X22394134Y5139559D01*
X22360093Y5135609D01*
X22352000Y5134000D01*
X22346217Y5134000D01*
X20833784Y5134000D01*
X20828000Y5134000D01*
X20819906Y5135609D01*
X20785865Y5139559D01*
X20774234Y5144694D01*
X20751463Y5149224D01*
X20727084Y5165513D01*
X20715952Y5170429D01*
X20708347Y5178033D01*
X20686579Y5192579D01*
X20672033Y5214347D01*
X20664429Y5221952D01*
X20659513Y5233084D01*
X20643224Y5257463D01*
X20638694Y5280234D01*
X20633559Y5291865D01*
X20629609Y5325908D01*
X20628000Y5334000D01*
X20628000Y6858000D01*
X20629610Y6866095D01*
X20633559Y6900134D01*
X20638694Y6911764D01*
X20643224Y6934537D01*
X20659514Y6958917D01*
X20664429Y6970047D01*
X20672031Y6977649D01*
X20686579Y6999421D01*
X20708350Y7013968D01*
X20715952Y7021570D01*
X20727080Y7026483D01*
X20751463Y7042776D01*
X20774238Y7047306D01*
X20785865Y7052440D01*
X20819896Y7056388D01*
X20828000Y7058000D01*
X22352000Y7058000D01*
X22360107Y7056387D01*
G37*
G36*
X24900107Y7056387D02*
G01*
X24934134Y7052440D01*
X24945759Y7047306D01*
X24968537Y7042776D01*
X24992921Y7026482D01*
X25004047Y7021570D01*
X25011646Y7013970D01*
X25033421Y6999421D01*
X25047970Y6977646D01*
X25055570Y6970047D01*
X25060482Y6958921D01*
X25076776Y6934537D01*
X25081306Y6911759D01*
X25086440Y6900134D01*
X25090387Y6866105D01*
X25092000Y6858000D01*
X25092000Y5334000D01*
X25090387Y5325894D01*
X25086440Y5291865D01*
X25081306Y5280238D01*
X25076776Y5257463D01*
X25060483Y5233080D01*
X25055570Y5221952D01*
X25047968Y5214350D01*
X25033421Y5192579D01*
X25011649Y5178031D01*
X25004047Y5170429D01*
X24992917Y5165514D01*
X24968537Y5149224D01*
X24945764Y5144694D01*
X24934134Y5139559D01*
X24900093Y5135609D01*
X24892000Y5134000D01*
X24886217Y5134000D01*
X23373784Y5134000D01*
X23368000Y5134000D01*
X23359906Y5135609D01*
X23325865Y5139559D01*
X23314234Y5144694D01*
X23291463Y5149224D01*
X23267084Y5165513D01*
X23255952Y5170429D01*
X23248347Y5178033D01*
X23226579Y5192579D01*
X23212033Y5214347D01*
X23204429Y5221952D01*
X23199513Y5233084D01*
X23183224Y5257463D01*
X23178694Y5280234D01*
X23173559Y5291865D01*
X23169609Y5325908D01*
X23168000Y5334000D01*
X23168000Y6858000D01*
X23169610Y6866095D01*
X23173559Y6900134D01*
X23178694Y6911764D01*
X23183224Y6934537D01*
X23199514Y6958917D01*
X23204429Y6970047D01*
X23212031Y6977649D01*
X23226579Y6999421D01*
X23248350Y7013968D01*
X23255952Y7021570D01*
X23267080Y7026483D01*
X23291463Y7042776D01*
X23314238Y7047306D01*
X23325865Y7052440D01*
X23359896Y7056388D01*
X23368000Y7058000D01*
X24892000Y7058000D01*
X24900107Y7056387D01*
G37*
G36*
X27440107Y7056387D02*
G01*
X27474134Y7052440D01*
X27485759Y7047306D01*
X27508537Y7042776D01*
X27532921Y7026482D01*
X27544047Y7021570D01*
X27551646Y7013970D01*
X27573421Y6999421D01*
X27587970Y6977646D01*
X27595570Y6970047D01*
X27600482Y6958921D01*
X27616776Y6934537D01*
X27621306Y6911759D01*
X27626440Y6900134D01*
X27630387Y6866105D01*
X27632000Y6858000D01*
X27632000Y5334000D01*
X27630387Y5325894D01*
X27626440Y5291865D01*
X27621306Y5280238D01*
X27616776Y5257463D01*
X27600483Y5233080D01*
X27595570Y5221952D01*
X27587968Y5214350D01*
X27573421Y5192579D01*
X27551649Y5178031D01*
X27544047Y5170429D01*
X27532917Y5165514D01*
X27508537Y5149224D01*
X27485764Y5144694D01*
X27474134Y5139559D01*
X27440093Y5135609D01*
X27432000Y5134000D01*
X27426217Y5134000D01*
X25913784Y5134000D01*
X25908000Y5134000D01*
X25899906Y5135609D01*
X25865865Y5139559D01*
X25854234Y5144694D01*
X25831463Y5149224D01*
X25807084Y5165513D01*
X25795952Y5170429D01*
X25788347Y5178033D01*
X25766579Y5192579D01*
X25752033Y5214347D01*
X25744429Y5221952D01*
X25739513Y5233084D01*
X25723224Y5257463D01*
X25718694Y5280234D01*
X25713559Y5291865D01*
X25709609Y5325908D01*
X25708000Y5334000D01*
X25708000Y6858000D01*
X25709610Y6866095D01*
X25713559Y6900134D01*
X25718694Y6911764D01*
X25723224Y6934537D01*
X25739514Y6958917D01*
X25744429Y6970047D01*
X25752031Y6977649D01*
X25766579Y6999421D01*
X25788350Y7013968D01*
X25795952Y7021570D01*
X25807080Y7026483D01*
X25831463Y7042776D01*
X25854238Y7047306D01*
X25865865Y7052440D01*
X25899896Y7056388D01*
X25908000Y7058000D01*
X27432000Y7058000D01*
X27440107Y7056387D01*
G37*
G36*
X29980107Y7056387D02*
G01*
X30014134Y7052440D01*
X30025759Y7047306D01*
X30048537Y7042776D01*
X30072921Y7026482D01*
X30084047Y7021570D01*
X30091646Y7013970D01*
X30113421Y6999421D01*
X30127970Y6977646D01*
X30135570Y6970047D01*
X30140482Y6958921D01*
X30156776Y6934537D01*
X30161306Y6911759D01*
X30166440Y6900134D01*
X30170387Y6866105D01*
X30172000Y6858000D01*
X30172000Y5334000D01*
X30170387Y5325894D01*
X30166440Y5291865D01*
X30161306Y5280238D01*
X30156776Y5257463D01*
X30140483Y5233080D01*
X30135570Y5221952D01*
X30127968Y5214350D01*
X30113421Y5192579D01*
X30091649Y5178031D01*
X30084047Y5170429D01*
X30072917Y5165514D01*
X30048537Y5149224D01*
X30025764Y5144694D01*
X30014134Y5139559D01*
X29980093Y5135609D01*
X29972000Y5134000D01*
X29966217Y5134000D01*
X28453784Y5134000D01*
X28448000Y5134000D01*
X28439906Y5135609D01*
X28405865Y5139559D01*
X28394234Y5144694D01*
X28371463Y5149224D01*
X28347084Y5165513D01*
X28335952Y5170429D01*
X28328347Y5178033D01*
X28306579Y5192579D01*
X28292033Y5214347D01*
X28284429Y5221952D01*
X28279513Y5233084D01*
X28263224Y5257463D01*
X28258694Y5280234D01*
X28253559Y5291865D01*
X28249609Y5325908D01*
X28248000Y5334000D01*
X28248000Y6858000D01*
X28249610Y6866095D01*
X28253559Y6900134D01*
X28258694Y6911764D01*
X28263224Y6934537D01*
X28279514Y6958917D01*
X28284429Y6970047D01*
X28292031Y6977649D01*
X28306579Y6999421D01*
X28328350Y7013968D01*
X28335952Y7021570D01*
X28347080Y7026483D01*
X28371463Y7042776D01*
X28394238Y7047306D01*
X28405865Y7052440D01*
X28439896Y7056388D01*
X28448000Y7058000D01*
X29972000Y7058000D01*
X29980107Y7056387D01*
G37*
G36*
X13851107Y12517387D02*
G01*
X13885134Y12513440D01*
X13896759Y12508306D01*
X13919537Y12503776D01*
X13943921Y12487482D01*
X13955047Y12482570D01*
X13962646Y12474970D01*
X13984421Y12460421D01*
X13998970Y12438646D01*
X14006570Y12431047D01*
X14011482Y12419921D01*
X14027776Y12395537D01*
X14032306Y12372759D01*
X14037440Y12361134D01*
X14041387Y12327105D01*
X14043000Y12319000D01*
X14043000Y8509000D01*
X14041387Y8500894D01*
X14037440Y8466865D01*
X14032306Y8455238D01*
X14027776Y8432463D01*
X14011483Y8408080D01*
X14006570Y8396952D01*
X13998968Y8389350D01*
X13984421Y8367579D01*
X13962649Y8353031D01*
X13955047Y8345429D01*
X13943917Y8340514D01*
X13919537Y8324224D01*
X13896764Y8319694D01*
X13885134Y8314559D01*
X13851093Y8310609D01*
X13843000Y8309000D01*
X13837217Y8309000D01*
X10038784Y8309000D01*
X10033000Y8309000D01*
X10024906Y8310609D01*
X9990865Y8314559D01*
X9979234Y8319694D01*
X9956463Y8324224D01*
X9932084Y8340513D01*
X9920952Y8345429D01*
X9913347Y8353033D01*
X9891579Y8367579D01*
X9877033Y8389347D01*
X9869429Y8396952D01*
X9864513Y8408084D01*
X9848224Y8432463D01*
X9843694Y8455234D01*
X9838559Y8466865D01*
X9834609Y8500908D01*
X9833000Y8509000D01*
X9833000Y12319000D01*
X9834610Y12327095D01*
X9838559Y12361134D01*
X9843694Y12372764D01*
X9848224Y12395537D01*
X9864514Y12419917D01*
X9869429Y12431047D01*
X9877031Y12438649D01*
X9891579Y12460421D01*
X9913350Y12474968D01*
X9920952Y12482570D01*
X9932080Y12487483D01*
X9956463Y12503776D01*
X9979238Y12508306D01*
X9990865Y12513440D01*
X10024896Y12517388D01*
X10033000Y12519000D01*
X13843000Y12519000D01*
X13851107Y12517387D01*
G37*
G36*
X18931107Y12517387D02*
G01*
X18965134Y12513440D01*
X18976759Y12508306D01*
X18999537Y12503776D01*
X19023921Y12487482D01*
X19035047Y12482570D01*
X19042646Y12474970D01*
X19064421Y12460421D01*
X19078970Y12438646D01*
X19086570Y12431047D01*
X19091482Y12419921D01*
X19107776Y12395537D01*
X19112306Y12372759D01*
X19117440Y12361134D01*
X19121387Y12327105D01*
X19123000Y12319000D01*
X19123000Y8509000D01*
X19121387Y8500894D01*
X19117440Y8466865D01*
X19112306Y8455238D01*
X19107776Y8432463D01*
X19091483Y8408080D01*
X19086570Y8396952D01*
X19078968Y8389350D01*
X19064421Y8367579D01*
X19042649Y8353031D01*
X19035047Y8345429D01*
X19023917Y8340514D01*
X18999537Y8324224D01*
X18976764Y8319694D01*
X18965134Y8314559D01*
X18931093Y8310609D01*
X18923000Y8309000D01*
X18917217Y8309000D01*
X15118784Y8309000D01*
X15113000Y8309000D01*
X15104906Y8310609D01*
X15070865Y8314559D01*
X15059234Y8319694D01*
X15036463Y8324224D01*
X15012084Y8340513D01*
X15000952Y8345429D01*
X14993347Y8353033D01*
X14971579Y8367579D01*
X14957033Y8389347D01*
X14949429Y8396952D01*
X14944513Y8408084D01*
X14928224Y8432463D01*
X14923694Y8455234D01*
X14918559Y8466865D01*
X14914609Y8500908D01*
X14913000Y8509000D01*
X14913000Y12319000D01*
X14914610Y12327095D01*
X14918559Y12361134D01*
X14923694Y12372764D01*
X14928224Y12395537D01*
X14944514Y12419917D01*
X14949429Y12431047D01*
X14957031Y12438649D01*
X14971579Y12460421D01*
X14993350Y12474968D01*
X15000952Y12482570D01*
X15012080Y12487483D01*
X15036463Y12503776D01*
X15059238Y12508306D01*
X15070865Y12513440D01*
X15104896Y12517388D01*
X15113000Y12519000D01*
X18923000Y12519000D01*
X18931107Y12517387D01*
G37*
G36*
X35060107Y11882387D02*
G01*
X35094134Y11878440D01*
X35105759Y11873306D01*
X35128537Y11868776D01*
X35152921Y11852482D01*
X35164047Y11847570D01*
X35171646Y11839970D01*
X35193421Y11825421D01*
X35207970Y11803646D01*
X35215570Y11796047D01*
X35220482Y11784921D01*
X35236776Y11760537D01*
X35241306Y11737759D01*
X35246440Y11726134D01*
X35250387Y11692105D01*
X35252000Y11684000D01*
X35252000Y10160000D01*
X35250387Y10151894D01*
X35246440Y10117865D01*
X35241306Y10106238D01*
X35236776Y10083463D01*
X35220483Y10059080D01*
X35215570Y10047952D01*
X35207968Y10040350D01*
X35193421Y10018579D01*
X35171649Y10004031D01*
X35164047Y9996429D01*
X35152917Y9991514D01*
X35128537Y9975224D01*
X35105764Y9970694D01*
X35094134Y9965559D01*
X35060093Y9961609D01*
X35052000Y9960000D01*
X35046217Y9960000D01*
X33533784Y9960000D01*
X33528000Y9960000D01*
X33519906Y9961609D01*
X33485865Y9965559D01*
X33474234Y9970694D01*
X33451463Y9975224D01*
X33427084Y9991513D01*
X33415952Y9996429D01*
X33408347Y10004033D01*
X33386579Y10018579D01*
X33372033Y10040347D01*
X33364429Y10047952D01*
X33359513Y10059084D01*
X33343224Y10083463D01*
X33338694Y10106234D01*
X33333559Y10117865D01*
X33329609Y10151908D01*
X33328000Y10160000D01*
X33328000Y11684000D01*
X33329610Y11692095D01*
X33333559Y11726134D01*
X33338694Y11737764D01*
X33343224Y11760537D01*
X33359514Y11784917D01*
X33364429Y11796047D01*
X33372031Y11803649D01*
X33386579Y11825421D01*
X33408350Y11839968D01*
X33415952Y11847570D01*
X33427080Y11852483D01*
X33451463Y11868776D01*
X33474238Y11873306D01*
X33485865Y11878440D01*
X33519896Y11882388D01*
X33528000Y11884000D01*
X35052000Y11884000D01*
X35060107Y11882387D01*
G37*
G36*
X37600107Y11882387D02*
G01*
X37634134Y11878440D01*
X37645759Y11873306D01*
X37668537Y11868776D01*
X37692921Y11852482D01*
X37704047Y11847570D01*
X37711646Y11839970D01*
X37733421Y11825421D01*
X37747970Y11803646D01*
X37755570Y11796047D01*
X37760482Y11784921D01*
X37776776Y11760537D01*
X37781306Y11737759D01*
X37786440Y11726134D01*
X37790387Y11692105D01*
X37792000Y11684000D01*
X37792000Y10160000D01*
X37790387Y10151894D01*
X37786440Y10117865D01*
X37781306Y10106238D01*
X37776776Y10083463D01*
X37760483Y10059080D01*
X37755570Y10047952D01*
X37747968Y10040350D01*
X37733421Y10018579D01*
X37711649Y10004031D01*
X37704047Y9996429D01*
X37692917Y9991514D01*
X37668537Y9975224D01*
X37645764Y9970694D01*
X37634134Y9965559D01*
X37600093Y9961609D01*
X37592000Y9960000D01*
X37586217Y9960000D01*
X36073784Y9960000D01*
X36068000Y9960000D01*
X36059906Y9961609D01*
X36025865Y9965559D01*
X36014234Y9970694D01*
X35991463Y9975224D01*
X35967084Y9991513D01*
X35955952Y9996429D01*
X35948347Y10004033D01*
X35926579Y10018579D01*
X35912033Y10040347D01*
X35904429Y10047952D01*
X35899513Y10059084D01*
X35883224Y10083463D01*
X35878694Y10106234D01*
X35873559Y10117865D01*
X35869609Y10151908D01*
X35868000Y10160000D01*
X35868000Y11684000D01*
X35869610Y11692095D01*
X35873559Y11726134D01*
X35878694Y11737764D01*
X35883224Y11760537D01*
X35899514Y11784917D01*
X35904429Y11796047D01*
X35912031Y11803649D01*
X35926579Y11825421D01*
X35948350Y11839968D01*
X35955952Y11847570D01*
X35967080Y11852483D01*
X35991463Y11868776D01*
X36014238Y11873306D01*
X36025865Y11878440D01*
X36059896Y11882388D01*
X36068000Y11884000D01*
X37592000Y11884000D01*
X37600107Y11882387D01*
G37*
G36*
X4580107Y12136387D02*
G01*
X4614134Y12132440D01*
X4625759Y12127306D01*
X4648537Y12122776D01*
X4672921Y12106482D01*
X4684047Y12101570D01*
X4691646Y12093970D01*
X4713421Y12079421D01*
X4727970Y12057646D01*
X4735570Y12050047D01*
X4740482Y12038921D01*
X4756776Y12014537D01*
X4761306Y11991759D01*
X4766440Y11980134D01*
X4770387Y11946105D01*
X4772000Y11938000D01*
X4772000Y10414000D01*
X4770387Y10405894D01*
X4766440Y10371865D01*
X4761306Y10360238D01*
X4756776Y10337463D01*
X4740483Y10313080D01*
X4735570Y10301952D01*
X4727968Y10294350D01*
X4713421Y10272579D01*
X4691649Y10258031D01*
X4684047Y10250429D01*
X4672917Y10245514D01*
X4648537Y10229224D01*
X4625764Y10224694D01*
X4614134Y10219559D01*
X4580093Y10215609D01*
X4572000Y10214000D01*
X4566217Y10214000D01*
X3053784Y10214000D01*
X3048000Y10214000D01*
X3039906Y10215609D01*
X3005865Y10219559D01*
X2994234Y10224694D01*
X2971463Y10229224D01*
X2947084Y10245513D01*
X2935952Y10250429D01*
X2928347Y10258033D01*
X2906579Y10272579D01*
X2892033Y10294347D01*
X2884429Y10301952D01*
X2879513Y10313084D01*
X2863224Y10337463D01*
X2858694Y10360234D01*
X2853559Y10371865D01*
X2849609Y10405908D01*
X2848000Y10414000D01*
X2848000Y11938000D01*
X2849610Y11946095D01*
X2853559Y11980134D01*
X2858694Y11991764D01*
X2863224Y12014537D01*
X2879514Y12038917D01*
X2884429Y12050047D01*
X2892031Y12057649D01*
X2906579Y12079421D01*
X2928350Y12093968D01*
X2935952Y12101570D01*
X2947080Y12106483D01*
X2971463Y12122776D01*
X2994238Y12127306D01*
X3005865Y12132440D01*
X3039896Y12136388D01*
X3048000Y12138000D01*
X4572000Y12138000D01*
X4580107Y12136387D01*
G37*
G36*
X7120107Y12136387D02*
G01*
X7154134Y12132440D01*
X7165759Y12127306D01*
X7188537Y12122776D01*
X7212921Y12106482D01*
X7224047Y12101570D01*
X7231646Y12093970D01*
X7253421Y12079421D01*
X7267970Y12057646D01*
X7275570Y12050047D01*
X7280482Y12038921D01*
X7296776Y12014537D01*
X7301306Y11991759D01*
X7306440Y11980134D01*
X7310387Y11946105D01*
X7312000Y11938000D01*
X7312000Y10414000D01*
X7310387Y10405894D01*
X7306440Y10371865D01*
X7301306Y10360238D01*
X7296776Y10337463D01*
X7280483Y10313080D01*
X7275570Y10301952D01*
X7267968Y10294350D01*
X7253421Y10272579D01*
X7231649Y10258031D01*
X7224047Y10250429D01*
X7212917Y10245514D01*
X7188537Y10229224D01*
X7165764Y10224694D01*
X7154134Y10219559D01*
X7120093Y10215609D01*
X7112000Y10214000D01*
X7106217Y10214000D01*
X5593784Y10214000D01*
X5588000Y10214000D01*
X5579906Y10215609D01*
X5545865Y10219559D01*
X5534234Y10224694D01*
X5511463Y10229224D01*
X5487084Y10245513D01*
X5475952Y10250429D01*
X5468347Y10258033D01*
X5446579Y10272579D01*
X5432033Y10294347D01*
X5424429Y10301952D01*
X5419513Y10313084D01*
X5403224Y10337463D01*
X5398694Y10360234D01*
X5393559Y10371865D01*
X5389609Y10405908D01*
X5388000Y10414000D01*
X5388000Y11938000D01*
X5389610Y11946095D01*
X5393559Y11980134D01*
X5398694Y11991764D01*
X5403224Y12014537D01*
X5419514Y12038917D01*
X5424429Y12050047D01*
X5432031Y12057649D01*
X5446579Y12079421D01*
X5468350Y12093968D01*
X5475952Y12101570D01*
X5487080Y12106483D01*
X5511463Y12122776D01*
X5534238Y12127306D01*
X5545865Y12132440D01*
X5579896Y12136388D01*
X5588000Y12138000D01*
X7112000Y12138000D01*
X7120107Y12136387D01*
G37*
G36*
X35060107Y14422387D02*
G01*
X35094134Y14418440D01*
X35105759Y14413306D01*
X35128537Y14408776D01*
X35152921Y14392482D01*
X35164047Y14387570D01*
X35171646Y14379970D01*
X35193421Y14365421D01*
X35207970Y14343646D01*
X35215570Y14336047D01*
X35220482Y14324921D01*
X35236776Y14300537D01*
X35241306Y14277759D01*
X35246440Y14266134D01*
X35250387Y14232105D01*
X35252000Y14224000D01*
X35252000Y12700000D01*
X35250387Y12691894D01*
X35246440Y12657865D01*
X35241306Y12646238D01*
X35236776Y12623463D01*
X35220483Y12599080D01*
X35215570Y12587952D01*
X35207968Y12580350D01*
X35193421Y12558579D01*
X35171649Y12544031D01*
X35164047Y12536429D01*
X35152917Y12531514D01*
X35128537Y12515224D01*
X35105764Y12510694D01*
X35094134Y12505559D01*
X35060093Y12501609D01*
X35052000Y12500000D01*
X35046217Y12500000D01*
X33533784Y12500000D01*
X33528000Y12500000D01*
X33519906Y12501609D01*
X33485865Y12505559D01*
X33474234Y12510694D01*
X33451463Y12515224D01*
X33427084Y12531513D01*
X33415952Y12536429D01*
X33408347Y12544033D01*
X33386579Y12558579D01*
X33372033Y12580347D01*
X33364429Y12587952D01*
X33359513Y12599084D01*
X33343224Y12623463D01*
X33338694Y12646234D01*
X33333559Y12657865D01*
X33329609Y12691908D01*
X33328000Y12700000D01*
X33328000Y14224000D01*
X33329610Y14232095D01*
X33333559Y14266134D01*
X33338694Y14277764D01*
X33343224Y14300537D01*
X33359514Y14324917D01*
X33364429Y14336047D01*
X33372031Y14343649D01*
X33386579Y14365421D01*
X33408350Y14379968D01*
X33415952Y14387570D01*
X33427080Y14392483D01*
X33451463Y14408776D01*
X33474238Y14413306D01*
X33485865Y14418440D01*
X33519896Y14422388D01*
X33528000Y14424000D01*
X35052000Y14424000D01*
X35060107Y14422387D01*
G37*
G36*
X37600107Y14422387D02*
G01*
X37634134Y14418440D01*
X37645759Y14413306D01*
X37668537Y14408776D01*
X37692921Y14392482D01*
X37704047Y14387570D01*
X37711646Y14379970D01*
X37733421Y14365421D01*
X37747970Y14343646D01*
X37755570Y14336047D01*
X37760482Y14324921D01*
X37776776Y14300537D01*
X37781306Y14277759D01*
X37786440Y14266134D01*
X37790387Y14232105D01*
X37792000Y14224000D01*
X37792000Y12700000D01*
X37790387Y12691894D01*
X37786440Y12657865D01*
X37781306Y12646238D01*
X37776776Y12623463D01*
X37760483Y12599080D01*
X37755570Y12587952D01*
X37747968Y12580350D01*
X37733421Y12558579D01*
X37711649Y12544031D01*
X37704047Y12536429D01*
X37692917Y12531514D01*
X37668537Y12515224D01*
X37645764Y12510694D01*
X37634134Y12505559D01*
X37600093Y12501609D01*
X37592000Y12500000D01*
X37586217Y12500000D01*
X36073784Y12500000D01*
X36068000Y12500000D01*
X36059906Y12501609D01*
X36025865Y12505559D01*
X36014234Y12510694D01*
X35991463Y12515224D01*
X35967084Y12531513D01*
X35955952Y12536429D01*
X35948347Y12544033D01*
X35926579Y12558579D01*
X35912033Y12580347D01*
X35904429Y12587952D01*
X35899513Y12599084D01*
X35883224Y12623463D01*
X35878694Y12646234D01*
X35873559Y12657865D01*
X35869609Y12691908D01*
X35868000Y12700000D01*
X35868000Y14224000D01*
X35869610Y14232095D01*
X35873559Y14266134D01*
X35878694Y14277764D01*
X35883224Y14300537D01*
X35899514Y14324917D01*
X35904429Y14336047D01*
X35912031Y14343649D01*
X35926579Y14365421D01*
X35948350Y14379968D01*
X35955952Y14387570D01*
X35967080Y14392483D01*
X35991463Y14408776D01*
X36014238Y14413306D01*
X36025865Y14418440D01*
X36059896Y14422388D01*
X36068000Y14424000D01*
X37592000Y14424000D01*
X37600107Y14422387D01*
G37*
G36*
X4580107Y14676387D02*
G01*
X4614134Y14672440D01*
X4625759Y14667306D01*
X4648537Y14662776D01*
X4672921Y14646482D01*
X4684047Y14641570D01*
X4691646Y14633970D01*
X4713421Y14619421D01*
X4727970Y14597646D01*
X4735570Y14590047D01*
X4740482Y14578921D01*
X4756776Y14554537D01*
X4761306Y14531759D01*
X4766440Y14520134D01*
X4770387Y14486105D01*
X4772000Y14478000D01*
X4772000Y12954000D01*
X4770387Y12945894D01*
X4766440Y12911865D01*
X4761306Y12900238D01*
X4756776Y12877463D01*
X4740483Y12853080D01*
X4735570Y12841952D01*
X4727968Y12834350D01*
X4713421Y12812579D01*
X4691649Y12798031D01*
X4684047Y12790429D01*
X4672917Y12785514D01*
X4648537Y12769224D01*
X4625764Y12764694D01*
X4614134Y12759559D01*
X4580093Y12755609D01*
X4572000Y12754000D01*
X4566217Y12754000D01*
X3053784Y12754000D01*
X3048000Y12754000D01*
X3039906Y12755609D01*
X3005865Y12759559D01*
X2994234Y12764694D01*
X2971463Y12769224D01*
X2947084Y12785513D01*
X2935952Y12790429D01*
X2928347Y12798033D01*
X2906579Y12812579D01*
X2892033Y12834347D01*
X2884429Y12841952D01*
X2879513Y12853084D01*
X2863224Y12877463D01*
X2858694Y12900234D01*
X2853559Y12911865D01*
X2849609Y12945908D01*
X2848000Y12954000D01*
X2848000Y14478000D01*
X2849610Y14486095D01*
X2853559Y14520134D01*
X2858694Y14531764D01*
X2863224Y14554537D01*
X2879514Y14578917D01*
X2884429Y14590047D01*
X2892031Y14597649D01*
X2906579Y14619421D01*
X2928350Y14633968D01*
X2935952Y14641570D01*
X2947080Y14646483D01*
X2971463Y14662776D01*
X2994238Y14667306D01*
X3005865Y14672440D01*
X3039896Y14676388D01*
X3048000Y14678000D01*
X4572000Y14678000D01*
X4580107Y14676387D01*
G37*
G36*
X7120107Y14676387D02*
G01*
X7154134Y14672440D01*
X7165759Y14667306D01*
X7188537Y14662776D01*
X7212921Y14646482D01*
X7224047Y14641570D01*
X7231646Y14633970D01*
X7253421Y14619421D01*
X7267970Y14597646D01*
X7275570Y14590047D01*
X7280482Y14578921D01*
X7296776Y14554537D01*
X7301306Y14531759D01*
X7306440Y14520134D01*
X7310387Y14486105D01*
X7312000Y14478000D01*
X7312000Y12954000D01*
X7310387Y12945894D01*
X7306440Y12911865D01*
X7301306Y12900238D01*
X7296776Y12877463D01*
X7280483Y12853080D01*
X7275570Y12841952D01*
X7267968Y12834350D01*
X7253421Y12812579D01*
X7231649Y12798031D01*
X7224047Y12790429D01*
X7212917Y12785514D01*
X7188537Y12769224D01*
X7165764Y12764694D01*
X7154134Y12759559D01*
X7120093Y12755609D01*
X7112000Y12754000D01*
X7106217Y12754000D01*
X5593784Y12754000D01*
X5588000Y12754000D01*
X5579906Y12755609D01*
X5545865Y12759559D01*
X5534234Y12764694D01*
X5511463Y12769224D01*
X5487084Y12785513D01*
X5475952Y12790429D01*
X5468347Y12798033D01*
X5446579Y12812579D01*
X5432033Y12834347D01*
X5424429Y12841952D01*
X5419513Y12853084D01*
X5403224Y12877463D01*
X5398694Y12900234D01*
X5393559Y12911865D01*
X5389609Y12945908D01*
X5388000Y12954000D01*
X5388000Y14478000D01*
X5389610Y14486095D01*
X5393559Y14520134D01*
X5398694Y14531764D01*
X5403224Y14554537D01*
X5419514Y14578917D01*
X5424429Y14590047D01*
X5432031Y14597649D01*
X5446579Y14619421D01*
X5468350Y14633968D01*
X5475952Y14641570D01*
X5487080Y14646483D01*
X5511463Y14662776D01*
X5534238Y14667306D01*
X5545865Y14672440D01*
X5579896Y14676388D01*
X5588000Y14678000D01*
X7112000Y14678000D01*
X7120107Y14676387D01*
G37*
G36*
X35060107Y16962387D02*
G01*
X35094134Y16958440D01*
X35105759Y16953306D01*
X35128537Y16948776D01*
X35152921Y16932482D01*
X35164047Y16927570D01*
X35171646Y16919970D01*
X35193421Y16905421D01*
X35207970Y16883646D01*
X35215570Y16876047D01*
X35220482Y16864921D01*
X35236776Y16840537D01*
X35241306Y16817759D01*
X35246440Y16806134D01*
X35250387Y16772105D01*
X35252000Y16764000D01*
X35252000Y15240000D01*
X35250387Y15231894D01*
X35246440Y15197865D01*
X35241306Y15186238D01*
X35236776Y15163463D01*
X35220483Y15139080D01*
X35215570Y15127952D01*
X35207968Y15120350D01*
X35193421Y15098579D01*
X35171649Y15084031D01*
X35164047Y15076429D01*
X35152917Y15071514D01*
X35128537Y15055224D01*
X35105764Y15050694D01*
X35094134Y15045559D01*
X35060093Y15041609D01*
X35052000Y15040000D01*
X35046217Y15040000D01*
X33533784Y15040000D01*
X33528000Y15040000D01*
X33519906Y15041609D01*
X33485865Y15045559D01*
X33474234Y15050694D01*
X33451463Y15055224D01*
X33427084Y15071513D01*
X33415952Y15076429D01*
X33408347Y15084033D01*
X33386579Y15098579D01*
X33372033Y15120347D01*
X33364429Y15127952D01*
X33359513Y15139084D01*
X33343224Y15163463D01*
X33338694Y15186234D01*
X33333559Y15197865D01*
X33329609Y15231908D01*
X33328000Y15240000D01*
X33328000Y16764000D01*
X33329610Y16772095D01*
X33333559Y16806134D01*
X33338694Y16817764D01*
X33343224Y16840537D01*
X33359514Y16864917D01*
X33364429Y16876047D01*
X33372031Y16883649D01*
X33386579Y16905421D01*
X33408350Y16919968D01*
X33415952Y16927570D01*
X33427080Y16932483D01*
X33451463Y16948776D01*
X33474238Y16953306D01*
X33485865Y16958440D01*
X33519896Y16962388D01*
X33528000Y16964000D01*
X35052000Y16964000D01*
X35060107Y16962387D01*
G37*
G36*
X37600107Y16962387D02*
G01*
X37634134Y16958440D01*
X37645759Y16953306D01*
X37668537Y16948776D01*
X37692921Y16932482D01*
X37704047Y16927570D01*
X37711646Y16919970D01*
X37733421Y16905421D01*
X37747970Y16883646D01*
X37755570Y16876047D01*
X37760482Y16864921D01*
X37776776Y16840537D01*
X37781306Y16817759D01*
X37786440Y16806134D01*
X37790387Y16772105D01*
X37792000Y16764000D01*
X37792000Y15240000D01*
X37790387Y15231894D01*
X37786440Y15197865D01*
X37781306Y15186238D01*
X37776776Y15163463D01*
X37760483Y15139080D01*
X37755570Y15127952D01*
X37747968Y15120350D01*
X37733421Y15098579D01*
X37711649Y15084031D01*
X37704047Y15076429D01*
X37692917Y15071514D01*
X37668537Y15055224D01*
X37645764Y15050694D01*
X37634134Y15045559D01*
X37600093Y15041609D01*
X37592000Y15040000D01*
X37586217Y15040000D01*
X36073784Y15040000D01*
X36068000Y15040000D01*
X36059906Y15041609D01*
X36025865Y15045559D01*
X36014234Y15050694D01*
X35991463Y15055224D01*
X35967084Y15071513D01*
X35955952Y15076429D01*
X35948347Y15084033D01*
X35926579Y15098579D01*
X35912033Y15120347D01*
X35904429Y15127952D01*
X35899513Y15139084D01*
X35883224Y15163463D01*
X35878694Y15186234D01*
X35873559Y15197865D01*
X35869609Y15231908D01*
X35868000Y15240000D01*
X35868000Y16764000D01*
X35869610Y16772095D01*
X35873559Y16806134D01*
X35878694Y16817764D01*
X35883224Y16840537D01*
X35899514Y16864917D01*
X35904429Y16876047D01*
X35912031Y16883649D01*
X35926579Y16905421D01*
X35948350Y16919968D01*
X35955952Y16927570D01*
X35967080Y16932483D01*
X35991463Y16948776D01*
X36014238Y16953306D01*
X36025865Y16958440D01*
X36059896Y16962388D01*
X36068000Y16964000D01*
X37592000Y16964000D01*
X37600107Y16962387D01*
G37*
G36*
X4580107Y17216387D02*
G01*
X4614134Y17212440D01*
X4625759Y17207306D01*
X4648537Y17202776D01*
X4672921Y17186482D01*
X4684047Y17181570D01*
X4691646Y17173970D01*
X4713421Y17159421D01*
X4727970Y17137646D01*
X4735570Y17130047D01*
X4740482Y17118921D01*
X4756776Y17094537D01*
X4761306Y17071759D01*
X4766440Y17060134D01*
X4770387Y17026105D01*
X4772000Y17018000D01*
X4772000Y15494000D01*
X4770387Y15485894D01*
X4766440Y15451865D01*
X4761306Y15440238D01*
X4756776Y15417463D01*
X4740483Y15393080D01*
X4735570Y15381952D01*
X4727968Y15374350D01*
X4713421Y15352579D01*
X4691649Y15338031D01*
X4684047Y15330429D01*
X4672917Y15325514D01*
X4648537Y15309224D01*
X4625764Y15304694D01*
X4614134Y15299559D01*
X4580093Y15295609D01*
X4572000Y15294000D01*
X4566217Y15294000D01*
X3053784Y15294000D01*
X3048000Y15294000D01*
X3039906Y15295609D01*
X3005865Y15299559D01*
X2994234Y15304694D01*
X2971463Y15309224D01*
X2947084Y15325513D01*
X2935952Y15330429D01*
X2928347Y15338033D01*
X2906579Y15352579D01*
X2892033Y15374347D01*
X2884429Y15381952D01*
X2879513Y15393084D01*
X2863224Y15417463D01*
X2858694Y15440234D01*
X2853559Y15451865D01*
X2849609Y15485908D01*
X2848000Y15494000D01*
X2848000Y17018000D01*
X2849610Y17026095D01*
X2853559Y17060134D01*
X2858694Y17071764D01*
X2863224Y17094537D01*
X2879514Y17118917D01*
X2884429Y17130047D01*
X2892031Y17137649D01*
X2906579Y17159421D01*
X2928350Y17173968D01*
X2935952Y17181570D01*
X2947080Y17186483D01*
X2971463Y17202776D01*
X2994238Y17207306D01*
X3005865Y17212440D01*
X3039896Y17216388D01*
X3048000Y17218000D01*
X4572000Y17218000D01*
X4580107Y17216387D01*
G37*
G36*
X7120107Y17216387D02*
G01*
X7154134Y17212440D01*
X7165759Y17207306D01*
X7188537Y17202776D01*
X7212921Y17186482D01*
X7224047Y17181570D01*
X7231646Y17173970D01*
X7253421Y17159421D01*
X7267970Y17137646D01*
X7275570Y17130047D01*
X7280482Y17118921D01*
X7296776Y17094537D01*
X7301306Y17071759D01*
X7306440Y17060134D01*
X7310387Y17026105D01*
X7312000Y17018000D01*
X7312000Y15494000D01*
X7310387Y15485894D01*
X7306440Y15451865D01*
X7301306Y15440238D01*
X7296776Y15417463D01*
X7280483Y15393080D01*
X7275570Y15381952D01*
X7267968Y15374350D01*
X7253421Y15352579D01*
X7231649Y15338031D01*
X7224047Y15330429D01*
X7212917Y15325514D01*
X7188537Y15309224D01*
X7165764Y15304694D01*
X7154134Y15299559D01*
X7120093Y15295609D01*
X7112000Y15294000D01*
X7106217Y15294000D01*
X5593784Y15294000D01*
X5588000Y15294000D01*
X5579906Y15295609D01*
X5545865Y15299559D01*
X5534234Y15304694D01*
X5511463Y15309224D01*
X5487084Y15325513D01*
X5475952Y15330429D01*
X5468347Y15338033D01*
X5446579Y15352579D01*
X5432033Y15374347D01*
X5424429Y15381952D01*
X5419513Y15393084D01*
X5403224Y15417463D01*
X5398694Y15440234D01*
X5393559Y15451865D01*
X5389609Y15485908D01*
X5388000Y15494000D01*
X5388000Y17018000D01*
X5389610Y17026095D01*
X5393559Y17060134D01*
X5398694Y17071764D01*
X5403224Y17094537D01*
X5419514Y17118917D01*
X5424429Y17130047D01*
X5432031Y17137649D01*
X5446579Y17159421D01*
X5468350Y17173968D01*
X5475952Y17181570D01*
X5487080Y17186483D01*
X5511463Y17202776D01*
X5534238Y17207306D01*
X5545865Y17212440D01*
X5579896Y17216388D01*
X5588000Y17218000D01*
X7112000Y17218000D01*
X7120107Y17216387D01*
G37*
G36*
X35060107Y19502387D02*
G01*
X35094134Y19498440D01*
X35105759Y19493306D01*
X35128537Y19488776D01*
X35152921Y19472482D01*
X35164047Y19467570D01*
X35171646Y19459970D01*
X35193421Y19445421D01*
X35207970Y19423646D01*
X35215570Y19416047D01*
X35220482Y19404921D01*
X35236776Y19380537D01*
X35241306Y19357759D01*
X35246440Y19346134D01*
X35250387Y19312105D01*
X35252000Y19304000D01*
X35252000Y17780000D01*
X35250387Y17771894D01*
X35246440Y17737865D01*
X35241306Y17726238D01*
X35236776Y17703463D01*
X35220483Y17679080D01*
X35215570Y17667952D01*
X35207968Y17660350D01*
X35193421Y17638579D01*
X35171649Y17624031D01*
X35164047Y17616429D01*
X35152917Y17611514D01*
X35128537Y17595224D01*
X35105764Y17590694D01*
X35094134Y17585559D01*
X35060093Y17581609D01*
X35052000Y17580000D01*
X35046217Y17580000D01*
X33533784Y17580000D01*
X33528000Y17580000D01*
X33519906Y17581609D01*
X33485865Y17585559D01*
X33474234Y17590694D01*
X33451463Y17595224D01*
X33427084Y17611513D01*
X33415952Y17616429D01*
X33408347Y17624033D01*
X33386579Y17638579D01*
X33372033Y17660347D01*
X33364429Y17667952D01*
X33359513Y17679084D01*
X33343224Y17703463D01*
X33338694Y17726234D01*
X33333559Y17737865D01*
X33329609Y17771908D01*
X33328000Y17780000D01*
X33328000Y19304000D01*
X33329610Y19312095D01*
X33333559Y19346134D01*
X33338694Y19357764D01*
X33343224Y19380537D01*
X33359514Y19404917D01*
X33364429Y19416047D01*
X33372031Y19423649D01*
X33386579Y19445421D01*
X33408350Y19459968D01*
X33415952Y19467570D01*
X33427080Y19472483D01*
X33451463Y19488776D01*
X33474238Y19493306D01*
X33485865Y19498440D01*
X33519896Y19502388D01*
X33528000Y19504000D01*
X35052000Y19504000D01*
X35060107Y19502387D01*
G37*
G36*
X37600107Y19502387D02*
G01*
X37634134Y19498440D01*
X37645759Y19493306D01*
X37668537Y19488776D01*
X37692921Y19472482D01*
X37704047Y19467570D01*
X37711646Y19459970D01*
X37733421Y19445421D01*
X37747970Y19423646D01*
X37755570Y19416047D01*
X37760482Y19404921D01*
X37776776Y19380537D01*
X37781306Y19357759D01*
X37786440Y19346134D01*
X37790387Y19312105D01*
X37792000Y19304000D01*
X37792000Y17780000D01*
X37790387Y17771894D01*
X37786440Y17737865D01*
X37781306Y17726238D01*
X37776776Y17703463D01*
X37760483Y17679080D01*
X37755570Y17667952D01*
X37747968Y17660350D01*
X37733421Y17638579D01*
X37711649Y17624031D01*
X37704047Y17616429D01*
X37692917Y17611514D01*
X37668537Y17595224D01*
X37645764Y17590694D01*
X37634134Y17585559D01*
X37600093Y17581609D01*
X37592000Y17580000D01*
X37586217Y17580000D01*
X36073784Y17580000D01*
X36068000Y17580000D01*
X36059906Y17581609D01*
X36025865Y17585559D01*
X36014234Y17590694D01*
X35991463Y17595224D01*
X35967084Y17611513D01*
X35955952Y17616429D01*
X35948347Y17624033D01*
X35926579Y17638579D01*
X35912033Y17660347D01*
X35904429Y17667952D01*
X35899513Y17679084D01*
X35883224Y17703463D01*
X35878694Y17726234D01*
X35873559Y17737865D01*
X35869609Y17771908D01*
X35868000Y17780000D01*
X35868000Y19304000D01*
X35869610Y19312095D01*
X35873559Y19346134D01*
X35878694Y19357764D01*
X35883224Y19380537D01*
X35899514Y19404917D01*
X35904429Y19416047D01*
X35912031Y19423649D01*
X35926579Y19445421D01*
X35948350Y19459968D01*
X35955952Y19467570D01*
X35967080Y19472483D01*
X35991463Y19488776D01*
X36014238Y19493306D01*
X36025865Y19498440D01*
X36059896Y19502388D01*
X36068000Y19504000D01*
X37592000Y19504000D01*
X37600107Y19502387D01*
G37*
G36*
X4580107Y19756387D02*
G01*
X4614134Y19752440D01*
X4625759Y19747306D01*
X4648537Y19742776D01*
X4672921Y19726482D01*
X4684047Y19721570D01*
X4691646Y19713970D01*
X4713421Y19699421D01*
X4727970Y19677646D01*
X4735570Y19670047D01*
X4740482Y19658921D01*
X4756776Y19634537D01*
X4761306Y19611759D01*
X4766440Y19600134D01*
X4770387Y19566105D01*
X4772000Y19558000D01*
X4772000Y18034000D01*
X4770387Y18025894D01*
X4766440Y17991865D01*
X4761306Y17980238D01*
X4756776Y17957463D01*
X4740483Y17933080D01*
X4735570Y17921952D01*
X4727968Y17914350D01*
X4713421Y17892579D01*
X4691649Y17878031D01*
X4684047Y17870429D01*
X4672917Y17865514D01*
X4648537Y17849224D01*
X4625764Y17844694D01*
X4614134Y17839559D01*
X4580093Y17835609D01*
X4572000Y17834000D01*
X4566217Y17834000D01*
X3053784Y17834000D01*
X3048000Y17834000D01*
X3039906Y17835609D01*
X3005865Y17839559D01*
X2994234Y17844694D01*
X2971463Y17849224D01*
X2947084Y17865513D01*
X2935952Y17870429D01*
X2928347Y17878033D01*
X2906579Y17892579D01*
X2892033Y17914347D01*
X2884429Y17921952D01*
X2879513Y17933084D01*
X2863224Y17957463D01*
X2858694Y17980234D01*
X2853559Y17991865D01*
X2849609Y18025908D01*
X2848000Y18034000D01*
X2848000Y19558000D01*
X2849610Y19566095D01*
X2853559Y19600134D01*
X2858694Y19611764D01*
X2863224Y19634537D01*
X2879514Y19658917D01*
X2884429Y19670047D01*
X2892031Y19677649D01*
X2906579Y19699421D01*
X2928350Y19713968D01*
X2935952Y19721570D01*
X2947080Y19726483D01*
X2971463Y19742776D01*
X2994238Y19747306D01*
X3005865Y19752440D01*
X3039896Y19756388D01*
X3048000Y19758000D01*
X4572000Y19758000D01*
X4580107Y19756387D01*
G37*
G36*
X7120107Y19756387D02*
G01*
X7154134Y19752440D01*
X7165759Y19747306D01*
X7188537Y19742776D01*
X7212921Y19726482D01*
X7224047Y19721570D01*
X7231646Y19713970D01*
X7253421Y19699421D01*
X7267970Y19677646D01*
X7275570Y19670047D01*
X7280482Y19658921D01*
X7296776Y19634537D01*
X7301306Y19611759D01*
X7306440Y19600134D01*
X7310387Y19566105D01*
X7312000Y19558000D01*
X7312000Y18034000D01*
X7310387Y18025894D01*
X7306440Y17991865D01*
X7301306Y17980238D01*
X7296776Y17957463D01*
X7280483Y17933080D01*
X7275570Y17921952D01*
X7267968Y17914350D01*
X7253421Y17892579D01*
X7231649Y17878031D01*
X7224047Y17870429D01*
X7212917Y17865514D01*
X7188537Y17849224D01*
X7165764Y17844694D01*
X7154134Y17839559D01*
X7120093Y17835609D01*
X7112000Y17834000D01*
X7106217Y17834000D01*
X5593784Y17834000D01*
X5588000Y17834000D01*
X5579906Y17835609D01*
X5545865Y17839559D01*
X5534234Y17844694D01*
X5511463Y17849224D01*
X5487084Y17865513D01*
X5475952Y17870429D01*
X5468347Y17878033D01*
X5446579Y17892579D01*
X5432033Y17914347D01*
X5424429Y17921952D01*
X5419513Y17933084D01*
X5403224Y17957463D01*
X5398694Y17980234D01*
X5393559Y17991865D01*
X5389609Y18025908D01*
X5388000Y18034000D01*
X5388000Y19558000D01*
X5389610Y19566095D01*
X5393559Y19600134D01*
X5398694Y19611764D01*
X5403224Y19634537D01*
X5419514Y19658917D01*
X5424429Y19670047D01*
X5432031Y19677649D01*
X5446579Y19699421D01*
X5468350Y19713968D01*
X5475952Y19721570D01*
X5487080Y19726483D01*
X5511463Y19742776D01*
X5534238Y19747306D01*
X5545865Y19752440D01*
X5579896Y19756388D01*
X5588000Y19758000D01*
X7112000Y19758000D01*
X7120107Y19756387D01*
G37*
G36*
X20034568Y24705896D02*
G01*
X20068034Y24705896D01*
X20106403Y24696438D01*
X20151091Y24690555D01*
X20181685Y24677882D01*
X20208301Y24671322D01*
X20248654Y24650143D01*
X20295800Y24630615D01*
X20317306Y24614112D01*
X20336222Y24604185D01*
X20374896Y24569922D01*
X20420064Y24535264D01*
X20432901Y24518534D01*
X20444355Y24508387D01*
X20477198Y24460804D01*
X20515415Y24411000D01*
X20521175Y24397093D01*
X20526422Y24389492D01*
X20549184Y24329473D01*
X20575355Y24266291D01*
X20576529Y24257370D01*
X20577651Y24254413D01*
X20586341Y24182843D01*
X20595800Y24111000D01*
X20586342Y24039162D01*
X20577651Y23967586D01*
X20576529Y23964628D01*
X20575355Y23955709D01*
X20549188Y23892537D01*
X20526422Y23832507D01*
X20521174Y23824904D01*
X20515415Y23811000D01*
X20477205Y23761204D01*
X20444355Y23713612D01*
X20432898Y23703461D01*
X20420064Y23686736D01*
X20376651Y23653424D01*
X20376651Y23563618D01*
X20387588Y23553928D01*
X20432764Y23519264D01*
X20445601Y23502533D01*
X20457056Y23492386D01*
X20489900Y23444802D01*
X20528115Y23395000D01*
X20533875Y23381093D01*
X20539122Y23373492D01*
X20561884Y23313473D01*
X20588055Y23250291D01*
X20589229Y23241370D01*
X20590351Y23238413D01*
X20599041Y23166843D01*
X20608500Y23095000D01*
X20599042Y23023162D01*
X20590351Y22951586D01*
X20589229Y22948628D01*
X20588055Y22939709D01*
X20561888Y22876537D01*
X20539122Y22816507D01*
X20533874Y22808904D01*
X20528115Y22795000D01*
X20489905Y22745204D01*
X20457055Y22697612D01*
X20445598Y22687462D01*
X20432764Y22670736D01*
X20387601Y22636081D01*
X20383001Y22632006D01*
X20383001Y22541994D01*
X20387600Y22537919D01*
X20432764Y22503264D01*
X20445600Y22486534D01*
X20457055Y22476387D01*
X20489898Y22428804D01*
X20528115Y22379000D01*
X20533875Y22365093D01*
X20539122Y22357492D01*
X20561884Y22297473D01*
X20588055Y22234291D01*
X20589229Y22225370D01*
X20590351Y22222413D01*
X20599041Y22150843D01*
X20608500Y22079000D01*
X20599042Y22007162D01*
X20590351Y21935586D01*
X20589229Y21932628D01*
X20588055Y21923709D01*
X20561888Y21860537D01*
X20539122Y21800507D01*
X20533874Y21792904D01*
X20528115Y21779000D01*
X20489905Y21729204D01*
X20457055Y21681612D01*
X20445598Y21671462D01*
X20432764Y21654736D01*
X20387601Y21620081D01*
X20383001Y21616006D01*
X20383001Y21525994D01*
X20387600Y21521919D01*
X20432764Y21487264D01*
X20445600Y21470534D01*
X20457055Y21460387D01*
X20489898Y21412804D01*
X20528115Y21363000D01*
X20533875Y21349093D01*
X20539122Y21341492D01*
X20561884Y21281473D01*
X20588055Y21218291D01*
X20589229Y21209370D01*
X20590351Y21206413D01*
X20599041Y21134843D01*
X20608500Y21063000D01*
X20599042Y20991162D01*
X20590351Y20919586D01*
X20589229Y20916628D01*
X20588055Y20907709D01*
X20561888Y20844537D01*
X20539122Y20784507D01*
X20533874Y20776904D01*
X20528115Y20763000D01*
X20489905Y20713204D01*
X20457055Y20665612D01*
X20445598Y20655462D01*
X20432764Y20638736D01*
X20387601Y20604081D01*
X20383001Y20600006D01*
X20383001Y20509994D01*
X20387600Y20505919D01*
X20432764Y20471264D01*
X20445600Y20454534D01*
X20457055Y20444387D01*
X20489898Y20396804D01*
X20528115Y20347000D01*
X20533875Y20333093D01*
X20539122Y20325492D01*
X20561884Y20265473D01*
X20588055Y20202291D01*
X20589229Y20193370D01*
X20590351Y20190413D01*
X20599041Y20118843D01*
X20608500Y20047000D01*
X20599042Y19975162D01*
X20590351Y19903586D01*
X20589229Y19900628D01*
X20588055Y19891709D01*
X20561888Y19828537D01*
X20539122Y19768507D01*
X20533874Y19760904D01*
X20528115Y19747000D01*
X20489905Y19697204D01*
X20457055Y19649612D01*
X20445598Y19639462D01*
X20432764Y19622736D01*
X20387604Y19588084D01*
X20348922Y19553814D01*
X20330002Y19543884D01*
X20308500Y19527385D01*
X20261363Y19507860D01*
X20221001Y19486677D01*
X20194381Y19480115D01*
X20163791Y19467445D01*
X20119106Y19461561D01*
X20080734Y19452104D01*
X20047268Y19452104D01*
X20008500Y19447000D01*
X19969732Y19452104D01*
X19936266Y19452104D01*
X19897893Y19461562D01*
X19853209Y19467445D01*
X19822620Y19480115D01*
X19795998Y19486677D01*
X19755631Y19507862D01*
X19708500Y19527385D01*
X19686999Y19543882D01*
X19668077Y19553814D01*
X19629387Y19588089D01*
X19584236Y19622736D01*
X19571403Y19639459D01*
X19559944Y19649612D01*
X19527086Y19697215D01*
X19488885Y19747000D01*
X19483126Y19760902D01*
X19457734Y19797690D01*
X19352766Y19797690D01*
X19327373Y19760903D01*
X19321615Y19747000D01*
X19283407Y19697206D01*
X19250555Y19649612D01*
X19239098Y19639462D01*
X19226264Y19622736D01*
X19181104Y19588084D01*
X19142422Y19553814D01*
X19123502Y19543884D01*
X19102000Y19527385D01*
X19054863Y19507860D01*
X19014501Y19486677D01*
X18987881Y19480115D01*
X18957291Y19467445D01*
X18912606Y19461561D01*
X18874234Y19452104D01*
X18840768Y19452104D01*
X18802000Y19447000D01*
X18763232Y19452104D01*
X18729766Y19452104D01*
X18691393Y19461562D01*
X18646709Y19467445D01*
X18616120Y19480115D01*
X18589498Y19486677D01*
X18549131Y19507862D01*
X18502000Y19527385D01*
X18480499Y19543882D01*
X18461577Y19553814D01*
X18422887Y19588089D01*
X18377736Y19622736D01*
X18364903Y19639459D01*
X18353444Y19649612D01*
X18320586Y19697215D01*
X18282385Y19747000D01*
X18276626Y19760902D01*
X18251234Y19797690D01*
X18146266Y19797690D01*
X18120873Y19760903D01*
X18115115Y19747000D01*
X18076907Y19697206D01*
X18044055Y19649612D01*
X18032598Y19639462D01*
X18019764Y19622736D01*
X17974604Y19588084D01*
X17935922Y19553814D01*
X17917002Y19543884D01*
X17895500Y19527385D01*
X17848363Y19507860D01*
X17808001Y19486677D01*
X17781381Y19480115D01*
X17750791Y19467445D01*
X17706106Y19461561D01*
X17667734Y19452104D01*
X17634268Y19452104D01*
X17595500Y19447000D01*
X17556732Y19452104D01*
X17523266Y19452104D01*
X17484893Y19461562D01*
X17440209Y19467445D01*
X17409620Y19480115D01*
X17382998Y19486677D01*
X17342631Y19507862D01*
X17295500Y19527385D01*
X17273999Y19543882D01*
X17255077Y19553814D01*
X17216387Y19588089D01*
X17171236Y19622736D01*
X17158403Y19639459D01*
X17146944Y19649612D01*
X17114084Y19697217D01*
X17075885Y19747000D01*
X17070127Y19760900D01*
X17064877Y19768507D01*
X17042099Y19828566D01*
X17015945Y19891709D01*
X17014771Y19900624D01*
X17013648Y19903586D01*
X17004945Y19975259D01*
X16995500Y20047000D01*
X17004945Y20118746D01*
X17013648Y20190413D01*
X17014771Y20193374D01*
X17015945Y20202291D01*
X17042103Y20265444D01*
X17064877Y20325492D01*
X17070126Y20333096D01*
X17075885Y20347000D01*
X17114091Y20396791D01*
X17146944Y20444387D01*
X17158401Y20454537D01*
X17171236Y20471264D01*
X17216383Y20505907D01*
X17220997Y20509994D01*
X17970001Y20509994D01*
X17974601Y20505918D01*
X18019764Y20471264D01*
X18032599Y20454536D01*
X18044057Y20444386D01*
X18076909Y20396790D01*
X18115115Y20347000D01*
X18120874Y20333095D01*
X18146266Y20296309D01*
X18251234Y20296309D01*
X18276625Y20333095D01*
X18282385Y20347000D01*
X18320590Y20396790D01*
X18353443Y20444386D01*
X18364901Y20454537D01*
X18377736Y20471264D01*
X18422884Y20505907D01*
X18427497Y20509994D01*
X19176501Y20509994D01*
X19181101Y20505918D01*
X19226264Y20471264D01*
X19239099Y20454536D01*
X19250557Y20444386D01*
X19283409Y20396790D01*
X19321615Y20347000D01*
X19327374Y20333095D01*
X19352766Y20296309D01*
X19457734Y20296309D01*
X19483125Y20333095D01*
X19488885Y20347000D01*
X19527090Y20396790D01*
X19559943Y20444386D01*
X19571401Y20454537D01*
X19584236Y20471264D01*
X19629384Y20505907D01*
X19633998Y20509995D01*
X19633998Y20600005D01*
X19629383Y20604093D01*
X19584236Y20638736D01*
X19571403Y20655459D01*
X19559944Y20665612D01*
X19527086Y20713215D01*
X19488885Y20763000D01*
X19483126Y20776902D01*
X19457734Y20813690D01*
X19352766Y20813690D01*
X19327373Y20776903D01*
X19321615Y20763000D01*
X19283407Y20713206D01*
X19250555Y20665612D01*
X19239098Y20655462D01*
X19226264Y20638736D01*
X19181101Y20604081D01*
X19176501Y20600006D01*
X19176501Y20509994D01*
X18427497Y20509994D01*
X18427498Y20509995D01*
X18427498Y20600005D01*
X18422883Y20604093D01*
X18377736Y20638736D01*
X18364903Y20655459D01*
X18353444Y20665612D01*
X18320586Y20713215D01*
X18282385Y20763000D01*
X18276626Y20776902D01*
X18251234Y20813690D01*
X18146266Y20813690D01*
X18120873Y20776903D01*
X18115115Y20763000D01*
X18076907Y20713206D01*
X18044055Y20665612D01*
X18032598Y20655462D01*
X18019764Y20638736D01*
X17974601Y20604081D01*
X17970001Y20600006D01*
X17970001Y20509994D01*
X17220997Y20509994D01*
X17220998Y20509995D01*
X17220998Y20600005D01*
X17216383Y20604093D01*
X17171236Y20638736D01*
X17158403Y20655459D01*
X17146944Y20665612D01*
X17114084Y20713217D01*
X17075885Y20763000D01*
X17070127Y20776900D01*
X17064877Y20784507D01*
X17042099Y20844566D01*
X17015945Y20907709D01*
X17014771Y20916624D01*
X17013648Y20919586D01*
X17004945Y20991259D01*
X16995500Y21063000D01*
X17004945Y21134746D01*
X17013648Y21206413D01*
X17014771Y21209374D01*
X17015945Y21218291D01*
X17042103Y21281444D01*
X17064877Y21341492D01*
X17070126Y21349096D01*
X17075885Y21363000D01*
X17114091Y21412791D01*
X17146944Y21460387D01*
X17158401Y21470537D01*
X17171236Y21487264D01*
X17216383Y21521907D01*
X17220997Y21525994D01*
X17970001Y21525994D01*
X17974601Y21521918D01*
X18019764Y21487264D01*
X18032599Y21470536D01*
X18044057Y21460386D01*
X18076909Y21412790D01*
X18115115Y21363000D01*
X18120874Y21349095D01*
X18146266Y21312309D01*
X18251234Y21312309D01*
X18276625Y21349095D01*
X18282385Y21363000D01*
X18320590Y21412790D01*
X18353443Y21460386D01*
X18364901Y21470537D01*
X18377736Y21487264D01*
X18422884Y21521907D01*
X18427497Y21525994D01*
X19176501Y21525994D01*
X19181101Y21521918D01*
X19226264Y21487264D01*
X19239099Y21470536D01*
X19250557Y21460386D01*
X19283409Y21412790D01*
X19321615Y21363000D01*
X19327374Y21349095D01*
X19352766Y21312309D01*
X19457734Y21312309D01*
X19483125Y21349095D01*
X19488885Y21363000D01*
X19527090Y21412790D01*
X19559943Y21460386D01*
X19571401Y21470537D01*
X19584236Y21487264D01*
X19629384Y21521907D01*
X19633998Y21525995D01*
X19633998Y21616005D01*
X19629383Y21620093D01*
X19584236Y21654736D01*
X19571403Y21671459D01*
X19559944Y21681612D01*
X19527086Y21729215D01*
X19488885Y21779000D01*
X19483126Y21792902D01*
X19457734Y21829690D01*
X19352766Y21829690D01*
X19327373Y21792903D01*
X19321615Y21779000D01*
X19283407Y21729206D01*
X19250555Y21681612D01*
X19239098Y21671462D01*
X19226264Y21654736D01*
X19181101Y21620081D01*
X19176501Y21616006D01*
X19176501Y21525994D01*
X18427497Y21525994D01*
X18427498Y21525995D01*
X18427498Y21616005D01*
X18422883Y21620093D01*
X18377736Y21654736D01*
X18364903Y21671459D01*
X18353444Y21681612D01*
X18320586Y21729215D01*
X18282385Y21779000D01*
X18276626Y21792902D01*
X18251234Y21829690D01*
X18146266Y21829690D01*
X18120873Y21792903D01*
X18115115Y21779000D01*
X18076907Y21729206D01*
X18044055Y21681612D01*
X18032598Y21671462D01*
X18019764Y21654736D01*
X17974601Y21620081D01*
X17970001Y21616006D01*
X17970001Y21525994D01*
X17220997Y21525994D01*
X17220998Y21525995D01*
X17220998Y21616005D01*
X17216383Y21620093D01*
X17171236Y21654736D01*
X17158403Y21671459D01*
X17146944Y21681612D01*
X17114084Y21729217D01*
X17075885Y21779000D01*
X17070127Y21792900D01*
X17064877Y21800507D01*
X17042099Y21860566D01*
X17015945Y21923709D01*
X17014771Y21932624D01*
X17013648Y21935586D01*
X17004945Y22007259D01*
X16995500Y22079000D01*
X17004945Y22150746D01*
X17013648Y22222413D01*
X17014771Y22225374D01*
X17015945Y22234291D01*
X17042103Y22297444D01*
X17064877Y22357492D01*
X17070126Y22365096D01*
X17075885Y22379000D01*
X17114091Y22428791D01*
X17146944Y22476387D01*
X17158401Y22486537D01*
X17171236Y22503264D01*
X17216383Y22537907D01*
X17220997Y22541994D01*
X17970001Y22541994D01*
X17974601Y22537918D01*
X18019764Y22503264D01*
X18032599Y22486536D01*
X18044057Y22476386D01*
X18076909Y22428790D01*
X18115115Y22379000D01*
X18120874Y22365095D01*
X18146266Y22328309D01*
X18251234Y22328309D01*
X18276625Y22365095D01*
X18282385Y22379000D01*
X18320590Y22428790D01*
X18353443Y22476386D01*
X18364901Y22486537D01*
X18377736Y22503264D01*
X18422884Y22537907D01*
X18427497Y22541994D01*
X19176501Y22541994D01*
X19181101Y22537918D01*
X19226264Y22503264D01*
X19239099Y22486536D01*
X19250557Y22476386D01*
X19283409Y22428790D01*
X19321615Y22379000D01*
X19327374Y22365095D01*
X19352766Y22328309D01*
X19457734Y22328309D01*
X19483125Y22365095D01*
X19488885Y22379000D01*
X19527090Y22428790D01*
X19559943Y22476386D01*
X19571401Y22486537D01*
X19584236Y22503264D01*
X19629384Y22537907D01*
X19633998Y22541995D01*
X19633998Y22632005D01*
X19629383Y22636093D01*
X19584236Y22670736D01*
X19571403Y22687459D01*
X19559944Y22697612D01*
X19527086Y22745215D01*
X19488885Y22795000D01*
X19483126Y22808902D01*
X19457734Y22845690D01*
X19352766Y22845690D01*
X19327373Y22808903D01*
X19321615Y22795000D01*
X19283407Y22745206D01*
X19250555Y22697612D01*
X19239098Y22687462D01*
X19226264Y22670736D01*
X19181101Y22636081D01*
X19176501Y22632006D01*
X19176501Y22541994D01*
X18427497Y22541994D01*
X18427498Y22541995D01*
X18427498Y22632005D01*
X18422883Y22636093D01*
X18377736Y22670736D01*
X18364903Y22687459D01*
X18353444Y22697612D01*
X18320586Y22745215D01*
X18282385Y22795000D01*
X18276626Y22808902D01*
X18251234Y22845690D01*
X18146266Y22845690D01*
X18120873Y22808903D01*
X18115115Y22795000D01*
X18076907Y22745206D01*
X18044055Y22697612D01*
X18032598Y22687462D01*
X18019764Y22670736D01*
X17974601Y22636081D01*
X17970001Y22632006D01*
X17970001Y22541994D01*
X17220997Y22541994D01*
X17220998Y22541995D01*
X17220998Y22632005D01*
X17216383Y22636093D01*
X17171236Y22670736D01*
X17158403Y22687459D01*
X17146944Y22697612D01*
X17114084Y22745217D01*
X17075885Y22795000D01*
X17070127Y22808900D01*
X17064877Y22816507D01*
X17042099Y22876566D01*
X17015945Y22939709D01*
X17014771Y22948624D01*
X17013648Y22951586D01*
X17004945Y23023259D01*
X16995500Y23095000D01*
X17004945Y23166746D01*
X17013648Y23238413D01*
X17014771Y23241374D01*
X17015945Y23250291D01*
X17042103Y23313444D01*
X17064877Y23373492D01*
X17070126Y23381096D01*
X17075885Y23395000D01*
X17114091Y23444791D01*
X17146944Y23492387D01*
X17158401Y23502537D01*
X17171236Y23519264D01*
X17216383Y23553907D01*
X17220997Y23557994D01*
X17970001Y23557994D01*
X17974601Y23553918D01*
X18019764Y23519264D01*
X18032599Y23502536D01*
X18044057Y23492386D01*
X18076909Y23444790D01*
X18115115Y23395000D01*
X18120874Y23381095D01*
X18146266Y23344309D01*
X18251234Y23344309D01*
X18276625Y23381095D01*
X18282385Y23395000D01*
X18320590Y23444790D01*
X18353443Y23492386D01*
X18364901Y23502537D01*
X18377736Y23519264D01*
X18422884Y23553907D01*
X18427497Y23557994D01*
X19176501Y23557994D01*
X19181101Y23553918D01*
X19226264Y23519264D01*
X19239099Y23502536D01*
X19250557Y23492386D01*
X19283409Y23444790D01*
X19321615Y23395000D01*
X19327374Y23381095D01*
X19352766Y23344309D01*
X19457734Y23344309D01*
X19483126Y23381096D01*
X19488885Y23395000D01*
X19527084Y23444782D01*
X19559942Y23492386D01*
X19571402Y23502539D01*
X19584236Y23519264D01*
X19627648Y23552575D01*
X19627648Y23642379D01*
X19616682Y23652093D01*
X19571536Y23686736D01*
X19558701Y23703462D01*
X19547243Y23713614D01*
X19514384Y23761217D01*
X19476185Y23811000D01*
X19470427Y23824898D01*
X19451383Y23852490D01*
X19346417Y23852490D01*
X19327372Y23824899D01*
X19321615Y23811000D01*
X19283411Y23761212D01*
X19250555Y23713612D01*
X19239098Y23703462D01*
X19226264Y23686736D01*
X19181101Y23652081D01*
X19176501Y23648006D01*
X19176501Y23557994D01*
X18427497Y23557994D01*
X18427498Y23557995D01*
X18427498Y23648005D01*
X18422883Y23652093D01*
X18377736Y23686736D01*
X18364903Y23703459D01*
X18353444Y23713612D01*
X18320586Y23761215D01*
X18282385Y23811000D01*
X18276626Y23824902D01*
X18251234Y23861690D01*
X18146266Y23861690D01*
X18120873Y23824903D01*
X18115115Y23811000D01*
X18076907Y23761206D01*
X18044055Y23713612D01*
X18032598Y23703462D01*
X18019764Y23686736D01*
X17974601Y23652081D01*
X17970001Y23648006D01*
X17970001Y23557994D01*
X17220997Y23557994D01*
X17220998Y23557995D01*
X17220998Y23648005D01*
X17216383Y23652093D01*
X17171236Y23686736D01*
X17158403Y23703459D01*
X17146944Y23713612D01*
X17114084Y23761217D01*
X17075885Y23811000D01*
X17070127Y23824900D01*
X17064877Y23832507D01*
X17042099Y23892566D01*
X17015945Y23955709D01*
X17014771Y23964624D01*
X17013648Y23967586D01*
X17004945Y24039259D01*
X16995500Y24111000D01*
X17004945Y24182746D01*
X17013648Y24254413D01*
X17014771Y24257374D01*
X17015945Y24266291D01*
X17042103Y24329444D01*
X17064877Y24389492D01*
X17070126Y24397096D01*
X17075885Y24411000D01*
X17114091Y24460791D01*
X17146944Y24508387D01*
X17158400Y24518537D01*
X17171236Y24535264D01*
X17216396Y24569916D01*
X17255077Y24604185D01*
X17273995Y24614114D01*
X17295500Y24630615D01*
X17342640Y24650141D01*
X17382998Y24671322D01*
X17409615Y24677882D01*
X17440209Y24690555D01*
X17484895Y24696438D01*
X17523266Y24705896D01*
X17556732Y24705896D01*
X17595500Y24711000D01*
X17634268Y24705896D01*
X17667734Y24705896D01*
X17706103Y24696438D01*
X17750791Y24690555D01*
X17781385Y24677882D01*
X17808001Y24671322D01*
X17848354Y24650143D01*
X17895500Y24630615D01*
X17917006Y24614112D01*
X17935922Y24604185D01*
X17974598Y24569920D01*
X18019764Y24535264D01*
X18032599Y24518536D01*
X18044057Y24508386D01*
X18076909Y24460790D01*
X18115115Y24411000D01*
X18120874Y24397095D01*
X18146266Y24360309D01*
X18251234Y24360309D01*
X18276626Y24397096D01*
X18282385Y24411000D01*
X18320584Y24460782D01*
X18353442Y24508386D01*
X18364902Y24518539D01*
X18377736Y24535264D01*
X18422893Y24569914D01*
X18461577Y24604185D01*
X18480495Y24614114D01*
X18502000Y24630615D01*
X18549140Y24650141D01*
X18589498Y24671322D01*
X18616115Y24677882D01*
X18646709Y24690555D01*
X18691395Y24696438D01*
X18729766Y24705896D01*
X18763232Y24705896D01*
X18802000Y24711000D01*
X18840768Y24705896D01*
X18874234Y24705896D01*
X18912603Y24696438D01*
X18957291Y24690555D01*
X18987885Y24677882D01*
X19014501Y24671322D01*
X19054854Y24650143D01*
X19102000Y24630615D01*
X19123506Y24614112D01*
X19142422Y24604185D01*
X19181096Y24569922D01*
X19226264Y24535264D01*
X19239101Y24518534D01*
X19250555Y24508387D01*
X19283401Y24460801D01*
X19321615Y24411000D01*
X19327374Y24397095D01*
X19346416Y24369509D01*
X19451384Y24369509D01*
X19470425Y24397095D01*
X19476185Y24411000D01*
X19514392Y24460792D01*
X19547244Y24508387D01*
X19558700Y24518537D01*
X19571536Y24535264D01*
X19616696Y24569916D01*
X19655377Y24604185D01*
X19674295Y24614114D01*
X19695800Y24630615D01*
X19742940Y24650141D01*
X19783298Y24671322D01*
X19809915Y24677882D01*
X19840509Y24690555D01*
X19885195Y24696438D01*
X19923566Y24705896D01*
X19957032Y24705896D01*
X19995800Y24711000D01*
X20034568Y24705896D01*
G37*
G36*
X4580107Y22296387D02*
G01*
X4614134Y22292440D01*
X4625759Y22287306D01*
X4648537Y22282776D01*
X4672921Y22266482D01*
X4684047Y22261570D01*
X4691646Y22253970D01*
X4713421Y22239421D01*
X4727970Y22217646D01*
X4735570Y22210047D01*
X4740482Y22198921D01*
X4756776Y22174537D01*
X4761306Y22151759D01*
X4766440Y22140134D01*
X4770387Y22106105D01*
X4772000Y22098000D01*
X4772000Y20574000D01*
X4770387Y20565894D01*
X4766440Y20531865D01*
X4761306Y20520238D01*
X4756776Y20497463D01*
X4740483Y20473080D01*
X4735570Y20461952D01*
X4727968Y20454350D01*
X4713421Y20432579D01*
X4691649Y20418031D01*
X4684047Y20410429D01*
X4672917Y20405514D01*
X4648537Y20389224D01*
X4625764Y20384694D01*
X4614134Y20379559D01*
X4580093Y20375609D01*
X4572000Y20374000D01*
X4566217Y20374000D01*
X3053784Y20374000D01*
X3048000Y20374000D01*
X3039906Y20375609D01*
X3005865Y20379559D01*
X2994234Y20384694D01*
X2971463Y20389224D01*
X2947084Y20405513D01*
X2935952Y20410429D01*
X2928347Y20418033D01*
X2906579Y20432579D01*
X2892033Y20454347D01*
X2884429Y20461952D01*
X2879513Y20473084D01*
X2863224Y20497463D01*
X2858694Y20520234D01*
X2853559Y20531865D01*
X2849609Y20565908D01*
X2848000Y20574000D01*
X2848000Y22098000D01*
X2849610Y22106095D01*
X2853559Y22140134D01*
X2858694Y22151764D01*
X2863224Y22174537D01*
X2879514Y22198917D01*
X2884429Y22210047D01*
X2892031Y22217649D01*
X2906579Y22239421D01*
X2928350Y22253968D01*
X2935952Y22261570D01*
X2947080Y22266483D01*
X2971463Y22282776D01*
X2994238Y22287306D01*
X3005865Y22292440D01*
X3039896Y22296388D01*
X3048000Y22298000D01*
X4572000Y22298000D01*
X4580107Y22296387D01*
G37*
G36*
X7120107Y22296387D02*
G01*
X7154134Y22292440D01*
X7165759Y22287306D01*
X7188537Y22282776D01*
X7212921Y22266482D01*
X7224047Y22261570D01*
X7231646Y22253970D01*
X7253421Y22239421D01*
X7267970Y22217646D01*
X7275570Y22210047D01*
X7280482Y22198921D01*
X7296776Y22174537D01*
X7301306Y22151759D01*
X7306440Y22140134D01*
X7310387Y22106105D01*
X7312000Y22098000D01*
X7312000Y20574000D01*
X7310387Y20565894D01*
X7306440Y20531865D01*
X7301306Y20520238D01*
X7296776Y20497463D01*
X7280483Y20473080D01*
X7275570Y20461952D01*
X7267968Y20454350D01*
X7253421Y20432579D01*
X7231649Y20418031D01*
X7224047Y20410429D01*
X7212917Y20405514D01*
X7188537Y20389224D01*
X7165764Y20384694D01*
X7154134Y20379559D01*
X7120093Y20375609D01*
X7112000Y20374000D01*
X7106217Y20374000D01*
X5593784Y20374000D01*
X5588000Y20374000D01*
X5579906Y20375609D01*
X5545865Y20379559D01*
X5534234Y20384694D01*
X5511463Y20389224D01*
X5487084Y20405513D01*
X5475952Y20410429D01*
X5468347Y20418033D01*
X5446579Y20432579D01*
X5432033Y20454347D01*
X5424429Y20461952D01*
X5419513Y20473084D01*
X5403224Y20497463D01*
X5398694Y20520234D01*
X5393559Y20531865D01*
X5389609Y20565908D01*
X5388000Y20574000D01*
X5388000Y22098000D01*
X5389610Y22106095D01*
X5393559Y22140134D01*
X5398694Y22151764D01*
X5403224Y22174537D01*
X5419514Y22198917D01*
X5424429Y22210047D01*
X5432031Y22217649D01*
X5446579Y22239421D01*
X5468350Y22253968D01*
X5475952Y22261570D01*
X5487080Y22266483D01*
X5511463Y22282776D01*
X5534238Y22287306D01*
X5545865Y22292440D01*
X5579896Y22296388D01*
X5588000Y22298000D01*
X7112000Y22298000D01*
X7120107Y22296387D01*
G37*
G36*
X29218107Y22550387D02*
G01*
X29252134Y22546440D01*
X29263759Y22541306D01*
X29286537Y22536776D01*
X29310921Y22520482D01*
X29322047Y22515570D01*
X29329646Y22507970D01*
X29351421Y22493421D01*
X29365970Y22471646D01*
X29373570Y22464047D01*
X29378482Y22452921D01*
X29394776Y22428537D01*
X29399306Y22405759D01*
X29404440Y22394134D01*
X29408387Y22360105D01*
X29410000Y22352000D01*
X29410000Y20828000D01*
X29408387Y20819894D01*
X29404440Y20785865D01*
X29399306Y20774238D01*
X29394776Y20751463D01*
X29378483Y20727080D01*
X29373570Y20715952D01*
X29365968Y20708350D01*
X29351421Y20686579D01*
X29329649Y20672031D01*
X29322047Y20664429D01*
X29310917Y20659514D01*
X29286537Y20643224D01*
X29263764Y20638694D01*
X29252134Y20633559D01*
X29218093Y20629609D01*
X29210000Y20628000D01*
X29204217Y20628000D01*
X27691784Y20628000D01*
X27686000Y20628000D01*
X27677906Y20629609D01*
X27643865Y20633559D01*
X27632234Y20638694D01*
X27609463Y20643224D01*
X27585084Y20659513D01*
X27573952Y20664429D01*
X27566347Y20672033D01*
X27544579Y20686579D01*
X27530033Y20708347D01*
X27522429Y20715952D01*
X27517513Y20727084D01*
X27501224Y20751463D01*
X27496694Y20774234D01*
X27491559Y20785865D01*
X27487609Y20819908D01*
X27486000Y20828000D01*
X27486000Y22352000D01*
X27487610Y22360095D01*
X27491559Y22394134D01*
X27496694Y22405764D01*
X27501224Y22428537D01*
X27517514Y22452917D01*
X27522429Y22464047D01*
X27530031Y22471649D01*
X27544579Y22493421D01*
X27566350Y22507968D01*
X27573952Y22515570D01*
X27585080Y22520483D01*
X27609463Y22536776D01*
X27632238Y22541306D01*
X27643865Y22546440D01*
X27677896Y22550388D01*
X27686000Y22552000D01*
X29210000Y22552000D01*
X29218107Y22550387D01*
G37*
G36*
X31758107Y22550387D02*
G01*
X31792134Y22546440D01*
X31803759Y22541306D01*
X31826537Y22536776D01*
X31850921Y22520482D01*
X31862047Y22515570D01*
X31869646Y22507970D01*
X31891421Y22493421D01*
X31905970Y22471646D01*
X31913570Y22464047D01*
X31918482Y22452921D01*
X31934776Y22428537D01*
X31939306Y22405759D01*
X31944440Y22394134D01*
X31948387Y22360105D01*
X31950000Y22352000D01*
X31950000Y20828000D01*
X31948387Y20819894D01*
X31944440Y20785865D01*
X31939306Y20774238D01*
X31934776Y20751463D01*
X31918483Y20727080D01*
X31913570Y20715952D01*
X31905968Y20708350D01*
X31891421Y20686579D01*
X31869649Y20672031D01*
X31862047Y20664429D01*
X31850917Y20659514D01*
X31826537Y20643224D01*
X31803764Y20638694D01*
X31792134Y20633559D01*
X31758093Y20629609D01*
X31750000Y20628000D01*
X31744217Y20628000D01*
X30231784Y20628000D01*
X30226000Y20628000D01*
X30217906Y20629609D01*
X30183865Y20633559D01*
X30172234Y20638694D01*
X30149463Y20643224D01*
X30125084Y20659513D01*
X30113952Y20664429D01*
X30106347Y20672033D01*
X30084579Y20686579D01*
X30070033Y20708347D01*
X30062429Y20715952D01*
X30057513Y20727084D01*
X30041224Y20751463D01*
X30036694Y20774234D01*
X30031559Y20785865D01*
X30027609Y20819908D01*
X30026000Y20828000D01*
X30026000Y22352000D01*
X30027610Y22360095D01*
X30031559Y22394134D01*
X30036694Y22405764D01*
X30041224Y22428537D01*
X30057514Y22452917D01*
X30062429Y22464047D01*
X30070031Y22471649D01*
X30084579Y22493421D01*
X30106350Y22507968D01*
X30113952Y22515570D01*
X30125080Y22520483D01*
X30149463Y22536776D01*
X30172238Y22541306D01*
X30183865Y22546440D01*
X30217896Y22550388D01*
X30226000Y22552000D01*
X31750000Y22552000D01*
X31758107Y22550387D01*
G37*
G36*
X35060107Y23058387D02*
G01*
X35094134Y23054440D01*
X35105759Y23049306D01*
X35128537Y23044776D01*
X35152921Y23028482D01*
X35164047Y23023570D01*
X35171646Y23015970D01*
X35193421Y23001421D01*
X35207970Y22979646D01*
X35215570Y22972047D01*
X35220482Y22960921D01*
X35236776Y22936537D01*
X35241306Y22913759D01*
X35246440Y22902134D01*
X35250387Y22868105D01*
X35252000Y22860000D01*
X35252000Y21336000D01*
X35250387Y21327894D01*
X35246440Y21293865D01*
X35241306Y21282238D01*
X35236776Y21259463D01*
X35220483Y21235080D01*
X35215570Y21223952D01*
X35207968Y21216350D01*
X35193421Y21194579D01*
X35171649Y21180031D01*
X35164047Y21172429D01*
X35152917Y21167514D01*
X35128537Y21151224D01*
X35105764Y21146694D01*
X35094134Y21141559D01*
X35060093Y21137609D01*
X35052000Y21136000D01*
X35046217Y21136000D01*
X33533784Y21136000D01*
X33528000Y21136000D01*
X33519906Y21137609D01*
X33485865Y21141559D01*
X33474234Y21146694D01*
X33451463Y21151224D01*
X33427084Y21167513D01*
X33415952Y21172429D01*
X33408347Y21180033D01*
X33386579Y21194579D01*
X33372033Y21216347D01*
X33364429Y21223952D01*
X33359513Y21235084D01*
X33343224Y21259463D01*
X33338694Y21282234D01*
X33333559Y21293865D01*
X33329609Y21327908D01*
X33328000Y21336000D01*
X33328000Y22860000D01*
X33329610Y22868095D01*
X33333559Y22902134D01*
X33338694Y22913764D01*
X33343224Y22936537D01*
X33359514Y22960917D01*
X33364429Y22972047D01*
X33372031Y22979649D01*
X33386579Y23001421D01*
X33408350Y23015968D01*
X33415952Y23023570D01*
X33427080Y23028483D01*
X33451463Y23044776D01*
X33474238Y23049306D01*
X33485865Y23054440D01*
X33519896Y23058388D01*
X33528000Y23060000D01*
X35052000Y23060000D01*
X35060107Y23058387D01*
G37*
G36*
X37600107Y23058387D02*
G01*
X37634134Y23054440D01*
X37645759Y23049306D01*
X37668537Y23044776D01*
X37692921Y23028482D01*
X37704047Y23023570D01*
X37711646Y23015970D01*
X37733421Y23001421D01*
X37747970Y22979646D01*
X37755570Y22972047D01*
X37760482Y22960921D01*
X37776776Y22936537D01*
X37781306Y22913759D01*
X37786440Y22902134D01*
X37790387Y22868105D01*
X37792000Y22860000D01*
X37792000Y21336000D01*
X37790387Y21327894D01*
X37786440Y21293865D01*
X37781306Y21282238D01*
X37776776Y21259463D01*
X37760483Y21235080D01*
X37755570Y21223952D01*
X37747968Y21216350D01*
X37733421Y21194579D01*
X37711649Y21180031D01*
X37704047Y21172429D01*
X37692917Y21167514D01*
X37668537Y21151224D01*
X37645764Y21146694D01*
X37634134Y21141559D01*
X37600093Y21137609D01*
X37592000Y21136000D01*
X37586217Y21136000D01*
X36073784Y21136000D01*
X36068000Y21136000D01*
X36059906Y21137609D01*
X36025865Y21141559D01*
X36014234Y21146694D01*
X35991463Y21151224D01*
X35967084Y21167513D01*
X35955952Y21172429D01*
X35948347Y21180033D01*
X35926579Y21194579D01*
X35912033Y21216347D01*
X35904429Y21223952D01*
X35899513Y21235084D01*
X35883224Y21259463D01*
X35878694Y21282234D01*
X35873559Y21293865D01*
X35869609Y21327908D01*
X35868000Y21336000D01*
X35868000Y22860000D01*
X35869610Y22868095D01*
X35873559Y22902134D01*
X35878694Y22913764D01*
X35883224Y22936537D01*
X35899514Y22960917D01*
X35904429Y22972047D01*
X35912031Y22979649D01*
X35926579Y23001421D01*
X35948350Y23015968D01*
X35955952Y23023570D01*
X35967080Y23028483D01*
X35991463Y23044776D01*
X36014238Y23049306D01*
X36025865Y23054440D01*
X36059896Y23058388D01*
X36068000Y23060000D01*
X37592000Y23060000D01*
X37600107Y23058387D01*
G37*
G36*
X4580107Y24836387D02*
G01*
X4614134Y24832440D01*
X4625759Y24827306D01*
X4648537Y24822776D01*
X4672921Y24806482D01*
X4684047Y24801570D01*
X4691646Y24793970D01*
X4713421Y24779421D01*
X4727970Y24757646D01*
X4735570Y24750047D01*
X4740482Y24738921D01*
X4756776Y24714537D01*
X4761306Y24691759D01*
X4766440Y24680134D01*
X4770387Y24646105D01*
X4772000Y24638000D01*
X4772000Y23114000D01*
X4770387Y23105894D01*
X4766440Y23071865D01*
X4761306Y23060238D01*
X4756776Y23037463D01*
X4740483Y23013080D01*
X4735570Y23001952D01*
X4727968Y22994350D01*
X4713421Y22972579D01*
X4691649Y22958031D01*
X4684047Y22950429D01*
X4672917Y22945514D01*
X4648537Y22929224D01*
X4625764Y22924694D01*
X4614134Y22919559D01*
X4580093Y22915609D01*
X4572000Y22914000D01*
X4566217Y22914000D01*
X3053784Y22914000D01*
X3048000Y22914000D01*
X3039906Y22915609D01*
X3005865Y22919559D01*
X2994234Y22924694D01*
X2971463Y22929224D01*
X2947084Y22945513D01*
X2935952Y22950429D01*
X2928347Y22958033D01*
X2906579Y22972579D01*
X2892033Y22994347D01*
X2884429Y23001952D01*
X2879513Y23013084D01*
X2863224Y23037463D01*
X2858694Y23060234D01*
X2853559Y23071865D01*
X2849609Y23105908D01*
X2848000Y23114000D01*
X2848000Y24638000D01*
X2849610Y24646095D01*
X2853559Y24680134D01*
X2858694Y24691764D01*
X2863224Y24714537D01*
X2879514Y24738917D01*
X2884429Y24750047D01*
X2892031Y24757649D01*
X2906579Y24779421D01*
X2928350Y24793968D01*
X2935952Y24801570D01*
X2947080Y24806483D01*
X2971463Y24822776D01*
X2994238Y24827306D01*
X3005865Y24832440D01*
X3039896Y24836388D01*
X3048000Y24838000D01*
X4572000Y24838000D01*
X4580107Y24836387D01*
G37*
G36*
X7120107Y24836387D02*
G01*
X7154134Y24832440D01*
X7165759Y24827306D01*
X7188537Y24822776D01*
X7212921Y24806482D01*
X7224047Y24801570D01*
X7231646Y24793970D01*
X7253421Y24779421D01*
X7267970Y24757646D01*
X7275570Y24750047D01*
X7280482Y24738921D01*
X7296776Y24714537D01*
X7301306Y24691759D01*
X7306440Y24680134D01*
X7310387Y24646105D01*
X7312000Y24638000D01*
X7312000Y23114000D01*
X7310387Y23105894D01*
X7306440Y23071865D01*
X7301306Y23060238D01*
X7296776Y23037463D01*
X7280483Y23013080D01*
X7275570Y23001952D01*
X7267968Y22994350D01*
X7253421Y22972579D01*
X7231649Y22958031D01*
X7224047Y22950429D01*
X7212917Y22945514D01*
X7188537Y22929224D01*
X7165764Y22924694D01*
X7154134Y22919559D01*
X7120093Y22915609D01*
X7112000Y22914000D01*
X7106217Y22914000D01*
X5593784Y22914000D01*
X5588000Y22914000D01*
X5579906Y22915609D01*
X5545865Y22919559D01*
X5534234Y22924694D01*
X5511463Y22929224D01*
X5487084Y22945513D01*
X5475952Y22950429D01*
X5468347Y22958033D01*
X5446579Y22972579D01*
X5432033Y22994347D01*
X5424429Y23001952D01*
X5419513Y23013084D01*
X5403224Y23037463D01*
X5398694Y23060234D01*
X5393559Y23071865D01*
X5389609Y23105908D01*
X5388000Y23114000D01*
X5388000Y24638000D01*
X5389610Y24646095D01*
X5393559Y24680134D01*
X5398694Y24691764D01*
X5403224Y24714537D01*
X5419514Y24738917D01*
X5424429Y24750047D01*
X5432031Y24757649D01*
X5446579Y24779421D01*
X5468350Y24793968D01*
X5475952Y24801570D01*
X5487080Y24806483D01*
X5511463Y24822776D01*
X5534238Y24827306D01*
X5545865Y24832440D01*
X5579896Y24836388D01*
X5588000Y24838000D01*
X7112000Y24838000D01*
X7120107Y24836387D01*
G37*
G36*
X35060107Y25598387D02*
G01*
X35094134Y25594440D01*
X35105759Y25589306D01*
X35128537Y25584776D01*
X35152921Y25568482D01*
X35164047Y25563570D01*
X35171646Y25555970D01*
X35193421Y25541421D01*
X35207970Y25519646D01*
X35215570Y25512047D01*
X35220482Y25500921D01*
X35236776Y25476537D01*
X35241306Y25453759D01*
X35246440Y25442134D01*
X35250387Y25408105D01*
X35252000Y25400000D01*
X35252000Y23876000D01*
X35250387Y23867894D01*
X35246440Y23833865D01*
X35241306Y23822238D01*
X35236776Y23799463D01*
X35220483Y23775080D01*
X35215570Y23763952D01*
X35207968Y23756350D01*
X35193421Y23734579D01*
X35171649Y23720031D01*
X35164047Y23712429D01*
X35152917Y23707514D01*
X35128537Y23691224D01*
X35105764Y23686694D01*
X35094134Y23681559D01*
X35060093Y23677609D01*
X35052000Y23676000D01*
X35046217Y23676000D01*
X33533784Y23676000D01*
X33528000Y23676000D01*
X33519906Y23677609D01*
X33485865Y23681559D01*
X33474234Y23686694D01*
X33451463Y23691224D01*
X33427084Y23707513D01*
X33415952Y23712429D01*
X33408347Y23720033D01*
X33386579Y23734579D01*
X33372033Y23756347D01*
X33364429Y23763952D01*
X33359513Y23775084D01*
X33343224Y23799463D01*
X33338694Y23822234D01*
X33333559Y23833865D01*
X33329609Y23867908D01*
X33328000Y23876000D01*
X33328000Y25400000D01*
X33329610Y25408095D01*
X33333559Y25442134D01*
X33338694Y25453764D01*
X33343224Y25476537D01*
X33359514Y25500917D01*
X33364429Y25512047D01*
X33372031Y25519649D01*
X33386579Y25541421D01*
X33408350Y25555968D01*
X33415952Y25563570D01*
X33427080Y25568483D01*
X33451463Y25584776D01*
X33474238Y25589306D01*
X33485865Y25594440D01*
X33519896Y25598388D01*
X33528000Y25600000D01*
X35052000Y25600000D01*
X35060107Y25598387D01*
G37*
G36*
X37600107Y25598387D02*
G01*
X37634134Y25594440D01*
X37645759Y25589306D01*
X37668537Y25584776D01*
X37692921Y25568482D01*
X37704047Y25563570D01*
X37711646Y25555970D01*
X37733421Y25541421D01*
X37747970Y25519646D01*
X37755570Y25512047D01*
X37760482Y25500921D01*
X37776776Y25476537D01*
X37781306Y25453759D01*
X37786440Y25442134D01*
X37790387Y25408105D01*
X37792000Y25400000D01*
X37792000Y23876000D01*
X37790387Y23867894D01*
X37786440Y23833865D01*
X37781306Y23822238D01*
X37776776Y23799463D01*
X37760483Y23775080D01*
X37755570Y23763952D01*
X37747968Y23756350D01*
X37733421Y23734579D01*
X37711649Y23720031D01*
X37704047Y23712429D01*
X37692917Y23707514D01*
X37668537Y23691224D01*
X37645764Y23686694D01*
X37634134Y23681559D01*
X37600093Y23677609D01*
X37592000Y23676000D01*
X37586217Y23676000D01*
X36073784Y23676000D01*
X36068000Y23676000D01*
X36059906Y23677609D01*
X36025865Y23681559D01*
X36014234Y23686694D01*
X35991463Y23691224D01*
X35967084Y23707513D01*
X35955952Y23712429D01*
X35948347Y23720033D01*
X35926579Y23734579D01*
X35912033Y23756347D01*
X35904429Y23763952D01*
X35899513Y23775084D01*
X35883224Y23799463D01*
X35878694Y23822234D01*
X35873559Y23833865D01*
X35869609Y23867908D01*
X35868000Y23876000D01*
X35868000Y25400000D01*
X35869610Y25408095D01*
X35873559Y25442134D01*
X35878694Y25453764D01*
X35883224Y25476537D01*
X35899514Y25500917D01*
X35904429Y25512047D01*
X35912031Y25519649D01*
X35926579Y25541421D01*
X35948350Y25555968D01*
X35955952Y25563570D01*
X35967080Y25568483D01*
X35991463Y25584776D01*
X36014238Y25589306D01*
X36025865Y25594440D01*
X36059896Y25598388D01*
X36068000Y25600000D01*
X37592000Y25600000D01*
X37600107Y25598387D01*
G37*
G36*
X4580107Y27376387D02*
G01*
X4614134Y27372440D01*
X4625759Y27367306D01*
X4648537Y27362776D01*
X4672921Y27346482D01*
X4684047Y27341570D01*
X4691646Y27333970D01*
X4713421Y27319421D01*
X4727970Y27297646D01*
X4735570Y27290047D01*
X4740482Y27278921D01*
X4756776Y27254537D01*
X4761306Y27231759D01*
X4766440Y27220134D01*
X4770387Y27186105D01*
X4772000Y27178000D01*
X4772000Y25654000D01*
X4770387Y25645894D01*
X4766440Y25611865D01*
X4761306Y25600238D01*
X4756776Y25577463D01*
X4740483Y25553080D01*
X4735570Y25541952D01*
X4727968Y25534350D01*
X4713421Y25512579D01*
X4691649Y25498031D01*
X4684047Y25490429D01*
X4672917Y25485514D01*
X4648537Y25469224D01*
X4625764Y25464694D01*
X4614134Y25459559D01*
X4580093Y25455609D01*
X4572000Y25454000D01*
X4566217Y25454000D01*
X3053784Y25454000D01*
X3048000Y25454000D01*
X3039906Y25455609D01*
X3005865Y25459559D01*
X2994234Y25464694D01*
X2971463Y25469224D01*
X2947084Y25485513D01*
X2935952Y25490429D01*
X2928347Y25498033D01*
X2906579Y25512579D01*
X2892033Y25534347D01*
X2884429Y25541952D01*
X2879513Y25553084D01*
X2863224Y25577463D01*
X2858694Y25600234D01*
X2853559Y25611865D01*
X2849609Y25645908D01*
X2848000Y25654000D01*
X2848000Y27178000D01*
X2849610Y27186095D01*
X2853559Y27220134D01*
X2858694Y27231764D01*
X2863224Y27254537D01*
X2879514Y27278917D01*
X2884429Y27290047D01*
X2892031Y27297649D01*
X2906579Y27319421D01*
X2928350Y27333968D01*
X2935952Y27341570D01*
X2947080Y27346483D01*
X2971463Y27362776D01*
X2994238Y27367306D01*
X3005865Y27372440D01*
X3039896Y27376388D01*
X3048000Y27378000D01*
X4572000Y27378000D01*
X4580107Y27376387D01*
G37*
G36*
X7120107Y27376387D02*
G01*
X7154134Y27372440D01*
X7165759Y27367306D01*
X7188537Y27362776D01*
X7212921Y27346482D01*
X7224047Y27341570D01*
X7231646Y27333970D01*
X7253421Y27319421D01*
X7267970Y27297646D01*
X7275570Y27290047D01*
X7280482Y27278921D01*
X7296776Y27254537D01*
X7301306Y27231759D01*
X7306440Y27220134D01*
X7310387Y27186105D01*
X7312000Y27178000D01*
X7312000Y25654000D01*
X7310387Y25645894D01*
X7306440Y25611865D01*
X7301306Y25600238D01*
X7296776Y25577463D01*
X7280483Y25553080D01*
X7275570Y25541952D01*
X7267968Y25534350D01*
X7253421Y25512579D01*
X7231649Y25498031D01*
X7224047Y25490429D01*
X7212917Y25485514D01*
X7188537Y25469224D01*
X7165764Y25464694D01*
X7154134Y25459559D01*
X7120093Y25455609D01*
X7112000Y25454000D01*
X7106217Y25454000D01*
X5593784Y25454000D01*
X5588000Y25454000D01*
X5579906Y25455609D01*
X5545865Y25459559D01*
X5534234Y25464694D01*
X5511463Y25469224D01*
X5487084Y25485513D01*
X5475952Y25490429D01*
X5468347Y25498033D01*
X5446579Y25512579D01*
X5432033Y25534347D01*
X5424429Y25541952D01*
X5419513Y25553084D01*
X5403224Y25577463D01*
X5398694Y25600234D01*
X5393559Y25611865D01*
X5389609Y25645908D01*
X5388000Y25654000D01*
X5388000Y27178000D01*
X5389610Y27186095D01*
X5393559Y27220134D01*
X5398694Y27231764D01*
X5403224Y27254537D01*
X5419514Y27278917D01*
X5424429Y27290047D01*
X5432031Y27297649D01*
X5446579Y27319421D01*
X5468350Y27333968D01*
X5475952Y27341570D01*
X5487080Y27346483D01*
X5511463Y27362776D01*
X5534238Y27367306D01*
X5545865Y27372440D01*
X5579896Y27376388D01*
X5588000Y27378000D01*
X7112000Y27378000D01*
X7120107Y27376387D01*
G37*
G36*
X35060107Y28138387D02*
G01*
X35094134Y28134440D01*
X35105759Y28129306D01*
X35128537Y28124776D01*
X35152921Y28108482D01*
X35164047Y28103570D01*
X35171646Y28095970D01*
X35193421Y28081421D01*
X35207970Y28059646D01*
X35215570Y28052047D01*
X35220482Y28040921D01*
X35236776Y28016537D01*
X35241306Y27993759D01*
X35246440Y27982134D01*
X35250387Y27948105D01*
X35252000Y27940000D01*
X35252000Y26416000D01*
X35250387Y26407894D01*
X35246440Y26373865D01*
X35241306Y26362238D01*
X35236776Y26339463D01*
X35220483Y26315080D01*
X35215570Y26303952D01*
X35207968Y26296350D01*
X35193421Y26274579D01*
X35171649Y26260031D01*
X35164047Y26252429D01*
X35152917Y26247514D01*
X35128537Y26231224D01*
X35105764Y26226694D01*
X35094134Y26221559D01*
X35060093Y26217609D01*
X35052000Y26216000D01*
X35046217Y26216000D01*
X33533784Y26216000D01*
X33528000Y26216000D01*
X33519906Y26217609D01*
X33485865Y26221559D01*
X33474234Y26226694D01*
X33451463Y26231224D01*
X33427084Y26247513D01*
X33415952Y26252429D01*
X33408347Y26260033D01*
X33386579Y26274579D01*
X33372033Y26296347D01*
X33364429Y26303952D01*
X33359513Y26315084D01*
X33343224Y26339463D01*
X33338694Y26362234D01*
X33333559Y26373865D01*
X33329609Y26407908D01*
X33328000Y26416000D01*
X33328000Y27940000D01*
X33329610Y27948095D01*
X33333559Y27982134D01*
X33338694Y27993764D01*
X33343224Y28016537D01*
X33359514Y28040917D01*
X33364429Y28052047D01*
X33372031Y28059649D01*
X33386579Y28081421D01*
X33408350Y28095968D01*
X33415952Y28103570D01*
X33427080Y28108483D01*
X33451463Y28124776D01*
X33474238Y28129306D01*
X33485865Y28134440D01*
X33519896Y28138388D01*
X33528000Y28140000D01*
X35052000Y28140000D01*
X35060107Y28138387D01*
G37*
G36*
X37600107Y28138387D02*
G01*
X37634134Y28134440D01*
X37645759Y28129306D01*
X37668537Y28124776D01*
X37692921Y28108482D01*
X37704047Y28103570D01*
X37711646Y28095970D01*
X37733421Y28081421D01*
X37747970Y28059646D01*
X37755570Y28052047D01*
X37760482Y28040921D01*
X37776776Y28016537D01*
X37781306Y27993759D01*
X37786440Y27982134D01*
X37790387Y27948105D01*
X37792000Y27940000D01*
X37792000Y26416000D01*
X37790387Y26407894D01*
X37786440Y26373865D01*
X37781306Y26362238D01*
X37776776Y26339463D01*
X37760483Y26315080D01*
X37755570Y26303952D01*
X37747968Y26296350D01*
X37733421Y26274579D01*
X37711649Y26260031D01*
X37704047Y26252429D01*
X37692917Y26247514D01*
X37668537Y26231224D01*
X37645764Y26226694D01*
X37634134Y26221559D01*
X37600093Y26217609D01*
X37592000Y26216000D01*
X37586217Y26216000D01*
X36073784Y26216000D01*
X36068000Y26216000D01*
X36059906Y26217609D01*
X36025865Y26221559D01*
X36014234Y26226694D01*
X35991463Y26231224D01*
X35967084Y26247513D01*
X35955952Y26252429D01*
X35948347Y26260033D01*
X35926579Y26274579D01*
X35912033Y26296347D01*
X35904429Y26303952D01*
X35899513Y26315084D01*
X35883224Y26339463D01*
X35878694Y26362234D01*
X35873559Y26373865D01*
X35869609Y26407908D01*
X35868000Y26416000D01*
X35868000Y27940000D01*
X35869610Y27948095D01*
X35873559Y27982134D01*
X35878694Y27993764D01*
X35883224Y28016537D01*
X35899514Y28040917D01*
X35904429Y28052047D01*
X35912031Y28059649D01*
X35926579Y28081421D01*
X35948350Y28095968D01*
X35955952Y28103570D01*
X35967080Y28108483D01*
X35991463Y28124776D01*
X36014238Y28129306D01*
X36025865Y28134440D01*
X36059896Y28138388D01*
X36068000Y28140000D01*
X37592000Y28140000D01*
X37600107Y28138387D01*
G37*
G36*
X4580107Y29916387D02*
G01*
X4614134Y29912440D01*
X4625759Y29907306D01*
X4648537Y29902776D01*
X4672921Y29886482D01*
X4684047Y29881570D01*
X4691646Y29873970D01*
X4713421Y29859421D01*
X4727970Y29837646D01*
X4735570Y29830047D01*
X4740482Y29818921D01*
X4756776Y29794537D01*
X4761306Y29771759D01*
X4766440Y29760134D01*
X4770387Y29726105D01*
X4772000Y29718000D01*
X4772000Y28194000D01*
X4770387Y28185894D01*
X4766440Y28151865D01*
X4761306Y28140238D01*
X4756776Y28117463D01*
X4740483Y28093080D01*
X4735570Y28081952D01*
X4727968Y28074350D01*
X4713421Y28052579D01*
X4691649Y28038031D01*
X4684047Y28030429D01*
X4672917Y28025514D01*
X4648537Y28009224D01*
X4625764Y28004694D01*
X4614134Y27999559D01*
X4580093Y27995609D01*
X4572000Y27994000D01*
X4566217Y27994000D01*
X3053784Y27994000D01*
X3048000Y27994000D01*
X3039906Y27995609D01*
X3005865Y27999559D01*
X2994234Y28004694D01*
X2971463Y28009224D01*
X2947084Y28025513D01*
X2935952Y28030429D01*
X2928347Y28038033D01*
X2906579Y28052579D01*
X2892033Y28074347D01*
X2884429Y28081952D01*
X2879513Y28093084D01*
X2863224Y28117463D01*
X2858694Y28140234D01*
X2853559Y28151865D01*
X2849609Y28185908D01*
X2848000Y28194000D01*
X2848000Y29718000D01*
X2849610Y29726095D01*
X2853559Y29760134D01*
X2858694Y29771764D01*
X2863224Y29794537D01*
X2879514Y29818917D01*
X2884429Y29830047D01*
X2892031Y29837649D01*
X2906579Y29859421D01*
X2928350Y29873968D01*
X2935952Y29881570D01*
X2947080Y29886483D01*
X2971463Y29902776D01*
X2994238Y29907306D01*
X3005865Y29912440D01*
X3039896Y29916388D01*
X3048000Y29918000D01*
X4572000Y29918000D01*
X4580107Y29916387D01*
G37*
G36*
X7120107Y29916387D02*
G01*
X7154134Y29912440D01*
X7165759Y29907306D01*
X7188537Y29902776D01*
X7212921Y29886482D01*
X7224047Y29881570D01*
X7231646Y29873970D01*
X7253421Y29859421D01*
X7267970Y29837646D01*
X7275570Y29830047D01*
X7280482Y29818921D01*
X7296776Y29794537D01*
X7301306Y29771759D01*
X7306440Y29760134D01*
X7310387Y29726105D01*
X7312000Y29718000D01*
X7312000Y28194000D01*
X7310387Y28185894D01*
X7306440Y28151865D01*
X7301306Y28140238D01*
X7296776Y28117463D01*
X7280483Y28093080D01*
X7275570Y28081952D01*
X7267968Y28074350D01*
X7253421Y28052579D01*
X7231649Y28038031D01*
X7224047Y28030429D01*
X7212917Y28025514D01*
X7188537Y28009224D01*
X7165764Y28004694D01*
X7154134Y27999559D01*
X7120093Y27995609D01*
X7112000Y27994000D01*
X7106217Y27994000D01*
X5593784Y27994000D01*
X5588000Y27994000D01*
X5579906Y27995609D01*
X5545865Y27999559D01*
X5534234Y28004694D01*
X5511463Y28009224D01*
X5487084Y28025513D01*
X5475952Y28030429D01*
X5468347Y28038033D01*
X5446579Y28052579D01*
X5432033Y28074347D01*
X5424429Y28081952D01*
X5419513Y28093084D01*
X5403224Y28117463D01*
X5398694Y28140234D01*
X5393559Y28151865D01*
X5389609Y28185908D01*
X5388000Y28194000D01*
X5388000Y29718000D01*
X5389610Y29726095D01*
X5393559Y29760134D01*
X5398694Y29771764D01*
X5403224Y29794537D01*
X5419514Y29818917D01*
X5424429Y29830047D01*
X5432031Y29837649D01*
X5446579Y29859421D01*
X5468350Y29873968D01*
X5475952Y29881570D01*
X5487080Y29886483D01*
X5511463Y29902776D01*
X5534238Y29907306D01*
X5545865Y29912440D01*
X5579896Y29916388D01*
X5588000Y29918000D01*
X7112000Y29918000D01*
X7120107Y29916387D01*
G37*
G36*
X35060107Y30678387D02*
G01*
X35094134Y30674440D01*
X35105759Y30669306D01*
X35128537Y30664776D01*
X35152921Y30648482D01*
X35164047Y30643570D01*
X35171646Y30635970D01*
X35193421Y30621421D01*
X35207970Y30599646D01*
X35215570Y30592047D01*
X35220482Y30580921D01*
X35236776Y30556537D01*
X35241306Y30533759D01*
X35246440Y30522134D01*
X35250387Y30488105D01*
X35252000Y30480000D01*
X35252000Y28956000D01*
X35250387Y28947894D01*
X35246440Y28913865D01*
X35241306Y28902238D01*
X35236776Y28879463D01*
X35220483Y28855080D01*
X35215570Y28843952D01*
X35207968Y28836350D01*
X35193421Y28814579D01*
X35171649Y28800031D01*
X35164047Y28792429D01*
X35152917Y28787514D01*
X35128537Y28771224D01*
X35105764Y28766694D01*
X35094134Y28761559D01*
X35060093Y28757609D01*
X35052000Y28756000D01*
X35046217Y28756000D01*
X33533784Y28756000D01*
X33528000Y28756000D01*
X33519906Y28757609D01*
X33485865Y28761559D01*
X33474234Y28766694D01*
X33451463Y28771224D01*
X33427084Y28787513D01*
X33415952Y28792429D01*
X33408347Y28800033D01*
X33386579Y28814579D01*
X33372033Y28836347D01*
X33364429Y28843952D01*
X33359513Y28855084D01*
X33343224Y28879463D01*
X33338694Y28902234D01*
X33333559Y28913865D01*
X33329609Y28947908D01*
X33328000Y28956000D01*
X33328000Y30480000D01*
X33329610Y30488095D01*
X33333559Y30522134D01*
X33338694Y30533764D01*
X33343224Y30556537D01*
X33359514Y30580917D01*
X33364429Y30592047D01*
X33372031Y30599649D01*
X33386579Y30621421D01*
X33408350Y30635968D01*
X33415952Y30643570D01*
X33427080Y30648483D01*
X33451463Y30664776D01*
X33474238Y30669306D01*
X33485865Y30674440D01*
X33519896Y30678388D01*
X33528000Y30680000D01*
X35052000Y30680000D01*
X35060107Y30678387D01*
G37*
G36*
X37600107Y30678387D02*
G01*
X37634134Y30674440D01*
X37645759Y30669306D01*
X37668537Y30664776D01*
X37692921Y30648482D01*
X37704047Y30643570D01*
X37711646Y30635970D01*
X37733421Y30621421D01*
X37747970Y30599646D01*
X37755570Y30592047D01*
X37760482Y30580921D01*
X37776776Y30556537D01*
X37781306Y30533759D01*
X37786440Y30522134D01*
X37790387Y30488105D01*
X37792000Y30480000D01*
X37792000Y28956000D01*
X37790387Y28947894D01*
X37786440Y28913865D01*
X37781306Y28902238D01*
X37776776Y28879463D01*
X37760483Y28855080D01*
X37755570Y28843952D01*
X37747968Y28836350D01*
X37733421Y28814579D01*
X37711649Y28800031D01*
X37704047Y28792429D01*
X37692917Y28787514D01*
X37668537Y28771224D01*
X37645764Y28766694D01*
X37634134Y28761559D01*
X37600093Y28757609D01*
X37592000Y28756000D01*
X37586217Y28756000D01*
X36073784Y28756000D01*
X36068000Y28756000D01*
X36059906Y28757609D01*
X36025865Y28761559D01*
X36014234Y28766694D01*
X35991463Y28771224D01*
X35967084Y28787513D01*
X35955952Y28792429D01*
X35948347Y28800033D01*
X35926579Y28814579D01*
X35912033Y28836347D01*
X35904429Y28843952D01*
X35899513Y28855084D01*
X35883224Y28879463D01*
X35878694Y28902234D01*
X35873559Y28913865D01*
X35869609Y28947908D01*
X35868000Y28956000D01*
X35868000Y30480000D01*
X35869610Y30488095D01*
X35873559Y30522134D01*
X35878694Y30533764D01*
X35883224Y30556537D01*
X35899514Y30580917D01*
X35904429Y30592047D01*
X35912031Y30599649D01*
X35926579Y30621421D01*
X35948350Y30635968D01*
X35955952Y30643570D01*
X35967080Y30648483D01*
X35991463Y30664776D01*
X36014238Y30669306D01*
X36025865Y30674440D01*
X36059896Y30678388D01*
X36068000Y30680000D01*
X37592000Y30680000D01*
X37600107Y30678387D01*
G37*
G36*
X5166184Y38755160D02*
G01*
X5253234Y38755160D01*
X5346177Y38745051D01*
X5438286Y38739879D01*
X5517513Y38726417D01*
X5597680Y38717699D01*
X5695312Y38696208D01*
X5792067Y38679769D01*
X5863535Y38659179D01*
X5936053Y38643217D01*
X6036973Y38609213D01*
X6136893Y38580427D01*
X6200048Y38554267D01*
X6264384Y38532590D01*
X6367038Y38485097D01*
X6468428Y38443100D01*
X6522969Y38412955D01*
X6578837Y38387109D01*
X6681484Y38325348D01*
X6782503Y38269517D01*
X6828398Y38236952D01*
X6875720Y38208480D01*
X6976503Y38131866D01*
X7075167Y38061861D01*
X7112602Y38028407D01*
X7151539Y37998808D01*
X7248498Y37906962D01*
X7342742Y37822742D01*
X7372153Y37789830D01*
X7403075Y37760540D01*
X7494181Y37653281D01*
X7581861Y37555167D01*
X7603884Y37524127D01*
X7627383Y37496463D01*
X7710624Y37373691D01*
X7789517Y37262503D01*
X7804968Y37234544D01*
X7821819Y37209693D01*
X7895172Y37071334D01*
X7963100Y36948428D01*
X7972984Y36924563D01*
X7984104Y36903591D01*
X8045517Y36749456D01*
X8100427Y36616893D01*
X8105887Y36597939D01*
X8112353Y36581712D01*
X8159945Y36410299D01*
X8199769Y36272067D01*
X8202046Y36258664D01*
X8205041Y36247878D01*
X8236964Y36053153D01*
X8259879Y35918286D01*
X8260298Y35910818D01*
X8261095Y35905959D01*
X8275741Y35635822D01*
X8280000Y35560000D01*
X8275742Y35484184D01*
X8261095Y35214040D01*
X8260298Y35209180D01*
X8259879Y35201714D01*
X8236968Y35066874D01*
X8205041Y34872121D01*
X8202045Y34861333D01*
X8199769Y34847933D01*
X8159952Y34709726D01*
X8112353Y34538287D01*
X8105886Y34522057D01*
X8100427Y34503107D01*
X8045527Y34370569D01*
X7984104Y34216408D01*
X7972983Y34195431D01*
X7963100Y34171572D01*
X7895185Y34048689D01*
X7821819Y33910306D01*
X7804965Y33885449D01*
X7789517Y33857497D01*
X7710639Y33746329D01*
X7627383Y33623536D01*
X7603880Y33595866D01*
X7581861Y33564833D01*
X7494198Y33466738D01*
X7403075Y33359459D01*
X7372147Y33330162D01*
X7342742Y33297258D01*
X7248517Y33213053D01*
X7151539Y33121191D01*
X7112594Y33091586D01*
X7075167Y33058139D01*
X6976523Y32988147D01*
X6875720Y32911519D01*
X6828388Y32883040D01*
X6782503Y32850483D01*
X6681504Y32794663D01*
X6578837Y32732890D01*
X6522958Y32707037D01*
X6468428Y32676900D01*
X6367059Y32634911D01*
X6264384Y32587409D01*
X6200035Y32565727D01*
X6136893Y32539573D01*
X6036993Y32510792D01*
X5936053Y32476782D01*
X5863520Y32460816D01*
X5792067Y32440231D01*
X5695332Y32423795D01*
X5597680Y32402300D01*
X5517500Y32393580D01*
X5438286Y32380121D01*
X5346182Y32374948D01*
X5253234Y32364840D01*
X5166184Y32364840D01*
X5080000Y32360000D01*
X4993816Y32364840D01*
X4906766Y32364840D01*
X4813816Y32374948D01*
X4721714Y32380121D01*
X4642500Y32393579D01*
X4562319Y32402300D01*
X4464662Y32423795D01*
X4367933Y32440231D01*
X4296482Y32460815D01*
X4223946Y32476782D01*
X4122999Y32510794D01*
X4023107Y32539573D01*
X3959969Y32565725D01*
X3895615Y32587409D01*
X3792931Y32634915D01*
X3691572Y32676900D01*
X3637046Y32707035D01*
X3581162Y32732890D01*
X3478483Y32794670D01*
X3377497Y32850483D01*
X3331616Y32883036D01*
X3284279Y32911519D01*
X3183461Y32988158D01*
X3084833Y33058139D01*
X3047411Y33091581D01*
X3008460Y33121191D01*
X2911465Y33213069D01*
X2817258Y33297258D01*
X2787857Y33330156D01*
X2756924Y33359459D01*
X2665781Y33466760D01*
X2578139Y33564833D01*
X2556124Y33595859D01*
X2532616Y33623536D01*
X2449337Y33746361D01*
X2370483Y33857497D01*
X2355038Y33885441D01*
X2338180Y33910306D01*
X2264790Y34048733D01*
X2196900Y34171572D01*
X2187020Y34195423D01*
X2175895Y34216408D01*
X2114445Y34370632D01*
X2059573Y34503107D01*
X2054116Y34522048D01*
X2047646Y34538287D01*
X2000019Y34709822D01*
X1960231Y34847933D01*
X1957955Y34861323D01*
X1954958Y34872121D01*
X1923002Y35067041D01*
X1900121Y35201714D01*
X1899702Y35209170D01*
X1898904Y35214040D01*
X1884228Y35484699D01*
X1880000Y35560000D01*
X1884229Y35635306D01*
X1898904Y35905959D01*
X1899702Y35910827D01*
X1900121Y35918286D01*
X1923007Y36052985D01*
X1954958Y36247878D01*
X1957955Y36258673D01*
X1960231Y36272067D01*
X2000027Y36410204D01*
X2047646Y36581712D01*
X2054115Y36597948D01*
X2059573Y36616893D01*
X2114456Y36749392D01*
X2175895Y36903591D01*
X2187018Y36924572D01*
X2196900Y36948428D01*
X2264803Y37071289D01*
X2338180Y37209693D01*
X2355035Y37234552D01*
X2370483Y37262503D01*
X2449352Y37373659D01*
X2532616Y37496463D01*
X2556120Y37524134D01*
X2578139Y37555167D01*
X2665798Y37653258D01*
X2756924Y37760540D01*
X2787852Y37789836D01*
X2817258Y37822742D01*
X2911483Y37906947D01*
X3008460Y37998808D01*
X3047403Y38028412D01*
X3084833Y38061861D01*
X3183481Y38131855D01*
X3284279Y38208480D01*
X3331607Y38236956D01*
X3377497Y38269517D01*
X3478503Y38325341D01*
X3581162Y38387109D01*
X3637035Y38412958D01*
X3691572Y38443100D01*
X3792952Y38485093D01*
X3895615Y38532590D01*
X3959956Y38554269D01*
X4023107Y38580427D01*
X4123019Y38609211D01*
X4223946Y38643217D01*
X4296467Y38659180D01*
X4367933Y38679769D01*
X4464682Y38696207D01*
X4562319Y38717699D01*
X4642488Y38726417D01*
X4721714Y38739879D01*
X4813822Y38745051D01*
X4906766Y38755160D01*
X4993816Y38755160D01*
X5080000Y38760000D01*
X5166184Y38755160D01*
G37*
G36*
X35646184Y38755160D02*
G01*
X35733234Y38755160D01*
X35826177Y38745051D01*
X35918286Y38739879D01*
X35997513Y38726417D01*
X36077680Y38717699D01*
X36175312Y38696208D01*
X36272067Y38679769D01*
X36343535Y38659179D01*
X36416053Y38643217D01*
X36516973Y38609213D01*
X36616893Y38580427D01*
X36680048Y38554267D01*
X36744384Y38532590D01*
X36847038Y38485097D01*
X36948428Y38443100D01*
X37002969Y38412955D01*
X37058837Y38387109D01*
X37161484Y38325348D01*
X37262503Y38269517D01*
X37308398Y38236952D01*
X37355720Y38208480D01*
X37456503Y38131866D01*
X37555167Y38061861D01*
X37592602Y38028407D01*
X37631539Y37998808D01*
X37728498Y37906962D01*
X37822742Y37822742D01*
X37852153Y37789830D01*
X37883075Y37760540D01*
X37974181Y37653281D01*
X38061861Y37555167D01*
X38083884Y37524127D01*
X38107383Y37496463D01*
X38190624Y37373691D01*
X38269517Y37262503D01*
X38284968Y37234544D01*
X38301819Y37209693D01*
X38375172Y37071334D01*
X38443100Y36948428D01*
X38452984Y36924563D01*
X38464104Y36903591D01*
X38525517Y36749456D01*
X38580427Y36616893D01*
X38585887Y36597939D01*
X38592353Y36581712D01*
X38639945Y36410299D01*
X38679769Y36272067D01*
X38682046Y36258664D01*
X38685041Y36247878D01*
X38716964Y36053153D01*
X38739879Y35918286D01*
X38740298Y35910818D01*
X38741095Y35905959D01*
X38755741Y35635822D01*
X38760000Y35560000D01*
X38755742Y35484184D01*
X38741095Y35214040D01*
X38740298Y35209180D01*
X38739879Y35201714D01*
X38716968Y35066874D01*
X38685041Y34872121D01*
X38682045Y34861333D01*
X38679769Y34847933D01*
X38639952Y34709726D01*
X38592353Y34538287D01*
X38585886Y34522057D01*
X38580427Y34503107D01*
X38525527Y34370569D01*
X38464104Y34216408D01*
X38452983Y34195431D01*
X38443100Y34171572D01*
X38375185Y34048689D01*
X38301819Y33910306D01*
X38284965Y33885449D01*
X38269517Y33857497D01*
X38190639Y33746329D01*
X38107383Y33623536D01*
X38083880Y33595866D01*
X38061861Y33564833D01*
X37974198Y33466738D01*
X37883075Y33359459D01*
X37852147Y33330162D01*
X37822742Y33297258D01*
X37728517Y33213053D01*
X37631539Y33121191D01*
X37592594Y33091586D01*
X37555167Y33058139D01*
X37456523Y32988147D01*
X37355720Y32911519D01*
X37308388Y32883040D01*
X37262503Y32850483D01*
X37161504Y32794663D01*
X37058837Y32732890D01*
X37002958Y32707037D01*
X36948428Y32676900D01*
X36847059Y32634911D01*
X36744384Y32587409D01*
X36680035Y32565727D01*
X36616893Y32539573D01*
X36516993Y32510792D01*
X36416053Y32476782D01*
X36343520Y32460816D01*
X36272067Y32440231D01*
X36175332Y32423795D01*
X36077680Y32402300D01*
X35997500Y32393580D01*
X35918286Y32380121D01*
X35826182Y32374948D01*
X35733234Y32364840D01*
X35646184Y32364840D01*
X35560000Y32360000D01*
X35473816Y32364840D01*
X35386766Y32364840D01*
X35293816Y32374948D01*
X35201714Y32380121D01*
X35122500Y32393579D01*
X35042319Y32402300D01*
X34944662Y32423795D01*
X34847933Y32440231D01*
X34776482Y32460815D01*
X34703946Y32476782D01*
X34602999Y32510794D01*
X34503107Y32539573D01*
X34439969Y32565725D01*
X34375615Y32587409D01*
X34272931Y32634915D01*
X34171572Y32676900D01*
X34117046Y32707035D01*
X34061162Y32732890D01*
X33958483Y32794670D01*
X33857497Y32850483D01*
X33811616Y32883036D01*
X33764279Y32911519D01*
X33663461Y32988158D01*
X33564833Y33058139D01*
X33527411Y33091581D01*
X33488460Y33121191D01*
X33391465Y33213069D01*
X33297258Y33297258D01*
X33267857Y33330156D01*
X33236924Y33359459D01*
X33145781Y33466760D01*
X33058139Y33564833D01*
X33036124Y33595859D01*
X33012616Y33623536D01*
X32929337Y33746361D01*
X32850483Y33857497D01*
X32835038Y33885441D01*
X32818180Y33910306D01*
X32744790Y34048733D01*
X32676900Y34171572D01*
X32667020Y34195423D01*
X32655895Y34216408D01*
X32594445Y34370632D01*
X32539573Y34503107D01*
X32534116Y34522048D01*
X32527646Y34538287D01*
X32480019Y34709822D01*
X32440231Y34847933D01*
X32437955Y34861323D01*
X32434958Y34872121D01*
X32403002Y35067041D01*
X32380121Y35201714D01*
X32379702Y35209170D01*
X32378904Y35214040D01*
X32364228Y35484699D01*
X32360000Y35560000D01*
X32364229Y35635306D01*
X32378904Y35905959D01*
X32379702Y35910827D01*
X32380121Y35918286D01*
X32403007Y36052985D01*
X32434958Y36247878D01*
X32437955Y36258673D01*
X32440231Y36272067D01*
X32480027Y36410204D01*
X32527646Y36581712D01*
X32534115Y36597948D01*
X32539573Y36616893D01*
X32594456Y36749392D01*
X32655895Y36903591D01*
X32667018Y36924572D01*
X32676900Y36948428D01*
X32744803Y37071289D01*
X32818180Y37209693D01*
X32835035Y37234552D01*
X32850483Y37262503D01*
X32929352Y37373659D01*
X33012616Y37496463D01*
X33036120Y37524134D01*
X33058139Y37555167D01*
X33145798Y37653258D01*
X33236924Y37760540D01*
X33267852Y37789836D01*
X33297258Y37822742D01*
X33391483Y37906947D01*
X33488460Y37998808D01*
X33527403Y38028412D01*
X33564833Y38061861D01*
X33663481Y38131855D01*
X33764279Y38208480D01*
X33811607Y38236956D01*
X33857497Y38269517D01*
X33958503Y38325341D01*
X34061162Y38387109D01*
X34117035Y38412958D01*
X34171572Y38443100D01*
X34272952Y38485093D01*
X34375615Y38532590D01*
X34439956Y38554269D01*
X34503107Y38580427D01*
X34603019Y38609211D01*
X34703946Y38643217D01*
X34776467Y38659180D01*
X34847933Y38679769D01*
X34944682Y38696207D01*
X35042319Y38717699D01*
X35122488Y38726417D01*
X35201714Y38739879D01*
X35293822Y38745051D01*
X35386766Y38755160D01*
X35473816Y38755160D01*
X35560000Y38760000D01*
X35646184Y38755160D01*
G37*
G36*
X22360107Y35250387D02*
G01*
X22394134Y35246440D01*
X22405759Y35241306D01*
X22428537Y35236776D01*
X22452921Y35220482D01*
X22464047Y35215570D01*
X22471646Y35207970D01*
X22493421Y35193421D01*
X22507970Y35171646D01*
X22515570Y35164047D01*
X22520482Y35152921D01*
X22536776Y35128537D01*
X22541306Y35105759D01*
X22546440Y35094134D01*
X22550387Y35060105D01*
X22552000Y35052000D01*
X22552000Y33528000D01*
X22550387Y33519894D01*
X22546440Y33485865D01*
X22541306Y33474238D01*
X22536776Y33451463D01*
X22520483Y33427080D01*
X22515570Y33415952D01*
X22507968Y33408350D01*
X22493421Y33386579D01*
X22471649Y33372031D01*
X22464047Y33364429D01*
X22452917Y33359514D01*
X22428537Y33343224D01*
X22405764Y33338694D01*
X22394134Y33333559D01*
X22360093Y33329609D01*
X22352000Y33328000D01*
X22346217Y33328000D01*
X20833784Y33328000D01*
X20828000Y33328000D01*
X20819906Y33329609D01*
X20785865Y33333559D01*
X20774234Y33338694D01*
X20751463Y33343224D01*
X20727084Y33359513D01*
X20715952Y33364429D01*
X20708347Y33372033D01*
X20686579Y33386579D01*
X20672033Y33408347D01*
X20664429Y33415952D01*
X20659513Y33427084D01*
X20643224Y33451463D01*
X20638694Y33474234D01*
X20633559Y33485865D01*
X20629609Y33519908D01*
X20628000Y33528000D01*
X20628000Y35052000D01*
X20629610Y35060095D01*
X20633559Y35094134D01*
X20638694Y35105764D01*
X20643224Y35128537D01*
X20659514Y35152917D01*
X20664429Y35164047D01*
X20672031Y35171649D01*
X20686579Y35193421D01*
X20708350Y35207968D01*
X20715952Y35215570D01*
X20727080Y35220483D01*
X20751463Y35236776D01*
X20774238Y35241306D01*
X20785865Y35246440D01*
X20819896Y35250388D01*
X20828000Y35252000D01*
X22352000Y35252000D01*
X22360107Y35250387D01*
G37*
G36*
X24900107Y35250387D02*
G01*
X24934134Y35246440D01*
X24945759Y35241306D01*
X24968537Y35236776D01*
X24992921Y35220482D01*
X25004047Y35215570D01*
X25011646Y35207970D01*
X25033421Y35193421D01*
X25047970Y35171646D01*
X25055570Y35164047D01*
X25060482Y35152921D01*
X25076776Y35128537D01*
X25081306Y35105759D01*
X25086440Y35094134D01*
X25090387Y35060105D01*
X25092000Y35052000D01*
X25092000Y33528000D01*
X25090387Y33519894D01*
X25086440Y33485865D01*
X25081306Y33474238D01*
X25076776Y33451463D01*
X25060483Y33427080D01*
X25055570Y33415952D01*
X25047968Y33408350D01*
X25033421Y33386579D01*
X25011649Y33372031D01*
X25004047Y33364429D01*
X24992917Y33359514D01*
X24968537Y33343224D01*
X24945764Y33338694D01*
X24934134Y33333559D01*
X24900093Y33329609D01*
X24892000Y33328000D01*
X24886217Y33328000D01*
X23373784Y33328000D01*
X23368000Y33328000D01*
X23359906Y33329609D01*
X23325865Y33333559D01*
X23314234Y33338694D01*
X23291463Y33343224D01*
X23267084Y33359513D01*
X23255952Y33364429D01*
X23248347Y33372033D01*
X23226579Y33386579D01*
X23212033Y33408347D01*
X23204429Y33415952D01*
X23199513Y33427084D01*
X23183224Y33451463D01*
X23178694Y33474234D01*
X23173559Y33485865D01*
X23169609Y33519908D01*
X23168000Y33528000D01*
X23168000Y35052000D01*
X23169610Y35060095D01*
X23173559Y35094134D01*
X23178694Y35105764D01*
X23183224Y35128537D01*
X23199514Y35152917D01*
X23204429Y35164047D01*
X23212031Y35171649D01*
X23226579Y35193421D01*
X23248350Y35207968D01*
X23255952Y35215570D01*
X23267080Y35220483D01*
X23291463Y35236776D01*
X23314238Y35241306D01*
X23325865Y35246440D01*
X23359896Y35250388D01*
X23368000Y35252000D01*
X24892000Y35252000D01*
X24900107Y35250387D01*
G37*
G36*
X27440107Y35250387D02*
G01*
X27474134Y35246440D01*
X27485759Y35241306D01*
X27508537Y35236776D01*
X27532921Y35220482D01*
X27544047Y35215570D01*
X27551646Y35207970D01*
X27573421Y35193421D01*
X27587970Y35171646D01*
X27595570Y35164047D01*
X27600482Y35152921D01*
X27616776Y35128537D01*
X27621306Y35105759D01*
X27626440Y35094134D01*
X27630387Y35060105D01*
X27632000Y35052000D01*
X27632000Y33528000D01*
X27630387Y33519894D01*
X27626440Y33485865D01*
X27621306Y33474238D01*
X27616776Y33451463D01*
X27600483Y33427080D01*
X27595570Y33415952D01*
X27587968Y33408350D01*
X27573421Y33386579D01*
X27551649Y33372031D01*
X27544047Y33364429D01*
X27532917Y33359514D01*
X27508537Y33343224D01*
X27485764Y33338694D01*
X27474134Y33333559D01*
X27440093Y33329609D01*
X27432000Y33328000D01*
X27426217Y33328000D01*
X25913784Y33328000D01*
X25908000Y33328000D01*
X25899906Y33329609D01*
X25865865Y33333559D01*
X25854234Y33338694D01*
X25831463Y33343224D01*
X25807084Y33359513D01*
X25795952Y33364429D01*
X25788347Y33372033D01*
X25766579Y33386579D01*
X25752033Y33408347D01*
X25744429Y33415952D01*
X25739513Y33427084D01*
X25723224Y33451463D01*
X25718694Y33474234D01*
X25713559Y33485865D01*
X25709609Y33519908D01*
X25708000Y33528000D01*
X25708000Y35052000D01*
X25709610Y35060095D01*
X25713559Y35094134D01*
X25718694Y35105764D01*
X25723224Y35128537D01*
X25739514Y35152917D01*
X25744429Y35164047D01*
X25752031Y35171649D01*
X25766579Y35193421D01*
X25788350Y35207968D01*
X25795952Y35215570D01*
X25807080Y35220483D01*
X25831463Y35236776D01*
X25854238Y35241306D01*
X25865865Y35246440D01*
X25899896Y35250388D01*
X25908000Y35252000D01*
X27432000Y35252000D01*
X27440107Y35250387D01*
G37*
G36*
X29980107Y35250387D02*
G01*
X30014134Y35246440D01*
X30025759Y35241306D01*
X30048537Y35236776D01*
X30072921Y35220482D01*
X30084047Y35215570D01*
X30091646Y35207970D01*
X30113421Y35193421D01*
X30127970Y35171646D01*
X30135570Y35164047D01*
X30140482Y35152921D01*
X30156776Y35128537D01*
X30161306Y35105759D01*
X30166440Y35094134D01*
X30170387Y35060105D01*
X30172000Y35052000D01*
X30172000Y33528000D01*
X30170387Y33519894D01*
X30166440Y33485865D01*
X30161306Y33474238D01*
X30156776Y33451463D01*
X30140483Y33427080D01*
X30135570Y33415952D01*
X30127968Y33408350D01*
X30113421Y33386579D01*
X30091649Y33372031D01*
X30084047Y33364429D01*
X30072917Y33359514D01*
X30048537Y33343224D01*
X30025764Y33338694D01*
X30014134Y33333559D01*
X29980093Y33329609D01*
X29972000Y33328000D01*
X29966217Y33328000D01*
X28453784Y33328000D01*
X28448000Y33328000D01*
X28439906Y33329609D01*
X28405865Y33333559D01*
X28394234Y33338694D01*
X28371463Y33343224D01*
X28347084Y33359513D01*
X28335952Y33364429D01*
X28328347Y33372033D01*
X28306579Y33386579D01*
X28292033Y33408347D01*
X28284429Y33415952D01*
X28279513Y33427084D01*
X28263224Y33451463D01*
X28258694Y33474234D01*
X28253559Y33485865D01*
X28249609Y33519908D01*
X28248000Y33528000D01*
X28248000Y35052000D01*
X28249610Y35060095D01*
X28253559Y35094134D01*
X28258694Y35105764D01*
X28263224Y35128537D01*
X28279514Y35152917D01*
X28284429Y35164047D01*
X28292031Y35171649D01*
X28306579Y35193421D01*
X28328350Y35207968D01*
X28335952Y35215570D01*
X28347080Y35220483D01*
X28371463Y35236776D01*
X28394238Y35241306D01*
X28405865Y35246440D01*
X28439896Y35250388D01*
X28448000Y35252000D01*
X29972000Y35252000D01*
X29980107Y35250387D01*
G37*
G36*
X13978107Y35758387D02*
G01*
X14012134Y35754440D01*
X14023759Y35749306D01*
X14046537Y35744776D01*
X14070921Y35728482D01*
X14082047Y35723570D01*
X14089646Y35715970D01*
X14111421Y35701421D01*
X14125970Y35679646D01*
X14133570Y35672047D01*
X14138482Y35660921D01*
X14154776Y35636537D01*
X14159306Y35613759D01*
X14164440Y35602134D01*
X14168387Y35568105D01*
X14170000Y35560000D01*
X14170000Y34036000D01*
X14168387Y34027894D01*
X14164440Y33993865D01*
X14159306Y33982238D01*
X14154776Y33959463D01*
X14138483Y33935080D01*
X14133570Y33923952D01*
X14125968Y33916350D01*
X14111421Y33894579D01*
X14089649Y33880031D01*
X14082047Y33872429D01*
X14070917Y33867514D01*
X14046537Y33851224D01*
X14023764Y33846694D01*
X14012134Y33841559D01*
X13978093Y33837609D01*
X13970000Y33836000D01*
X13964217Y33836000D01*
X12451784Y33836000D01*
X12446000Y33836000D01*
X12437906Y33837609D01*
X12403865Y33841559D01*
X12392234Y33846694D01*
X12369463Y33851224D01*
X12345084Y33867513D01*
X12333952Y33872429D01*
X12326347Y33880033D01*
X12304579Y33894579D01*
X12290033Y33916347D01*
X12282429Y33923952D01*
X12277513Y33935084D01*
X12261224Y33959463D01*
X12256694Y33982234D01*
X12251559Y33993865D01*
X12247609Y34027908D01*
X12246000Y34036000D01*
X12246000Y35560000D01*
X12247610Y35568095D01*
X12251559Y35602134D01*
X12256694Y35613764D01*
X12261224Y35636537D01*
X12277514Y35660917D01*
X12282429Y35672047D01*
X12290031Y35679649D01*
X12304579Y35701421D01*
X12326350Y35715968D01*
X12333952Y35723570D01*
X12345080Y35728483D01*
X12369463Y35744776D01*
X12392238Y35749306D01*
X12403865Y35754440D01*
X12437896Y35758388D01*
X12446000Y35760000D01*
X13970000Y35760000D01*
X13978107Y35758387D01*
G37*
G36*
X16518107Y35758387D02*
G01*
X16552134Y35754440D01*
X16563759Y35749306D01*
X16586537Y35744776D01*
X16610921Y35728482D01*
X16622047Y35723570D01*
X16629646Y35715970D01*
X16651421Y35701421D01*
X16665970Y35679646D01*
X16673570Y35672047D01*
X16678482Y35660921D01*
X16694776Y35636537D01*
X16699306Y35613759D01*
X16704440Y35602134D01*
X16708387Y35568105D01*
X16710000Y35560000D01*
X16710000Y34036000D01*
X16708387Y34027894D01*
X16704440Y33993865D01*
X16699306Y33982238D01*
X16694776Y33959463D01*
X16678483Y33935080D01*
X16673570Y33923952D01*
X16665968Y33916350D01*
X16651421Y33894579D01*
X16629649Y33880031D01*
X16622047Y33872429D01*
X16610917Y33867514D01*
X16586537Y33851224D01*
X16563764Y33846694D01*
X16552134Y33841559D01*
X16518093Y33837609D01*
X16510000Y33836000D01*
X16504217Y33836000D01*
X14991784Y33836000D01*
X14986000Y33836000D01*
X14977906Y33837609D01*
X14943865Y33841559D01*
X14932234Y33846694D01*
X14909463Y33851224D01*
X14885084Y33867513D01*
X14873952Y33872429D01*
X14866347Y33880033D01*
X14844579Y33894579D01*
X14830033Y33916347D01*
X14822429Y33923952D01*
X14817513Y33935084D01*
X14801224Y33959463D01*
X14796694Y33982234D01*
X14791559Y33993865D01*
X14787609Y34027908D01*
X14786000Y34036000D01*
X14786000Y35560000D01*
X14787610Y35568095D01*
X14791559Y35602134D01*
X14796694Y35613764D01*
X14801224Y35636537D01*
X14817514Y35660917D01*
X14822429Y35672047D01*
X14830031Y35679649D01*
X14844579Y35701421D01*
X14866350Y35715968D01*
X14873952Y35723570D01*
X14885080Y35728483D01*
X14909463Y35744776D01*
X14932238Y35749306D01*
X14943865Y35754440D01*
X14977896Y35758388D01*
X14986000Y35760000D01*
X16510000Y35760000D01*
X16518107Y35758387D01*
G37*
G36*
X19058107Y35758387D02*
G01*
X19092134Y35754440D01*
X19103759Y35749306D01*
X19126537Y35744776D01*
X19150921Y35728482D01*
X19162047Y35723570D01*
X19169646Y35715970D01*
X19191421Y35701421D01*
X19205970Y35679646D01*
X19213570Y35672047D01*
X19218482Y35660921D01*
X19234776Y35636537D01*
X19239306Y35613759D01*
X19244440Y35602134D01*
X19248387Y35568105D01*
X19250000Y35560000D01*
X19250000Y34036000D01*
X19248387Y34027894D01*
X19244440Y33993865D01*
X19239306Y33982238D01*
X19234776Y33959463D01*
X19218483Y33935080D01*
X19213570Y33923952D01*
X19205968Y33916350D01*
X19191421Y33894579D01*
X19169649Y33880031D01*
X19162047Y33872429D01*
X19150917Y33867514D01*
X19126537Y33851224D01*
X19103764Y33846694D01*
X19092134Y33841559D01*
X19058093Y33837609D01*
X19050000Y33836000D01*
X19044217Y33836000D01*
X17531784Y33836000D01*
X17526000Y33836000D01*
X17517906Y33837609D01*
X17483865Y33841559D01*
X17472234Y33846694D01*
X17449463Y33851224D01*
X17425084Y33867513D01*
X17413952Y33872429D01*
X17406347Y33880033D01*
X17384579Y33894579D01*
X17370033Y33916347D01*
X17362429Y33923952D01*
X17357513Y33935084D01*
X17341224Y33959463D01*
X17336694Y33982234D01*
X17331559Y33993865D01*
X17327609Y34027908D01*
X17326000Y34036000D01*
X17326000Y35560000D01*
X17327610Y35568095D01*
X17331559Y35602134D01*
X17336694Y35613764D01*
X17341224Y35636537D01*
X17357514Y35660917D01*
X17362429Y35672047D01*
X17370031Y35679649D01*
X17384579Y35701421D01*
X17406350Y35715968D01*
X17413952Y35723570D01*
X17425080Y35728483D01*
X17449463Y35744776D01*
X17472238Y35749306D01*
X17483865Y35754440D01*
X17517896Y35758388D01*
X17526000Y35760000D01*
X19050000Y35760000D01*
X19058107Y35758387D01*
G37*
G36*
X22360107Y37790387D02*
G01*
X22394134Y37786440D01*
X22405759Y37781306D01*
X22428537Y37776776D01*
X22452921Y37760482D01*
X22464047Y37755570D01*
X22471646Y37747970D01*
X22493421Y37733421D01*
X22507970Y37711646D01*
X22515570Y37704047D01*
X22520482Y37692921D01*
X22536776Y37668537D01*
X22541306Y37645759D01*
X22546440Y37634134D01*
X22550387Y37600105D01*
X22552000Y37592000D01*
X22552000Y36068000D01*
X22550387Y36059894D01*
X22546440Y36025865D01*
X22541306Y36014238D01*
X22536776Y35991463D01*
X22520483Y35967080D01*
X22515570Y35955952D01*
X22507968Y35948350D01*
X22493421Y35926579D01*
X22471649Y35912031D01*
X22464047Y35904429D01*
X22452917Y35899514D01*
X22428537Y35883224D01*
X22405764Y35878694D01*
X22394134Y35873559D01*
X22360093Y35869609D01*
X22352000Y35868000D01*
X22346217Y35868000D01*
X20833784Y35868000D01*
X20828000Y35868000D01*
X20819906Y35869609D01*
X20785865Y35873559D01*
X20774234Y35878694D01*
X20751463Y35883224D01*
X20727084Y35899513D01*
X20715952Y35904429D01*
X20708347Y35912033D01*
X20686579Y35926579D01*
X20672033Y35948347D01*
X20664429Y35955952D01*
X20659513Y35967084D01*
X20643224Y35991463D01*
X20638694Y36014234D01*
X20633559Y36025865D01*
X20629609Y36059908D01*
X20628000Y36068000D01*
X20628000Y37592000D01*
X20629610Y37600095D01*
X20633559Y37634134D01*
X20638694Y37645764D01*
X20643224Y37668537D01*
X20659514Y37692917D01*
X20664429Y37704047D01*
X20672031Y37711649D01*
X20686579Y37733421D01*
X20708350Y37747968D01*
X20715952Y37755570D01*
X20727080Y37760483D01*
X20751463Y37776776D01*
X20774238Y37781306D01*
X20785865Y37786440D01*
X20819896Y37790388D01*
X20828000Y37792000D01*
X22352000Y37792000D01*
X22360107Y37790387D01*
G37*
G36*
X24900107Y37790387D02*
G01*
X24934134Y37786440D01*
X24945759Y37781306D01*
X24968537Y37776776D01*
X24992921Y37760482D01*
X25004047Y37755570D01*
X25011646Y37747970D01*
X25033421Y37733421D01*
X25047970Y37711646D01*
X25055570Y37704047D01*
X25060482Y37692921D01*
X25076776Y37668537D01*
X25081306Y37645759D01*
X25086440Y37634134D01*
X25090387Y37600105D01*
X25092000Y37592000D01*
X25092000Y36068000D01*
X25090387Y36059894D01*
X25086440Y36025865D01*
X25081306Y36014238D01*
X25076776Y35991463D01*
X25060483Y35967080D01*
X25055570Y35955952D01*
X25047968Y35948350D01*
X25033421Y35926579D01*
X25011649Y35912031D01*
X25004047Y35904429D01*
X24992917Y35899514D01*
X24968537Y35883224D01*
X24945764Y35878694D01*
X24934134Y35873559D01*
X24900093Y35869609D01*
X24892000Y35868000D01*
X24886217Y35868000D01*
X23373784Y35868000D01*
X23368000Y35868000D01*
X23359906Y35869609D01*
X23325865Y35873559D01*
X23314234Y35878694D01*
X23291463Y35883224D01*
X23267084Y35899513D01*
X23255952Y35904429D01*
X23248347Y35912033D01*
X23226579Y35926579D01*
X23212033Y35948347D01*
X23204429Y35955952D01*
X23199513Y35967084D01*
X23183224Y35991463D01*
X23178694Y36014234D01*
X23173559Y36025865D01*
X23169609Y36059908D01*
X23168000Y36068000D01*
X23168000Y37592000D01*
X23169610Y37600095D01*
X23173559Y37634134D01*
X23178694Y37645764D01*
X23183224Y37668537D01*
X23199514Y37692917D01*
X23204429Y37704047D01*
X23212031Y37711649D01*
X23226579Y37733421D01*
X23248350Y37747968D01*
X23255952Y37755570D01*
X23267080Y37760483D01*
X23291463Y37776776D01*
X23314238Y37781306D01*
X23325865Y37786440D01*
X23359896Y37790388D01*
X23368000Y37792000D01*
X24892000Y37792000D01*
X24900107Y37790387D01*
G37*
G36*
X27440107Y37790387D02*
G01*
X27474134Y37786440D01*
X27485759Y37781306D01*
X27508537Y37776776D01*
X27532921Y37760482D01*
X27544047Y37755570D01*
X27551646Y37747970D01*
X27573421Y37733421D01*
X27587970Y37711646D01*
X27595570Y37704047D01*
X27600482Y37692921D01*
X27616776Y37668537D01*
X27621306Y37645759D01*
X27626440Y37634134D01*
X27630387Y37600105D01*
X27632000Y37592000D01*
X27632000Y36068000D01*
X27630387Y36059894D01*
X27626440Y36025865D01*
X27621306Y36014238D01*
X27616776Y35991463D01*
X27600483Y35967080D01*
X27595570Y35955952D01*
X27587968Y35948350D01*
X27573421Y35926579D01*
X27551649Y35912031D01*
X27544047Y35904429D01*
X27532917Y35899514D01*
X27508537Y35883224D01*
X27485764Y35878694D01*
X27474134Y35873559D01*
X27440093Y35869609D01*
X27432000Y35868000D01*
X27426217Y35868000D01*
X25913784Y35868000D01*
X25908000Y35868000D01*
X25899906Y35869609D01*
X25865865Y35873559D01*
X25854234Y35878694D01*
X25831463Y35883224D01*
X25807084Y35899513D01*
X25795952Y35904429D01*
X25788347Y35912033D01*
X25766579Y35926579D01*
X25752033Y35948347D01*
X25744429Y35955952D01*
X25739513Y35967084D01*
X25723224Y35991463D01*
X25718694Y36014234D01*
X25713559Y36025865D01*
X25709609Y36059908D01*
X25708000Y36068000D01*
X25708000Y37592000D01*
X25709610Y37600095D01*
X25713559Y37634134D01*
X25718694Y37645764D01*
X25723224Y37668537D01*
X25739514Y37692917D01*
X25744429Y37704047D01*
X25752031Y37711649D01*
X25766579Y37733421D01*
X25788350Y37747968D01*
X25795952Y37755570D01*
X25807080Y37760483D01*
X25831463Y37776776D01*
X25854238Y37781306D01*
X25865865Y37786440D01*
X25899896Y37790388D01*
X25908000Y37792000D01*
X27432000Y37792000D01*
X27440107Y37790387D01*
G37*
G36*
X29980107Y37790387D02*
G01*
X30014134Y37786440D01*
X30025759Y37781306D01*
X30048537Y37776776D01*
X30072921Y37760482D01*
X30084047Y37755570D01*
X30091646Y37747970D01*
X30113421Y37733421D01*
X30127970Y37711646D01*
X30135570Y37704047D01*
X30140482Y37692921D01*
X30156776Y37668537D01*
X30161306Y37645759D01*
X30166440Y37634134D01*
X30170387Y37600105D01*
X30172000Y37592000D01*
X30172000Y36068000D01*
X30170387Y36059894D01*
X30166440Y36025865D01*
X30161306Y36014238D01*
X30156776Y35991463D01*
X30140483Y35967080D01*
X30135570Y35955952D01*
X30127968Y35948350D01*
X30113421Y35926579D01*
X30091649Y35912031D01*
X30084047Y35904429D01*
X30072917Y35899514D01*
X30048537Y35883224D01*
X30025764Y35878694D01*
X30014134Y35873559D01*
X29980093Y35869609D01*
X29972000Y35868000D01*
X29966217Y35868000D01*
X28453784Y35868000D01*
X28448000Y35868000D01*
X28439906Y35869609D01*
X28405865Y35873559D01*
X28394234Y35878694D01*
X28371463Y35883224D01*
X28347084Y35899513D01*
X28335952Y35904429D01*
X28328347Y35912033D01*
X28306579Y35926579D01*
X28292033Y35948347D01*
X28284429Y35955952D01*
X28279513Y35967084D01*
X28263224Y35991463D01*
X28258694Y36014234D01*
X28253559Y36025865D01*
X28249609Y36059908D01*
X28248000Y36068000D01*
X28248000Y37592000D01*
X28249610Y37600095D01*
X28253559Y37634134D01*
X28258694Y37645764D01*
X28263224Y37668537D01*
X28279514Y37692917D01*
X28284429Y37704047D01*
X28292031Y37711649D01*
X28306579Y37733421D01*
X28328350Y37747968D01*
X28335952Y37755570D01*
X28347080Y37760483D01*
X28371463Y37776776D01*
X28394238Y37781306D01*
X28405865Y37786440D01*
X28439896Y37790388D01*
X28448000Y37792000D01*
X29972000Y37792000D01*
X29980107Y37790387D01*
G37*
G36*
X13978107Y38298387D02*
G01*
X14012134Y38294440D01*
X14023759Y38289306D01*
X14046537Y38284776D01*
X14070921Y38268482D01*
X14082047Y38263570D01*
X14089646Y38255970D01*
X14111421Y38241421D01*
X14125970Y38219646D01*
X14133570Y38212047D01*
X14138482Y38200921D01*
X14154776Y38176537D01*
X14159306Y38153759D01*
X14164440Y38142134D01*
X14168387Y38108105D01*
X14170000Y38100000D01*
X14170000Y36576000D01*
X14168387Y36567894D01*
X14164440Y36533865D01*
X14159306Y36522238D01*
X14154776Y36499463D01*
X14138483Y36475080D01*
X14133570Y36463952D01*
X14125968Y36456350D01*
X14111421Y36434579D01*
X14089649Y36420031D01*
X14082047Y36412429D01*
X14070917Y36407514D01*
X14046537Y36391224D01*
X14023764Y36386694D01*
X14012134Y36381559D01*
X13978093Y36377609D01*
X13970000Y36376000D01*
X13964217Y36376000D01*
X12451784Y36376000D01*
X12446000Y36376000D01*
X12437906Y36377609D01*
X12403865Y36381559D01*
X12392234Y36386694D01*
X12369463Y36391224D01*
X12345084Y36407513D01*
X12333952Y36412429D01*
X12326347Y36420033D01*
X12304579Y36434579D01*
X12290033Y36456347D01*
X12282429Y36463952D01*
X12277513Y36475084D01*
X12261224Y36499463D01*
X12256694Y36522234D01*
X12251559Y36533865D01*
X12247609Y36567908D01*
X12246000Y36576000D01*
X12246000Y38100000D01*
X12247610Y38108095D01*
X12251559Y38142134D01*
X12256694Y38153764D01*
X12261224Y38176537D01*
X12277514Y38200917D01*
X12282429Y38212047D01*
X12290031Y38219649D01*
X12304579Y38241421D01*
X12326350Y38255968D01*
X12333952Y38263570D01*
X12345080Y38268483D01*
X12369463Y38284776D01*
X12392238Y38289306D01*
X12403865Y38294440D01*
X12437896Y38298388D01*
X12446000Y38300000D01*
X13970000Y38300000D01*
X13978107Y38298387D01*
G37*
G36*
X16518107Y38298387D02*
G01*
X16552134Y38294440D01*
X16563759Y38289306D01*
X16586537Y38284776D01*
X16610921Y38268482D01*
X16622047Y38263570D01*
X16629646Y38255970D01*
X16651421Y38241421D01*
X16665970Y38219646D01*
X16673570Y38212047D01*
X16678482Y38200921D01*
X16694776Y38176537D01*
X16699306Y38153759D01*
X16704440Y38142134D01*
X16708387Y38108105D01*
X16710000Y38100000D01*
X16710000Y36576000D01*
X16708387Y36567894D01*
X16704440Y36533865D01*
X16699306Y36522238D01*
X16694776Y36499463D01*
X16678483Y36475080D01*
X16673570Y36463952D01*
X16665968Y36456350D01*
X16651421Y36434579D01*
X16629649Y36420031D01*
X16622047Y36412429D01*
X16610917Y36407514D01*
X16586537Y36391224D01*
X16563764Y36386694D01*
X16552134Y36381559D01*
X16518093Y36377609D01*
X16510000Y36376000D01*
X16504217Y36376000D01*
X14991784Y36376000D01*
X14986000Y36376000D01*
X14977906Y36377609D01*
X14943865Y36381559D01*
X14932234Y36386694D01*
X14909463Y36391224D01*
X14885084Y36407513D01*
X14873952Y36412429D01*
X14866347Y36420033D01*
X14844579Y36434579D01*
X14830033Y36456347D01*
X14822429Y36463952D01*
X14817513Y36475084D01*
X14801224Y36499463D01*
X14796694Y36522234D01*
X14791559Y36533865D01*
X14787609Y36567908D01*
X14786000Y36576000D01*
X14786000Y38100000D01*
X14787610Y38108095D01*
X14791559Y38142134D01*
X14796694Y38153764D01*
X14801224Y38176537D01*
X14817514Y38200917D01*
X14822429Y38212047D01*
X14830031Y38219649D01*
X14844579Y38241421D01*
X14866350Y38255968D01*
X14873952Y38263570D01*
X14885080Y38268483D01*
X14909463Y38284776D01*
X14932238Y38289306D01*
X14943865Y38294440D01*
X14977896Y38298388D01*
X14986000Y38300000D01*
X16510000Y38300000D01*
X16518107Y38298387D01*
G37*
G36*
X19058107Y38298387D02*
G01*
X19092134Y38294440D01*
X19103759Y38289306D01*
X19126537Y38284776D01*
X19150921Y38268482D01*
X19162047Y38263570D01*
X19169646Y38255970D01*
X19191421Y38241421D01*
X19205970Y38219646D01*
X19213570Y38212047D01*
X19218482Y38200921D01*
X19234776Y38176537D01*
X19239306Y38153759D01*
X19244440Y38142134D01*
X19248387Y38108105D01*
X19250000Y38100000D01*
X19250000Y36576000D01*
X19248387Y36567894D01*
X19244440Y36533865D01*
X19239306Y36522238D01*
X19234776Y36499463D01*
X19218483Y36475080D01*
X19213570Y36463952D01*
X19205968Y36456350D01*
X19191421Y36434579D01*
X19169649Y36420031D01*
X19162047Y36412429D01*
X19150917Y36407514D01*
X19126537Y36391224D01*
X19103764Y36386694D01*
X19092134Y36381559D01*
X19058093Y36377609D01*
X19050000Y36376000D01*
X19044217Y36376000D01*
X17531784Y36376000D01*
X17526000Y36376000D01*
X17517906Y36377609D01*
X17483865Y36381559D01*
X17472234Y36386694D01*
X17449463Y36391224D01*
X17425084Y36407513D01*
X17413952Y36412429D01*
X17406347Y36420033D01*
X17384579Y36434579D01*
X17370033Y36456347D01*
X17362429Y36463952D01*
X17357513Y36475084D01*
X17341224Y36499463D01*
X17336694Y36522234D01*
X17331559Y36533865D01*
X17327609Y36567908D01*
X17326000Y36576000D01*
X17326000Y38100000D01*
X17327610Y38108095D01*
X17331559Y38142134D01*
X17336694Y38153764D01*
X17341224Y38176537D01*
X17357514Y38200917D01*
X17362429Y38212047D01*
X17370031Y38219649D01*
X17384579Y38241421D01*
X17406350Y38255968D01*
X17413952Y38263570D01*
X17425080Y38268483D01*
X17449463Y38284776D01*
X17472238Y38289306D01*
X17483865Y38294440D01*
X17517896Y38298388D01*
X17526000Y38300000D01*
X19050000Y38300000D01*
X19058107Y38298387D01*
G37*
M02*
