%TF.GenerationSoftware,KiCad,Pcbnew,7.0.11+1*%
%TF.CreationDate,2024-07-06T19:30:40+00:00*%
%TF.ProjectId,DIG4SW01,44494734-5357-4303-912e-6b696361645f,rev?*%
%TF.SameCoordinates,Original*%
%TF.FileFunction,Legend,Bot*%
%TF.FilePolarity,Positive*%
%FSLAX46Y46*%
G04 Gerber Fmt 4.6, Leading zero omitted, Abs format (unit mm)*
G04 Created by KiCad (PCBNEW 7.0.11+1) date 2024-07-06 19:30:40*
%MOMM*%
%LPD*%
G01*
G04 APERTURE LIST*
%ADD10C,0.304800*%
%ADD11C,0.109220*%
%ADD12C,0.099060*%
%ADD13C,0.150000*%
G04 APERTURE END LIST*
D10*
X17020539Y14403861D02*
X17093111Y14331290D01*
X17093111Y14331290D02*
X17310825Y14258718D01*
X17310825Y14258718D02*
X17455968Y14258718D01*
X17455968Y14258718D02*
X17673682Y14331290D01*
X17673682Y14331290D02*
X17818825Y14476432D01*
X17818825Y14476432D02*
X17891396Y14621575D01*
X17891396Y14621575D02*
X17963968Y14911861D01*
X17963968Y14911861D02*
X17963968Y15129575D01*
X17963968Y15129575D02*
X17891396Y15419861D01*
X17891396Y15419861D02*
X17818825Y15565004D01*
X17818825Y15565004D02*
X17673682Y15710147D01*
X17673682Y15710147D02*
X17455968Y15782718D01*
X17455968Y15782718D02*
X17310825Y15782718D01*
X17310825Y15782718D02*
X17093111Y15710147D01*
X17093111Y15710147D02*
X17020539Y15637575D01*
X16512539Y15782718D02*
X15569111Y15782718D01*
X15569111Y15782718D02*
X16077111Y15202147D01*
X16077111Y15202147D02*
X15859396Y15202147D01*
X15859396Y15202147D02*
X15714254Y15129575D01*
X15714254Y15129575D02*
X15641682Y15057004D01*
X15641682Y15057004D02*
X15569111Y14911861D01*
X15569111Y14911861D02*
X15569111Y14549004D01*
X15569111Y14549004D02*
X15641682Y14403861D01*
X15641682Y14403861D02*
X15714254Y14331290D01*
X15714254Y14331290D02*
X15859396Y14258718D01*
X15859396Y14258718D02*
X16294825Y14258718D01*
X16294825Y14258718D02*
X16439968Y14331290D01*
X16439968Y14331290D02*
X16512539Y14403861D01*
X22358530Y17427550D02*
X21197388Y17427550D01*
X21777959Y16846978D02*
X21777959Y18008121D01*
D11*
X10909650Y35643396D02*
X10933478Y35667224D01*
X10933478Y35667224D02*
X10957305Y35738706D01*
X10957305Y35738706D02*
X10957305Y35786362D01*
X10957305Y35786362D02*
X10933478Y35857845D01*
X10933478Y35857845D02*
X10885822Y35905500D01*
X10885822Y35905500D02*
X10838167Y35929327D01*
X10838167Y35929327D02*
X10742857Y35953155D01*
X10742857Y35953155D02*
X10671374Y35953155D01*
X10671374Y35953155D02*
X10576063Y35929327D01*
X10576063Y35929327D02*
X10528408Y35905500D01*
X10528408Y35905500D02*
X10480753Y35857845D01*
X10480753Y35857845D02*
X10456925Y35786362D01*
X10456925Y35786362D02*
X10456925Y35738706D01*
X10456925Y35738706D02*
X10480753Y35667224D01*
X10480753Y35667224D02*
X10504580Y35643396D01*
X10623718Y35214499D02*
X10957305Y35214499D01*
X10433098Y35333637D02*
X10790512Y35452775D01*
X10790512Y35452775D02*
X10790512Y35143016D01*
X10258805Y36461397D02*
X10258805Y36747328D01*
X10258805Y36604362D02*
X9758425Y36604362D01*
X9758425Y36604362D02*
X9829908Y36652018D01*
X9829908Y36652018D02*
X9877563Y36699673D01*
X9877563Y36699673D02*
X9901391Y36747328D01*
X9758425Y36151638D02*
X9758425Y36103983D01*
X9758425Y36103983D02*
X9782253Y36056327D01*
X9782253Y36056327D02*
X9806080Y36032500D01*
X9806080Y36032500D02*
X9853736Y36008672D01*
X9853736Y36008672D02*
X9949046Y35984845D01*
X9949046Y35984845D02*
X10068184Y35984845D01*
X10068184Y35984845D02*
X10163495Y36008672D01*
X10163495Y36008672D02*
X10211150Y36032500D01*
X10211150Y36032500D02*
X10234978Y36056327D01*
X10234978Y36056327D02*
X10258805Y36103983D01*
X10258805Y36103983D02*
X10258805Y36151638D01*
X10258805Y36151638D02*
X10234978Y36199293D01*
X10234978Y36199293D02*
X10211150Y36223121D01*
X10211150Y36223121D02*
X10163495Y36246948D01*
X10163495Y36246948D02*
X10068184Y36270776D01*
X10068184Y36270776D02*
X9949046Y36270776D01*
X9949046Y36270776D02*
X9853736Y36246948D01*
X9853736Y36246948D02*
X9806080Y36223121D01*
X9806080Y36223121D02*
X9782253Y36199293D01*
X9782253Y36199293D02*
X9758425Y36151638D01*
X9758425Y35675086D02*
X9758425Y35627431D01*
X9758425Y35627431D02*
X9782253Y35579775D01*
X9782253Y35579775D02*
X9806080Y35555948D01*
X9806080Y35555948D02*
X9853736Y35532120D01*
X9853736Y35532120D02*
X9949046Y35508293D01*
X9949046Y35508293D02*
X10068184Y35508293D01*
X10068184Y35508293D02*
X10163495Y35532120D01*
X10163495Y35532120D02*
X10211150Y35555948D01*
X10211150Y35555948D02*
X10234978Y35579775D01*
X10234978Y35579775D02*
X10258805Y35627431D01*
X10258805Y35627431D02*
X10258805Y35675086D01*
X10258805Y35675086D02*
X10234978Y35722741D01*
X10234978Y35722741D02*
X10211150Y35746569D01*
X10211150Y35746569D02*
X10163495Y35770396D01*
X10163495Y35770396D02*
X10068184Y35794224D01*
X10068184Y35794224D02*
X9949046Y35794224D01*
X9949046Y35794224D02*
X9853736Y35770396D01*
X9853736Y35770396D02*
X9806080Y35746569D01*
X9806080Y35746569D02*
X9782253Y35722741D01*
X9782253Y35722741D02*
X9758425Y35675086D01*
X9925218Y35293844D02*
X10425598Y35293844D01*
X9949046Y35293844D02*
X9925218Y35246189D01*
X9925218Y35246189D02*
X9925218Y35150879D01*
X9925218Y35150879D02*
X9949046Y35103223D01*
X9949046Y35103223D02*
X9972874Y35079396D01*
X9972874Y35079396D02*
X10020529Y35055568D01*
X10020529Y35055568D02*
X10163495Y35055568D01*
X10163495Y35055568D02*
X10211150Y35079396D01*
X10211150Y35079396D02*
X10234978Y35103223D01*
X10234978Y35103223D02*
X10258805Y35150879D01*
X10258805Y35150879D02*
X10258805Y35246189D01*
X10258805Y35246189D02*
X10234978Y35293844D01*
X9996701Y34674326D02*
X9996701Y34841119D01*
X10258805Y34841119D02*
X9758425Y34841119D01*
X9758425Y34841119D02*
X9758425Y34602843D01*
D10*
X22533181Y12046856D02*
X21009181Y12046856D01*
X21009181Y12046856D02*
X21009181Y11683999D01*
X21009181Y11683999D02*
X21081752Y11466285D01*
X21081752Y11466285D02*
X21226895Y11321142D01*
X21226895Y11321142D02*
X21372038Y11248571D01*
X21372038Y11248571D02*
X21662324Y11175999D01*
X21662324Y11175999D02*
X21880038Y11175999D01*
X21880038Y11175999D02*
X22170324Y11248571D01*
X22170324Y11248571D02*
X22315467Y11321142D01*
X22315467Y11321142D02*
X22460610Y11466285D01*
X22460610Y11466285D02*
X22533181Y11683999D01*
X22533181Y11683999D02*
X22533181Y12046856D01*
X22533181Y9724571D02*
X22533181Y10595428D01*
X22533181Y10159999D02*
X21009181Y10159999D01*
X21009181Y10159999D02*
X21226895Y10305142D01*
X21226895Y10305142D02*
X21372038Y10450285D01*
X21372038Y10450285D02*
X21444610Y10595428D01*
D12*
X20113807Y8094737D02*
X20113807Y7856461D01*
X20256773Y8142392D02*
X19756393Y7975599D01*
X19756393Y7975599D02*
X20256773Y7808806D01*
X20256773Y14306791D02*
X19756393Y14306791D01*
X20256773Y14020860D02*
X19970842Y14235309D01*
X19756393Y14020860D02*
X20042325Y14306791D01*
D10*
X30080856Y9216818D02*
X30080856Y10740818D01*
X30080856Y10740818D02*
X29717999Y10740818D01*
X29717999Y10740818D02*
X29500285Y10668247D01*
X29500285Y10668247D02*
X29355142Y10523104D01*
X29355142Y10523104D02*
X29282571Y10377961D01*
X29282571Y10377961D02*
X29209999Y10087675D01*
X29209999Y10087675D02*
X29209999Y9869961D01*
X29209999Y9869961D02*
X29282571Y9579675D01*
X29282571Y9579675D02*
X29355142Y9434532D01*
X29355142Y9434532D02*
X29500285Y9289390D01*
X29500285Y9289390D02*
X29717999Y9216818D01*
X29717999Y9216818D02*
X30080856Y9216818D01*
X28629428Y10595675D02*
X28556856Y10668247D01*
X28556856Y10668247D02*
X28411714Y10740818D01*
X28411714Y10740818D02*
X28048856Y10740818D01*
X28048856Y10740818D02*
X27903714Y10668247D01*
X27903714Y10668247D02*
X27831142Y10595675D01*
X27831142Y10595675D02*
X27758571Y10450532D01*
X27758571Y10450532D02*
X27758571Y10305390D01*
X27758571Y10305390D02*
X27831142Y10087675D01*
X27831142Y10087675D02*
X28701999Y9216818D01*
X28701999Y9216818D02*
X27758571Y9216818D01*
D12*
X32275537Y7871912D02*
X32037261Y7871912D01*
X32323192Y7728946D02*
X32156399Y8229326D01*
X32156399Y8229326D02*
X31989606Y7728946D01*
X26087311Y7728946D02*
X26087311Y8229326D01*
X25801380Y7728946D02*
X26015829Y8014877D01*
X25801380Y8229326D02*
X26087311Y7943394D01*
D10*
X30407181Y17634856D02*
X28883181Y17634856D01*
X28883181Y17634856D02*
X28883181Y17271999D01*
X28883181Y17271999D02*
X28955752Y17054285D01*
X28955752Y17054285D02*
X29100895Y16909142D01*
X29100895Y16909142D02*
X29246038Y16836571D01*
X29246038Y16836571D02*
X29536324Y16763999D01*
X29536324Y16763999D02*
X29754038Y16763999D01*
X29754038Y16763999D02*
X30044324Y16836571D01*
X30044324Y16836571D02*
X30189467Y16909142D01*
X30189467Y16909142D02*
X30334610Y17054285D01*
X30334610Y17054285D02*
X30407181Y17271999D01*
X30407181Y17271999D02*
X30407181Y17634856D01*
X28883181Y16255999D02*
X28883181Y15312571D01*
X28883181Y15312571D02*
X29463752Y15820571D01*
X29463752Y15820571D02*
X29463752Y15602856D01*
X29463752Y15602856D02*
X29536324Y15457714D01*
X29536324Y15457714D02*
X29608895Y15385142D01*
X29608895Y15385142D02*
X29754038Y15312571D01*
X29754038Y15312571D02*
X30116895Y15312571D01*
X30116895Y15312571D02*
X30262038Y15385142D01*
X30262038Y15385142D02*
X30334610Y15457714D01*
X30334610Y15457714D02*
X30407181Y15602856D01*
X30407181Y15602856D02*
X30407181Y16038285D01*
X30407181Y16038285D02*
X30334610Y16183428D01*
X30334610Y16183428D02*
X30262038Y16255999D01*
D12*
X31895053Y13641311D02*
X31394673Y13641311D01*
X31895053Y13355380D02*
X31609122Y13569829D01*
X31394673Y13355380D02*
X31680605Y13641311D01*
X31752087Y19829537D02*
X31752087Y19591261D01*
X31895053Y19877192D02*
X31394673Y19710399D01*
X31394673Y19710399D02*
X31895053Y19543606D01*
D10*
X30915181Y28302856D02*
X29391181Y28302856D01*
X29391181Y28302856D02*
X29391181Y27939999D01*
X29391181Y27939999D02*
X29463752Y27722285D01*
X29463752Y27722285D02*
X29608895Y27577142D01*
X29608895Y27577142D02*
X29754038Y27504571D01*
X29754038Y27504571D02*
X30044324Y27431999D01*
X30044324Y27431999D02*
X30262038Y27431999D01*
X30262038Y27431999D02*
X30552324Y27504571D01*
X30552324Y27504571D02*
X30697467Y27577142D01*
X30697467Y27577142D02*
X30842610Y27722285D01*
X30842610Y27722285D02*
X30915181Y27939999D01*
X30915181Y27939999D02*
X30915181Y28302856D01*
X29899181Y26125714D02*
X30915181Y26125714D01*
X29318610Y26488571D02*
X30407181Y26851428D01*
X30407181Y26851428D02*
X30407181Y25907999D01*
D12*
X32403053Y24309311D02*
X31902673Y24309311D01*
X32403053Y24023380D02*
X32117122Y24237829D01*
X31902673Y24023380D02*
X32188605Y24309311D01*
X32260087Y30497537D02*
X32260087Y30259261D01*
X32403053Y30545192D02*
X31902673Y30378399D01*
X31902673Y30378399D02*
X32403053Y30211606D01*
D10*
X25900016Y29282818D02*
X25900016Y30806818D01*
X25900016Y30806818D02*
X25537159Y30806818D01*
X25537159Y30806818D02*
X25319445Y30734247D01*
X25319445Y30734247D02*
X25174302Y30589104D01*
X25174302Y30589104D02*
X25101731Y30443961D01*
X25101731Y30443961D02*
X25029159Y30153675D01*
X25029159Y30153675D02*
X25029159Y29935961D01*
X25029159Y29935961D02*
X25101731Y29645675D01*
X25101731Y29645675D02*
X25174302Y29500532D01*
X25174302Y29500532D02*
X25319445Y29355390D01*
X25319445Y29355390D02*
X25537159Y29282818D01*
X25537159Y29282818D02*
X25900016Y29282818D01*
X23650302Y30806818D02*
X24376016Y30806818D01*
X24376016Y30806818D02*
X24448588Y30081104D01*
X24448588Y30081104D02*
X24376016Y30153675D01*
X24376016Y30153675D02*
X24230874Y30226247D01*
X24230874Y30226247D02*
X23868016Y30226247D01*
X23868016Y30226247D02*
X23722874Y30153675D01*
X23722874Y30153675D02*
X23650302Y30081104D01*
X23650302Y30081104D02*
X23577731Y29935961D01*
X23577731Y29935961D02*
X23577731Y29573104D01*
X23577731Y29573104D02*
X23650302Y29427961D01*
X23650302Y29427961D02*
X23722874Y29355390D01*
X23722874Y29355390D02*
X23868016Y29282818D01*
X23868016Y29282818D02*
X24230874Y29282818D01*
X24230874Y29282818D02*
X24376016Y29355390D01*
X24376016Y29355390D02*
X24448588Y29427961D01*
D12*
X21906471Y27794946D02*
X21906471Y28295326D01*
X21620540Y27794946D02*
X21834989Y28080877D01*
X21620540Y28295326D02*
X21906471Y28009394D01*
X28094697Y27937912D02*
X27856421Y27937912D01*
X28142352Y27794946D02*
X27975559Y28295326D01*
X27975559Y28295326D02*
X27808766Y27794946D01*
D11*
X13291396Y31206694D02*
X13458189Y31444970D01*
X13577327Y31206694D02*
X13577327Y31707074D01*
X13577327Y31707074D02*
X13386706Y31707074D01*
X13386706Y31707074D02*
X13339051Y31683246D01*
X13339051Y31683246D02*
X13315224Y31659419D01*
X13315224Y31659419D02*
X13291396Y31611763D01*
X13291396Y31611763D02*
X13291396Y31540281D01*
X13291396Y31540281D02*
X13315224Y31492625D01*
X13315224Y31492625D02*
X13339051Y31468798D01*
X13339051Y31468798D02*
X13386706Y31444970D01*
X13386706Y31444970D02*
X13577327Y31444970D01*
X12814844Y31206694D02*
X13100775Y31206694D01*
X12957809Y31206694D02*
X12957809Y31707074D01*
X12957809Y31707074D02*
X13005465Y31635591D01*
X13005465Y31635591D02*
X13053120Y31587936D01*
X13053120Y31587936D02*
X13100775Y31564108D01*
X13680500Y32238781D02*
X13680500Y31905194D01*
X13799638Y32429402D02*
X13918776Y32071987D01*
X13918776Y32071987D02*
X13609017Y32071987D01*
X13418396Y31905194D02*
X13418396Y32405574D01*
X13370741Y32095815D02*
X13227775Y31905194D01*
X13227775Y32238781D02*
X13418396Y32048160D01*
X13060982Y32405574D02*
X12727395Y32405574D01*
X12727395Y32405574D02*
X12941844Y31905194D01*
X9989396Y27523694D02*
X10156189Y27761970D01*
X10275327Y27523694D02*
X10275327Y28024074D01*
X10275327Y28024074D02*
X10084706Y28024074D01*
X10084706Y28024074D02*
X10037051Y28000246D01*
X10037051Y28000246D02*
X10013224Y27976419D01*
X10013224Y27976419D02*
X9989396Y27928763D01*
X9989396Y27928763D02*
X9989396Y27857281D01*
X9989396Y27857281D02*
X10013224Y27809625D01*
X10013224Y27809625D02*
X10037051Y27785798D01*
X10037051Y27785798D02*
X10084706Y27761970D01*
X10084706Y27761970D02*
X10275327Y27761970D01*
X9798775Y27976419D02*
X9774947Y28000246D01*
X9774947Y28000246D02*
X9727292Y28024074D01*
X9727292Y28024074D02*
X9608154Y28024074D01*
X9608154Y28024074D02*
X9560499Y28000246D01*
X9560499Y28000246D02*
X9536671Y27976419D01*
X9536671Y27976419D02*
X9512844Y27928763D01*
X9512844Y27928763D02*
X9512844Y27881108D01*
X9512844Y27881108D02*
X9536671Y27809625D01*
X9536671Y27809625D02*
X9822603Y27523694D01*
X9822603Y27523694D02*
X9512844Y27523694D01*
X10124500Y27158781D02*
X10124500Y26825194D01*
X10243638Y27349402D02*
X10362776Y26991987D01*
X10362776Y26991987D02*
X10053017Y26991987D01*
X9862396Y26825194D02*
X9862396Y27325574D01*
X9814741Y27015815D02*
X9671775Y26825194D01*
X9671775Y27158781D02*
X9862396Y26968160D01*
X9504982Y27325574D02*
X9171395Y27325574D01*
X9171395Y27325574D02*
X9385844Y26825194D01*
X9735396Y31206694D02*
X9902189Y31444970D01*
X10021327Y31206694D02*
X10021327Y31707074D01*
X10021327Y31707074D02*
X9830706Y31707074D01*
X9830706Y31707074D02*
X9783051Y31683246D01*
X9783051Y31683246D02*
X9759224Y31659419D01*
X9759224Y31659419D02*
X9735396Y31611763D01*
X9735396Y31611763D02*
X9735396Y31540281D01*
X9735396Y31540281D02*
X9759224Y31492625D01*
X9759224Y31492625D02*
X9783051Y31468798D01*
X9783051Y31468798D02*
X9830706Y31444970D01*
X9830706Y31444970D02*
X10021327Y31444970D01*
X9568603Y31707074D02*
X9258844Y31707074D01*
X9258844Y31707074D02*
X9425637Y31516453D01*
X9425637Y31516453D02*
X9354154Y31516453D01*
X9354154Y31516453D02*
X9306499Y31492625D01*
X9306499Y31492625D02*
X9282671Y31468798D01*
X9282671Y31468798D02*
X9258844Y31421142D01*
X9258844Y31421142D02*
X9258844Y31302004D01*
X9258844Y31302004D02*
X9282671Y31254349D01*
X9282671Y31254349D02*
X9306499Y31230522D01*
X9306499Y31230522D02*
X9354154Y31206694D01*
X9354154Y31206694D02*
X9497120Y31206694D01*
X9497120Y31206694D02*
X9544775Y31230522D01*
X9544775Y31230522D02*
X9568603Y31254349D01*
X10076845Y31905194D02*
X10362776Y31905194D01*
X10219810Y31905194D02*
X10219810Y32405574D01*
X10219810Y32405574D02*
X10267466Y32334091D01*
X10267466Y32334091D02*
X10315121Y32286436D01*
X10315121Y32286436D02*
X10362776Y32262608D01*
X9862396Y31905194D02*
X9862396Y32405574D01*
X9814741Y32095815D02*
X9671775Y31905194D01*
X9671775Y32238781D02*
X9862396Y32048160D01*
X9481154Y32357919D02*
X9457326Y32381746D01*
X9457326Y32381746D02*
X9409671Y32405574D01*
X9409671Y32405574D02*
X9290533Y32405574D01*
X9290533Y32405574D02*
X9242878Y32381746D01*
X9242878Y32381746D02*
X9219050Y32357919D01*
X9219050Y32357919D02*
X9195223Y32310263D01*
X9195223Y32310263D02*
X9195223Y32262608D01*
X9195223Y32262608D02*
X9219050Y32191125D01*
X9219050Y32191125D02*
X9504982Y31905194D01*
X9504982Y31905194D02*
X9195223Y31905194D01*
X9925896Y15331694D02*
X10092689Y15569970D01*
X10211827Y15331694D02*
X10211827Y15832074D01*
X10211827Y15832074D02*
X10021206Y15832074D01*
X10021206Y15832074D02*
X9973551Y15808246D01*
X9973551Y15808246D02*
X9949724Y15784419D01*
X9949724Y15784419D02*
X9925896Y15736763D01*
X9925896Y15736763D02*
X9925896Y15665281D01*
X9925896Y15665281D02*
X9949724Y15617625D01*
X9949724Y15617625D02*
X9973551Y15593798D01*
X9973551Y15593798D02*
X10021206Y15569970D01*
X10021206Y15569970D02*
X10211827Y15569970D01*
X9496999Y15665281D02*
X9496999Y15331694D01*
X9616137Y15855902D02*
X9735275Y15498487D01*
X9735275Y15498487D02*
X9425516Y15498487D01*
X10061000Y14966781D02*
X10061000Y14633194D01*
X10180138Y15157402D02*
X10299276Y14799987D01*
X10299276Y14799987D02*
X9989517Y14799987D01*
X9798896Y14633194D02*
X9798896Y15133574D01*
X9751241Y14823815D02*
X9608275Y14633194D01*
X9608275Y14966781D02*
X9798896Y14776160D01*
X9441482Y15133574D02*
X9107895Y15133574D01*
X9107895Y15133574D02*
X9322344Y14633194D01*
X9925896Y17363694D02*
X10092689Y17601970D01*
X10211827Y17363694D02*
X10211827Y17864074D01*
X10211827Y17864074D02*
X10021206Y17864074D01*
X10021206Y17864074D02*
X9973551Y17840246D01*
X9973551Y17840246D02*
X9949724Y17816419D01*
X9949724Y17816419D02*
X9925896Y17768763D01*
X9925896Y17768763D02*
X9925896Y17697281D01*
X9925896Y17697281D02*
X9949724Y17649625D01*
X9949724Y17649625D02*
X9973551Y17625798D01*
X9973551Y17625798D02*
X10021206Y17601970D01*
X10021206Y17601970D02*
X10211827Y17601970D01*
X9473171Y17864074D02*
X9711447Y17864074D01*
X9711447Y17864074D02*
X9735275Y17625798D01*
X9735275Y17625798D02*
X9711447Y17649625D01*
X9711447Y17649625D02*
X9663792Y17673453D01*
X9663792Y17673453D02*
X9544654Y17673453D01*
X9544654Y17673453D02*
X9496999Y17649625D01*
X9496999Y17649625D02*
X9473171Y17625798D01*
X9473171Y17625798D02*
X9449344Y17578142D01*
X9449344Y17578142D02*
X9449344Y17459004D01*
X9449344Y17459004D02*
X9473171Y17411349D01*
X9473171Y17411349D02*
X9496999Y17387522D01*
X9496999Y17387522D02*
X9544654Y17363694D01*
X9544654Y17363694D02*
X9663792Y17363694D01*
X9663792Y17363694D02*
X9711447Y17387522D01*
X9711447Y17387522D02*
X9735275Y17411349D01*
X10061000Y16998781D02*
X10061000Y16665194D01*
X10180138Y17189402D02*
X10299276Y16831987D01*
X10299276Y16831987D02*
X9989517Y16831987D01*
X9798896Y16665194D02*
X9798896Y17165574D01*
X9751241Y16855815D02*
X9608275Y16665194D01*
X9608275Y16998781D02*
X9798896Y16808160D01*
X9441482Y17165574D02*
X9107895Y17165574D01*
X9107895Y17165574D02*
X9322344Y16665194D01*
X9925896Y19395694D02*
X10092689Y19633970D01*
X10211827Y19395694D02*
X10211827Y19896074D01*
X10211827Y19896074D02*
X10021206Y19896074D01*
X10021206Y19896074D02*
X9973551Y19872246D01*
X9973551Y19872246D02*
X9949724Y19848419D01*
X9949724Y19848419D02*
X9925896Y19800763D01*
X9925896Y19800763D02*
X9925896Y19729281D01*
X9925896Y19729281D02*
X9949724Y19681625D01*
X9949724Y19681625D02*
X9973551Y19657798D01*
X9973551Y19657798D02*
X10021206Y19633970D01*
X10021206Y19633970D02*
X10211827Y19633970D01*
X9496999Y19896074D02*
X9592309Y19896074D01*
X9592309Y19896074D02*
X9639965Y19872246D01*
X9639965Y19872246D02*
X9663792Y19848419D01*
X9663792Y19848419D02*
X9711447Y19776936D01*
X9711447Y19776936D02*
X9735275Y19681625D01*
X9735275Y19681625D02*
X9735275Y19491004D01*
X9735275Y19491004D02*
X9711447Y19443349D01*
X9711447Y19443349D02*
X9687620Y19419522D01*
X9687620Y19419522D02*
X9639965Y19395694D01*
X9639965Y19395694D02*
X9544654Y19395694D01*
X9544654Y19395694D02*
X9496999Y19419522D01*
X9496999Y19419522D02*
X9473171Y19443349D01*
X9473171Y19443349D02*
X9449344Y19491004D01*
X9449344Y19491004D02*
X9449344Y19610142D01*
X9449344Y19610142D02*
X9473171Y19657798D01*
X9473171Y19657798D02*
X9496999Y19681625D01*
X9496999Y19681625D02*
X9544654Y19705453D01*
X9544654Y19705453D02*
X9639965Y19705453D01*
X9639965Y19705453D02*
X9687620Y19681625D01*
X9687620Y19681625D02*
X9711447Y19657798D01*
X9711447Y19657798D02*
X9735275Y19610142D01*
X10061000Y19030781D02*
X10061000Y18697194D01*
X10180138Y19221402D02*
X10299276Y18863987D01*
X10299276Y18863987D02*
X9989517Y18863987D01*
X9798896Y18697194D02*
X9798896Y19197574D01*
X9751241Y18887815D02*
X9608275Y18697194D01*
X9608275Y19030781D02*
X9798896Y18840160D01*
X9441482Y19197574D02*
X9107895Y19197574D01*
X9107895Y19197574D02*
X9322344Y18697194D01*
X9989396Y21427694D02*
X10156189Y21665970D01*
X10275327Y21427694D02*
X10275327Y21928074D01*
X10275327Y21928074D02*
X10084706Y21928074D01*
X10084706Y21928074D02*
X10037051Y21904246D01*
X10037051Y21904246D02*
X10013224Y21880419D01*
X10013224Y21880419D02*
X9989396Y21832763D01*
X9989396Y21832763D02*
X9989396Y21761281D01*
X9989396Y21761281D02*
X10013224Y21713625D01*
X10013224Y21713625D02*
X10037051Y21689798D01*
X10037051Y21689798D02*
X10084706Y21665970D01*
X10084706Y21665970D02*
X10275327Y21665970D01*
X9822603Y21928074D02*
X9489016Y21928074D01*
X9489016Y21928074D02*
X9703465Y21427694D01*
X10124500Y21062781D02*
X10124500Y20729194D01*
X10243638Y21253402D02*
X10362776Y20895987D01*
X10362776Y20895987D02*
X10053017Y20895987D01*
X9862396Y20729194D02*
X9862396Y21229574D01*
X9814741Y20919815D02*
X9671775Y20729194D01*
X9671775Y21062781D02*
X9862396Y20872160D01*
X9504982Y21229574D02*
X9171395Y21229574D01*
X9171395Y21229574D02*
X9385844Y20729194D01*
X9989396Y23459694D02*
X10156189Y23697970D01*
X10275327Y23459694D02*
X10275327Y23960074D01*
X10275327Y23960074D02*
X10084706Y23960074D01*
X10084706Y23960074D02*
X10037051Y23936246D01*
X10037051Y23936246D02*
X10013224Y23912419D01*
X10013224Y23912419D02*
X9989396Y23864763D01*
X9989396Y23864763D02*
X9989396Y23793281D01*
X9989396Y23793281D02*
X10013224Y23745625D01*
X10013224Y23745625D02*
X10037051Y23721798D01*
X10037051Y23721798D02*
X10084706Y23697970D01*
X10084706Y23697970D02*
X10275327Y23697970D01*
X9703465Y23745625D02*
X9751120Y23769453D01*
X9751120Y23769453D02*
X9774947Y23793281D01*
X9774947Y23793281D02*
X9798775Y23840936D01*
X9798775Y23840936D02*
X9798775Y23864763D01*
X9798775Y23864763D02*
X9774947Y23912419D01*
X9774947Y23912419D02*
X9751120Y23936246D01*
X9751120Y23936246D02*
X9703465Y23960074D01*
X9703465Y23960074D02*
X9608154Y23960074D01*
X9608154Y23960074D02*
X9560499Y23936246D01*
X9560499Y23936246D02*
X9536671Y23912419D01*
X9536671Y23912419D02*
X9512844Y23864763D01*
X9512844Y23864763D02*
X9512844Y23840936D01*
X9512844Y23840936D02*
X9536671Y23793281D01*
X9536671Y23793281D02*
X9560499Y23769453D01*
X9560499Y23769453D02*
X9608154Y23745625D01*
X9608154Y23745625D02*
X9703465Y23745625D01*
X9703465Y23745625D02*
X9751120Y23721798D01*
X9751120Y23721798D02*
X9774947Y23697970D01*
X9774947Y23697970D02*
X9798775Y23650315D01*
X9798775Y23650315D02*
X9798775Y23555004D01*
X9798775Y23555004D02*
X9774947Y23507349D01*
X9774947Y23507349D02*
X9751120Y23483522D01*
X9751120Y23483522D02*
X9703465Y23459694D01*
X9703465Y23459694D02*
X9608154Y23459694D01*
X9608154Y23459694D02*
X9560499Y23483522D01*
X9560499Y23483522D02*
X9536671Y23507349D01*
X9536671Y23507349D02*
X9512844Y23555004D01*
X9512844Y23555004D02*
X9512844Y23650315D01*
X9512844Y23650315D02*
X9536671Y23697970D01*
X9536671Y23697970D02*
X9560499Y23721798D01*
X9560499Y23721798D02*
X9608154Y23745625D01*
X10124500Y23094781D02*
X10124500Y22761194D01*
X10243638Y23285402D02*
X10362776Y22927987D01*
X10362776Y22927987D02*
X10053017Y22927987D01*
X9862396Y22761194D02*
X9862396Y23261574D01*
X9814741Y22951815D02*
X9671775Y22761194D01*
X9671775Y23094781D02*
X9862396Y22904160D01*
X9504982Y23261574D02*
X9171395Y23261574D01*
X9171395Y23261574D02*
X9385844Y22761194D01*
X9989396Y25491694D02*
X10156189Y25729970D01*
X10275327Y25491694D02*
X10275327Y25992074D01*
X10275327Y25992074D02*
X10084706Y25992074D01*
X10084706Y25992074D02*
X10037051Y25968246D01*
X10037051Y25968246D02*
X10013224Y25944419D01*
X10013224Y25944419D02*
X9989396Y25896763D01*
X9989396Y25896763D02*
X9989396Y25825281D01*
X9989396Y25825281D02*
X10013224Y25777625D01*
X10013224Y25777625D02*
X10037051Y25753798D01*
X10037051Y25753798D02*
X10084706Y25729970D01*
X10084706Y25729970D02*
X10275327Y25729970D01*
X9751120Y25491694D02*
X9655809Y25491694D01*
X9655809Y25491694D02*
X9608154Y25515522D01*
X9608154Y25515522D02*
X9584326Y25539349D01*
X9584326Y25539349D02*
X9536671Y25610832D01*
X9536671Y25610832D02*
X9512844Y25706142D01*
X9512844Y25706142D02*
X9512844Y25896763D01*
X9512844Y25896763D02*
X9536671Y25944419D01*
X9536671Y25944419D02*
X9560499Y25968246D01*
X9560499Y25968246D02*
X9608154Y25992074D01*
X9608154Y25992074D02*
X9703465Y25992074D01*
X9703465Y25992074D02*
X9751120Y25968246D01*
X9751120Y25968246D02*
X9774947Y25944419D01*
X9774947Y25944419D02*
X9798775Y25896763D01*
X9798775Y25896763D02*
X9798775Y25777625D01*
X9798775Y25777625D02*
X9774947Y25729970D01*
X9774947Y25729970D02*
X9751120Y25706142D01*
X9751120Y25706142D02*
X9703465Y25682315D01*
X9703465Y25682315D02*
X9608154Y25682315D01*
X9608154Y25682315D02*
X9560499Y25706142D01*
X9560499Y25706142D02*
X9536671Y25729970D01*
X9536671Y25729970D02*
X9512844Y25777625D01*
X10124500Y25126781D02*
X10124500Y24793194D01*
X10243638Y25317402D02*
X10362776Y24959987D01*
X10362776Y24959987D02*
X10053017Y24959987D01*
X9862396Y24793194D02*
X9862396Y25293574D01*
X9814741Y24983815D02*
X9671775Y24793194D01*
X9671775Y25126781D02*
X9862396Y24936160D01*
X9504982Y25293574D02*
X9171395Y25293574D01*
X9171395Y25293574D02*
X9385844Y24793194D01*
X16799305Y29214172D02*
X16561029Y29380965D01*
X16799305Y29500103D02*
X16298925Y29500103D01*
X16298925Y29500103D02*
X16298925Y29309482D01*
X16298925Y29309482D02*
X16322753Y29261827D01*
X16322753Y29261827D02*
X16346580Y29238000D01*
X16346580Y29238000D02*
X16394236Y29214172D01*
X16394236Y29214172D02*
X16465718Y29214172D01*
X16465718Y29214172D02*
X16513374Y29238000D01*
X16513374Y29238000D02*
X16537201Y29261827D01*
X16537201Y29261827D02*
X16561029Y29309482D01*
X16561029Y29309482D02*
X16561029Y29500103D01*
X16799305Y28737620D02*
X16799305Y29023551D01*
X16799305Y28880585D02*
X16298925Y28880585D01*
X16298925Y28880585D02*
X16370408Y28928241D01*
X16370408Y28928241D02*
X16418063Y28975896D01*
X16418063Y28975896D02*
X16441891Y29023551D01*
X16298925Y28427861D02*
X16298925Y28380206D01*
X16298925Y28380206D02*
X16322753Y28332550D01*
X16322753Y28332550D02*
X16346580Y28308723D01*
X16346580Y28308723D02*
X16394236Y28284895D01*
X16394236Y28284895D02*
X16489546Y28261068D01*
X16489546Y28261068D02*
X16608684Y28261068D01*
X16608684Y28261068D02*
X16703995Y28284895D01*
X16703995Y28284895D02*
X16751650Y28308723D01*
X16751650Y28308723D02*
X16775478Y28332550D01*
X16775478Y28332550D02*
X16799305Y28380206D01*
X16799305Y28380206D02*
X16799305Y28427861D01*
X16799305Y28427861D02*
X16775478Y28475516D01*
X16775478Y28475516D02*
X16751650Y28499344D01*
X16751650Y28499344D02*
X16703995Y28523171D01*
X16703995Y28523171D02*
X16608684Y28546999D01*
X16608684Y28546999D02*
X16489546Y28546999D01*
X16489546Y28546999D02*
X16394236Y28523171D01*
X16394236Y28523171D02*
X16346580Y28499344D01*
X16346580Y28499344D02*
X16322753Y28475516D01*
X16322753Y28475516D02*
X16298925Y28427861D01*
X15767218Y29365000D02*
X16100805Y29365000D01*
X15576598Y29484138D02*
X15934012Y29603276D01*
X15934012Y29603276D02*
X15934012Y29293517D01*
X16100805Y29102896D02*
X15600425Y29102896D01*
X15910184Y29055241D02*
X16100805Y28912275D01*
X15767218Y28912275D02*
X15957839Y29102896D01*
X15600425Y28745482D02*
X15600425Y28411895D01*
X15600425Y28411895D02*
X16100805Y28626344D01*
X10227672Y29555694D02*
X10394465Y29793970D01*
X10513603Y29555694D02*
X10513603Y30056074D01*
X10513603Y30056074D02*
X10322982Y30056074D01*
X10322982Y30056074D02*
X10275327Y30032246D01*
X10275327Y30032246D02*
X10251500Y30008419D01*
X10251500Y30008419D02*
X10227672Y29960763D01*
X10227672Y29960763D02*
X10227672Y29889281D01*
X10227672Y29889281D02*
X10251500Y29841625D01*
X10251500Y29841625D02*
X10275327Y29817798D01*
X10275327Y29817798D02*
X10322982Y29793970D01*
X10322982Y29793970D02*
X10513603Y29793970D01*
X9751120Y29555694D02*
X10037051Y29555694D01*
X9894085Y29555694D02*
X9894085Y30056074D01*
X9894085Y30056074D02*
X9941741Y29984591D01*
X9941741Y29984591D02*
X9989396Y29936936D01*
X9989396Y29936936D02*
X10037051Y29913108D01*
X9274568Y29555694D02*
X9560499Y29555694D01*
X9417533Y29555694D02*
X9417533Y30056074D01*
X9417533Y30056074D02*
X9465189Y29984591D01*
X9465189Y29984591D02*
X9512844Y29936936D01*
X9512844Y29936936D02*
X9560499Y29913108D01*
X10124500Y29190781D02*
X10124500Y28857194D01*
X10243638Y29381402D02*
X10362776Y29023987D01*
X10362776Y29023987D02*
X10053017Y29023987D01*
X9862396Y28857194D02*
X9862396Y29357574D01*
X9814741Y29047815D02*
X9671775Y28857194D01*
X9671775Y29190781D02*
X9862396Y29000160D01*
X9504982Y29357574D02*
X9171395Y29357574D01*
X9171395Y29357574D02*
X9385844Y28857194D01*
X13370305Y29277672D02*
X13132029Y29444465D01*
X13370305Y29563603D02*
X12869925Y29563603D01*
X12869925Y29563603D02*
X12869925Y29372982D01*
X12869925Y29372982D02*
X12893753Y29325327D01*
X12893753Y29325327D02*
X12917580Y29301500D01*
X12917580Y29301500D02*
X12965236Y29277672D01*
X12965236Y29277672D02*
X13036718Y29277672D01*
X13036718Y29277672D02*
X13084374Y29301500D01*
X13084374Y29301500D02*
X13108201Y29325327D01*
X13108201Y29325327D02*
X13132029Y29372982D01*
X13132029Y29372982D02*
X13132029Y29563603D01*
X13370305Y28801120D02*
X13370305Y29087051D01*
X13370305Y28944085D02*
X12869925Y28944085D01*
X12869925Y28944085D02*
X12941408Y28991741D01*
X12941408Y28991741D02*
X12989063Y29039396D01*
X12989063Y29039396D02*
X13012891Y29087051D01*
X12917580Y28610499D02*
X12893753Y28586671D01*
X12893753Y28586671D02*
X12869925Y28539016D01*
X12869925Y28539016D02*
X12869925Y28419878D01*
X12869925Y28419878D02*
X12893753Y28372223D01*
X12893753Y28372223D02*
X12917580Y28348395D01*
X12917580Y28348395D02*
X12965236Y28324568D01*
X12965236Y28324568D02*
X13012891Y28324568D01*
X13012891Y28324568D02*
X13084374Y28348395D01*
X13084374Y28348395D02*
X13370305Y28634327D01*
X13370305Y28634327D02*
X13370305Y28324568D01*
X13782874Y29603397D02*
X13759046Y29651052D01*
X13759046Y29651052D02*
X13735218Y29674879D01*
X13735218Y29674879D02*
X13687563Y29698707D01*
X13687563Y29698707D02*
X13663736Y29698707D01*
X13663736Y29698707D02*
X13616080Y29674879D01*
X13616080Y29674879D02*
X13592253Y29651052D01*
X13592253Y29651052D02*
X13568425Y29603397D01*
X13568425Y29603397D02*
X13568425Y29508086D01*
X13568425Y29508086D02*
X13592253Y29460431D01*
X13592253Y29460431D02*
X13616080Y29436603D01*
X13616080Y29436603D02*
X13663736Y29412776D01*
X13663736Y29412776D02*
X13687563Y29412776D01*
X13687563Y29412776D02*
X13735218Y29436603D01*
X13735218Y29436603D02*
X13759046Y29460431D01*
X13759046Y29460431D02*
X13782874Y29508086D01*
X13782874Y29508086D02*
X13782874Y29603397D01*
X13782874Y29603397D02*
X13806701Y29651052D01*
X13806701Y29651052D02*
X13830529Y29674879D01*
X13830529Y29674879D02*
X13878184Y29698707D01*
X13878184Y29698707D02*
X13973495Y29698707D01*
X13973495Y29698707D02*
X14021150Y29674879D01*
X14021150Y29674879D02*
X14044978Y29651052D01*
X14044978Y29651052D02*
X14068805Y29603397D01*
X14068805Y29603397D02*
X14068805Y29508086D01*
X14068805Y29508086D02*
X14044978Y29460431D01*
X14044978Y29460431D02*
X14021150Y29436603D01*
X14021150Y29436603D02*
X13973495Y29412776D01*
X13973495Y29412776D02*
X13878184Y29412776D01*
X13878184Y29412776D02*
X13830529Y29436603D01*
X13830529Y29436603D02*
X13806701Y29460431D01*
X13806701Y29460431D02*
X13782874Y29508086D01*
X13616080Y29222155D02*
X13592253Y29198327D01*
X13592253Y29198327D02*
X13568425Y29150672D01*
X13568425Y29150672D02*
X13568425Y29031534D01*
X13568425Y29031534D02*
X13592253Y28983879D01*
X13592253Y28983879D02*
X13616080Y28960051D01*
X13616080Y28960051D02*
X13663736Y28936224D01*
X13663736Y28936224D02*
X13711391Y28936224D01*
X13711391Y28936224D02*
X13782874Y28960051D01*
X13782874Y28960051D02*
X14068805Y29245983D01*
X14068805Y29245983D02*
X14068805Y28936224D01*
X13568425Y28626465D02*
X13568425Y28578810D01*
X13568425Y28578810D02*
X13592253Y28531154D01*
X13592253Y28531154D02*
X13616080Y28507327D01*
X13616080Y28507327D02*
X13663736Y28483499D01*
X13663736Y28483499D02*
X13759046Y28459672D01*
X13759046Y28459672D02*
X13878184Y28459672D01*
X13878184Y28459672D02*
X13973495Y28483499D01*
X13973495Y28483499D02*
X14021150Y28507327D01*
X14021150Y28507327D02*
X14044978Y28531154D01*
X14044978Y28531154D02*
X14068805Y28578810D01*
X14068805Y28578810D02*
X14068805Y28626465D01*
X14068805Y28626465D02*
X14044978Y28674120D01*
X14044978Y28674120D02*
X14021150Y28697948D01*
X14021150Y28697948D02*
X13973495Y28721775D01*
X13973495Y28721775D02*
X13878184Y28745603D01*
X13878184Y28745603D02*
X13759046Y28745603D01*
X13759046Y28745603D02*
X13663736Y28721775D01*
X13663736Y28721775D02*
X13616080Y28697948D01*
X13616080Y28697948D02*
X13592253Y28674120D01*
X13592253Y28674120D02*
X13568425Y28626465D01*
X14068805Y27959292D02*
X13830529Y28126085D01*
X14068805Y28245223D02*
X13568425Y28245223D01*
X13568425Y28245223D02*
X13568425Y28054602D01*
X13568425Y28054602D02*
X13592253Y28006947D01*
X13592253Y28006947D02*
X13616080Y27983120D01*
X13616080Y27983120D02*
X13663736Y27959292D01*
X13663736Y27959292D02*
X13735218Y27959292D01*
X13735218Y27959292D02*
X13782874Y27983120D01*
X13782874Y27983120D02*
X13806701Y28006947D01*
X13806701Y28006947D02*
X13830529Y28054602D01*
X13830529Y28054602D02*
X13830529Y28245223D01*
X17339672Y31905194D02*
X17506465Y32143470D01*
X17625603Y31905194D02*
X17625603Y32405574D01*
X17625603Y32405574D02*
X17434982Y32405574D01*
X17434982Y32405574D02*
X17387327Y32381746D01*
X17387327Y32381746D02*
X17363500Y32357919D01*
X17363500Y32357919D02*
X17339672Y32310263D01*
X17339672Y32310263D02*
X17339672Y32238781D01*
X17339672Y32238781D02*
X17363500Y32191125D01*
X17363500Y32191125D02*
X17387327Y32167298D01*
X17387327Y32167298D02*
X17434982Y32143470D01*
X17434982Y32143470D02*
X17625603Y32143470D01*
X16863120Y31905194D02*
X17149051Y31905194D01*
X17006085Y31905194D02*
X17006085Y32405574D01*
X17006085Y32405574D02*
X17053741Y32334091D01*
X17053741Y32334091D02*
X17101396Y32286436D01*
X17101396Y32286436D02*
X17149051Y32262608D01*
X16696327Y32405574D02*
X16386568Y32405574D01*
X16386568Y32405574D02*
X16553361Y32214953D01*
X16553361Y32214953D02*
X16481878Y32214953D01*
X16481878Y32214953D02*
X16434223Y32191125D01*
X16434223Y32191125D02*
X16410395Y32167298D01*
X16410395Y32167298D02*
X16386568Y32119642D01*
X16386568Y32119642D02*
X16386568Y32000504D01*
X16386568Y32000504D02*
X16410395Y31952849D01*
X16410395Y31952849D02*
X16434223Y31929022D01*
X16434223Y31929022D02*
X16481878Y31905194D01*
X16481878Y31905194D02*
X16624844Y31905194D01*
X16624844Y31905194D02*
X16672499Y31929022D01*
X16672499Y31929022D02*
X16696327Y31952849D01*
X17081620Y31397315D02*
X16700379Y31397315D01*
X24134172Y16093694D02*
X24300965Y16331970D01*
X24420103Y16093694D02*
X24420103Y16594074D01*
X24420103Y16594074D02*
X24229482Y16594074D01*
X24229482Y16594074D02*
X24181827Y16570246D01*
X24181827Y16570246D02*
X24158000Y16546419D01*
X24158000Y16546419D02*
X24134172Y16498763D01*
X24134172Y16498763D02*
X24134172Y16427281D01*
X24134172Y16427281D02*
X24158000Y16379625D01*
X24158000Y16379625D02*
X24181827Y16355798D01*
X24181827Y16355798D02*
X24229482Y16331970D01*
X24229482Y16331970D02*
X24420103Y16331970D01*
X23657620Y16093694D02*
X23943551Y16093694D01*
X23800585Y16093694D02*
X23800585Y16594074D01*
X23800585Y16594074D02*
X23848241Y16522591D01*
X23848241Y16522591D02*
X23895896Y16474936D01*
X23895896Y16474936D02*
X23943551Y16451108D01*
X23228723Y16427281D02*
X23228723Y16093694D01*
X23347861Y16617902D02*
X23466999Y16260487D01*
X23466999Y16260487D02*
X23157240Y16260487D01*
X24269276Y15847919D02*
X24245448Y15871746D01*
X24245448Y15871746D02*
X24197793Y15895574D01*
X24197793Y15895574D02*
X24078655Y15895574D01*
X24078655Y15895574D02*
X24031000Y15871746D01*
X24031000Y15871746D02*
X24007172Y15847919D01*
X24007172Y15847919D02*
X23983345Y15800263D01*
X23983345Y15800263D02*
X23983345Y15752608D01*
X23983345Y15752608D02*
X24007172Y15681125D01*
X24007172Y15681125D02*
X24293104Y15395194D01*
X24293104Y15395194D02*
X23983345Y15395194D01*
X23673586Y15895574D02*
X23625931Y15895574D01*
X23625931Y15895574D02*
X23578275Y15871746D01*
X23578275Y15871746D02*
X23554448Y15847919D01*
X23554448Y15847919D02*
X23530620Y15800263D01*
X23530620Y15800263D02*
X23506793Y15704953D01*
X23506793Y15704953D02*
X23506793Y15585815D01*
X23506793Y15585815D02*
X23530620Y15490504D01*
X23530620Y15490504D02*
X23554448Y15442849D01*
X23554448Y15442849D02*
X23578275Y15419022D01*
X23578275Y15419022D02*
X23625931Y15395194D01*
X23625931Y15395194D02*
X23673586Y15395194D01*
X23673586Y15395194D02*
X23721241Y15419022D01*
X23721241Y15419022D02*
X23745069Y15442849D01*
X23745069Y15442849D02*
X23768896Y15490504D01*
X23768896Y15490504D02*
X23792724Y15585815D01*
X23792724Y15585815D02*
X23792724Y15704953D01*
X23792724Y15704953D02*
X23768896Y15800263D01*
X23768896Y15800263D02*
X23745069Y15847919D01*
X23745069Y15847919D02*
X23721241Y15871746D01*
X23721241Y15871746D02*
X23673586Y15895574D01*
X23292344Y15395194D02*
X23292344Y15895574D01*
X23244689Y15585815D02*
X23101723Y15395194D01*
X23101723Y15728781D02*
X23292344Y15538160D01*
X26641805Y13974172D02*
X26403529Y14140965D01*
X26641805Y14260103D02*
X26141425Y14260103D01*
X26141425Y14260103D02*
X26141425Y14069482D01*
X26141425Y14069482D02*
X26165253Y14021827D01*
X26165253Y14021827D02*
X26189080Y13998000D01*
X26189080Y13998000D02*
X26236736Y13974172D01*
X26236736Y13974172D02*
X26308218Y13974172D01*
X26308218Y13974172D02*
X26355874Y13998000D01*
X26355874Y13998000D02*
X26379701Y14021827D01*
X26379701Y14021827D02*
X26403529Y14069482D01*
X26403529Y14069482D02*
X26403529Y14260103D01*
X26641805Y13497620D02*
X26641805Y13783551D01*
X26641805Y13640585D02*
X26141425Y13640585D01*
X26141425Y13640585D02*
X26212908Y13688241D01*
X26212908Y13688241D02*
X26260563Y13735896D01*
X26260563Y13735896D02*
X26284391Y13783551D01*
X26141425Y13044895D02*
X26141425Y13283171D01*
X26141425Y13283171D02*
X26379701Y13306999D01*
X26379701Y13306999D02*
X26355874Y13283171D01*
X26355874Y13283171D02*
X26332046Y13235516D01*
X26332046Y13235516D02*
X26332046Y13116378D01*
X26332046Y13116378D02*
X26355874Y13068723D01*
X26355874Y13068723D02*
X26379701Y13044895D01*
X26379701Y13044895D02*
X26427357Y13021068D01*
X26427357Y13021068D02*
X26546495Y13021068D01*
X26546495Y13021068D02*
X26594150Y13044895D01*
X26594150Y13044895D02*
X26617978Y13068723D01*
X26617978Y13068723D02*
X26641805Y13116378D01*
X26641805Y13116378D02*
X26641805Y13235516D01*
X26641805Y13235516D02*
X26617978Y13283171D01*
X26617978Y13283171D02*
X26594150Y13306999D01*
X26887580Y14109276D02*
X26863753Y14085448D01*
X26863753Y14085448D02*
X26839925Y14037793D01*
X26839925Y14037793D02*
X26839925Y13918655D01*
X26839925Y13918655D02*
X26863753Y13871000D01*
X26863753Y13871000D02*
X26887580Y13847172D01*
X26887580Y13847172D02*
X26935236Y13823345D01*
X26935236Y13823345D02*
X26982891Y13823345D01*
X26982891Y13823345D02*
X27054374Y13847172D01*
X27054374Y13847172D02*
X27340305Y14133104D01*
X27340305Y14133104D02*
X27340305Y13823345D01*
X26839925Y13513586D02*
X26839925Y13465931D01*
X26839925Y13465931D02*
X26863753Y13418275D01*
X26863753Y13418275D02*
X26887580Y13394448D01*
X26887580Y13394448D02*
X26935236Y13370620D01*
X26935236Y13370620D02*
X27030546Y13346793D01*
X27030546Y13346793D02*
X27149684Y13346793D01*
X27149684Y13346793D02*
X27244995Y13370620D01*
X27244995Y13370620D02*
X27292650Y13394448D01*
X27292650Y13394448D02*
X27316478Y13418275D01*
X27316478Y13418275D02*
X27340305Y13465931D01*
X27340305Y13465931D02*
X27340305Y13513586D01*
X27340305Y13513586D02*
X27316478Y13561241D01*
X27316478Y13561241D02*
X27292650Y13585069D01*
X27292650Y13585069D02*
X27244995Y13608896D01*
X27244995Y13608896D02*
X27149684Y13632724D01*
X27149684Y13632724D02*
X27030546Y13632724D01*
X27030546Y13632724D02*
X26935236Y13608896D01*
X26935236Y13608896D02*
X26887580Y13585069D01*
X26887580Y13585069D02*
X26863753Y13561241D01*
X26863753Y13561241D02*
X26839925Y13513586D01*
X27340305Y13132344D02*
X26839925Y13132344D01*
X27149684Y13084689D02*
X27340305Y12941723D01*
X27006718Y12941723D02*
X27197339Y13132344D01*
X25816305Y23880172D02*
X25578029Y24046965D01*
X25816305Y24166103D02*
X25315925Y24166103D01*
X25315925Y24166103D02*
X25315925Y23975482D01*
X25315925Y23975482D02*
X25339753Y23927827D01*
X25339753Y23927827D02*
X25363580Y23904000D01*
X25363580Y23904000D02*
X25411236Y23880172D01*
X25411236Y23880172D02*
X25482718Y23880172D01*
X25482718Y23880172D02*
X25530374Y23904000D01*
X25530374Y23904000D02*
X25554201Y23927827D01*
X25554201Y23927827D02*
X25578029Y23975482D01*
X25578029Y23975482D02*
X25578029Y24166103D01*
X25816305Y23403620D02*
X25816305Y23689551D01*
X25816305Y23546585D02*
X25315925Y23546585D01*
X25315925Y23546585D02*
X25387408Y23594241D01*
X25387408Y23594241D02*
X25435063Y23641896D01*
X25435063Y23641896D02*
X25458891Y23689551D01*
X25315925Y22974723D02*
X25315925Y23070033D01*
X25315925Y23070033D02*
X25339753Y23117689D01*
X25339753Y23117689D02*
X25363580Y23141516D01*
X25363580Y23141516D02*
X25435063Y23189171D01*
X25435063Y23189171D02*
X25530374Y23212999D01*
X25530374Y23212999D02*
X25720995Y23212999D01*
X25720995Y23212999D02*
X25768650Y23189171D01*
X25768650Y23189171D02*
X25792478Y23165344D01*
X25792478Y23165344D02*
X25816305Y23117689D01*
X25816305Y23117689D02*
X25816305Y23022378D01*
X25816305Y23022378D02*
X25792478Y22974723D01*
X25792478Y22974723D02*
X25768650Y22950895D01*
X25768650Y22950895D02*
X25720995Y22927068D01*
X25720995Y22927068D02*
X25601857Y22927068D01*
X25601857Y22927068D02*
X25554201Y22950895D01*
X25554201Y22950895D02*
X25530374Y22974723D01*
X25530374Y22974723D02*
X25506546Y23022378D01*
X25506546Y23022378D02*
X25506546Y23117689D01*
X25506546Y23117689D02*
X25530374Y23165344D01*
X25530374Y23165344D02*
X25554201Y23189171D01*
X25554201Y23189171D02*
X25601857Y23212999D01*
X26062080Y24015276D02*
X26038253Y23991448D01*
X26038253Y23991448D02*
X26014425Y23943793D01*
X26014425Y23943793D02*
X26014425Y23824655D01*
X26014425Y23824655D02*
X26038253Y23777000D01*
X26038253Y23777000D02*
X26062080Y23753172D01*
X26062080Y23753172D02*
X26109736Y23729345D01*
X26109736Y23729345D02*
X26157391Y23729345D01*
X26157391Y23729345D02*
X26228874Y23753172D01*
X26228874Y23753172D02*
X26514805Y24039104D01*
X26514805Y24039104D02*
X26514805Y23729345D01*
X26014425Y23419586D02*
X26014425Y23371931D01*
X26014425Y23371931D02*
X26038253Y23324275D01*
X26038253Y23324275D02*
X26062080Y23300448D01*
X26062080Y23300448D02*
X26109736Y23276620D01*
X26109736Y23276620D02*
X26205046Y23252793D01*
X26205046Y23252793D02*
X26324184Y23252793D01*
X26324184Y23252793D02*
X26419495Y23276620D01*
X26419495Y23276620D02*
X26467150Y23300448D01*
X26467150Y23300448D02*
X26490978Y23324275D01*
X26490978Y23324275D02*
X26514805Y23371931D01*
X26514805Y23371931D02*
X26514805Y23419586D01*
X26514805Y23419586D02*
X26490978Y23467241D01*
X26490978Y23467241D02*
X26467150Y23491069D01*
X26467150Y23491069D02*
X26419495Y23514896D01*
X26419495Y23514896D02*
X26324184Y23538724D01*
X26324184Y23538724D02*
X26205046Y23538724D01*
X26205046Y23538724D02*
X26109736Y23514896D01*
X26109736Y23514896D02*
X26062080Y23491069D01*
X26062080Y23491069D02*
X26038253Y23467241D01*
X26038253Y23467241D02*
X26014425Y23419586D01*
X26514805Y23038344D02*
X26014425Y23038344D01*
X26324184Y22990689D02*
X26514805Y22847723D01*
X26181218Y22847723D02*
X26371839Y23038344D01*
X24959672Y26190194D02*
X25126465Y26428470D01*
X25245603Y26190194D02*
X25245603Y26690574D01*
X25245603Y26690574D02*
X25054982Y26690574D01*
X25054982Y26690574D02*
X25007327Y26666746D01*
X25007327Y26666746D02*
X24983500Y26642919D01*
X24983500Y26642919D02*
X24959672Y26595263D01*
X24959672Y26595263D02*
X24959672Y26523781D01*
X24959672Y26523781D02*
X24983500Y26476125D01*
X24983500Y26476125D02*
X25007327Y26452298D01*
X25007327Y26452298D02*
X25054982Y26428470D01*
X25054982Y26428470D02*
X25245603Y26428470D01*
X24483120Y26190194D02*
X24769051Y26190194D01*
X24626085Y26190194D02*
X24626085Y26690574D01*
X24626085Y26690574D02*
X24673741Y26619091D01*
X24673741Y26619091D02*
X24721396Y26571436D01*
X24721396Y26571436D02*
X24769051Y26547608D01*
X24316327Y26690574D02*
X23982740Y26690574D01*
X23982740Y26690574D02*
X24197189Y26190194D01*
X25348776Y27341419D02*
X25324948Y27365246D01*
X25324948Y27365246D02*
X25277293Y27389074D01*
X25277293Y27389074D02*
X25158155Y27389074D01*
X25158155Y27389074D02*
X25110500Y27365246D01*
X25110500Y27365246D02*
X25086672Y27341419D01*
X25086672Y27341419D02*
X25062845Y27293763D01*
X25062845Y27293763D02*
X25062845Y27246108D01*
X25062845Y27246108D02*
X25086672Y27174625D01*
X25086672Y27174625D02*
X25372604Y26888694D01*
X25372604Y26888694D02*
X25062845Y26888694D01*
X24753086Y27389074D02*
X24705431Y27389074D01*
X24705431Y27389074D02*
X24657775Y27365246D01*
X24657775Y27365246D02*
X24633948Y27341419D01*
X24633948Y27341419D02*
X24610120Y27293763D01*
X24610120Y27293763D02*
X24586293Y27198453D01*
X24586293Y27198453D02*
X24586293Y27079315D01*
X24586293Y27079315D02*
X24610120Y26984004D01*
X24610120Y26984004D02*
X24633948Y26936349D01*
X24633948Y26936349D02*
X24657775Y26912522D01*
X24657775Y26912522D02*
X24705431Y26888694D01*
X24705431Y26888694D02*
X24753086Y26888694D01*
X24753086Y26888694D02*
X24800741Y26912522D01*
X24800741Y26912522D02*
X24824569Y26936349D01*
X24824569Y26936349D02*
X24848396Y26984004D01*
X24848396Y26984004D02*
X24872224Y27079315D01*
X24872224Y27079315D02*
X24872224Y27198453D01*
X24872224Y27198453D02*
X24848396Y27293763D01*
X24848396Y27293763D02*
X24824569Y27341419D01*
X24824569Y27341419D02*
X24800741Y27365246D01*
X24800741Y27365246D02*
X24753086Y27389074D01*
X24371844Y26888694D02*
X24371844Y27389074D01*
X24324189Y27079315D02*
X24181223Y26888694D01*
X24181223Y27222281D02*
X24371844Y27031660D01*
D13*
X17756819Y22840904D02*
X18566342Y22840904D01*
X18566342Y22840904D02*
X18661580Y22793285D01*
X18661580Y22793285D02*
X18709200Y22745666D01*
X18709200Y22745666D02*
X18756819Y22650428D01*
X18756819Y22650428D02*
X18756819Y22459952D01*
X18756819Y22459952D02*
X18709200Y22364714D01*
X18709200Y22364714D02*
X18661580Y22317095D01*
X18661580Y22317095D02*
X18566342Y22269476D01*
X18566342Y22269476D02*
X17756819Y22269476D01*
X18756819Y21269476D02*
X18756819Y21840904D01*
X18756819Y21555190D02*
X17756819Y21555190D01*
X17756819Y21555190D02*
X17899676Y21650428D01*
X17899676Y21650428D02*
X17994914Y21745666D01*
X17994914Y21745666D02*
X18042533Y21840904D01*
X16682019Y18116599D02*
X16920114Y18116599D01*
X16824876Y18354694D02*
X16920114Y18116599D01*
X16920114Y18116599D02*
X16824876Y17878504D01*
X17110590Y18259456D02*
X16920114Y18116599D01*
X16920114Y18116599D02*
X17110590Y17973742D01*
%TO.C,C3*%
X22379940Y17538700D02*
X21181060Y17538700D01*
X21780500Y18039080D02*
X21780500Y16939260D01*
X21079460Y16685260D02*
X21079460Y13286740D01*
X13779500Y13286740D02*
X19778980Y13286740D01*
X13779500Y16685260D02*
X19778980Y16685260D01*
%TO.C,C4*%
X9652000Y34036000D02*
X11176000Y34036000D01*
X11176000Y34036000D02*
X11176000Y35052000D01*
X9652000Y35052000D02*
X9652000Y34036000D01*
X11176000Y36068000D02*
X11176000Y37084000D01*
X9652000Y37084000D02*
X9652000Y36068000D01*
X11176000Y37084000D02*
X9652000Y37084000D01*
X9779000Y33909000D02*
G75*
G03*
X9525000Y33909000I-127000J0D01*
G01*
X9525000Y33909000D02*
G75*
G03*
X9779000Y33909000I127000J0D01*
G01*
%TO.C,D1*%
X19984720Y8869680D02*
X20182840Y8869680D01*
X19984720Y8869680D02*
X19984720Y13472160D01*
X20231100Y8874760D02*
X20380960Y8874760D01*
X23731220Y8874760D02*
X23632160Y8874760D01*
X23980140Y8874760D02*
X23782020Y8874760D01*
X23980140Y8874760D02*
X23980140Y13477240D01*
X19982180Y13126720D02*
X20180300Y13126720D01*
X20231100Y13126720D02*
X20330160Y13126720D01*
X23731220Y13126720D02*
X23632160Y13126720D01*
X23980140Y13126720D02*
X23782020Y13126720D01*
X19984720Y13472160D02*
X20182840Y13472160D01*
X20231100Y13477240D02*
X20330160Y13477240D01*
X23731220Y13477240D02*
X23632160Y13477240D01*
X23980140Y13477240D02*
X23782020Y13477240D01*
%TO.C,D2*%
X31262320Y7909560D02*
X31262320Y8107680D01*
X31262320Y7909560D02*
X26659840Y7909560D01*
X31257240Y8155940D02*
X31257240Y8305800D01*
X31257240Y11656060D02*
X31257240Y11557000D01*
X31257240Y11904980D02*
X31257240Y11706860D01*
X31257240Y11904980D02*
X26654760Y11904980D01*
X27005280Y7907020D02*
X27005280Y8105140D01*
X27005280Y8155940D02*
X27005280Y8255000D01*
X27005280Y11656060D02*
X27005280Y11557000D01*
X27005280Y11904980D02*
X27005280Y11706860D01*
X26659840Y7909560D02*
X26659840Y8107680D01*
X26654760Y8155940D02*
X26654760Y8255000D01*
X26654760Y11656060D02*
X26654760Y11557000D01*
X26654760Y11904980D02*
X26654760Y11706860D01*
%TO.C,D3*%
X31714440Y18816320D02*
X31516320Y18816320D01*
X31714440Y18816320D02*
X31714440Y14213840D01*
X31468060Y18811240D02*
X31318200Y18811240D01*
X27967940Y18811240D02*
X28067000Y18811240D01*
X27719020Y18811240D02*
X27917140Y18811240D01*
X27719020Y18811240D02*
X27719020Y14208760D01*
X31716980Y14559280D02*
X31518860Y14559280D01*
X31468060Y14559280D02*
X31369000Y14559280D01*
X27967940Y14559280D02*
X28067000Y14559280D01*
X27719020Y14559280D02*
X27917140Y14559280D01*
X31714440Y14213840D02*
X31516320Y14213840D01*
X31468060Y14208760D02*
X31369000Y14208760D01*
X27967940Y14208760D02*
X28067000Y14208760D01*
X27719020Y14208760D02*
X27917140Y14208760D01*
%TO.C,D4*%
X32222440Y29484320D02*
X32024320Y29484320D01*
X32222440Y29484320D02*
X32222440Y24881840D01*
X31976060Y29479240D02*
X31826200Y29479240D01*
X28475940Y29479240D02*
X28575000Y29479240D01*
X28227020Y29479240D02*
X28425140Y29479240D01*
X28227020Y29479240D02*
X28227020Y24876760D01*
X32224980Y25227280D02*
X32026860Y25227280D01*
X31976060Y25227280D02*
X31877000Y25227280D01*
X28475940Y25227280D02*
X28575000Y25227280D01*
X28227020Y25227280D02*
X28425140Y25227280D01*
X32222440Y24881840D02*
X32024320Y24881840D01*
X31976060Y24876760D02*
X31877000Y24876760D01*
X28475940Y24876760D02*
X28575000Y24876760D01*
X28227020Y24876760D02*
X28425140Y24876760D01*
%TO.C,D5*%
X27081480Y27975560D02*
X27081480Y28173680D01*
X27081480Y27975560D02*
X22479000Y27975560D01*
X27076400Y28221940D02*
X27076400Y28371800D01*
X27076400Y31722060D02*
X27076400Y31623000D01*
X27076400Y31970980D02*
X27076400Y31772860D01*
X27076400Y31970980D02*
X22473920Y31970980D01*
X22824440Y27973020D02*
X22824440Y28171140D01*
X22824440Y28221940D02*
X22824440Y28321000D01*
X22824440Y31722060D02*
X22824440Y31623000D01*
X22824440Y31970980D02*
X22824440Y31772860D01*
X22479000Y27975560D02*
X22479000Y28173680D01*
X22473920Y28221940D02*
X22473920Y28321000D01*
X22473920Y31722060D02*
X22473920Y31623000D01*
X22473920Y31970980D02*
X22473920Y31772860D01*
%TO.C,R1*%
X11684000Y32512000D02*
X11684000Y30988000D01*
X11684000Y30988000D02*
X12700000Y30988000D01*
X12700000Y32512000D02*
X11684000Y32512000D01*
X13716000Y30988000D02*
X14732000Y30988000D01*
X14732000Y32512000D02*
X13716000Y32512000D01*
X14732000Y30988000D02*
X14732000Y32512000D01*
X11684000Y32512000D02*
G75*
G03*
X11430000Y32512000I-127000J0D01*
G01*
X11430000Y32512000D02*
G75*
G03*
X11684000Y32512000I127000J0D01*
G01*
%TO.C,R2*%
X11430000Y26670000D02*
X11430000Y28194000D01*
X11430000Y28194000D02*
X10414000Y28194000D01*
X10414000Y26670000D02*
X11430000Y26670000D01*
X9398000Y28194000D02*
X8382000Y28194000D01*
X8382000Y26670000D02*
X9398000Y26670000D01*
X8382000Y28194000D02*
X8382000Y26670000D01*
X11684000Y26670000D02*
G75*
G03*
X11430000Y26670000I-127000J0D01*
G01*
X11430000Y26670000D02*
G75*
G03*
X11684000Y26670000I127000J0D01*
G01*
%TO.C,R3*%
X8128000Y32512000D02*
X8128000Y30988000D01*
X8128000Y30988000D02*
X9144000Y30988000D01*
X9144000Y32512000D02*
X8128000Y32512000D01*
X10160000Y30988000D02*
X11176000Y30988000D01*
X11176000Y32512000D02*
X10160000Y32512000D01*
X11176000Y30988000D02*
X11176000Y32512000D01*
X8128000Y32512000D02*
G75*
G03*
X7874000Y32512000I-127000J0D01*
G01*
X7874000Y32512000D02*
G75*
G03*
X8128000Y32512000I127000J0D01*
G01*
%TO.C,R4*%
X11366500Y14478000D02*
X11366500Y16002000D01*
X11366500Y16002000D02*
X10350500Y16002000D01*
X10350500Y14478000D02*
X11366500Y14478000D01*
X9334500Y16002000D02*
X8318500Y16002000D01*
X8318500Y14478000D02*
X9334500Y14478000D01*
X8318500Y16002000D02*
X8318500Y14478000D01*
X11620500Y14478000D02*
G75*
G03*
X11366500Y14478000I-127000J0D01*
G01*
X11366500Y14478000D02*
G75*
G03*
X11620500Y14478000I127000J0D01*
G01*
%TO.C,R5*%
X11366500Y16510000D02*
X11366500Y18034000D01*
X11366500Y18034000D02*
X10350500Y18034000D01*
X10350500Y16510000D02*
X11366500Y16510000D01*
X9334500Y18034000D02*
X8318500Y18034000D01*
X8318500Y16510000D02*
X9334500Y16510000D01*
X8318500Y18034000D02*
X8318500Y16510000D01*
X11620500Y16510000D02*
G75*
G03*
X11366500Y16510000I-127000J0D01*
G01*
X11366500Y16510000D02*
G75*
G03*
X11620500Y16510000I127000J0D01*
G01*
%TO.C,R6*%
X11366500Y18542000D02*
X11366500Y20066000D01*
X11366500Y20066000D02*
X10350500Y20066000D01*
X10350500Y18542000D02*
X11366500Y18542000D01*
X9334500Y20066000D02*
X8318500Y20066000D01*
X8318500Y18542000D02*
X9334500Y18542000D01*
X8318500Y20066000D02*
X8318500Y18542000D01*
X11620500Y18542000D02*
G75*
G03*
X11366500Y18542000I-127000J0D01*
G01*
X11366500Y18542000D02*
G75*
G03*
X11620500Y18542000I127000J0D01*
G01*
%TO.C,R7*%
X11430000Y20574000D02*
X11430000Y22098000D01*
X11430000Y22098000D02*
X10414000Y22098000D01*
X10414000Y20574000D02*
X11430000Y20574000D01*
X9398000Y22098000D02*
X8382000Y22098000D01*
X8382000Y20574000D02*
X9398000Y20574000D01*
X8382000Y22098000D02*
X8382000Y20574000D01*
X11684000Y20574000D02*
G75*
G03*
X11430000Y20574000I-127000J0D01*
G01*
X11430000Y20574000D02*
G75*
G03*
X11684000Y20574000I127000J0D01*
G01*
%TO.C,R8*%
X11430000Y22606000D02*
X11430000Y24130000D01*
X11430000Y24130000D02*
X10414000Y24130000D01*
X10414000Y22606000D02*
X11430000Y22606000D01*
X9398000Y24130000D02*
X8382000Y24130000D01*
X8382000Y22606000D02*
X9398000Y22606000D01*
X8382000Y24130000D02*
X8382000Y22606000D01*
X11684000Y22606000D02*
G75*
G03*
X11430000Y22606000I-127000J0D01*
G01*
X11430000Y22606000D02*
G75*
G03*
X11684000Y22606000I127000J0D01*
G01*
%TO.C,R9*%
X11430000Y24638000D02*
X11430000Y26162000D01*
X11430000Y26162000D02*
X10414000Y26162000D01*
X10414000Y24638000D02*
X11430000Y24638000D01*
X9398000Y26162000D02*
X8382000Y26162000D01*
X8382000Y24638000D02*
X9398000Y24638000D01*
X8382000Y26162000D02*
X8382000Y24638000D01*
X11684000Y24638000D02*
G75*
G03*
X11430000Y24638000I-127000J0D01*
G01*
X11430000Y24638000D02*
G75*
G03*
X11684000Y24638000I127000J0D01*
G01*
%TO.C,R10*%
X15494000Y27368500D02*
X17018000Y27368500D01*
X17018000Y27368500D02*
X17018000Y28384500D01*
X15494000Y28384500D02*
X15494000Y27368500D01*
X17018000Y29400500D02*
X17018000Y30416500D01*
X15494000Y30416500D02*
X15494000Y29400500D01*
X17018000Y30416500D02*
X15494000Y30416500D01*
X15621000Y27241500D02*
G75*
G03*
X15367000Y27241500I-127000J0D01*
G01*
X15367000Y27241500D02*
G75*
G03*
X15621000Y27241500I127000J0D01*
G01*
%TO.C,R11*%
X11430000Y28702000D02*
X11430000Y30226000D01*
X11430000Y30226000D02*
X10414000Y30226000D01*
X10414000Y28702000D02*
X11430000Y28702000D01*
X9398000Y30226000D02*
X8382000Y30226000D01*
X8382000Y28702000D02*
X9398000Y28702000D01*
X8382000Y30226000D02*
X8382000Y28702000D01*
X11684000Y28702000D02*
G75*
G03*
X11430000Y28702000I-127000J0D01*
G01*
X11430000Y28702000D02*
G75*
G03*
X11684000Y28702000I127000J0D01*
G01*
%TO.C,R12*%
X14224000Y30480000D02*
X12700000Y30480000D01*
X12700000Y30480000D02*
X12700000Y29464000D01*
X14224000Y29464000D02*
X14224000Y30480000D01*
X12700000Y28448000D02*
X12700000Y27432000D01*
X14224000Y27432000D02*
X14224000Y28448000D01*
X12700000Y27432000D02*
X14224000Y27432000D01*
X14351000Y30607000D02*
G75*
G03*
X14097000Y30607000I-127000J0D01*
G01*
X14097000Y30607000D02*
G75*
G03*
X14351000Y30607000I127000J0D01*
G01*
%TO.C,R13*%
X18542000Y31051500D02*
X18542000Y32575500D01*
X18542000Y32575500D02*
X17526000Y32575500D01*
X17526000Y31051500D02*
X18542000Y31051500D01*
X16510000Y32575500D02*
X15494000Y32575500D01*
X15494000Y31051500D02*
X16510000Y31051500D01*
X15494000Y32575500D02*
X15494000Y31051500D01*
X18796000Y31051500D02*
G75*
G03*
X18542000Y31051500I-127000J0D01*
G01*
X18542000Y31051500D02*
G75*
G03*
X18796000Y31051500I127000J0D01*
G01*
%TO.C,R14*%
X25336500Y15240000D02*
X25336500Y16764000D01*
X25336500Y16764000D02*
X24320500Y16764000D01*
X24320500Y15240000D02*
X25336500Y15240000D01*
X23304500Y16764000D02*
X22288500Y16764000D01*
X22288500Y15240000D02*
X23304500Y15240000D01*
X22288500Y16764000D02*
X22288500Y15240000D01*
X25590500Y15240000D02*
G75*
G03*
X25336500Y15240000I-127000J0D01*
G01*
X25336500Y15240000D02*
G75*
G03*
X25590500Y15240000I127000J0D01*
G01*
%TO.C,R15*%
X27495500Y15176500D02*
X25971500Y15176500D01*
X25971500Y15176500D02*
X25971500Y14160500D01*
X27495500Y14160500D02*
X27495500Y15176500D01*
X25971500Y13144500D02*
X25971500Y12128500D01*
X27495500Y12128500D02*
X27495500Y13144500D01*
X25971500Y12128500D02*
X27495500Y12128500D01*
X27622500Y15303500D02*
G75*
G03*
X27368500Y15303500I-127000J0D01*
G01*
X27368500Y15303500D02*
G75*
G03*
X27622500Y15303500I127000J0D01*
G01*
%TO.C,R16*%
X26670000Y25082500D02*
X25146000Y25082500D01*
X25146000Y25082500D02*
X25146000Y24066500D01*
X26670000Y24066500D02*
X26670000Y25082500D01*
X25146000Y23050500D02*
X25146000Y22034500D01*
X26670000Y22034500D02*
X26670000Y23050500D01*
X25146000Y22034500D02*
X26670000Y22034500D01*
X26797000Y25209500D02*
G75*
G03*
X26543000Y25209500I-127000J0D01*
G01*
X26543000Y25209500D02*
G75*
G03*
X26797000Y25209500I127000J0D01*
G01*
%TO.C,R17*%
X23114000Y27495500D02*
X23114000Y25971500D01*
X23114000Y25971500D02*
X24130000Y25971500D01*
X24130000Y27495500D02*
X23114000Y27495500D01*
X25146000Y25971500D02*
X26162000Y25971500D01*
X26162000Y27495500D02*
X25146000Y27495500D01*
X26162000Y25971500D02*
X26162000Y27495500D01*
X23114000Y27495500D02*
G75*
G03*
X22860000Y27495500I-127000J0D01*
G01*
X22860000Y27495500D02*
G75*
G03*
X23114000Y27495500I127000J0D01*
G01*
%TO.C,U1*%
X16552000Y17179000D02*
X21052000Y17179000D01*
X21052000Y17179000D02*
X21052000Y26979000D01*
X16552000Y26979000D02*
X16552000Y17179000D01*
X21052000Y26979000D02*
X16552000Y26979000D01*
%TD*%
M02*
