%TF.GenerationSoftware,KiCad,Pcbnew,7.0.11+1*%
%TF.CreationDate,2024-07-06T19:30:40+00:00*%
%TF.ProjectId,DIG4SW01,44494734-5357-4303-912e-6b696361645f,rev?*%
%TF.SameCoordinates,Original*%
%TF.FileFunction,Paste,Bot*%
%TF.FilePolarity,Positive*%
%FSLAX46Y46*%
G04 Gerber Fmt 4.6, Leading zero omitted, Abs format (unit mm)*
G04 Created by KiCad (PCBNEW 7.0.11+1) date 2024-07-06 19:30:40*
%MOMM*%
%LPD*%
G01*
G04 APERTURE LIST*
%ADD10R,2.550160X2.499360*%
%ADD11R,1.397000X0.889000*%
%ADD12R,2.301240X2.499360*%
%ADD13R,2.499360X2.301240*%
%ADD14R,0.889000X1.397000*%
%ADD15R,1.600000X0.300000*%
%ADD16R,3.100000X5.180000*%
G04 APERTURE END LIST*
D10*
%TO.C,C3*%
X19304000Y14986000D03*
X14254480Y14986000D03*
%TD*%
D11*
%TO.C,C4*%
X10414000Y34607500D03*
X10414000Y36512500D03*
%TD*%
D12*
%TO.C,D1*%
X21981160Y13324840D03*
X21981160Y9027160D03*
%TD*%
D13*
%TO.C,D2*%
X26807160Y9906000D03*
X31104840Y9906000D03*
%TD*%
D12*
%TO.C,D3*%
X29718000Y14361160D03*
X29718000Y18658840D03*
%TD*%
%TO.C,D4*%
X30226000Y25029160D03*
X30226000Y29326840D03*
%TD*%
D13*
%TO.C,D5*%
X22626320Y29972000D03*
X26924000Y29972000D03*
%TD*%
D14*
%TO.C,R1*%
X12255500Y31750000D03*
X14160500Y31750000D03*
%TD*%
%TO.C,R2*%
X10858500Y27432000D03*
X8953500Y27432000D03*
%TD*%
%TO.C,R3*%
X8699500Y31750000D03*
X10604500Y31750000D03*
%TD*%
%TO.C,R4*%
X10795000Y15240000D03*
X8890000Y15240000D03*
%TD*%
%TO.C,R5*%
X10795000Y17272000D03*
X8890000Y17272000D03*
%TD*%
%TO.C,R6*%
X10795000Y19304000D03*
X8890000Y19304000D03*
%TD*%
%TO.C,R7*%
X10858500Y21336000D03*
X8953500Y21336000D03*
%TD*%
%TO.C,R8*%
X10858500Y23368000D03*
X8953500Y23368000D03*
%TD*%
%TO.C,R9*%
X10858500Y25400000D03*
X8953500Y25400000D03*
%TD*%
D11*
%TO.C,R10*%
X16256000Y27940000D03*
X16256000Y29845000D03*
%TD*%
D14*
%TO.C,R11*%
X10858500Y29464000D03*
X8953500Y29464000D03*
%TD*%
D11*
%TO.C,R12*%
X13462000Y29908500D03*
X13462000Y28003500D03*
%TD*%
D14*
%TO.C,R13*%
X17970500Y31813500D03*
X16065500Y31813500D03*
%TD*%
%TO.C,R14*%
X24765000Y16002000D03*
X22860000Y16002000D03*
%TD*%
D11*
%TO.C,R15*%
X26733500Y14605000D03*
X26733500Y12700000D03*
%TD*%
%TO.C,R16*%
X25908000Y24511000D03*
X25908000Y22606000D03*
%TD*%
D14*
%TO.C,R17*%
X23685500Y26733500D03*
X25590500Y26733500D03*
%TD*%
D15*
%TO.C,U1*%
X16002000Y17854000D03*
X16002000Y18504000D03*
X16002000Y19154000D03*
X16002000Y19804000D03*
X16002000Y20454000D03*
X16002000Y21104000D03*
X16002000Y21754000D03*
X16002000Y22404000D03*
X16002000Y23054000D03*
X16002000Y23704000D03*
X16002000Y24354000D03*
X16002000Y25004000D03*
X16002000Y25654000D03*
X16002000Y26304000D03*
X21602000Y26304000D03*
X21602000Y25654000D03*
X21602000Y25004000D03*
X21602000Y24354000D03*
X21602000Y23704000D03*
X21602000Y23054000D03*
X21602000Y22404000D03*
X21602000Y21754000D03*
X21602000Y21104000D03*
X21602000Y20454000D03*
X21602000Y19804000D03*
X21602000Y19154000D03*
X21602000Y18504000D03*
X21602000Y17854000D03*
D16*
X18802000Y22079000D03*
%TD*%
M02*
