%TF.GenerationSoftware,KiCad,Pcbnew,7.0.11+1*%
%TF.CreationDate,2024-07-06T19:30:40+00:00*%
%TF.ProjectId,DIG4SW01,44494734-5357-4303-912e-6b696361645f,rev?*%
%TF.SameCoordinates,Original*%
%TF.FileFunction,Copper,L2,Bot*%
%TF.FilePolarity,Positive*%
%FSLAX46Y46*%
G04 Gerber Fmt 4.6, Leading zero omitted, Abs format (unit mm)*
G04 Created by KiCad (PCBNEW 7.0.11+1) date 2024-07-06 19:30:40*
%MOMM*%
%LPD*%
G01*
G04 APERTURE LIST*
%TA.AperFunction,ComponentPad*%
%ADD10C,6.000000*%
%TD*%
%TA.AperFunction,ComponentPad*%
%ADD11R,3.810000X3.810000*%
%TD*%
%TA.AperFunction,ComponentPad*%
%ADD12R,1.524000X1.524000*%
%TD*%
%TA.AperFunction,SMDPad,CuDef*%
%ADD13R,2.550160X2.499360*%
%TD*%
%TA.AperFunction,SMDPad,CuDef*%
%ADD14R,1.397000X0.889000*%
%TD*%
%TA.AperFunction,SMDPad,CuDef*%
%ADD15R,2.301240X2.499360*%
%TD*%
%TA.AperFunction,SMDPad,CuDef*%
%ADD16R,2.499360X2.301240*%
%TD*%
%TA.AperFunction,SMDPad,CuDef*%
%ADD17R,0.889000X1.397000*%
%TD*%
%TA.AperFunction,SMDPad,CuDef*%
%ADD18R,1.600000X0.300000*%
%TD*%
%TA.AperFunction,ComponentPad*%
%ADD19C,0.800000*%
%TD*%
%TA.AperFunction,SMDPad,CuDef*%
%ADD20R,3.100000X5.180000*%
%TD*%
%TA.AperFunction,ViaPad*%
%ADD21C,0.800000*%
%TD*%
%TA.AperFunction,Conductor*%
%ADD22C,0.300000*%
%TD*%
%TA.AperFunction,Conductor*%
%ADD23C,0.250000*%
%TD*%
%TA.AperFunction,Conductor*%
%ADD24C,0.400000*%
%TD*%
%TA.AperFunction,Conductor*%
%ADD25C,1.000000*%
%TD*%
G04 APERTURE END LIST*
D10*
%TO.P,M1,1*%
%TO.N,GND*%
X5080000Y5080000D03*
%TD*%
%TO.P,M2,1*%
%TO.N,GND*%
X35560000Y5080000D03*
%TD*%
%TO.P,M3,1*%
%TO.N,GND*%
X35560000Y35560000D03*
%TD*%
%TO.P,M4,1*%
%TO.N,GND*%
X5080000Y35560000D03*
%TD*%
D11*
%TO.P,J1,1*%
%TO.N,VCC*%
X17018000Y5414000D03*
X17018000Y10414000D03*
%TD*%
%TO.P,J2,1*%
%TO.N,GND*%
X11938000Y5414000D03*
X11938000Y10414000D03*
%TD*%
D12*
%TO.P,J4,1*%
%TO.N,/#FAULT*%
X3810000Y28956000D03*
%TO.P,J4,2*%
X6350000Y28956000D03*
%TD*%
%TO.P,J5,1*%
%TO.N,/CS*%
X13208000Y34798000D03*
%TO.P,J5,2*%
X13208000Y37338000D03*
%TD*%
%TO.P,J6,1*%
%TO.N,/IN1*%
X3810000Y13716000D03*
%TO.P,J6,2*%
X6350000Y13716000D03*
%TD*%
%TO.P,J7,1*%
%TO.N,/IN2*%
X3810000Y16256000D03*
%TO.P,J7,2*%
X6350000Y16256000D03*
%TD*%
%TO.P,J8,1*%
%TO.N,/IN3*%
X3810000Y18796000D03*
%TO.P,J8,2*%
X6350000Y18796000D03*
%TD*%
%TO.P,J9,1*%
%TO.N,/IN4*%
X3810000Y21336000D03*
%TO.P,J9,2*%
X6350000Y21336000D03*
%TD*%
%TO.P,J10,1*%
%TO.N,/SEH*%
X3810000Y23876000D03*
%TO.P,J10,2*%
X6350000Y23876000D03*
%TD*%
%TO.P,J11,1*%
%TO.N,/SEL*%
X3810000Y26416000D03*
%TO.P,J11,2*%
X6350000Y26416000D03*
%TD*%
%TO.P,J12,1*%
%TO.N,/DIAG_EN*%
X18288000Y34798000D03*
%TO.P,J12,2*%
X18288000Y37338000D03*
%TD*%
%TO.P,J13,1*%
%TO.N,/THER*%
X15748000Y34798000D03*
%TO.P,J13,2*%
X15748000Y37338000D03*
%TD*%
%TO.P,J14,1*%
%TO.N,GND*%
X21590000Y3556000D03*
%TO.P,J14,2*%
X21590000Y6096000D03*
%TO.P,J14,3*%
%TO.N,/OUT1*%
X24130000Y3556000D03*
%TO.P,J14,4*%
X24130000Y6096000D03*
%TO.P,J14,5*%
X26670000Y3556000D03*
%TO.P,J14,6*%
X26670000Y6096000D03*
%TO.P,J14,7*%
%TO.N,GND*%
X29210000Y3556000D03*
%TO.P,J14,8*%
X29210000Y6096000D03*
%TD*%
%TO.P,J15,1*%
%TO.N,GND*%
X34290000Y18542000D03*
%TO.P,J15,2*%
X36830000Y18542000D03*
%TO.P,J15,3*%
%TO.N,/OUT2*%
X34290000Y16002000D03*
%TO.P,J15,4*%
X36830000Y16002000D03*
%TO.P,J15,5*%
X34290000Y13462000D03*
%TO.P,J15,6*%
X36830000Y13462000D03*
%TO.P,J15,7*%
%TO.N,GND*%
X34290000Y10922000D03*
%TO.P,J15,8*%
X36830000Y10922000D03*
%TD*%
%TO.P,J16,1*%
%TO.N,GND*%
X34290000Y29718000D03*
%TO.P,J16,2*%
X36830000Y29718000D03*
%TO.P,J16,3*%
%TO.N,/OUT3*%
X34290000Y27178000D03*
%TO.P,J16,4*%
X36830000Y27178000D03*
%TO.P,J16,5*%
X34290000Y24638000D03*
%TO.P,J16,6*%
X36830000Y24638000D03*
%TO.P,J16,7*%
%TO.N,GND*%
X34290000Y22098000D03*
%TO.P,J16,8*%
X36830000Y22098000D03*
%TD*%
%TO.P,J17,1*%
%TO.N,GND*%
X21590000Y34290000D03*
%TO.P,J17,2*%
X21590000Y36830000D03*
%TO.P,J17,3*%
%TO.N,/OUT4*%
X24130000Y34290000D03*
%TO.P,J17,4*%
X24130000Y36830000D03*
%TO.P,J17,5*%
X26670000Y34290000D03*
%TO.P,J17,6*%
X26670000Y36830000D03*
%TO.P,J17,7*%
%TO.N,GND*%
X29210000Y34290000D03*
%TO.P,J17,8*%
X29210000Y36830000D03*
%TD*%
%TO.P,J3,1*%
%TO.N,VCC*%
X28448000Y21590000D03*
%TO.P,J3,2*%
%TO.N,GND*%
X30988000Y21590000D03*
%TD*%
%TO.P,J18,1*%
%TO.N,GND*%
X3810000Y11176000D03*
%TO.P,J18,2*%
X6350000Y11176000D03*
%TD*%
D13*
%TO.P,C3,1*%
%TO.N,VCC*%
X19304000Y14986000D03*
%TO.P,C3,2*%
%TO.N,GND*%
X14254480Y14986000D03*
%TD*%
D14*
%TO.P,C4,1*%
%TO.N,/CS*%
X10414000Y34607500D03*
%TO.P,C4,2*%
%TO.N,GND*%
X10414000Y36512500D03*
%TD*%
D15*
%TO.P,D1,1*%
%TO.N,VCC*%
X21981160Y13324840D03*
%TO.P,D1,2*%
%TO.N,GND*%
X21981160Y9027160D03*
%TD*%
D16*
%TO.P,D2,1*%
%TO.N,/OUT1*%
X26807160Y9906000D03*
%TO.P,D2,2*%
%TO.N,GND*%
X31104840Y9906000D03*
%TD*%
D15*
%TO.P,D3,1*%
%TO.N,/OUT2*%
X29718000Y14361160D03*
%TO.P,D3,2*%
%TO.N,GND*%
X29718000Y18658840D03*
%TD*%
%TO.P,D4,1*%
%TO.N,/OUT3*%
X30226000Y25029160D03*
%TO.P,D4,2*%
%TO.N,GND*%
X30226000Y29326840D03*
%TD*%
D16*
%TO.P,D5,1*%
%TO.N,/OUT4*%
X22626320Y29972000D03*
%TO.P,D5,2*%
%TO.N,GND*%
X26924000Y29972000D03*
%TD*%
D17*
%TO.P,R1,1*%
%TO.N,Net-(R1-Pad1)*%
X12255500Y31750000D03*
%TO.P,R1,2*%
%TO.N,/CS*%
X14160500Y31750000D03*
%TD*%
%TO.P,R2,1*%
%TO.N,Net-(R11-Pad1)*%
X10858500Y27432000D03*
%TO.P,R2,2*%
%TO.N,/#FAULT*%
X8953500Y27432000D03*
%TD*%
%TO.P,R3,1*%
%TO.N,GND*%
X8699500Y31750000D03*
%TO.P,R3,2*%
%TO.N,Net-(R1-Pad1)*%
X10604500Y31750000D03*
%TD*%
%TO.P,R4,1*%
%TO.N,Net-(R4-Pad1)*%
X10795000Y15240000D03*
%TO.P,R4,2*%
%TO.N,/IN1*%
X8890000Y15240000D03*
%TD*%
%TO.P,R5,1*%
%TO.N,Net-(R5-Pad1)*%
X10795000Y17272000D03*
%TO.P,R5,2*%
%TO.N,/IN2*%
X8890000Y17272000D03*
%TD*%
%TO.P,R6,1*%
%TO.N,Net-(R6-Pad1)*%
X10795000Y19304000D03*
%TO.P,R6,2*%
%TO.N,/IN3*%
X8890000Y19304000D03*
%TD*%
%TO.P,R7,1*%
%TO.N,Net-(R7-Pad1)*%
X10858500Y21336000D03*
%TO.P,R7,2*%
%TO.N,/IN4*%
X8953500Y21336000D03*
%TD*%
%TO.P,R8,1*%
%TO.N,Net-(R8-Pad1)*%
X10858500Y23368000D03*
%TO.P,R8,2*%
%TO.N,/SEH*%
X8953500Y23368000D03*
%TD*%
%TO.P,R9,1*%
%TO.N,Net-(R9-Pad1)*%
X10858500Y25400000D03*
%TO.P,R9,2*%
%TO.N,/SEL*%
X8953500Y25400000D03*
%TD*%
D14*
%TO.P,R10,1*%
%TO.N,Net-(R10-Pad1)*%
X16256000Y27940000D03*
%TO.P,R10,2*%
%TO.N,/DIAG_EN*%
X16256000Y29845000D03*
%TD*%
D17*
%TO.P,R11,1*%
%TO.N,Net-(R11-Pad1)*%
X10858500Y29464000D03*
%TO.P,R11,2*%
%TO.N,VCC*%
X8953500Y29464000D03*
%TD*%
D14*
%TO.P,R12,1*%
%TO.N,GND*%
X13462000Y29908500D03*
%TO.P,R12,2*%
%TO.N,Net-(R12-Pad2)*%
X13462000Y28003500D03*
%TD*%
D17*
%TO.P,R13,1*%
%TO.N,GND*%
X17970500Y31813500D03*
%TO.P,R13,2*%
%TO.N,/THER*%
X16065500Y31813500D03*
%TD*%
%TO.P,R14,1*%
%TO.N,/OUT1*%
X24765000Y16002000D03*
%TO.P,R14,2*%
%TO.N,VCC*%
X22860000Y16002000D03*
%TD*%
D14*
%TO.P,R15,1*%
%TO.N,/OUT2*%
X26733500Y14605000D03*
%TO.P,R15,2*%
%TO.N,VCC*%
X26733500Y12700000D03*
%TD*%
%TO.P,R16,1*%
%TO.N,/OUT3*%
X25908000Y24511000D03*
%TO.P,R16,2*%
%TO.N,VCC*%
X25908000Y22606000D03*
%TD*%
D17*
%TO.P,R17,1*%
%TO.N,/OUT4*%
X23685500Y26733500D03*
%TO.P,R17,2*%
%TO.N,VCC*%
X25590500Y26733500D03*
%TD*%
D18*
%TO.P,U1,1*%
%TO.N,GND*%
X16002000Y17854000D03*
%TO.P,U1,2*%
%TO.N,N/C*%
X16002000Y18504000D03*
%TO.P,U1,3*%
%TO.N,Net-(R4-Pad1)*%
X16002000Y19154000D03*
%TO.P,U1,4*%
%TO.N,Net-(R5-Pad1)*%
X16002000Y19804000D03*
%TO.P,U1,5*%
%TO.N,Net-(R6-Pad1)*%
X16002000Y20454000D03*
%TO.P,U1,6*%
%TO.N,Net-(R7-Pad1)*%
X16002000Y21104000D03*
%TO.P,U1,7*%
%TO.N,Net-(R8-Pad1)*%
X16002000Y21754000D03*
%TO.P,U1,8*%
%TO.N,Net-(R9-Pad1)*%
X16002000Y22404000D03*
%TO.P,U1,9*%
%TO.N,Net-(R11-Pad1)*%
X16002000Y23054000D03*
%TO.P,U1,10*%
%TO.N,Net-(R1-Pad1)*%
X16002000Y23704000D03*
%TO.P,U1,11*%
%TO.N,Net-(R12-Pad2)*%
X16002000Y24354000D03*
%TO.P,U1,12*%
%TO.N,GND*%
X16002000Y25004000D03*
%TO.P,U1,13*%
%TO.N,/THER*%
X16002000Y25654000D03*
%TO.P,U1,14*%
%TO.N,Net-(R10-Pad1)*%
X16002000Y26304000D03*
%TO.P,U1,15*%
%TO.N,/OUT4*%
X21602000Y26304000D03*
%TO.P,U1,16*%
X21602000Y25654000D03*
%TO.P,U1,17*%
%TO.N,/OUT3*%
X21602000Y25004000D03*
%TO.P,U1,18*%
X21602000Y24354000D03*
%TO.P,U1,19*%
%TO.N,N/C*%
X21602000Y23704000D03*
%TO.P,U1,20*%
%TO.N,VCC*%
X21602000Y23054000D03*
%TO.P,U1,21*%
X21602000Y22404000D03*
%TO.P,U1,22*%
X21602000Y21754000D03*
%TO.P,U1,23*%
X21602000Y21104000D03*
%TO.P,U1,24*%
%TO.N,N/C*%
X21602000Y20454000D03*
%TO.P,U1,25*%
%TO.N,/OUT2*%
X21602000Y19804000D03*
%TO.P,U1,26*%
X21602000Y19154000D03*
%TO.P,U1,27*%
%TO.N,/OUT1*%
X21602000Y18504000D03*
%TO.P,U1,28*%
X21602000Y17854000D03*
D19*
%TO.P,U1,29*%
%TO.N,GND*%
X17595500Y20047000D03*
X18802000Y20047000D03*
X20008500Y20047000D03*
X17595500Y21063000D03*
X18802000Y21063000D03*
X20008500Y21063000D03*
X17595500Y22079000D03*
X18802000Y22079000D03*
D20*
X18802000Y22079000D03*
D19*
X20008500Y22079000D03*
X17595500Y23095000D03*
X18802000Y23095000D03*
X20008500Y23095000D03*
X17595500Y24111000D03*
X18802000Y24111000D03*
X19995800Y24111000D03*
%TD*%
D21*
%TO.N,GND*%
X18796000Y18796000D03*
X31242000Y37084000D03*
X27686000Y39116000D03*
X30480000Y31750000D03*
X18034000Y29464000D03*
X18542000Y2540000D03*
X19558000Y32512000D03*
X33020000Y31750000D03*
X19812000Y18796000D03*
X39116000Y14478000D03*
X29210000Y32766000D03*
X25146000Y39116000D03*
X6096000Y9652000D03*
X7112000Y9652002D03*
X18796000Y17526000D03*
X18796000Y25400000D03*
X6096000Y8636000D03*
X30734000Y39116000D03*
X29210000Y1524000D03*
X18034000Y1524000D03*
X38354000Y20320000D03*
X31242000Y5842000D03*
X20320000Y31496000D03*
X8128000Y9144000D03*
X31242000Y35814000D03*
X20874000Y32512000D03*
X19304000Y28448000D03*
X7620000Y12192000D03*
X39116000Y10414000D03*
X13462000Y16510000D03*
X19812000Y6604000D03*
X39116000Y12446000D03*
X36322000Y20320000D03*
X19812000Y5334000D03*
X22860000Y11176000D03*
X19812000Y25400000D03*
X19304000Y31496000D03*
X39116000Y29718000D03*
X14732000Y16510000D03*
X39116000Y32766000D03*
X38862000Y19050000D03*
X20828000Y10922000D03*
X16002000Y15240000D03*
X27431984Y28194000D03*
X31750000Y31750000D03*
X12446000Y15494000D03*
X7112000Y8636000D03*
X31750000Y17526000D03*
X12446000Y13208000D03*
X39116000Y31496000D03*
X10160000Y13716000D03*
X32512000Y18288000D03*
X8128006Y11176000D03*
X20066000Y1524000D03*
X8128000Y10160000D03*
X20320000Y29464000D03*
X17018000Y16510000D03*
X32512000Y19812000D03*
X31242000Y2794000D03*
X38862000Y18034000D03*
X18034000Y30480000D03*
X31242000Y34290000D03*
X39116000Y15494000D03*
X17780000Y18796000D03*
X31242000Y4826000D03*
X39116000Y11430000D03*
X17780000Y26416000D03*
X17780000Y17526000D03*
X39116000Y13462000D03*
X30988000Y11684000D03*
X17780000Y25400000D03*
X18034000Y28448000D03*
X25146000Y28702000D03*
X22606000Y1524000D03*
X35052000Y20320000D03*
X12446000Y14224000D03*
X29210000Y31750000D03*
X20320000Y30480000D03*
X19304000Y29464000D03*
X24892000Y29972000D03*
X26416000Y39116000D03*
X20320000Y28448000D03*
X8128000Y8127994D03*
X31496000Y1524000D03*
X18796000Y26416000D03*
X19812000Y4064000D03*
X31242000Y3810000D03*
X13462000Y29464000D03*
X33782000Y20320000D03*
X18034000Y27432000D03*
X19812000Y17526000D03*
X29210000Y39116000D03*
X37338000Y20320000D03*
X13716000Y13208000D03*
X19050000Y1524000D03*
X21844000Y38862000D03*
X38862000Y22098000D03*
X30480000Y1524000D03*
X39116000Y16764000D03*
X19812000Y2540000D03*
X11176000Y13208000D03*
X5080000Y9652000D03*
X27940000Y26670000D03*
X16002000Y16510000D03*
X31242000Y7366000D03*
X19304000Y30480000D03*
X23876000Y39116000D03*
X17018000Y15240000D03*
X29210000Y11430000D03*
X21336000Y1524000D03*
X20066000Y8128000D03*
X19304000Y27432000D03*
X32258000Y33020000D03*
X31242000Y33020000D03*
X19812000Y26416000D03*
X32766000Y11684000D03*
%TO.N,VCC*%
X24384000Y20828000D03*
X6858000Y31242000D03*
X25400000Y22860000D03*
X24384000Y22860000D03*
X23368000Y21844000D03*
X26416000Y21844000D03*
X26416000Y22860000D03*
X26416000Y13208000D03*
X23368000Y20828000D03*
X26670000Y26670000D03*
X25400000Y21844000D03*
X25400000Y20828000D03*
X24384000Y21844000D03*
X26416000Y20828000D03*
X23368000Y22860000D03*
%TD*%
D22*
%TO.N,GND*%
X19558000Y32512000D02*
X20874000Y32512000D01*
X39116000Y11430000D02*
X39116000Y10414000D01*
D23*
X14732000Y16510000D02*
X13462000Y16510000D01*
D22*
X34036000Y22098000D02*
X34036000Y20574000D01*
X31242000Y33020000D02*
X31242000Y34290000D01*
X38354000Y19558000D02*
X38862000Y19050000D01*
X31242000Y35814000D02*
X31242000Y37084000D01*
X19304000Y29464000D02*
X20320000Y29464000D01*
X31496000Y1524000D02*
X31496000Y2540000D01*
X18796000Y24638000D02*
X17780000Y24638000D01*
D23*
X19812000Y2540000D02*
X19812000Y4064000D01*
D24*
X17202000Y17854000D02*
X17382000Y18034000D01*
D23*
X20066000Y1524000D02*
X19050000Y1524000D01*
D22*
X39116000Y15494000D02*
X39116000Y14478000D01*
X20320000Y28448000D02*
X19304000Y28448000D01*
X31242000Y3810000D02*
X31242000Y4826000D01*
D23*
X38866000Y32766000D02*
X39116000Y32766000D01*
X11176000Y13208000D02*
X10668000Y13208000D01*
D22*
X19812000Y25400000D02*
X19812000Y24638000D01*
D23*
X7112000Y9652002D02*
X7112000Y8636000D01*
D22*
X27940000Y26941780D02*
X27940000Y26670000D01*
X30226000Y29326840D02*
X30226000Y29227780D01*
X30226000Y29326840D02*
X30226000Y30734000D01*
X30988000Y11684000D02*
X32766000Y11684000D01*
X19304000Y27432000D02*
X19304000Y26924000D01*
X21590000Y38608000D02*
X21844000Y38862000D01*
X19304000Y26924000D02*
X19812000Y26416000D01*
X38862000Y17018000D02*
X39116000Y16764000D01*
X37338000Y20320000D02*
X38354000Y20320000D01*
X23876000Y39116000D02*
X25146000Y39116000D01*
D23*
X17780000Y18796000D02*
X18796000Y18796000D01*
D24*
X17382000Y18034000D02*
X17747000Y18034000D01*
X16002000Y17854000D02*
X17202000Y17854000D01*
X17747000Y18034000D02*
X18802000Y19089000D01*
D22*
X38862000Y18034000D02*
X38862000Y17018000D01*
X30480000Y31750000D02*
X31750000Y31750000D01*
X38354000Y20320000D02*
X38354000Y19558000D01*
D23*
X16002000Y15240000D02*
X16002000Y16510000D01*
D22*
X18796000Y26416000D02*
X17780000Y26416000D01*
D23*
X36830000Y30730000D02*
X38866000Y32766000D01*
D22*
X13462000Y29908500D02*
X13462000Y29464000D01*
X29210000Y1524000D02*
X30480000Y1524000D01*
X33020000Y32258000D02*
X32258000Y33020000D01*
D23*
X18796000Y17526000D02*
X17780000Y17526000D01*
D22*
X17780000Y25400000D02*
X18796000Y25400000D01*
D23*
X8128006Y11176000D02*
X7620000Y11684006D01*
D22*
X18034000Y28448000D02*
X18034000Y27432000D01*
D23*
X21981160Y10526840D02*
X21586000Y10922000D01*
X21586000Y10922000D02*
X20828000Y10922000D01*
D22*
X29210000Y39116000D02*
X30734000Y39116000D01*
X26924000Y29972000D02*
X26416000Y29972000D01*
D23*
X18034000Y1524000D02*
X18034000Y2032000D01*
D24*
X17202000Y25004000D02*
X18802000Y23404000D01*
D22*
X35052000Y20320000D02*
X36322000Y20320000D01*
D23*
X12446000Y15494000D02*
X12446000Y14224000D01*
X7620000Y11684006D02*
X7620000Y12192000D01*
D22*
X31104840Y9906000D02*
X30734000Y9906000D01*
D23*
X21981160Y9027160D02*
X21981160Y10526840D01*
D22*
X31496000Y2540000D02*
X31242000Y2794000D01*
X20320000Y31496000D02*
X19304000Y31496000D01*
D23*
X19812000Y18796000D02*
X19812000Y17526000D01*
X39116000Y31496000D02*
X39116000Y29718000D01*
X8127994Y8127994D02*
X8128000Y8127994D01*
D22*
X32141160Y18658840D02*
X32512000Y18288000D01*
D24*
X18802000Y23404000D02*
X18802000Y22079000D01*
D22*
X33020000Y31750000D02*
X33020000Y32258000D01*
D23*
X18034000Y2032000D02*
X18542000Y2540000D01*
D22*
X26416000Y39116000D02*
X27686000Y39116000D01*
D23*
X10668000Y13208000D02*
X10160000Y13716000D01*
D22*
X31242000Y4826000D02*
X31242000Y5842000D01*
X30734000Y9906000D02*
X29210000Y11430000D01*
X26416000Y29972000D02*
X25146000Y28702000D01*
X30226000Y30734000D02*
X29210000Y31750000D01*
X39116000Y13462000D02*
X39116000Y12446000D01*
D23*
X22606000Y1524000D02*
X21336000Y1524000D01*
X36830000Y29718000D02*
X36830000Y30730000D01*
D24*
X16002000Y25004000D02*
X17202000Y25004000D01*
D23*
X12446000Y13208000D02*
X13716000Y13208000D01*
D22*
X29718000Y18658840D02*
X32141160Y18658840D01*
D24*
X18802000Y19089000D02*
X18802000Y22079000D01*
D23*
X6096000Y8636000D02*
X6096000Y9652000D01*
D22*
X34036000Y20574000D02*
X33782000Y20320000D01*
D23*
X17018000Y16510000D02*
X17018000Y15240000D01*
X8128000Y10160000D02*
X8128000Y9144000D01*
D22*
X30226000Y29227780D02*
X27940000Y26941780D01*
X19050000Y31496000D02*
X19304000Y31496000D01*
D23*
X5080000Y5080000D02*
X8127994Y8127994D01*
X19812000Y5334000D02*
X19812000Y6604000D01*
D22*
X20320000Y30480000D02*
X19304000Y30480000D01*
X18034000Y30480000D02*
X18034000Y29464000D01*
X21590000Y36830000D02*
X21590000Y38608000D01*
%TO.N,VCC*%
X25590500Y26733500D02*
X26606500Y26733500D01*
X22912000Y22404000D02*
X23368000Y22860000D01*
X18669000Y8763000D02*
X17018000Y10414000D01*
X24384000Y20828000D02*
X25400000Y20828000D01*
X26416000Y22860000D02*
X26416000Y21844000D01*
D25*
X19304000Y12700000D02*
X17018000Y10414000D01*
D22*
X26733500Y12890500D02*
X26416000Y13208000D01*
X28257500Y21526500D02*
X26733500Y21526500D01*
X24384000Y22860000D02*
X25400000Y22860000D01*
D25*
X19304000Y14986000D02*
X19304000Y12700000D01*
D24*
X8953500Y29464000D02*
X8636000Y29464000D01*
D22*
X21602000Y22404000D02*
X22912000Y22404000D01*
D24*
X8636000Y29464000D02*
X6858000Y31242000D01*
D22*
X23368000Y21844000D02*
X23368000Y20828000D01*
X26733500Y12700000D02*
X26733500Y12890500D01*
X25400000Y21844000D02*
X24384000Y21844000D01*
X26733500Y21526500D02*
X26416000Y21844000D01*
X26606500Y26733500D02*
X26670000Y26670000D01*
%TO.N,/IN1*%
X6350000Y13716000D02*
X3810000Y13716000D01*
X7874000Y15240000D02*
X6350000Y13716000D01*
X8890000Y15240000D02*
X7874000Y15240000D01*
%TO.N,/IN2*%
X3810000Y16256000D02*
X6350000Y16256000D01*
X8890000Y17272000D02*
X7366000Y17272000D01*
X7366000Y17272000D02*
X6350000Y16256000D01*
%TO.N,/OUT1*%
X21602000Y17854000D02*
X21602000Y18504000D01*
%TO.N,Net-(R1-Pad1)*%
X10604500Y31750000D02*
X12255500Y31750000D01*
X13544000Y23704000D02*
X13260010Y23987990D01*
X16002000Y23704000D02*
X13544000Y23704000D01*
X13260010Y25601990D02*
X12255500Y26606500D01*
X12255500Y26606500D02*
X12255500Y31750000D01*
X13260010Y23987990D02*
X13260010Y25601990D01*
%TO.N,/CS*%
X14160500Y33845500D02*
X13208000Y34798000D01*
X13017500Y34607500D02*
X13208000Y34798000D01*
X10414000Y34607500D02*
X13017500Y34607500D01*
X14160500Y31750000D02*
X14160500Y33845500D01*
X13208000Y37338000D02*
X13208000Y34798000D01*
%TO.N,/OUT3*%
X30162500Y24203660D02*
X30226000Y24267160D01*
%TO.N,/OUT4*%
X21602000Y25654000D02*
X21602000Y26304000D01*
%TO.N,/#FAULT*%
X8953500Y27432000D02*
X7874000Y27432000D01*
X3810000Y28956000D02*
X6350000Y28956000D01*
X7874000Y27432000D02*
X6350000Y28956000D01*
%TO.N,/IN3*%
X8890000Y19304000D02*
X6858000Y19304000D01*
X6858000Y19304000D02*
X6350000Y18796000D01*
X3810000Y18796000D02*
X6350000Y18796000D01*
%TO.N,/IN4*%
X3810000Y21336000D02*
X6350000Y21336000D01*
X8953500Y21336000D02*
X6350000Y21336000D01*
%TO.N,/SEH*%
X8953500Y23368000D02*
X6858000Y23368000D01*
X6858000Y23368000D02*
X6350000Y23876000D01*
X3810000Y23876000D02*
X6350000Y23876000D01*
%TO.N,/SEL*%
X7366000Y25400000D02*
X6350000Y26416000D01*
X3810000Y26416000D02*
X6350000Y26416000D01*
X8953500Y25400000D02*
X7366000Y25400000D01*
%TO.N,/DIAG_EN*%
X16256000Y29845000D02*
X16510000Y29845000D01*
X16510000Y29845000D02*
X17018000Y30353000D01*
X17018000Y33528000D02*
X18288000Y34798000D01*
X18288000Y34798000D02*
X18288000Y37338000D01*
X17018000Y30353000D02*
X17018000Y33528000D01*
%TO.N,/THER*%
X15748000Y34798000D02*
X15748000Y37338000D01*
X14902000Y25654000D02*
X14478000Y26078000D01*
X14986000Y30480000D02*
X16065500Y31559500D01*
X14478000Y26924000D02*
X14986000Y27432000D01*
X14986000Y27432000D02*
X14986000Y30480000D01*
X16002000Y25654000D02*
X14902000Y25654000D01*
X16065500Y31813500D02*
X16065500Y34480500D01*
X16065500Y31559500D02*
X16065500Y31813500D01*
X16065500Y34480500D02*
X15748000Y34798000D01*
X14478000Y26078000D02*
X14478000Y26924000D01*
%TO.N,Net-(R11-Pad1)*%
X12760000Y23502000D02*
X13208000Y23054000D01*
X10858500Y27432000D02*
X10858500Y29464000D01*
X10858500Y27432000D02*
X10858500Y27178000D01*
X13208000Y23054000D02*
X16002000Y23054000D01*
X12760000Y25276500D02*
X12760000Y23502000D01*
X10858500Y27097500D02*
X10858500Y27432000D01*
X10858500Y27178000D02*
X12760000Y25276500D01*
%TO.N,Net-(R4-Pad1)*%
X10795000Y15494000D02*
X10795000Y15240000D01*
X16002000Y19154000D02*
X14455000Y19154000D01*
X14455000Y19154000D02*
X10795000Y15494000D01*
%TO.N,Net-(R5-Pad1)*%
X10795000Y17526000D02*
X10795000Y17272000D01*
X13073000Y19804000D02*
X10795000Y17526000D01*
X16002000Y19804000D02*
X13073000Y19804000D01*
%TO.N,Net-(R6-Pad1)*%
X10795000Y19558000D02*
X10795000Y19304000D01*
X16002000Y20454000D02*
X11691000Y20454000D01*
X11691000Y20454000D02*
X10795000Y19558000D01*
%TO.N,Net-(R7-Pad1)*%
X11090500Y21104000D02*
X10858500Y21336000D01*
X16002000Y21104000D02*
X11090500Y21104000D01*
%TO.N,Net-(R8-Pad1)*%
X10858500Y23114000D02*
X10858500Y23368000D01*
X12218500Y21754000D02*
X10858500Y23114000D01*
X16002000Y21754000D02*
X12218500Y21754000D01*
%TO.N,Net-(R9-Pad1)*%
X16002000Y22404000D02*
X12394000Y22404000D01*
X12394000Y22404000D02*
X11938000Y22860000D01*
X11938000Y22860000D02*
X11938000Y24066500D01*
X10858500Y25400000D02*
X10858500Y25146000D01*
D23*
X11938000Y24066500D02*
X11874500Y24130000D01*
D22*
X10858500Y25146000D02*
X11874500Y24130000D01*
%TO.N,Net-(R10-Pad1)*%
X16002000Y26304000D02*
X16002000Y27686000D01*
X16002000Y27686000D02*
X16256000Y27940000D01*
%TO.N,Net-(R12-Pad2)*%
X13462000Y27259000D02*
X13462000Y28003500D01*
X14298020Y24354000D02*
X13760020Y24892000D01*
X16002000Y24354000D02*
X14298020Y24354000D01*
X13760020Y26960980D02*
X13462000Y27259000D01*
X13760020Y24892000D02*
X13760020Y26960980D01*
%TD*%
%TA.AperFunction,Conductor*%
%TO.N,VCC*%
G36*
X23310121Y16235998D02*
G01*
X23356614Y16182342D01*
X23368000Y16130000D01*
X23368000Y12064000D01*
X23347998Y11995879D01*
X23294342Y11949386D01*
X23242000Y11938000D01*
X19050000Y11938000D01*
X19050000Y8762000D01*
X19029998Y8693879D01*
X18976342Y8647386D01*
X18924000Y8636000D01*
X15366000Y8636000D01*
X15297879Y8656002D01*
X15251386Y8709658D01*
X15240000Y8762000D01*
X15240000Y12066000D01*
X15260002Y12134121D01*
X15313658Y12180614D01*
X15366000Y12192000D01*
X16510001Y12192000D01*
X18033999Y13715998D01*
X18034000Y13716000D01*
X18034000Y16130000D01*
X18054002Y16198121D01*
X18107658Y16244614D01*
X18160000Y16256000D01*
X23242000Y16256000D01*
X23310121Y16235998D01*
G37*
%TD.AperFunction*%
%TD*%
%TA.AperFunction,Conductor*%
%TO.N,VCC*%
G36*
X26939931Y23347998D02*
G01*
X26960905Y23331095D01*
X27939998Y22352000D01*
X27940000Y22352000D01*
X29084000Y22352000D01*
X29152121Y22331998D01*
X29198614Y22278342D01*
X29210000Y22226000D01*
X29210000Y20954000D01*
X29189998Y20885879D01*
X29136342Y20839386D01*
X29084000Y20828000D01*
X27432000Y20828000D01*
X26960903Y20356903D01*
X26898593Y20322880D01*
X26871810Y20320000D01*
X26603153Y20320000D01*
X26546046Y20333685D01*
X26538966Y20337284D01*
X26520254Y20346799D01*
X26452133Y20366801D01*
X26452121Y20366802D01*
X26452120Y20366803D01*
X26424068Y20370836D01*
X26363812Y20379499D01*
X26363811Y20379500D01*
X26363810Y20379500D01*
X23106690Y20379500D01*
X23038569Y20399502D01*
X23017599Y20416400D01*
X22606000Y20828000D01*
X22605999Y20828000D01*
X22592233Y20841766D01*
X22583106Y20847864D01*
X22574765Y20856206D01*
X22471991Y20901585D01*
X22446865Y20904500D01*
X20953999Y20904499D01*
X20885879Y20924501D01*
X20839386Y20978157D01*
X20828000Y21030499D01*
X20828000Y23127500D01*
X20848002Y23195621D01*
X20901658Y23242114D01*
X20954000Y23253500D01*
X22446859Y23253500D01*
X22446866Y23253501D01*
X22471990Y23256414D01*
X22471994Y23256416D01*
X22574764Y23301793D01*
X22588635Y23315664D01*
X22604066Y23331095D01*
X22666376Y23365120D01*
X22693161Y23368000D01*
X26871810Y23368000D01*
X26939931Y23347998D01*
G37*
%TD.AperFunction*%
%TD*%
%TA.AperFunction,Conductor*%
%TO.N,/OUT4*%
G36*
X27628121Y37825998D02*
G01*
X27674614Y37772342D01*
X27686000Y37720000D01*
X27686000Y33072190D01*
X27665998Y33004069D01*
X27649095Y32983095D01*
X27214905Y32548905D01*
X27152593Y32514879D01*
X27125810Y32512000D01*
X25146000Y32512000D01*
X25145998Y32511999D01*
X23876000Y31242001D01*
X23876000Y25960190D01*
X23855998Y25892069D01*
X23839095Y25871095D01*
X23664405Y25696405D01*
X23602093Y25662379D01*
X23575310Y25659500D01*
X22485296Y25659500D01*
X22471827Y25660222D01*
X22450638Y25662500D01*
X20954000Y25662500D01*
X20885879Y25682502D01*
X20839386Y25736158D01*
X20828000Y25788500D01*
X20828000Y27125809D01*
X20848002Y27193930D01*
X20864905Y27214904D01*
X21335999Y27685998D01*
X21336000Y27686000D01*
X21336000Y31189809D01*
X21356002Y31257930D01*
X21372905Y31278904D01*
X23113999Y33019998D01*
X23114000Y33020000D01*
X23114000Y37720000D01*
X23134002Y37788121D01*
X23187658Y37834614D01*
X23240000Y37846000D01*
X27560000Y37846000D01*
X27628121Y37825998D01*
G37*
%TD.AperFunction*%
%TD*%
%TA.AperFunction,Conductor*%
%TO.N,/OUT2*%
G36*
X26431931Y20045998D02*
G01*
X26452905Y20029095D01*
X27649095Y18832905D01*
X27683121Y18770593D01*
X27686000Y18743810D01*
X27686000Y16763998D01*
X28447998Y16002000D01*
X28448000Y16002000D01*
X31750000Y16002000D01*
X32475096Y16727096D01*
X32537407Y16761120D01*
X32564190Y16764000D01*
X37466000Y16764000D01*
X37534121Y16743998D01*
X37580614Y16690342D01*
X37592000Y16638000D01*
X37592000Y12826000D01*
X37571998Y12757879D01*
X37518342Y12711386D01*
X37466000Y12700000D01*
X28500190Y12700000D01*
X28432069Y12720002D01*
X28411095Y12736905D01*
X25750405Y15397595D01*
X25716379Y15459907D01*
X25713500Y15486690D01*
X25713500Y17219821D01*
X25711705Y17253300D01*
X25711701Y17253347D01*
X25708823Y17280114D01*
X25707968Y17287288D01*
X25707967Y17287300D01*
X25672271Y17396841D01*
X25669415Y17402070D01*
X25654000Y17462460D01*
X25654000Y18288000D01*
X25146000Y18796000D01*
X24317153Y18796000D01*
X24260046Y18809685D01*
X24252966Y18813284D01*
X24234254Y18822799D01*
X24166133Y18842801D01*
X24166121Y18842802D01*
X24166120Y18842803D01*
X24138068Y18846836D01*
X24077812Y18855499D01*
X24077811Y18855500D01*
X24077810Y18855500D01*
X22688977Y18855500D01*
X22620856Y18875502D01*
X22599882Y18892405D01*
X22579367Y18912919D01*
X22579365Y18912921D01*
X22473855Y18959508D01*
X22448066Y18962499D01*
X22448065Y18962500D01*
X22448064Y18962500D01*
X21667855Y18962500D01*
X21639819Y18965658D01*
X21636651Y18966382D01*
X21591257Y18962980D01*
X21589542Y18962852D01*
X21580128Y18962500D01*
X20954000Y18962500D01*
X20885879Y18982502D01*
X20839386Y19036158D01*
X20828000Y19088500D01*
X20828000Y19869500D01*
X20848002Y19937621D01*
X20901658Y19984114D01*
X20954000Y19995500D01*
X22448070Y19995500D01*
X22473851Y19998491D01*
X22473856Y19998492D01*
X22590046Y20049795D01*
X22590751Y20048197D01*
X22645222Y20065946D01*
X22648924Y20066000D01*
X26363810Y20066000D01*
X26431931Y20045998D01*
G37*
%TD.AperFunction*%
%TD*%
%TA.AperFunction,Conductor*%
%TO.N,GND*%
G36*
X13263587Y31008093D02*
G01*
X13315895Y30960090D01*
X13327830Y30933960D01*
X13330351Y30926201D01*
X13387949Y30813157D01*
X13477657Y30723449D01*
X13590694Y30665855D01*
X13590696Y30665854D01*
X13684481Y30651000D01*
X14309500Y30651000D01*
X14377621Y30630998D01*
X14424114Y30577342D01*
X14435500Y30525000D01*
X14435500Y30514680D01*
X14434839Y30501793D01*
X14430647Y30461029D01*
X14433668Y30443511D01*
X14435500Y30422104D01*
X14435500Y28957463D01*
X14415498Y28889342D01*
X14361842Y28842849D01*
X14291568Y28832745D01*
X14289789Y28833014D01*
X14285806Y28833644D01*
X14285804Y28833646D01*
X14192019Y28848500D01*
X12931999Y28848499D01*
X12863879Y28868501D01*
X12817386Y28922157D01*
X12806000Y28974499D01*
X12806000Y30578805D01*
X12826002Y30646926D01*
X12874797Y30691072D01*
X12938342Y30723449D01*
X13028050Y30813157D01*
X13068466Y30892478D01*
X13085646Y30926196D01*
X13085647Y30926201D01*
X13088164Y30933948D01*
X13128234Y30992555D01*
X13193629Y31020196D01*
X13263587Y31008093D01*
G37*
%TD.AperFunction*%
%TA.AperFunction,Conductor*%
G36*
X40252621Y40290498D02*
G01*
X40299114Y40236842D01*
X40310500Y40184500D01*
X40310500Y455500D01*
X40290498Y387379D01*
X40236842Y340886D01*
X40184500Y329500D01*
X455500Y329500D01*
X387379Y349502D01*
X340886Y403158D01*
X329500Y455500D01*
X329500Y3477483D01*
X14712500Y3477483D01*
X14727353Y3383697D01*
X14784949Y3270657D01*
X14874657Y3180949D01*
X14987694Y3123355D01*
X14987696Y3123354D01*
X15081481Y3108500D01*
X15081483Y3108500D01*
X15081484Y3108500D01*
X18954516Y3108500D01*
X19048302Y3123353D01*
X19161342Y3180949D01*
X19251050Y3270657D01*
X19270738Y3309299D01*
X19308646Y3383696D01*
X19323500Y3477481D01*
X19323499Y7350518D01*
X19308646Y7444304D01*
X19251050Y7557342D01*
X19161342Y7647050D01*
X19048304Y7704646D01*
X18954519Y7719500D01*
X15081482Y7719499D01*
X14987696Y7704646D01*
X14931177Y7675848D01*
X14874657Y7647050D01*
X14784949Y7557342D01*
X14746307Y7481502D01*
X14727354Y7444304D01*
X14712500Y7350519D01*
X14712500Y7350518D01*
X14712500Y7350515D01*
X14712500Y3477483D01*
X329500Y3477483D01*
X329500Y8477483D01*
X14712500Y8477483D01*
X14727353Y8383697D01*
X14784949Y8270657D01*
X14874657Y8180949D01*
X14987694Y8123355D01*
X14987696Y8123354D01*
X15081481Y8108500D01*
X15081483Y8108500D01*
X15081484Y8108500D01*
X18954516Y8108500D01*
X19048302Y8123353D01*
X19161342Y8180949D01*
X19251050Y8270657D01*
X19308644Y8383692D01*
X19308646Y8383696D01*
X19308646Y8383700D01*
X19309877Y8387488D01*
X19335677Y8432424D01*
X19364727Y8464997D01*
X19419070Y8579629D01*
X19419071Y8579632D01*
X19419071Y8579634D01*
X19419073Y8579637D01*
X19439075Y8647758D01*
X19455500Y8762000D01*
X19455500Y11406500D01*
X19475502Y11474621D01*
X19529158Y11521114D01*
X19581500Y11532500D01*
X23090500Y11532500D01*
X23158621Y11512498D01*
X23205114Y11458842D01*
X23216500Y11406500D01*
X23216500Y7586152D01*
X23196498Y7518031D01*
X23179599Y7497061D01*
X23118173Y7435635D01*
X23089174Y7403353D01*
X23089167Y7403344D01*
X23089164Y7403341D01*
X23072264Y7382370D01*
X23053274Y7356814D01*
X23053272Y7356809D01*
X22998929Y7242179D01*
X22998928Y7242176D01*
X22992984Y7221933D01*
X22978925Y7174051D01*
X22974870Y7145845D01*
X22962500Y7059806D01*
X22962500Y2920008D01*
X22962501Y2919984D01*
X22966778Y2880197D01*
X22967500Y2866732D01*
X22967500Y2762483D01*
X22982353Y2668697D01*
X23039949Y2555657D01*
X23129657Y2465949D01*
X23241128Y2409153D01*
X23242696Y2408354D01*
X23336481Y2393500D01*
X23450209Y2393500D01*
X23468139Y2392218D01*
X23494000Y2388500D01*
X23494001Y2388500D01*
X27560009Y2388500D01*
X27637573Y2396839D01*
X27646193Y2397766D01*
X27698535Y2409152D01*
X27698540Y2409153D01*
X27770189Y2431869D01*
X27877886Y2498928D01*
X27877890Y2498931D01*
X27931537Y2545416D01*
X27931540Y2545419D01*
X27931543Y2545422D01*
X28000727Y2622998D01*
X28000727Y2622999D01*
X28000729Y2623001D01*
X28055070Y2737629D01*
X28055071Y2737632D01*
X28055071Y2737634D01*
X28055073Y2737637D01*
X28075075Y2805758D01*
X28091500Y2920000D01*
X28091500Y7145845D01*
X28111502Y7213966D01*
X28128404Y7234940D01*
X28443825Y7550362D01*
X28443831Y7550368D01*
X28472836Y7582658D01*
X28489735Y7603628D01*
X28508727Y7629188D01*
X28544499Y7704646D01*
X28563070Y7743819D01*
X28563071Y7743822D01*
X28563071Y7743824D01*
X28563073Y7743827D01*
X28583075Y7811948D01*
X28599500Y7926190D01*
X28599500Y11050000D01*
X28590234Y11136193D01*
X28578848Y11188535D01*
X28556130Y11260190D01*
X28489071Y11367887D01*
X28442578Y11421543D01*
X28365002Y11490727D01*
X28276885Y11532500D01*
X28250370Y11545070D01*
X28250367Y11545071D01*
X28250363Y11545073D01*
X28182242Y11565075D01*
X28068000Y11581500D01*
X28067997Y11581500D01*
X26382154Y11581500D01*
X26314033Y11601502D01*
X26293061Y11618402D01*
X26286176Y11625286D01*
X26271559Y11639903D01*
X26237533Y11702214D01*
X26242596Y11773030D01*
X26285142Y11829866D01*
X26351661Y11854679D01*
X26360653Y11855000D01*
X27463516Y11855000D01*
X27557302Y11869853D01*
X27670342Y11927449D01*
X27760050Y12017157D01*
X27779738Y12055799D01*
X27817646Y12130196D01*
X27832500Y12223981D01*
X27832499Y12437845D01*
X27852501Y12505965D01*
X27906156Y12552458D01*
X27976430Y12562563D01*
X28041011Y12533070D01*
X28047594Y12526941D01*
X28124357Y12450178D01*
X28156643Y12421176D01*
X28156659Y12421162D01*
X28177623Y12404267D01*
X28203184Y12385274D01*
X28203189Y12385272D01*
X28317819Y12330929D01*
X28317822Y12330928D01*
X28372125Y12314983D01*
X28385948Y12310925D01*
X28500190Y12294500D01*
X28500193Y12294500D01*
X37466002Y12294500D01*
X37487770Y12296840D01*
X37505803Y12298778D01*
X37519266Y12299500D01*
X37623516Y12299500D01*
X37717302Y12314353D01*
X37830342Y12371949D01*
X37920050Y12461657D01*
X37942626Y12505965D01*
X37977646Y12574696D01*
X37992500Y12668481D01*
X37992499Y12782210D01*
X37993782Y12800145D01*
X37997500Y12825998D01*
X37997500Y16637994D01*
X37997499Y16638009D01*
X37993221Y16677802D01*
X37992499Y16691271D01*
X37992499Y16795516D01*
X37990760Y16806500D01*
X37977646Y16889304D01*
X37920050Y17002342D01*
X37830342Y17092050D01*
X37717304Y17149646D01*
X37623519Y17164500D01*
X37509789Y17164499D01*
X37491856Y17165781D01*
X37478887Y17167646D01*
X37466001Y17169500D01*
X37466000Y17169500D01*
X32564190Y17169500D01*
X32564179Y17169500D01*
X32525576Y17167430D01*
X32520836Y17167176D01*
X32494053Y17164296D01*
X32462564Y17159653D01*
X32343073Y17117020D01*
X32343068Y17117017D01*
X32280765Y17082998D01*
X32280763Y17082996D01*
X32280762Y17082996D01*
X32188364Y17013828D01*
X31618940Y16444404D01*
X31556629Y16410380D01*
X31529846Y16407500D01*
X28668154Y16407500D01*
X28600033Y16427502D01*
X28579059Y16444404D01*
X28255673Y16767789D01*
X28128404Y16895056D01*
X28094380Y16957369D01*
X28091500Y16984152D01*
X28091500Y18743822D01*
X28089178Y18787131D01*
X28089177Y18787132D01*
X28089177Y18787149D01*
X28089006Y18788737D01*
X28086299Y18813922D01*
X28086298Y18813932D01*
X28081653Y18845444D01*
X28039017Y18964933D01*
X28004991Y19027245D01*
X27935827Y19119637D01*
X27200423Y19855039D01*
X27166400Y19917350D01*
X27171464Y19988165D01*
X27214011Y20045001D01*
X27247635Y20070171D01*
X27563060Y20385596D01*
X27625371Y20419620D01*
X27652154Y20422500D01*
X29084002Y20422500D01*
X29105770Y20424840D01*
X29123803Y20426778D01*
X29137266Y20427500D01*
X29241516Y20427500D01*
X29335302Y20442353D01*
X29448342Y20499949D01*
X29538050Y20589657D01*
X29573636Y20659500D01*
X29595646Y20702696D01*
X29610500Y20796481D01*
X29610499Y20910210D01*
X29611782Y20928145D01*
X29615500Y20953998D01*
X29615500Y22225994D01*
X29615499Y22226009D01*
X29611221Y22265802D01*
X29610499Y22279271D01*
X29610499Y22383516D01*
X29595646Y22477302D01*
X29595646Y22477304D01*
X29538050Y22590342D01*
X29448342Y22680050D01*
X29335304Y22737646D01*
X29241519Y22752500D01*
X29127789Y22752499D01*
X29109856Y22753781D01*
X29096887Y22755646D01*
X29084001Y22757500D01*
X29084000Y22757500D01*
X28160154Y22757500D01*
X28092033Y22777502D01*
X28071063Y22794400D01*
X27356059Y23509405D01*
X27322034Y23571717D01*
X27327099Y23642533D01*
X27369646Y23699368D01*
X27436166Y23724179D01*
X27445155Y23724500D01*
X28576689Y23724500D01*
X28644810Y23704498D01*
X28688956Y23655703D01*
X28747329Y23541137D01*
X28837037Y23451429D01*
X28950074Y23393835D01*
X28950076Y23393834D01*
X29043861Y23378980D01*
X29338504Y23378980D01*
X29406625Y23358978D01*
X29422704Y23346715D01*
X29426659Y23343162D01*
X29426665Y23343157D01*
X29447624Y23326268D01*
X29447631Y23326262D01*
X29447637Y23326258D01*
X29471256Y23308708D01*
X29473192Y23307270D01*
X29473194Y23307269D01*
X29587819Y23252929D01*
X29587822Y23252928D01*
X29641549Y23237153D01*
X29655948Y23232925D01*
X29770190Y23216500D01*
X29770193Y23216500D01*
X37466009Y23216500D01*
X37543573Y23224839D01*
X37552193Y23225766D01*
X37597019Y23235517D01*
X37604540Y23237153D01*
X37676189Y23259869D01*
X37783886Y23326928D01*
X37783890Y23326931D01*
X37837537Y23373416D01*
X37837540Y23373419D01*
X37837543Y23373422D01*
X37906727Y23450998D01*
X37906727Y23450999D01*
X37906729Y23451001D01*
X37961070Y23565629D01*
X37961071Y23565632D01*
X37961071Y23565634D01*
X37961073Y23565637D01*
X37981075Y23633758D01*
X37997500Y23748000D01*
X37997500Y27814000D01*
X37993220Y27853803D01*
X37992499Y27867271D01*
X37992499Y27971516D01*
X37990760Y27982500D01*
X37977646Y28065304D01*
X37920050Y28178342D01*
X37830342Y28268050D01*
X37717304Y28325646D01*
X37623519Y28340500D01*
X37509789Y28340499D01*
X37491856Y28341781D01*
X37478887Y28343646D01*
X37466001Y28345500D01*
X37466000Y28345500D01*
X33072190Y28345500D01*
X33072178Y28345500D01*
X33028868Y28343178D01*
X33028865Y28343177D01*
X33028851Y28343177D01*
X33028833Y28343175D01*
X33028820Y28343174D01*
X33002077Y28340299D01*
X33002068Y28340298D01*
X32970556Y28335653D01*
X32851067Y28293017D01*
X32788755Y28258991D01*
X32788751Y28258988D01*
X32788746Y28258985D01*
X32696368Y28189831D01*
X32696363Y28189827D01*
X32008173Y27501637D01*
X31981145Y27471548D01*
X31979176Y27469356D01*
X31979162Y27469340D01*
X31962267Y27448376D01*
X31943274Y27422815D01*
X31943272Y27422810D01*
X31888929Y27308180D01*
X31888928Y27308177D01*
X31888927Y27308173D01*
X31868925Y27240052D01*
X31858487Y27167450D01*
X31852500Y27125807D01*
X31852500Y26673543D01*
X31832498Y26605422D01*
X31778842Y26558929D01*
X31708568Y26548825D01*
X31643988Y26578319D01*
X31637405Y26584448D01*
X31614964Y26606888D01*
X31614962Y26606890D01*
X31612389Y26608201D01*
X31501924Y26664486D01*
X31408139Y26679340D01*
X29043862Y26679339D01*
X28950076Y26664486D01*
X28906122Y26642090D01*
X28837037Y26606890D01*
X28747329Y26517182D01*
X28731196Y26485518D01*
X28689734Y26404144D01*
X28674880Y26310359D01*
X28674880Y26310358D01*
X28674880Y26310355D01*
X28674880Y26185500D01*
X28654878Y26117379D01*
X28601222Y26070886D01*
X28548880Y26059500D01*
X27459786Y26059500D01*
X27391665Y26079502D01*
X27345172Y26133158D01*
X27335068Y26203432D01*
X27353099Y26252536D01*
X27395787Y26320474D01*
X27395788Y26320477D01*
X27395789Y26320478D01*
X27455368Y26490745D01*
X27475565Y26670000D01*
X27455368Y26849255D01*
X27395789Y27019522D01*
X27299816Y27172262D01*
X27172262Y27299816D01*
X27019522Y27395789D01*
X26849255Y27455368D01*
X26670000Y27475565D01*
X26557237Y27462859D01*
X26487310Y27475108D01*
X26435102Y27523220D01*
X26423299Y27549136D01*
X26420647Y27557295D01*
X26420646Y27557304D01*
X26363050Y27670342D01*
X26273342Y27760050D01*
X26160304Y27817646D01*
X26066519Y27832500D01*
X25114482Y27832499D01*
X25020696Y27817646D01*
X24964177Y27788848D01*
X24907657Y27760050D01*
X24817949Y27670342D01*
X24760354Y27557304D01*
X24757834Y27549547D01*
X24717761Y27490941D01*
X24652365Y27463303D01*
X24582408Y27475408D01*
X24530101Y27523413D01*
X24518166Y27549547D01*
X24515646Y27557297D01*
X24515646Y27557304D01*
X24458050Y27670342D01*
X24426404Y27701987D01*
X24392380Y27764297D01*
X24389500Y27791082D01*
X24389500Y30977113D01*
X24409502Y31045234D01*
X24426405Y31066208D01*
X25321791Y31961594D01*
X25384103Y31995620D01*
X25410886Y31998499D01*
X27125819Y31998499D01*
X27125826Y31998500D01*
X27180670Y32001439D01*
X27180722Y32001443D01*
X27207464Y32004318D01*
X27207475Y32004320D01*
X27261744Y32013114D01*
X27261756Y32013117D01*
X27398685Y32064190D01*
X27398695Y32064194D01*
X27461008Y32098221D01*
X27577999Y32185802D01*
X27578011Y32185812D01*
X28012179Y32619980D01*
X28012187Y32619989D01*
X28012194Y32619996D01*
X28048917Y32660877D01*
X28065820Y32681851D01*
X28095485Y32722988D01*
X28097979Y32726446D01*
X28097980Y32726448D01*
X28097982Y32726451D01*
X28158698Y32859400D01*
X28178700Y32927521D01*
X28199500Y33072190D01*
X28199500Y37720000D01*
X28187766Y37829149D01*
X28176380Y37881491D01*
X28141710Y37985657D01*
X28062692Y38108612D01*
X28018405Y38159721D01*
X28016598Y38161924D01*
X27905741Y38257980D01*
X27905739Y38257982D01*
X27772790Y38318698D01*
X27704669Y38338700D01*
X27560000Y38359500D01*
X23240000Y38359500D01*
X23239991Y38359499D01*
X23239990Y38359499D01*
X23233796Y38358833D01*
X23130851Y38347766D01*
X23130842Y38347764D01*
X23130840Y38347764D01*
X23094663Y38339894D01*
X23078509Y38336380D01*
X23026073Y38318927D01*
X22974345Y38301711D01*
X22974343Y38301710D01*
X22851388Y38222692D01*
X22851386Y38222690D01*
X22851384Y38222689D01*
X22800300Y38178424D01*
X22798077Y38176600D01*
X22702019Y38065741D01*
X22702017Y38065738D01*
X22641301Y37932789D01*
X22626242Y37881501D01*
X22621300Y37864669D01*
X22600500Y37720000D01*
X22600500Y37719996D01*
X22600500Y33284887D01*
X22580498Y33216766D01*
X22563595Y33195792D01*
X21009820Y31642018D01*
X21009811Y31642008D01*
X21009806Y31642003D01*
X20973083Y31601122D01*
X20956180Y31580148D01*
X20956170Y31580134D01*
X20956169Y31580133D01*
X20924020Y31535552D01*
X20924018Y31535548D01*
X20863302Y31402599D01*
X20843300Y31334478D01*
X20822500Y31189809D01*
X20822500Y31189805D01*
X20822500Y27950888D01*
X20802498Y27882767D01*
X20785599Y27861797D01*
X20501805Y27578003D01*
X20465083Y27537122D01*
X20448180Y27516148D01*
X20448170Y27516134D01*
X20448169Y27516133D01*
X20416020Y27471552D01*
X20416018Y27471548D01*
X20355302Y27338599D01*
X20355301Y27338595D01*
X20344939Y27303304D01*
X20335300Y27270478D01*
X20314500Y27125809D01*
X20314500Y27125807D01*
X20314500Y27125805D01*
X20314500Y25788490D01*
X20326235Y25679344D01*
X20326235Y25679340D01*
X20337617Y25627019D01*
X20337623Y25626998D01*
X20372289Y25522844D01*
X20372289Y25522843D01*
X20386163Y25501254D01*
X20404610Y25452848D01*
X20416353Y25378694D01*
X20419417Y25369268D01*
X20415929Y25368134D01*
X20425628Y25316376D01*
X20417673Y25289299D01*
X20419417Y25288733D01*
X20416354Y25279307D01*
X20407441Y25223033D01*
X20403526Y25198307D01*
X20401500Y25185517D01*
X20401500Y24822483D01*
X20417905Y24718902D01*
X20417895Y24718900D01*
X20422500Y24689824D01*
X20422500Y24668175D01*
X20417895Y24639099D01*
X20417906Y24639098D01*
X20416355Y24629306D01*
X20416354Y24629304D01*
X20401500Y24535519D01*
X20401500Y24535518D01*
X20401500Y24535515D01*
X20401500Y24172483D01*
X20416354Y24078694D01*
X20419417Y24069268D01*
X20415929Y24068134D01*
X20425628Y24016376D01*
X20417673Y23989299D01*
X20419417Y23988733D01*
X20416354Y23979307D01*
X20401500Y23885517D01*
X20401500Y23522483D01*
X20416354Y23428694D01*
X20419417Y23419268D01*
X20415929Y23418134D01*
X20425628Y23366376D01*
X20417673Y23339299D01*
X20419417Y23338733D01*
X20416354Y23329307D01*
X20412864Y23307270D01*
X20404258Y23252929D01*
X20401500Y23235517D01*
X20401500Y22872483D01*
X20417905Y22768901D01*
X20417895Y22768899D01*
X20422500Y22739823D01*
X20422500Y22718175D01*
X20417895Y22689099D01*
X20417906Y22689098D01*
X20416355Y22679306D01*
X20416354Y22679304D01*
X20401500Y22585519D01*
X20401500Y22585518D01*
X20401500Y22585515D01*
X20401500Y22222483D01*
X20417905Y22118902D01*
X20417895Y22118900D01*
X20422500Y22089824D01*
X20422500Y22068175D01*
X20417895Y22039099D01*
X20417906Y22039098D01*
X20416355Y22029306D01*
X20416354Y22029304D01*
X20401500Y21935519D01*
X20401500Y21935518D01*
X20401500Y21935515D01*
X20401500Y21572483D01*
X20417905Y21468902D01*
X20417895Y21468900D01*
X20422500Y21439824D01*
X20422500Y21418175D01*
X20417895Y21389099D01*
X20417906Y21389098D01*
X20416355Y21379306D01*
X20416354Y21379304D01*
X20401500Y21285519D01*
X20401500Y21285518D01*
X20401500Y21285515D01*
X20401500Y20922483D01*
X20416354Y20828694D01*
X20419417Y20819268D01*
X20415929Y20818134D01*
X20425628Y20766376D01*
X20417673Y20739299D01*
X20419417Y20738733D01*
X20416354Y20729307D01*
X20401500Y20635517D01*
X20401500Y20272483D01*
X20416354Y20178694D01*
X20419417Y20169268D01*
X20415929Y20168134D01*
X20425628Y20116376D01*
X20417673Y20089299D01*
X20419417Y20088733D01*
X20416354Y20079307D01*
X20401500Y19985517D01*
X20401500Y19622483D01*
X20417905Y19518902D01*
X20417895Y19518900D01*
X20422500Y19489824D01*
X20422500Y19468175D01*
X20417895Y19439099D01*
X20417906Y19439098D01*
X20416355Y19429306D01*
X20416354Y19429304D01*
X20401500Y19335519D01*
X20401500Y19335518D01*
X20401500Y19335515D01*
X20401500Y18972483D01*
X20416354Y18878694D01*
X20419417Y18869268D01*
X20415929Y18868134D01*
X20425628Y18816376D01*
X20417673Y18789299D01*
X20419417Y18788733D01*
X20416354Y18779307D01*
X20401500Y18685517D01*
X20401500Y18322483D01*
X20417905Y18218902D01*
X20417895Y18218900D01*
X20422500Y18189824D01*
X20422500Y18168175D01*
X20417895Y18139099D01*
X20417906Y18139098D01*
X20416355Y18129306D01*
X20416354Y18129304D01*
X20401500Y18035519D01*
X20401500Y18035515D01*
X20401500Y17672483D01*
X20416353Y17578696D01*
X20430963Y17550022D01*
X20441814Y17519613D01*
X20443151Y17513466D01*
X20465869Y17441810D01*
X20532928Y17334113D01*
X20532931Y17334109D01*
X20579416Y17280462D01*
X20657001Y17211270D01*
X20771629Y17156929D01*
X20771632Y17156928D01*
X20818033Y17143304D01*
X20839758Y17136925D01*
X20954000Y17120500D01*
X21974396Y17120500D01*
X22042517Y17100498D01*
X22089010Y17046842D01*
X22099114Y16976568D01*
X22086663Y16937298D01*
X22029854Y16825804D01*
X22020665Y16767787D01*
X21990253Y16703636D01*
X21929985Y16666109D01*
X21896217Y16661500D01*
X18160000Y16661500D01*
X18159991Y16661499D01*
X18159990Y16661499D01*
X18153975Y16660852D01*
X18073807Y16652234D01*
X18021465Y16640848D01*
X18021453Y16640844D01*
X18021452Y16640844D01*
X18018641Y16640095D01*
X18018522Y16640538D01*
X18002227Y16637355D01*
X18002291Y16636953D01*
X17997404Y16636179D01*
X17997402Y16636179D01*
X17903616Y16621326D01*
X17852930Y16595500D01*
X17790577Y16563730D01*
X17700869Y16474022D01*
X17666975Y16407500D01*
X17643274Y16360984D01*
X17628420Y16267199D01*
X17628420Y16267195D01*
X17628420Y13936073D01*
X17608418Y13867952D01*
X17591515Y13846978D01*
X16500941Y12756404D01*
X16438629Y12722378D01*
X16411846Y12719499D01*
X15081482Y12719499D01*
X14987696Y12704646D01*
X14931177Y12675848D01*
X14874657Y12647050D01*
X14784949Y12557342D01*
X14758772Y12505965D01*
X14727354Y12444304D01*
X14712500Y12350519D01*
X14712500Y12350515D01*
X14712500Y8477483D01*
X329500Y8477483D01*
X329500Y12922483D01*
X2647500Y12922483D01*
X2662353Y12828697D01*
X2719949Y12715657D01*
X2809657Y12625949D01*
X2910249Y12574696D01*
X2922696Y12568354D01*
X3016481Y12553500D01*
X3016483Y12553500D01*
X3016484Y12553500D01*
X4603516Y12553500D01*
X4697302Y12568353D01*
X4810342Y12625949D01*
X4900050Y12715657D01*
X4956272Y12826000D01*
X4957646Y12828696D01*
X4957647Y12828701D01*
X4960164Y12836448D01*
X5000234Y12895055D01*
X5065629Y12922696D01*
X5135587Y12910593D01*
X5187895Y12862590D01*
X5199830Y12836460D01*
X5202351Y12828701D01*
X5259949Y12715657D01*
X5349657Y12625949D01*
X5450249Y12574696D01*
X5462696Y12568354D01*
X5556481Y12553500D01*
X5556483Y12553500D01*
X5556484Y12553500D01*
X7143516Y12553500D01*
X7237302Y12568353D01*
X7350342Y12625949D01*
X7440050Y12715657D01*
X7460811Y12756404D01*
X7497646Y12828696D01*
X7512500Y12922481D01*
X7512499Y14047783D01*
X7532501Y14115904D01*
X7549404Y14136878D01*
X7859208Y14446682D01*
X7921520Y14480708D01*
X7992335Y14475643D01*
X8049171Y14433096D01*
X8060570Y14414790D01*
X8117449Y14303158D01*
X8117451Y14303155D01*
X8207157Y14213449D01*
X8320194Y14155855D01*
X8320196Y14155854D01*
X8413981Y14141000D01*
X8413983Y14141000D01*
X8413984Y14141000D01*
X9366016Y14141000D01*
X9459802Y14155853D01*
X9572842Y14213449D01*
X9662550Y14303157D01*
X9691896Y14360753D01*
X9720146Y14416196D01*
X9720147Y14416201D01*
X9722664Y14423948D01*
X9762734Y14482555D01*
X9828129Y14510196D01*
X9898087Y14498093D01*
X9950395Y14450090D01*
X9962330Y14423960D01*
X9964851Y14416201D01*
X10022449Y14303157D01*
X10112157Y14213449D01*
X10225194Y14155855D01*
X10225196Y14155854D01*
X10318981Y14141000D01*
X10318983Y14141000D01*
X10318984Y14141000D01*
X11271016Y14141000D01*
X11364802Y14155853D01*
X11477842Y14213449D01*
X11567550Y14303157D01*
X11587238Y14341799D01*
X11625146Y14416196D01*
X11640000Y14509981D01*
X11639999Y15508284D01*
X11660001Y15576405D01*
X11676904Y15597379D01*
X14586405Y18506880D01*
X14648717Y18540906D01*
X14719532Y18535841D01*
X14776368Y18493294D01*
X14801179Y18426774D01*
X14801500Y18417786D01*
X14801500Y18322483D01*
X14816353Y18228697D01*
X14873949Y18115657D01*
X14963657Y18025949D01*
X15076694Y17968355D01*
X15076696Y17968354D01*
X15170481Y17953500D01*
X15170483Y17953500D01*
X15170484Y17953500D01*
X16833516Y17953500D01*
X16927302Y17968353D01*
X17040342Y18025949D01*
X17130050Y18115657D01*
X17156809Y18168175D01*
X17187646Y18228696D01*
X17202500Y18322481D01*
X17202499Y18685518D01*
X17187646Y18779304D01*
X17187643Y18779309D01*
X17184581Y18788737D01*
X17188088Y18789876D01*
X17178356Y18841473D01*
X17186339Y18868692D01*
X17184581Y18869264D01*
X17187644Y18878693D01*
X17187646Y18878696D01*
X17202500Y18972481D01*
X17202499Y19335518D01*
X17187646Y19429304D01*
X17187643Y19429309D01*
X17184581Y19438737D01*
X17188088Y19439876D01*
X17178356Y19491473D01*
X17186339Y19518692D01*
X17184581Y19519264D01*
X17187644Y19528693D01*
X17187646Y19528696D01*
X17202500Y19622481D01*
X17202499Y19985518D01*
X17187646Y20079304D01*
X17187643Y20079309D01*
X17184581Y20088737D01*
X17188088Y20089876D01*
X17178356Y20141473D01*
X17186339Y20168692D01*
X17184581Y20169264D01*
X17187644Y20178693D01*
X17187646Y20178696D01*
X17202500Y20272481D01*
X17202499Y20635518D01*
X17187646Y20729304D01*
X17187643Y20729309D01*
X17184581Y20738737D01*
X17188088Y20739876D01*
X17178356Y20791473D01*
X17186339Y20818692D01*
X17184581Y20819264D01*
X17187644Y20828693D01*
X17187646Y20828696D01*
X17202500Y20922481D01*
X17202499Y21285518D01*
X17187646Y21379304D01*
X17187643Y21379309D01*
X17184581Y21388737D01*
X17188088Y21389876D01*
X17178356Y21441473D01*
X17186339Y21468692D01*
X17184581Y21469264D01*
X17187644Y21478693D01*
X17187646Y21478696D01*
X17202500Y21572481D01*
X17202499Y21935518D01*
X17187646Y22029304D01*
X17187643Y22029309D01*
X17184581Y22038737D01*
X17188088Y22039876D01*
X17178356Y22091473D01*
X17186339Y22118692D01*
X17184581Y22119264D01*
X17187644Y22128693D01*
X17187646Y22128696D01*
X17202500Y22222481D01*
X17202499Y22585518D01*
X17187646Y22679304D01*
X17187643Y22679309D01*
X17184581Y22688737D01*
X17188088Y22689876D01*
X17178356Y22741473D01*
X17186339Y22768692D01*
X17184581Y22769264D01*
X17187644Y22778693D01*
X17187646Y22778696D01*
X17202500Y22872481D01*
X17202499Y23235518D01*
X17187646Y23329304D01*
X17187643Y23329309D01*
X17184581Y23338737D01*
X17188088Y23339876D01*
X17178356Y23391473D01*
X17186339Y23418692D01*
X17184581Y23419264D01*
X17187644Y23428693D01*
X17187646Y23428696D01*
X17202500Y23522481D01*
X17202499Y23885518D01*
X17187646Y23979304D01*
X17187643Y23979309D01*
X17184581Y23988737D01*
X17188088Y23989876D01*
X17178356Y24041473D01*
X17186339Y24068692D01*
X17184581Y24069264D01*
X17187644Y24078693D01*
X17187646Y24078696D01*
X17202500Y24172481D01*
X17202499Y24535518D01*
X17187646Y24629304D01*
X17130050Y24742342D01*
X17040342Y24832050D01*
X16927304Y24889646D01*
X16927303Y24889646D01*
X16923208Y24891733D01*
X16871592Y24940481D01*
X16854526Y25009396D01*
X16877427Y25076598D01*
X16923208Y25116267D01*
X17040339Y25175948D01*
X17040344Y25175951D01*
X17130050Y25265657D01*
X17160770Y25325950D01*
X17187646Y25378696D01*
X17202500Y25472481D01*
X17202499Y25835518D01*
X17187646Y25929304D01*
X17187643Y25929309D01*
X17184581Y25938737D01*
X17188088Y25939876D01*
X17178356Y25991473D01*
X17186339Y26018692D01*
X17184581Y26019264D01*
X17187644Y26028693D01*
X17187646Y26028696D01*
X17202500Y26122481D01*
X17202499Y26485518D01*
X17187646Y26579304D01*
X17130050Y26692342D01*
X17040342Y26782050D01*
X16927304Y26839646D01*
X16896324Y26844552D01*
X16832174Y26874962D01*
X16794646Y26935229D01*
X16795658Y27006219D01*
X16834890Y27065391D01*
X16899885Y27093961D01*
X16916034Y27095000D01*
X16986015Y27095000D01*
X17079802Y27109853D01*
X17192842Y27167449D01*
X17282550Y27257157D01*
X17306063Y27303305D01*
X17340146Y27370196D01*
X17355000Y27463981D01*
X17354999Y28416018D01*
X17340146Y28509804D01*
X17282550Y28622842D01*
X17192842Y28712550D01*
X17079804Y28770146D01*
X17079791Y28770147D01*
X17072053Y28772663D01*
X17013445Y28812732D01*
X16985803Y28878127D01*
X16997905Y28948085D01*
X17045907Y29000394D01*
X17072041Y29012331D01*
X17079801Y29014852D01*
X17192842Y29072449D01*
X17282550Y29162157D01*
X17302238Y29200799D01*
X17340146Y29275196D01*
X17355000Y29368981D01*
X17354999Y29859285D01*
X17375001Y29927406D01*
X17391904Y29948380D01*
X17399069Y29955545D01*
X17402162Y29958535D01*
X17449042Y30002318D01*
X17449045Y30002322D01*
X17470332Y30037327D01*
X17477592Y30047995D01*
X17502362Y30080658D01*
X17508878Y30097184D01*
X17518439Y30116434D01*
X17527671Y30131615D01*
X17527672Y30131617D01*
X17538731Y30171086D01*
X17542843Y30183314D01*
X17557876Y30221435D01*
X17559692Y30239106D01*
X17563703Y30260216D01*
X17568500Y30277335D01*
X17568500Y30318325D01*
X17569161Y30331211D01*
X17573351Y30371968D01*
X17573350Y30371969D01*
X17573351Y30371971D01*
X17570331Y30389482D01*
X17568500Y30410888D01*
X17568500Y33247784D01*
X17588502Y33315905D01*
X17605404Y33336879D01*
X17867119Y33598595D01*
X17929432Y33632620D01*
X17956215Y33635500D01*
X19081516Y33635500D01*
X19175302Y33650353D01*
X19288342Y33707949D01*
X19378050Y33797657D01*
X19397738Y33836299D01*
X19435646Y33910696D01*
X19450500Y34004481D01*
X19450499Y35591518D01*
X19435646Y35685304D01*
X19378050Y35798342D01*
X19288342Y35888050D01*
X19175304Y35945646D01*
X19175291Y35945647D01*
X19167553Y35948163D01*
X19108945Y35988232D01*
X19081303Y36053627D01*
X19093405Y36123585D01*
X19141407Y36175894D01*
X19167541Y36187831D01*
X19175301Y36190352D01*
X19288342Y36247949D01*
X19378050Y36337657D01*
X19397738Y36376299D01*
X19435646Y36450696D01*
X19450500Y36544481D01*
X19450499Y38131518D01*
X19435646Y38225304D01*
X19378050Y38338342D01*
X19288342Y38428050D01*
X19175304Y38485646D01*
X19081519Y38500500D01*
X17494482Y38500499D01*
X17400696Y38485646D01*
X17344177Y38456848D01*
X17287657Y38428050D01*
X17197949Y38338342D01*
X17140354Y38225304D01*
X17137834Y38217547D01*
X17097761Y38158941D01*
X17032365Y38131303D01*
X16962408Y38143408D01*
X16910101Y38191413D01*
X16898166Y38217547D01*
X16895646Y38225302D01*
X16895646Y38225304D01*
X16838050Y38338342D01*
X16748342Y38428050D01*
X16635304Y38485646D01*
X16541519Y38500500D01*
X14954482Y38500499D01*
X14860696Y38485646D01*
X14804177Y38456848D01*
X14747657Y38428050D01*
X14657949Y38338342D01*
X14600354Y38225304D01*
X14597834Y38217547D01*
X14557761Y38158941D01*
X14492365Y38131303D01*
X14422408Y38143408D01*
X14370101Y38191413D01*
X14358166Y38217547D01*
X14355646Y38225302D01*
X14355646Y38225304D01*
X14298050Y38338342D01*
X14208342Y38428050D01*
X14095304Y38485646D01*
X14001519Y38500500D01*
X12414482Y38500499D01*
X12320696Y38485646D01*
X12264177Y38456848D01*
X12207657Y38428050D01*
X12117949Y38338342D01*
X12079307Y38262502D01*
X12060354Y38225304D01*
X12045500Y38131519D01*
X12045500Y38131518D01*
X12045500Y38131515D01*
X12045500Y36544483D01*
X12060353Y36450697D01*
X12117949Y36337657D01*
X12207657Y36247949D01*
X12320698Y36190352D01*
X12328454Y36187833D01*
X12387060Y36147760D01*
X12414697Y36082363D01*
X12402590Y36012406D01*
X12354584Y35960100D01*
X12328454Y35948167D01*
X12320698Y35945647D01*
X12207657Y35888050D01*
X12117949Y35798342D01*
X12079307Y35722502D01*
X12060354Y35685304D01*
X12045500Y35591519D01*
X12045500Y35591518D01*
X12045500Y35591515D01*
X12045500Y35284000D01*
X12025498Y35215879D01*
X11971842Y35169386D01*
X11919500Y35158000D01*
X11585195Y35158000D01*
X11517074Y35178002D01*
X11472928Y35226797D01*
X11440550Y35290342D01*
X11350842Y35380050D01*
X11237804Y35437646D01*
X11144019Y35452500D01*
X9683982Y35452499D01*
X9590196Y35437646D01*
X9533677Y35408848D01*
X9477157Y35380050D01*
X9387449Y35290342D01*
X9355072Y35226797D01*
X9329854Y35177304D01*
X9315000Y35083519D01*
X9315000Y35083515D01*
X9315000Y34131483D01*
X9329853Y34037697D01*
X9387449Y33924657D01*
X9477157Y33834949D01*
X9590194Y33777355D01*
X9590196Y33777354D01*
X9683981Y33762500D01*
X9683983Y33762500D01*
X9683984Y33762500D01*
X11144016Y33762500D01*
X11237802Y33777353D01*
X11350842Y33834949D01*
X11440550Y33924657D01*
X11472928Y33988203D01*
X11521676Y34039818D01*
X11585195Y34057000D01*
X11929568Y34057000D01*
X11997689Y34036998D01*
X12044182Y33983342D01*
X12054017Y33950709D01*
X12060353Y33910697D01*
X12117949Y33797657D01*
X12207657Y33707949D01*
X12318930Y33651254D01*
X12320696Y33650354D01*
X12414481Y33635500D01*
X13484000Y33635500D01*
X13552121Y33615498D01*
X13598614Y33561842D01*
X13610000Y33509500D01*
X13610000Y32921194D01*
X13589998Y32853073D01*
X13541203Y32808927D01*
X13511423Y32793754D01*
X13477659Y32776551D01*
X13477655Y32776548D01*
X13387949Y32686842D01*
X13330354Y32573804D01*
X13327834Y32566047D01*
X13287761Y32507441D01*
X13222365Y32479803D01*
X13152408Y32491908D01*
X13100101Y32539913D01*
X13088166Y32566047D01*
X13085646Y32573797D01*
X13085646Y32573804D01*
X13028050Y32686842D01*
X12938342Y32776550D01*
X12825304Y32834146D01*
X12731519Y32849000D01*
X11779482Y32848999D01*
X11685696Y32834146D01*
X11636201Y32808927D01*
X11572657Y32776550D01*
X11519095Y32722988D01*
X11456783Y32688962D01*
X11385968Y32694027D01*
X11340905Y32722988D01*
X11287344Y32776548D01*
X11287342Y32776550D01*
X11287340Y32776551D01*
X11174304Y32834146D01*
X11080519Y32849000D01*
X10128482Y32848999D01*
X10034696Y32834146D01*
X9985201Y32808927D01*
X9921657Y32776550D01*
X9831949Y32686842D01*
X9797890Y32619996D01*
X9774354Y32573804D01*
X9759500Y32480019D01*
X9759500Y32480018D01*
X9759500Y32480015D01*
X9759500Y31019983D01*
X9774353Y30926197D01*
X9831949Y30813157D01*
X9921657Y30723449D01*
X10034696Y30665853D01*
X10063477Y30661295D01*
X10127629Y30630882D01*
X10165155Y30570613D01*
X10164140Y30499624D01*
X10132859Y30447752D01*
X10085949Y30400842D01*
X10028354Y30287804D01*
X10025834Y30280047D01*
X9985761Y30221441D01*
X9920365Y30193803D01*
X9850408Y30205908D01*
X9798101Y30253913D01*
X9786166Y30280047D01*
X9783646Y30287797D01*
X9783646Y30287804D01*
X9726050Y30400842D01*
X9636342Y30490550D01*
X9523304Y30548146D01*
X9429519Y30563000D01*
X8477482Y30562999D01*
X8477481Y30562999D01*
X8471291Y30562018D01*
X8462121Y30560566D01*
X8391711Y30569664D01*
X8353317Y30595916D01*
X7689194Y31260039D01*
X7655170Y31322349D01*
X7653083Y31335026D01*
X7643369Y31421247D01*
X7643368Y31421247D01*
X7643368Y31421255D01*
X7583789Y31591522D01*
X7487816Y31744262D01*
X7360262Y31871816D01*
X7207522Y31967789D01*
X7037255Y32027368D01*
X6858000Y32047565D01*
X6678745Y32027368D01*
X6508478Y31967789D01*
X6508475Y31967787D01*
X6508474Y31967787D01*
X6355739Y31871817D01*
X6355737Y31871816D01*
X6228183Y31744262D01*
X6228182Y31744260D01*
X6132212Y31591525D01*
X6132211Y31591522D01*
X6072632Y31421255D01*
X6052435Y31242000D01*
X6072632Y31062745D01*
X6072632Y31062742D01*
X6072633Y31062742D01*
X6132211Y30892477D01*
X6132212Y30892474D01*
X6228182Y30739739D01*
X6228183Y30739737D01*
X6355737Y30612183D01*
X6355739Y30612182D01*
X6508474Y30516212D01*
X6508477Y30516211D01*
X6678741Y30456633D01*
X6678742Y30456632D01*
X6678745Y30456632D01*
X6738516Y30449897D01*
X6764974Y30446916D01*
X6830427Y30419411D01*
X6839960Y30410804D01*
X6917171Y30333592D01*
X6951195Y30271283D01*
X6946131Y30200467D01*
X6903585Y30143631D01*
X6837065Y30118820D01*
X6828075Y30118499D01*
X5556482Y30118499D01*
X5462696Y30103646D01*
X5450014Y30097184D01*
X5349657Y30046050D01*
X5259949Y29956342D01*
X5202354Y29843304D01*
X5199834Y29835547D01*
X5159761Y29776941D01*
X5094365Y29749303D01*
X5024408Y29761408D01*
X4972101Y29809413D01*
X4960166Y29835547D01*
X4957646Y29843297D01*
X4957646Y29843304D01*
X4900050Y29956342D01*
X4810342Y30046050D01*
X4697304Y30103646D01*
X4603519Y30118500D01*
X3016482Y30118499D01*
X2922696Y30103646D01*
X2910014Y30097184D01*
X2809657Y30046050D01*
X2719949Y29956342D01*
X2705206Y29927406D01*
X2662354Y29843304D01*
X2647500Y29749519D01*
X2647500Y29749518D01*
X2647500Y29749515D01*
X2647500Y28162483D01*
X2662353Y28068697D01*
X2719949Y27955657D01*
X2809657Y27865949D01*
X2922698Y27808352D01*
X2930454Y27805833D01*
X2989060Y27765760D01*
X3016697Y27700363D01*
X3004590Y27630406D01*
X2956584Y27578100D01*
X2930454Y27566167D01*
X2922698Y27563647D01*
X2809657Y27506050D01*
X2719949Y27416342D01*
X2696437Y27370196D01*
X2662354Y27303304D01*
X2647500Y27209519D01*
X2647500Y27209518D01*
X2647500Y27209515D01*
X2647500Y25622483D01*
X2662353Y25528697D01*
X2719949Y25415657D01*
X2809657Y25325949D01*
X2922698Y25268352D01*
X2930454Y25265833D01*
X2989060Y25225760D01*
X3016697Y25160363D01*
X3004590Y25090406D01*
X2956584Y25038100D01*
X2930454Y25026167D01*
X2922698Y25023647D01*
X2809657Y24966050D01*
X2719949Y24876342D01*
X2695581Y24828516D01*
X2662354Y24763304D01*
X2647500Y24669519D01*
X2647500Y24669518D01*
X2647500Y24669515D01*
X2647500Y23082483D01*
X2662353Y22988697D01*
X2719949Y22875657D01*
X2809657Y22785949D01*
X2922698Y22728352D01*
X2930454Y22725833D01*
X2989060Y22685760D01*
X3016697Y22620363D01*
X3004590Y22550406D01*
X2956584Y22498100D01*
X2930454Y22486167D01*
X2922698Y22483647D01*
X2809657Y22426050D01*
X2719949Y22336342D01*
X2687595Y22272842D01*
X2662354Y22223304D01*
X2647500Y22129519D01*
X2647500Y22129518D01*
X2647500Y22129515D01*
X2647500Y20542483D01*
X2662353Y20448697D01*
X2719949Y20335657D01*
X2809657Y20245949D01*
X2922698Y20188352D01*
X2930454Y20185833D01*
X2989060Y20145760D01*
X3016697Y20080363D01*
X3004590Y20010406D01*
X2956584Y19958100D01*
X2930454Y19946167D01*
X2922698Y19943647D01*
X2809657Y19886050D01*
X2719949Y19796342D01*
X2681307Y19720502D01*
X2662354Y19683304D01*
X2647500Y19589519D01*
X2647500Y19589518D01*
X2647500Y19589515D01*
X2647500Y18002483D01*
X2662353Y17908697D01*
X2719949Y17795657D01*
X2809657Y17705949D01*
X2922698Y17648352D01*
X2930454Y17645833D01*
X2989060Y17605760D01*
X3016697Y17540363D01*
X3004590Y17470406D01*
X2956584Y17418100D01*
X2930454Y17406167D01*
X2922698Y17403647D01*
X2809657Y17346050D01*
X2719949Y17256342D01*
X2681307Y17180502D01*
X2662354Y17143304D01*
X2647500Y17049519D01*
X2647500Y17049518D01*
X2647500Y17049515D01*
X2647500Y15462483D01*
X2662353Y15368697D01*
X2719949Y15255657D01*
X2809657Y15165949D01*
X2922698Y15108352D01*
X2930454Y15105833D01*
X2989060Y15065760D01*
X3016697Y15000363D01*
X3004590Y14930406D01*
X2956584Y14878100D01*
X2930454Y14866167D01*
X2922698Y14863647D01*
X2809657Y14806050D01*
X2719949Y14716342D01*
X2681307Y14640502D01*
X2662354Y14603304D01*
X2647500Y14509519D01*
X2647500Y14509518D01*
X2647500Y14509515D01*
X2647500Y12922483D01*
X329500Y12922483D01*
X329500Y40184500D01*
X349502Y40252621D01*
X403158Y40299114D01*
X455500Y40310500D01*
X40184500Y40310500D01*
X40252621Y40290498D01*
G37*
%TD.AperFunction*%
%TD*%
%TA.AperFunction,Conductor*%
%TO.N,/OUT3*%
G36*
X37534121Y27919998D02*
G01*
X37580614Y27866342D01*
X37592000Y27814000D01*
X37592000Y23748000D01*
X37571998Y23679879D01*
X37518342Y23633386D01*
X37466000Y23622000D01*
X32258000Y23622000D01*
X31242000Y23622000D01*
X29770190Y23622000D01*
X29702069Y23642002D01*
X29681099Y23658900D01*
X29210000Y24130000D01*
X22567264Y24130000D01*
X22516371Y24140736D01*
X22486368Y24153982D01*
X22473855Y24159508D01*
X22448066Y24162499D01*
X22448065Y24162500D01*
X22448064Y24162500D01*
X20954000Y24162500D01*
X20885879Y24182502D01*
X20839386Y24236158D01*
X20828000Y24288500D01*
X20828000Y25020000D01*
X20848002Y25088121D01*
X20901658Y25134614D01*
X20954000Y25146000D01*
X23876000Y25146000D01*
X24347096Y25617096D01*
X24409407Y25651120D01*
X24436190Y25654000D01*
X31750001Y25654000D01*
X32257999Y26161998D01*
X32258000Y26162000D01*
X32258000Y27125810D01*
X32278002Y27193931D01*
X32294905Y27214905D01*
X32983095Y27903095D01*
X33045407Y27937121D01*
X33072190Y27940000D01*
X37466000Y27940000D01*
X37534121Y27919998D01*
G37*
%TD.AperFunction*%
%TD*%
%TA.AperFunction,Conductor*%
%TO.N,/OUT1*%
G36*
X24145931Y18521998D02*
G01*
X24166905Y18505095D01*
X25363095Y17308905D01*
X25397121Y17246593D01*
X25400000Y17219810D01*
X25400000Y11937998D01*
X26161998Y11176000D01*
X26162000Y11176000D01*
X28068000Y11176000D01*
X28136121Y11155998D01*
X28182614Y11102342D01*
X28194000Y11050000D01*
X28194000Y7926190D01*
X28173998Y7858069D01*
X28157099Y7837099D01*
X27686000Y7366000D01*
X27686000Y7365999D01*
X27686000Y2920000D01*
X27665998Y2851879D01*
X27612342Y2805386D01*
X27560000Y2794000D01*
X23494000Y2794000D01*
X23425879Y2814002D01*
X23379386Y2867658D01*
X23368000Y2920000D01*
X23368000Y7059809D01*
X23388002Y7127930D01*
X23404905Y7148904D01*
X23621999Y7365998D01*
X23622000Y7366000D01*
X23622000Y11824656D01*
X23635684Y11881762D01*
X23646621Y11903273D01*
X23648799Y11907556D01*
X23668801Y11975677D01*
X23681500Y12064000D01*
X23681500Y16130000D01*
X23674336Y16196638D01*
X23662950Y16248980D01*
X23651705Y16288189D01*
X23639236Y16309507D01*
X23622000Y16373120D01*
X23622000Y17018000D01*
X23114000Y17526000D01*
X20954000Y17526000D01*
X20885879Y17546002D01*
X20839386Y17599658D01*
X20828000Y17652000D01*
X20828000Y18416000D01*
X20848002Y18484121D01*
X20901658Y18530614D01*
X20954000Y18542000D01*
X24077810Y18542000D01*
X24145931Y18521998D01*
G37*
%TD.AperFunction*%
%TD*%
M02*
