%TF.GenerationSoftware,KiCad,Pcbnew,7.0.11+1*%
%TF.CreationDate,2024-07-06T19:30:40+00:00*%
%TF.ProjectId,DIG4SW01,44494734-5357-4303-912e-6b696361645f,rev?*%
%TF.SameCoordinates,Original*%
%TF.FileFunction,Legend,Top*%
%TF.FilePolarity,Positive*%
%FSLAX46Y46*%
G04 Gerber Fmt 4.6, Leading zero omitted, Abs format (unit mm)*
G04 Created by KiCad (PCBNEW 7.0.11+1) date 2024-07-06 19:30:40*
%MOMM*%
%LPD*%
G01*
G04 APERTURE LIST*
%ADD10C,0.300000*%
%ADD11C,0.050000*%
%ADD12C,0.150000*%
%ADD13R,3.810000X3.810000*%
%ADD14R,1.524000X1.524000*%
G04 APERTURE END LIST*
D10*
X12509428Y16149100D02*
X11366571Y16149100D01*
X23185714Y32317671D02*
X23471428Y32317671D01*
X23471428Y32317671D02*
X23614285Y32246242D01*
X23614285Y32246242D02*
X23757142Y32103385D01*
X23757142Y32103385D02*
X23828571Y31817671D01*
X23828571Y31817671D02*
X23828571Y31317671D01*
X23828571Y31317671D02*
X23757142Y31031957D01*
X23757142Y31031957D02*
X23614285Y30889100D01*
X23614285Y30889100D02*
X23471428Y30817671D01*
X23471428Y30817671D02*
X23185714Y30817671D01*
X23185714Y30817671D02*
X23042857Y30889100D01*
X23042857Y30889100D02*
X22899999Y31031957D01*
X22899999Y31031957D02*
X22828571Y31317671D01*
X22828571Y31317671D02*
X22828571Y31817671D01*
X22828571Y31817671D02*
X22899999Y32103385D01*
X22899999Y32103385D02*
X23042857Y32246242D01*
X23042857Y32246242D02*
X23185714Y32317671D01*
X24471428Y32317671D02*
X24471428Y31103385D01*
X24471428Y31103385D02*
X24542857Y30960528D01*
X24542857Y30960528D02*
X24614286Y30889100D01*
X24614286Y30889100D02*
X24757143Y30817671D01*
X24757143Y30817671D02*
X25042857Y30817671D01*
X25042857Y30817671D02*
X25185714Y30889100D01*
X25185714Y30889100D02*
X25257143Y30960528D01*
X25257143Y30960528D02*
X25328571Y31103385D01*
X25328571Y31103385D02*
X25328571Y32317671D01*
X25828572Y32317671D02*
X26685715Y32317671D01*
X26257143Y30817671D02*
X26257143Y32317671D01*
X27828572Y31817671D02*
X27828572Y30817671D01*
X27471429Y32389100D02*
X27114286Y31317671D01*
X27114286Y31317671D02*
X28042857Y31317671D01*
X39937671Y28122285D02*
X39937671Y27836571D01*
X39937671Y27836571D02*
X39866242Y27693714D01*
X39866242Y27693714D02*
X39723385Y27550857D01*
X39723385Y27550857D02*
X39437671Y27479428D01*
X39437671Y27479428D02*
X38937671Y27479428D01*
X38937671Y27479428D02*
X38651957Y27550857D01*
X38651957Y27550857D02*
X38509100Y27693714D01*
X38509100Y27693714D02*
X38437671Y27836571D01*
X38437671Y27836571D02*
X38437671Y28122285D01*
X38437671Y28122285D02*
X38509100Y28265143D01*
X38509100Y28265143D02*
X38651957Y28408000D01*
X38651957Y28408000D02*
X38937671Y28479428D01*
X38937671Y28479428D02*
X39437671Y28479428D01*
X39437671Y28479428D02*
X39723385Y28408000D01*
X39723385Y28408000D02*
X39866242Y28265143D01*
X39866242Y28265143D02*
X39937671Y28122285D01*
X39937671Y26836571D02*
X38723385Y26836571D01*
X38723385Y26836571D02*
X38580528Y26765142D01*
X38580528Y26765142D02*
X38509100Y26693714D01*
X38509100Y26693714D02*
X38437671Y26550856D01*
X38437671Y26550856D02*
X38437671Y26265142D01*
X38437671Y26265142D02*
X38509100Y26122285D01*
X38509100Y26122285D02*
X38580528Y26050856D01*
X38580528Y26050856D02*
X38723385Y25979428D01*
X38723385Y25979428D02*
X39937671Y25979428D01*
X39937671Y25479427D02*
X39937671Y24622285D01*
X38437671Y25050856D02*
X39937671Y25050856D01*
X39937671Y24265142D02*
X39937671Y23336570D01*
X39937671Y23336570D02*
X39366242Y23836570D01*
X39366242Y23836570D02*
X39366242Y23622285D01*
X39366242Y23622285D02*
X39294814Y23479428D01*
X39294814Y23479428D02*
X39223385Y23407999D01*
X39223385Y23407999D02*
X39080528Y23336570D01*
X39080528Y23336570D02*
X38723385Y23336570D01*
X38723385Y23336570D02*
X38580528Y23407999D01*
X38580528Y23407999D02*
X38509100Y23479428D01*
X38509100Y23479428D02*
X38437671Y23622285D01*
X38437671Y23622285D02*
X38437671Y24050856D01*
X38437671Y24050856D02*
X38509100Y24193713D01*
X38509100Y24193713D02*
X38580528Y24265142D01*
X31809671Y16946285D02*
X31809671Y16660571D01*
X31809671Y16660571D02*
X31738242Y16517714D01*
X31738242Y16517714D02*
X31595385Y16374857D01*
X31595385Y16374857D02*
X31309671Y16303428D01*
X31309671Y16303428D02*
X30809671Y16303428D01*
X30809671Y16303428D02*
X30523957Y16374857D01*
X30523957Y16374857D02*
X30381100Y16517714D01*
X30381100Y16517714D02*
X30309671Y16660571D01*
X30309671Y16660571D02*
X30309671Y16946285D01*
X30309671Y16946285D02*
X30381100Y17089143D01*
X30381100Y17089143D02*
X30523957Y17232000D01*
X30523957Y17232000D02*
X30809671Y17303428D01*
X30809671Y17303428D02*
X31309671Y17303428D01*
X31309671Y17303428D02*
X31595385Y17232000D01*
X31595385Y17232000D02*
X31738242Y17089143D01*
X31738242Y17089143D02*
X31809671Y16946285D01*
X31809671Y15660571D02*
X30595385Y15660571D01*
X30595385Y15660571D02*
X30452528Y15589142D01*
X30452528Y15589142D02*
X30381100Y15517714D01*
X30381100Y15517714D02*
X30309671Y15374856D01*
X30309671Y15374856D02*
X30309671Y15089142D01*
X30309671Y15089142D02*
X30381100Y14946285D01*
X30381100Y14946285D02*
X30452528Y14874856D01*
X30452528Y14874856D02*
X30595385Y14803428D01*
X30595385Y14803428D02*
X31809671Y14803428D01*
X31809671Y14303427D02*
X31809671Y13446285D01*
X30309671Y13874856D02*
X31809671Y13874856D01*
X31666814Y13017713D02*
X31738242Y12946285D01*
X31738242Y12946285D02*
X31809671Y12803428D01*
X31809671Y12803428D02*
X31809671Y12446285D01*
X31809671Y12446285D02*
X31738242Y12303428D01*
X31738242Y12303428D02*
X31666814Y12231999D01*
X31666814Y12231999D02*
X31523957Y12160570D01*
X31523957Y12160570D02*
X31381100Y12160570D01*
X31381100Y12160570D02*
X31166814Y12231999D01*
X31166814Y12231999D02*
X30309671Y13089142D01*
X30309671Y13089142D02*
X30309671Y12160570D01*
X23185714Y9711671D02*
X23471428Y9711671D01*
X23471428Y9711671D02*
X23614285Y9640242D01*
X23614285Y9640242D02*
X23757142Y9497385D01*
X23757142Y9497385D02*
X23828571Y9211671D01*
X23828571Y9211671D02*
X23828571Y8711671D01*
X23828571Y8711671D02*
X23757142Y8425957D01*
X23757142Y8425957D02*
X23614285Y8283100D01*
X23614285Y8283100D02*
X23471428Y8211671D01*
X23471428Y8211671D02*
X23185714Y8211671D01*
X23185714Y8211671D02*
X23042857Y8283100D01*
X23042857Y8283100D02*
X22899999Y8425957D01*
X22899999Y8425957D02*
X22828571Y8711671D01*
X22828571Y8711671D02*
X22828571Y9211671D01*
X22828571Y9211671D02*
X22899999Y9497385D01*
X22899999Y9497385D02*
X23042857Y9640242D01*
X23042857Y9640242D02*
X23185714Y9711671D01*
X24471428Y9711671D02*
X24471428Y8497385D01*
X24471428Y8497385D02*
X24542857Y8354528D01*
X24542857Y8354528D02*
X24614286Y8283100D01*
X24614286Y8283100D02*
X24757143Y8211671D01*
X24757143Y8211671D02*
X25042857Y8211671D01*
X25042857Y8211671D02*
X25185714Y8283100D01*
X25185714Y8283100D02*
X25257143Y8354528D01*
X25257143Y8354528D02*
X25328571Y8497385D01*
X25328571Y8497385D02*
X25328571Y9711671D01*
X25828572Y9711671D02*
X26685715Y9711671D01*
X26257143Y8211671D02*
X26257143Y9711671D01*
X27971429Y8211671D02*
X27114286Y8211671D01*
X27542857Y8211671D02*
X27542857Y9711671D01*
X27542857Y9711671D02*
X27400000Y9497385D01*
X27400000Y9497385D02*
X27257143Y9354528D01*
X27257143Y9354528D02*
X27114286Y9283100D01*
X29269671Y27962224D02*
X27769671Y27462224D01*
X27769671Y27462224D02*
X29269671Y26962224D01*
X27912528Y25605082D02*
X27841100Y25676510D01*
X27841100Y25676510D02*
X27769671Y25890796D01*
X27769671Y25890796D02*
X27769671Y26033653D01*
X27769671Y26033653D02*
X27841100Y26247939D01*
X27841100Y26247939D02*
X27983957Y26390796D01*
X27983957Y26390796D02*
X28126814Y26462225D01*
X28126814Y26462225D02*
X28412528Y26533653D01*
X28412528Y26533653D02*
X28626814Y26533653D01*
X28626814Y26533653D02*
X28912528Y26462225D01*
X28912528Y26462225D02*
X29055385Y26390796D01*
X29055385Y26390796D02*
X29198242Y26247939D01*
X29198242Y26247939D02*
X29269671Y26033653D01*
X29269671Y26033653D02*
X29269671Y25890796D01*
X29269671Y25890796D02*
X29198242Y25676510D01*
X29198242Y25676510D02*
X29126814Y25605082D01*
X27912528Y24105082D02*
X27841100Y24176510D01*
X27841100Y24176510D02*
X27769671Y24390796D01*
X27769671Y24390796D02*
X27769671Y24533653D01*
X27769671Y24533653D02*
X27841100Y24747939D01*
X27841100Y24747939D02*
X27983957Y24890796D01*
X27983957Y24890796D02*
X28126814Y24962225D01*
X28126814Y24962225D02*
X28412528Y25033653D01*
X28412528Y25033653D02*
X28626814Y25033653D01*
X28626814Y25033653D02*
X28912528Y24962225D01*
X28912528Y24962225D02*
X29055385Y24890796D01*
X29055385Y24890796D02*
X29198242Y24747939D01*
X29198242Y24747939D02*
X29269671Y24533653D01*
X29269671Y24533653D02*
X29269671Y24390796D01*
X29269671Y24390796D02*
X29198242Y24176510D01*
X29198242Y24176510D02*
X29126814Y24105082D01*
X31738242Y27247939D02*
X31809671Y27390797D01*
X31809671Y27390797D02*
X31809671Y27605082D01*
X31809671Y27605082D02*
X31738242Y27819368D01*
X31738242Y27819368D02*
X31595385Y27962225D01*
X31595385Y27962225D02*
X31452528Y28033654D01*
X31452528Y28033654D02*
X31166814Y28105082D01*
X31166814Y28105082D02*
X30952528Y28105082D01*
X30952528Y28105082D02*
X30666814Y28033654D01*
X30666814Y28033654D02*
X30523957Y27962225D01*
X30523957Y27962225D02*
X30381100Y27819368D01*
X30381100Y27819368D02*
X30309671Y27605082D01*
X30309671Y27605082D02*
X30309671Y27462225D01*
X30309671Y27462225D02*
X30381100Y27247939D01*
X30381100Y27247939D02*
X30452528Y27176511D01*
X30452528Y27176511D02*
X30952528Y27176511D01*
X30952528Y27176511D02*
X30952528Y27462225D01*
X30309671Y26533654D02*
X31809671Y26533654D01*
X31809671Y26533654D02*
X30309671Y25676511D01*
X30309671Y25676511D02*
X31809671Y25676511D01*
X30309671Y24962225D02*
X31809671Y24962225D01*
X31809671Y24962225D02*
X31809671Y24605082D01*
X31809671Y24605082D02*
X31738242Y24390796D01*
X31738242Y24390796D02*
X31595385Y24247939D01*
X31595385Y24247939D02*
X31452528Y24176510D01*
X31452528Y24176510D02*
X31166814Y24105082D01*
X31166814Y24105082D02*
X30952528Y24105082D01*
X30952528Y24105082D02*
X30666814Y24176510D01*
X30666814Y24176510D02*
X30523957Y24247939D01*
X30523957Y24247939D02*
X30381100Y24390796D01*
X30381100Y24390796D02*
X30309671Y24605082D01*
X30309671Y24605082D02*
X30309671Y24962225D01*
X8611082Y29277671D02*
X9682510Y29277671D01*
X9039653Y29920528D02*
X8611082Y27991957D01*
X9539653Y28634814D02*
X8468225Y28634814D01*
X9111082Y27991957D02*
X9539653Y29920528D01*
X10682510Y29063385D02*
X10182510Y29063385D01*
X10182510Y28277671D02*
X10182510Y29777671D01*
X10182510Y29777671D02*
X10896796Y29777671D01*
X11396796Y28706242D02*
X12111082Y28706242D01*
X11253939Y28277671D02*
X11753939Y29777671D01*
X11753939Y29777671D02*
X12253939Y28277671D01*
X12753938Y29777671D02*
X12753938Y28563385D01*
X12753938Y28563385D02*
X12825367Y28420528D01*
X12825367Y28420528D02*
X12896796Y28349100D01*
X12896796Y28349100D02*
X13039653Y28277671D01*
X13039653Y28277671D02*
X13325367Y28277671D01*
X13325367Y28277671D02*
X13468224Y28349100D01*
X13468224Y28349100D02*
X13539653Y28420528D01*
X13539653Y28420528D02*
X13611081Y28563385D01*
X13611081Y28563385D02*
X13611081Y29777671D01*
X8611082Y25809100D02*
X8825368Y25737671D01*
X8825368Y25737671D02*
X9182510Y25737671D01*
X9182510Y25737671D02*
X9325368Y25809100D01*
X9325368Y25809100D02*
X9396796Y25880528D01*
X9396796Y25880528D02*
X9468225Y26023385D01*
X9468225Y26023385D02*
X9468225Y26166242D01*
X9468225Y26166242D02*
X9396796Y26309100D01*
X9396796Y26309100D02*
X9325368Y26380528D01*
X9325368Y26380528D02*
X9182510Y26451957D01*
X9182510Y26451957D02*
X8896796Y26523385D01*
X8896796Y26523385D02*
X8753939Y26594814D01*
X8753939Y26594814D02*
X8682510Y26666242D01*
X8682510Y26666242D02*
X8611082Y26809100D01*
X8611082Y26809100D02*
X8611082Y26951957D01*
X8611082Y26951957D02*
X8682510Y27094814D01*
X8682510Y27094814D02*
X8753939Y27166242D01*
X8753939Y27166242D02*
X8896796Y27237671D01*
X8896796Y27237671D02*
X9253939Y27237671D01*
X9253939Y27237671D02*
X9468225Y27166242D01*
X10111081Y26523385D02*
X10611081Y26523385D01*
X10825367Y25737671D02*
X10111081Y25737671D01*
X10111081Y25737671D02*
X10111081Y27237671D01*
X10111081Y27237671D02*
X10825367Y27237671D01*
X12182510Y25737671D02*
X11468224Y25737671D01*
X11468224Y25737671D02*
X11468224Y27237671D01*
X8611082Y23269100D02*
X8825368Y23197671D01*
X8825368Y23197671D02*
X9182510Y23197671D01*
X9182510Y23197671D02*
X9325368Y23269100D01*
X9325368Y23269100D02*
X9396796Y23340528D01*
X9396796Y23340528D02*
X9468225Y23483385D01*
X9468225Y23483385D02*
X9468225Y23626242D01*
X9468225Y23626242D02*
X9396796Y23769100D01*
X9396796Y23769100D02*
X9325368Y23840528D01*
X9325368Y23840528D02*
X9182510Y23911957D01*
X9182510Y23911957D02*
X8896796Y23983385D01*
X8896796Y23983385D02*
X8753939Y24054814D01*
X8753939Y24054814D02*
X8682510Y24126242D01*
X8682510Y24126242D02*
X8611082Y24269100D01*
X8611082Y24269100D02*
X8611082Y24411957D01*
X8611082Y24411957D02*
X8682510Y24554814D01*
X8682510Y24554814D02*
X8753939Y24626242D01*
X8753939Y24626242D02*
X8896796Y24697671D01*
X8896796Y24697671D02*
X9253939Y24697671D01*
X9253939Y24697671D02*
X9468225Y24626242D01*
X10111081Y23983385D02*
X10611081Y23983385D01*
X10825367Y23197671D02*
X10111081Y23197671D01*
X10111081Y23197671D02*
X10111081Y24697671D01*
X10111081Y24697671D02*
X10825367Y24697671D01*
X11468224Y23197671D02*
X11468224Y24697671D01*
X11468224Y23983385D02*
X12325367Y23983385D01*
X12325367Y23197671D02*
X12325367Y24697671D01*
X8682510Y20911671D02*
X8682510Y22411671D01*
X9396796Y20911671D02*
X9396796Y22411671D01*
X9396796Y22411671D02*
X10253939Y20911671D01*
X10253939Y20911671D02*
X10253939Y22411671D01*
X11611083Y21911671D02*
X11611083Y20911671D01*
X11253940Y22483100D02*
X10896797Y21411671D01*
X10896797Y21411671D02*
X11825368Y21411671D01*
X8682510Y18371671D02*
X8682510Y19871671D01*
X9396796Y18371671D02*
X9396796Y19871671D01*
X9396796Y19871671D02*
X10253939Y18371671D01*
X10253939Y18371671D02*
X10253939Y19871671D01*
X10825368Y19871671D02*
X11753940Y19871671D01*
X11753940Y19871671D02*
X11253940Y19300242D01*
X11253940Y19300242D02*
X11468225Y19300242D01*
X11468225Y19300242D02*
X11611083Y19228814D01*
X11611083Y19228814D02*
X11682511Y19157385D01*
X11682511Y19157385D02*
X11753940Y19014528D01*
X11753940Y19014528D02*
X11753940Y18657385D01*
X11753940Y18657385D02*
X11682511Y18514528D01*
X11682511Y18514528D02*
X11611083Y18443100D01*
X11611083Y18443100D02*
X11468225Y18371671D01*
X11468225Y18371671D02*
X11039654Y18371671D01*
X11039654Y18371671D02*
X10896797Y18443100D01*
X10896797Y18443100D02*
X10825368Y18514528D01*
X2057524Y9542290D02*
X1933714Y9604195D01*
X1933714Y9604195D02*
X1748000Y9604195D01*
X1748000Y9604195D02*
X1562286Y9542290D01*
X1562286Y9542290D02*
X1438476Y9418480D01*
X1438476Y9418480D02*
X1376571Y9294671D01*
X1376571Y9294671D02*
X1314667Y9047052D01*
X1314667Y9047052D02*
X1314667Y8861338D01*
X1314667Y8861338D02*
X1376571Y8613719D01*
X1376571Y8613719D02*
X1438476Y8489909D01*
X1438476Y8489909D02*
X1562286Y8366100D01*
X1562286Y8366100D02*
X1748000Y8304195D01*
X1748000Y8304195D02*
X1871809Y8304195D01*
X1871809Y8304195D02*
X2057524Y8366100D01*
X2057524Y8366100D02*
X2119428Y8428004D01*
X2119428Y8428004D02*
X2119428Y8861338D01*
X2119428Y8861338D02*
X1871809Y8861338D01*
X2676571Y8304195D02*
X2676571Y9604195D01*
X2676571Y9604195D02*
X3419428Y8304195D01*
X3419428Y8304195D02*
X3419428Y9604195D01*
X4038476Y8304195D02*
X4038476Y9604195D01*
X4038476Y9604195D02*
X4348000Y9604195D01*
X4348000Y9604195D02*
X4533714Y9542290D01*
X4533714Y9542290D02*
X4657524Y9418480D01*
X4657524Y9418480D02*
X4719429Y9294671D01*
X4719429Y9294671D02*
X4781333Y9047052D01*
X4781333Y9047052D02*
X4781333Y8861338D01*
X4781333Y8861338D02*
X4719429Y8613719D01*
X4719429Y8613719D02*
X4657524Y8489909D01*
X4657524Y8489909D02*
X4533714Y8366100D01*
X4533714Y8366100D02*
X4348000Y8304195D01*
X4348000Y8304195D02*
X4038476Y8304195D01*
X2109804Y15463999D02*
X809804Y15463999D01*
X2109804Y16083047D02*
X809804Y16083047D01*
X809804Y16083047D02*
X2109804Y16825904D01*
X2109804Y16825904D02*
X809804Y16825904D01*
X933614Y17383048D02*
X871709Y17444952D01*
X871709Y17444952D02*
X809804Y17568762D01*
X809804Y17568762D02*
X809804Y17878286D01*
X809804Y17878286D02*
X871709Y18002095D01*
X871709Y18002095D02*
X933614Y18064000D01*
X933614Y18064000D02*
X1057423Y18125905D01*
X1057423Y18125905D02*
X1181233Y18125905D01*
X1181233Y18125905D02*
X1366947Y18064000D01*
X1366947Y18064000D02*
X2109804Y17321143D01*
X2109804Y17321143D02*
X2109804Y18125905D01*
X12672528Y32116346D02*
X12601100Y32187774D01*
X12601100Y32187774D02*
X12529671Y32402060D01*
X12529671Y32402060D02*
X12529671Y32544917D01*
X12529671Y32544917D02*
X12601100Y32759203D01*
X12601100Y32759203D02*
X12743957Y32902060D01*
X12743957Y32902060D02*
X12886814Y32973489D01*
X12886814Y32973489D02*
X13172528Y33044917D01*
X13172528Y33044917D02*
X13386814Y33044917D01*
X13386814Y33044917D02*
X13672528Y32973489D01*
X13672528Y32973489D02*
X13815385Y32902060D01*
X13815385Y32902060D02*
X13958242Y32759203D01*
X13958242Y32759203D02*
X14029671Y32544917D01*
X14029671Y32544917D02*
X14029671Y32402060D01*
X14029671Y32402060D02*
X13958242Y32187774D01*
X13958242Y32187774D02*
X13886814Y32116346D01*
X12601100Y31544917D02*
X12529671Y31330632D01*
X12529671Y31330632D02*
X12529671Y30973489D01*
X12529671Y30973489D02*
X12601100Y30830632D01*
X12601100Y30830632D02*
X12672528Y30759203D01*
X12672528Y30759203D02*
X12815385Y30687774D01*
X12815385Y30687774D02*
X12958242Y30687774D01*
X12958242Y30687774D02*
X13101100Y30759203D01*
X13101100Y30759203D02*
X13172528Y30830632D01*
X13172528Y30830632D02*
X13243957Y30973489D01*
X13243957Y30973489D02*
X13315385Y31259203D01*
X13315385Y31259203D02*
X13386814Y31402060D01*
X13386814Y31402060D02*
X13458242Y31473489D01*
X13458242Y31473489D02*
X13601100Y31544917D01*
X13601100Y31544917D02*
X13743957Y31544917D01*
X13743957Y31544917D02*
X13886814Y31473489D01*
X13886814Y31473489D02*
X13958242Y31402060D01*
X13958242Y31402060D02*
X14029671Y31259203D01*
X14029671Y31259203D02*
X14029671Y30902060D01*
X14029671Y30902060D02*
X13958242Y30687774D01*
X16569671Y33187774D02*
X16569671Y32330632D01*
X15069671Y32759203D02*
X16569671Y32759203D01*
X15069671Y31830632D02*
X16569671Y31830632D01*
X15855385Y31830632D02*
X15855385Y30973489D01*
X15069671Y30973489D02*
X16569671Y30973489D01*
X15855385Y30259203D02*
X15855385Y29759203D01*
X15069671Y29544917D02*
X15069671Y30259203D01*
X15069671Y30259203D02*
X16569671Y30259203D01*
X16569671Y30259203D02*
X16569671Y29544917D01*
X15069671Y28044917D02*
X15783957Y28544917D01*
X15069671Y28902060D02*
X16569671Y28902060D01*
X16569671Y28902060D02*
X16569671Y28330631D01*
X16569671Y28330631D02*
X16498242Y28187774D01*
X16498242Y28187774D02*
X16426814Y28116345D01*
X16426814Y28116345D02*
X16283957Y28044917D01*
X16283957Y28044917D02*
X16069671Y28044917D01*
X16069671Y28044917D02*
X15926814Y28116345D01*
X15926814Y28116345D02*
X15855385Y28187774D01*
X15855385Y28187774D02*
X15783957Y28330631D01*
X15783957Y28330631D02*
X15783957Y28902060D01*
X18395385Y32973489D02*
X18395385Y32473489D01*
X17609671Y32259203D02*
X17609671Y32973489D01*
X17609671Y32973489D02*
X19109671Y32973489D01*
X19109671Y32973489D02*
X19109671Y32259203D01*
X17609671Y31616346D02*
X19109671Y31616346D01*
X19109671Y31616346D02*
X17609671Y30759203D01*
X17609671Y30759203D02*
X19109671Y30759203D01*
X21073146Y30260096D02*
X22773146Y30260096D01*
X22773146Y30260096D02*
X22773146Y29855334D01*
X22773146Y29855334D02*
X22692194Y29612477D01*
X22692194Y29612477D02*
X22530289Y29450572D01*
X22530289Y29450572D02*
X22368384Y29369619D01*
X22368384Y29369619D02*
X22044575Y29288667D01*
X22044575Y29288667D02*
X21801718Y29288667D01*
X21801718Y29288667D02*
X21477908Y29369619D01*
X21477908Y29369619D02*
X21316003Y29450572D01*
X21316003Y29450572D02*
X21154099Y29612477D01*
X21154099Y29612477D02*
X21073146Y29855334D01*
X21073146Y29855334D02*
X21073146Y30260096D01*
X21073146Y28560096D02*
X22773146Y28560096D01*
X22692194Y26860095D02*
X22773146Y27022000D01*
X22773146Y27022000D02*
X22773146Y27264857D01*
X22773146Y27264857D02*
X22692194Y27507714D01*
X22692194Y27507714D02*
X22530289Y27669619D01*
X22530289Y27669619D02*
X22368384Y27750572D01*
X22368384Y27750572D02*
X22044575Y27831524D01*
X22044575Y27831524D02*
X21801718Y27831524D01*
X21801718Y27831524D02*
X21477908Y27750572D01*
X21477908Y27750572D02*
X21316003Y27669619D01*
X21316003Y27669619D02*
X21154099Y27507714D01*
X21154099Y27507714D02*
X21073146Y27264857D01*
X21073146Y27264857D02*
X21073146Y27102953D01*
X21073146Y27102953D02*
X21154099Y26860095D01*
X21154099Y26860095D02*
X21235051Y26779143D01*
X21235051Y26779143D02*
X21801718Y26779143D01*
X21801718Y26779143D02*
X21801718Y27102953D01*
X22206479Y25322000D02*
X21073146Y25322000D01*
X22854099Y25726762D02*
X21639813Y26131524D01*
X21639813Y26131524D02*
X21639813Y25079143D01*
X21154099Y24512476D02*
X21073146Y24269619D01*
X21073146Y24269619D02*
X21073146Y23864857D01*
X21073146Y23864857D02*
X21154099Y23702952D01*
X21154099Y23702952D02*
X21235051Y23622000D01*
X21235051Y23622000D02*
X21396956Y23541047D01*
X21396956Y23541047D02*
X21558860Y23541047D01*
X21558860Y23541047D02*
X21720765Y23622000D01*
X21720765Y23622000D02*
X21801718Y23702952D01*
X21801718Y23702952D02*
X21882670Y23864857D01*
X21882670Y23864857D02*
X21963622Y24188666D01*
X21963622Y24188666D02*
X22044575Y24350571D01*
X22044575Y24350571D02*
X22125527Y24431524D01*
X22125527Y24431524D02*
X22287432Y24512476D01*
X22287432Y24512476D02*
X22449337Y24512476D01*
X22449337Y24512476D02*
X22611241Y24431524D01*
X22611241Y24431524D02*
X22692194Y24350571D01*
X22692194Y24350571D02*
X22773146Y24188666D01*
X22773146Y24188666D02*
X22773146Y23783905D01*
X22773146Y23783905D02*
X22692194Y23541047D01*
X22773146Y22974380D02*
X21073146Y22569618D01*
X21073146Y22569618D02*
X22287432Y22245809D01*
X22287432Y22245809D02*
X21073146Y21921999D01*
X21073146Y21921999D02*
X22773146Y21517238D01*
X22773146Y20545809D02*
X22773146Y20383904D01*
X22773146Y20383904D02*
X22692194Y20222000D01*
X22692194Y20222000D02*
X22611241Y20141047D01*
X22611241Y20141047D02*
X22449337Y20060095D01*
X22449337Y20060095D02*
X22125527Y19979142D01*
X22125527Y19979142D02*
X21720765Y19979142D01*
X21720765Y19979142D02*
X21396956Y20060095D01*
X21396956Y20060095D02*
X21235051Y20141047D01*
X21235051Y20141047D02*
X21154099Y20222000D01*
X21154099Y20222000D02*
X21073146Y20383904D01*
X21073146Y20383904D02*
X21073146Y20545809D01*
X21073146Y20545809D02*
X21154099Y20707714D01*
X21154099Y20707714D02*
X21235051Y20788666D01*
X21235051Y20788666D02*
X21396956Y20869619D01*
X21396956Y20869619D02*
X21720765Y20950571D01*
X21720765Y20950571D02*
X22125527Y20950571D01*
X22125527Y20950571D02*
X22449337Y20869619D01*
X22449337Y20869619D02*
X22611241Y20788666D01*
X22611241Y20788666D02*
X22692194Y20707714D01*
X22692194Y20707714D02*
X22773146Y20545809D01*
X21073146Y18360094D02*
X21073146Y19331523D01*
X21073146Y18845809D02*
X22773146Y18845809D01*
X22773146Y18845809D02*
X22530289Y19007713D01*
X22530289Y19007713D02*
X22368384Y19169618D01*
X22368384Y19169618D02*
X22287432Y19331523D01*
X21558860Y17712475D02*
X21558860Y16902951D01*
X21073146Y17874380D02*
X22773146Y17307713D01*
X22773146Y17307713D02*
X21073146Y16741046D01*
X27007671Y19561428D02*
X28507671Y19561428D01*
X28507671Y19561428D02*
X27436242Y19061428D01*
X27436242Y19061428D02*
X28507671Y18561428D01*
X28507671Y18561428D02*
X27007671Y18561428D01*
X27007671Y17132856D02*
X27007671Y17847142D01*
X27007671Y17847142D02*
X28507671Y17847142D01*
X27436242Y16704284D02*
X27436242Y15989999D01*
X27007671Y16847141D02*
X28507671Y16347141D01*
X28507671Y16347141D02*
X27007671Y15847141D01*
X27793385Y14847142D02*
X27721957Y14632856D01*
X27721957Y14632856D02*
X27650528Y14561427D01*
X27650528Y14561427D02*
X27507671Y14489999D01*
X27507671Y14489999D02*
X27293385Y14489999D01*
X27293385Y14489999D02*
X27150528Y14561427D01*
X27150528Y14561427D02*
X27079100Y14632856D01*
X27079100Y14632856D02*
X27007671Y14775713D01*
X27007671Y14775713D02*
X27007671Y15347142D01*
X27007671Y15347142D02*
X28507671Y15347142D01*
X28507671Y15347142D02*
X28507671Y14847142D01*
X28507671Y14847142D02*
X28436242Y14704285D01*
X28436242Y14704285D02*
X28364814Y14632856D01*
X28364814Y14632856D02*
X28221957Y14561427D01*
X28221957Y14561427D02*
X28079100Y14561427D01*
X28079100Y14561427D02*
X27936242Y14632856D01*
X27936242Y14632856D02*
X27864814Y14704285D01*
X27864814Y14704285D02*
X27793385Y14847142D01*
X27793385Y14847142D02*
X27793385Y15347142D01*
X27150528Y13847142D02*
X27079100Y13775713D01*
X27079100Y13775713D02*
X27007671Y13847142D01*
X27007671Y13847142D02*
X27079100Y13918570D01*
X27079100Y13918570D02*
X27150528Y13847142D01*
X27150528Y13847142D02*
X27007671Y13847142D01*
X27150528Y12275713D02*
X27079100Y12347141D01*
X27079100Y12347141D02*
X27007671Y12561427D01*
X27007671Y12561427D02*
X27007671Y12704284D01*
X27007671Y12704284D02*
X27079100Y12918570D01*
X27079100Y12918570D02*
X27221957Y13061427D01*
X27221957Y13061427D02*
X27364814Y13132856D01*
X27364814Y13132856D02*
X27650528Y13204284D01*
X27650528Y13204284D02*
X27864814Y13204284D01*
X27864814Y13204284D02*
X28150528Y13132856D01*
X28150528Y13132856D02*
X28293385Y13061427D01*
X28293385Y13061427D02*
X28436242Y12918570D01*
X28436242Y12918570D02*
X28507671Y12704284D01*
X28507671Y12704284D02*
X28507671Y12561427D01*
X28507671Y12561427D02*
X28436242Y12347141D01*
X28436242Y12347141D02*
X28364814Y12275713D01*
X28507671Y11775713D02*
X28507671Y10775713D01*
X28507671Y10775713D02*
X27007671Y11775713D01*
X27007671Y11775713D02*
X27007671Y10775713D01*
X25316814Y17811427D02*
X25388242Y17739999D01*
X25388242Y17739999D02*
X25459671Y17597142D01*
X25459671Y17597142D02*
X25459671Y17239999D01*
X25459671Y17239999D02*
X25388242Y17097142D01*
X25388242Y17097142D02*
X25316814Y17025713D01*
X25316814Y17025713D02*
X25173957Y16954284D01*
X25173957Y16954284D02*
X25031100Y16954284D01*
X25031100Y16954284D02*
X24816814Y17025713D01*
X24816814Y17025713D02*
X23959671Y17882856D01*
X23959671Y17882856D02*
X23959671Y16954284D01*
X25459671Y16025713D02*
X25459671Y15882856D01*
X25459671Y15882856D02*
X25388242Y15739999D01*
X25388242Y15739999D02*
X25316814Y15668571D01*
X25316814Y15668571D02*
X25173957Y15597142D01*
X25173957Y15597142D02*
X24888242Y15525713D01*
X24888242Y15525713D02*
X24531100Y15525713D01*
X24531100Y15525713D02*
X24245385Y15597142D01*
X24245385Y15597142D02*
X24102528Y15668571D01*
X24102528Y15668571D02*
X24031100Y15739999D01*
X24031100Y15739999D02*
X23959671Y15882856D01*
X23959671Y15882856D02*
X23959671Y16025713D01*
X23959671Y16025713D02*
X24031100Y16168571D01*
X24031100Y16168571D02*
X24102528Y16239999D01*
X24102528Y16239999D02*
X24245385Y16311428D01*
X24245385Y16311428D02*
X24531100Y16382856D01*
X24531100Y16382856D02*
X24888242Y16382856D01*
X24888242Y16382856D02*
X25173957Y16311428D01*
X25173957Y16311428D02*
X25316814Y16239999D01*
X25316814Y16239999D02*
X25388242Y16168571D01*
X25388242Y16168571D02*
X25459671Y16025713D01*
X23959671Y14097142D02*
X23959671Y14954285D01*
X23959671Y14525714D02*
X25459671Y14525714D01*
X25459671Y14525714D02*
X25245385Y14668571D01*
X25245385Y14668571D02*
X25102528Y14811428D01*
X25102528Y14811428D02*
X25031100Y14954285D01*
X25459671Y13597143D02*
X25459671Y12597143D01*
X25459671Y12597143D02*
X23959671Y13240000D01*
X10981671Y38817999D02*
X9910242Y38817999D01*
X9910242Y38817999D02*
X9695957Y38889428D01*
X9695957Y38889428D02*
X9553100Y39032285D01*
X9553100Y39032285D02*
X9481671Y39246571D01*
X9481671Y39246571D02*
X9481671Y39389428D01*
X9910242Y38175142D02*
X9910242Y37460857D01*
X9481671Y38317999D02*
X10981671Y37817999D01*
X10981671Y37817999D02*
X9481671Y37317999D01*
X9624528Y35960857D02*
X9553100Y36032285D01*
X9553100Y36032285D02*
X9481671Y36246571D01*
X9481671Y36246571D02*
X9481671Y36389428D01*
X9481671Y36389428D02*
X9553100Y36603714D01*
X9553100Y36603714D02*
X9695957Y36746571D01*
X9695957Y36746571D02*
X9838814Y36818000D01*
X9838814Y36818000D02*
X10124528Y36889428D01*
X10124528Y36889428D02*
X10338814Y36889428D01*
X10338814Y36889428D02*
X10624528Y36818000D01*
X10624528Y36818000D02*
X10767385Y36746571D01*
X10767385Y36746571D02*
X10910242Y36603714D01*
X10910242Y36603714D02*
X10981671Y36389428D01*
X10981671Y36389428D02*
X10981671Y36246571D01*
X10981671Y36246571D02*
X10910242Y36032285D01*
X10910242Y36032285D02*
X10838814Y35960857D01*
X9481671Y35318000D02*
X10981671Y35318000D01*
X10267385Y35318000D02*
X10267385Y34460857D01*
X9481671Y34460857D02*
X10981671Y34460857D01*
X10981671Y33460856D02*
X10981671Y33175142D01*
X10981671Y33175142D02*
X10910242Y33032285D01*
X10910242Y33032285D02*
X10767385Y32889428D01*
X10767385Y32889428D02*
X10481671Y32817999D01*
X10481671Y32817999D02*
X9981671Y32817999D01*
X9981671Y32817999D02*
X9695957Y32889428D01*
X9695957Y32889428D02*
X9553100Y33032285D01*
X9553100Y33032285D02*
X9481671Y33175142D01*
X9481671Y33175142D02*
X9481671Y33460856D01*
X9481671Y33460856D02*
X9553100Y33603714D01*
X9553100Y33603714D02*
X9695957Y33746571D01*
X9695957Y33746571D02*
X9981671Y33817999D01*
X9981671Y33817999D02*
X10481671Y33817999D01*
X10481671Y33817999D02*
X10767385Y33746571D01*
X10767385Y33746571D02*
X10910242Y33603714D01*
X10910242Y33603714D02*
X10981671Y33460856D01*
X22157671Y14445999D02*
X20657671Y13945999D01*
X20657671Y13945999D02*
X22157671Y13445999D01*
X20800528Y12088857D02*
X20729100Y12160285D01*
X20729100Y12160285D02*
X20657671Y12374571D01*
X20657671Y12374571D02*
X20657671Y12517428D01*
X20657671Y12517428D02*
X20729100Y12731714D01*
X20729100Y12731714D02*
X20871957Y12874571D01*
X20871957Y12874571D02*
X21014814Y12946000D01*
X21014814Y12946000D02*
X21300528Y13017428D01*
X21300528Y13017428D02*
X21514814Y13017428D01*
X21514814Y13017428D02*
X21800528Y12946000D01*
X21800528Y12946000D02*
X21943385Y12874571D01*
X21943385Y12874571D02*
X22086242Y12731714D01*
X22086242Y12731714D02*
X22157671Y12517428D01*
X22157671Y12517428D02*
X22157671Y12374571D01*
X22157671Y12374571D02*
X22086242Y12160285D01*
X22086242Y12160285D02*
X22014814Y12088857D01*
X20800528Y10588857D02*
X20729100Y10660285D01*
X20729100Y10660285D02*
X20657671Y10874571D01*
X20657671Y10874571D02*
X20657671Y11017428D01*
X20657671Y11017428D02*
X20729100Y11231714D01*
X20729100Y11231714D02*
X20871957Y11374571D01*
X20871957Y11374571D02*
X21014814Y11446000D01*
X21014814Y11446000D02*
X21300528Y11517428D01*
X21300528Y11517428D02*
X21514814Y11517428D01*
X21514814Y11517428D02*
X21800528Y11446000D01*
X21800528Y11446000D02*
X21943385Y11374571D01*
X21943385Y11374571D02*
X22086242Y11231714D01*
X22086242Y11231714D02*
X22157671Y11017428D01*
X22157671Y11017428D02*
X22157671Y10874571D01*
X22157671Y10874571D02*
X22086242Y10660285D01*
X22086242Y10660285D02*
X22014814Y10588857D01*
X2109804Y11907999D02*
X809804Y11907999D01*
X2109804Y12527047D02*
X809804Y12527047D01*
X809804Y12527047D02*
X2109804Y13269904D01*
X2109804Y13269904D02*
X809804Y13269904D01*
X2109804Y14569905D02*
X2109804Y13827048D01*
X2109804Y14198476D02*
X809804Y14198476D01*
X809804Y14198476D02*
X995519Y14074667D01*
X995519Y14074667D02*
X1119328Y13950857D01*
X1119328Y13950857D02*
X1181233Y13827048D01*
X18097428Y16149100D02*
X16954571Y16149100D01*
X17525999Y15577671D02*
X17525999Y16720528D01*
D11*
X21818709Y2047857D02*
X21818709Y1762143D01*
X21818709Y1905000D02*
X21318709Y1905000D01*
X21318709Y1905000D02*
X21390138Y1857381D01*
X21390138Y1857381D02*
X21437757Y1809762D01*
X21437757Y1809762D02*
X21461566Y1762143D01*
X32781857Y18313290D02*
X32496143Y18313290D01*
X32639000Y18313290D02*
X32639000Y18813290D01*
X32639000Y18813290D02*
X32591381Y18741861D01*
X32591381Y18741861D02*
X32543762Y18694242D01*
X32543762Y18694242D02*
X32496143Y18670433D01*
X32781857Y29489290D02*
X32496143Y29489290D01*
X32639000Y29489290D02*
X32639000Y29989290D01*
X32639000Y29989290D02*
X32591381Y29917861D01*
X32591381Y29917861D02*
X32543762Y29870242D01*
X32543762Y29870242D02*
X32496143Y29846433D01*
X21818709Y32781857D02*
X21818709Y32496143D01*
X21818709Y32639000D02*
X21318709Y32639000D01*
X21318709Y32639000D02*
X21390138Y32591381D01*
X21390138Y32591381D02*
X21437757Y32543762D01*
X21437757Y32543762D02*
X21461566Y32496143D01*
D12*
%TO.C,J1*%
X14518000Y414000D02*
X14518000Y9414000D01*
X19518100Y414000D02*
X14517900Y414000D01*
X15018000Y913900D02*
X15018000Y8913900D01*
X19018000Y913900D02*
X15018000Y913900D01*
X19018000Y913900D02*
X19018000Y8913900D01*
X15018000Y8913900D02*
X19018000Y8913900D01*
X16018000Y8913900D02*
X16018000Y9414000D01*
X18018000Y8913900D02*
X18018000Y9414000D01*
X14518000Y9414000D02*
X14518000Y15414000D01*
X19518000Y9414000D02*
X19518000Y414000D01*
X19518000Y9414000D02*
X19518000Y15414000D01*
X19518100Y9414000D02*
X14517900Y9414000D01*
X15518000Y11414000D02*
X15518000Y14414000D01*
X18518000Y11414000D02*
X18518000Y14414000D01*
X18518100Y11414000D02*
X15517900Y11414000D01*
X15018000Y14414000D02*
X19018000Y14414000D01*
X15018000Y14414000D02*
X15018000Y17915000D01*
X19018000Y14414000D02*
X19018000Y17914100D01*
X15518000Y14914100D02*
X15518000Y17414000D01*
X18518000Y14914100D02*
X18518000Y17414000D01*
X18519000Y14914100D02*
X15517000Y14914100D01*
X15018000Y15414000D02*
X14518000Y15414000D01*
X19518000Y15414000D02*
X19018000Y15414000D01*
X18519000Y17414000D02*
X15517000Y17414000D01*
X15018000Y17914100D02*
X19018000Y17914100D01*
%TO.C,J2*%
X9438000Y414000D02*
X9438000Y9414000D01*
X14438100Y414000D02*
X9437900Y414000D01*
X9938000Y913900D02*
X9938000Y8913900D01*
X13938000Y913900D02*
X9938000Y913900D01*
X13938000Y913900D02*
X13938000Y8913900D01*
X9938000Y8913900D02*
X13938000Y8913900D01*
X10938000Y8913900D02*
X10938000Y9414000D01*
X12938000Y8913900D02*
X12938000Y9414000D01*
X9438000Y9414000D02*
X9438000Y15414000D01*
X14438000Y9414000D02*
X14438000Y414000D01*
X14438000Y9414000D02*
X14438000Y15414000D01*
X14438100Y9414000D02*
X9437900Y9414000D01*
X10438000Y11414000D02*
X10438000Y14414000D01*
X13438000Y11414000D02*
X13438000Y14414000D01*
X13438100Y11414000D02*
X10437900Y11414000D01*
X9938000Y14414000D02*
X13938000Y14414000D01*
X9938000Y14414000D02*
X9938000Y17915000D01*
X13938000Y14414000D02*
X13938000Y17914100D01*
X10438000Y14914100D02*
X10438000Y17414000D01*
X13438000Y14914100D02*
X13438000Y17414000D01*
X13439000Y14914100D02*
X10437000Y14914100D01*
X9938000Y15414000D02*
X9438000Y15414000D01*
X14438000Y15414000D02*
X13938000Y15414000D01*
X13439000Y17414000D02*
X10437000Y17414000D01*
X9938000Y17914100D02*
X13938000Y17914100D01*
%TO.C,J4*%
X2540000Y30226000D02*
X7620000Y30226000D01*
X2540000Y27686000D02*
X2540000Y30226000D01*
X7620000Y30226000D02*
X7620000Y27686000D01*
X7620000Y27686000D02*
X2540000Y27686000D01*
%TO.C,J5*%
X11938000Y33528000D02*
X11938000Y38608000D01*
X14478000Y33528000D02*
X11938000Y33528000D01*
X11938000Y38608000D02*
X14478000Y38608000D01*
X14478000Y38608000D02*
X14478000Y33528000D01*
%TO.C,J6*%
X2540000Y14986000D02*
X7620000Y14986000D01*
X2540000Y12446000D02*
X2540000Y14986000D01*
X7620000Y14986000D02*
X7620000Y12446000D01*
X7620000Y12446000D02*
X2540000Y12446000D01*
%TO.C,J7*%
X2540000Y17526000D02*
X7620000Y17526000D01*
X2540000Y14986000D02*
X2540000Y17526000D01*
X7620000Y17526000D02*
X7620000Y14986000D01*
X7620000Y14986000D02*
X2540000Y14986000D01*
%TO.C,J8*%
X2540000Y20066000D02*
X7620000Y20066000D01*
X2540000Y17526000D02*
X2540000Y20066000D01*
X7620000Y20066000D02*
X7620000Y17526000D01*
X7620000Y17526000D02*
X2540000Y17526000D01*
%TO.C,J9*%
X2540000Y22606000D02*
X7620000Y22606000D01*
X2540000Y20066000D02*
X2540000Y22606000D01*
X7620000Y22606000D02*
X7620000Y20066000D01*
X7620000Y20066000D02*
X2540000Y20066000D01*
%TO.C,J10*%
X2540000Y25146000D02*
X7620000Y25146000D01*
X2540000Y22606000D02*
X2540000Y25146000D01*
X7620000Y25146000D02*
X7620000Y22606000D01*
X7620000Y22606000D02*
X2540000Y22606000D01*
%TO.C,J11*%
X2540000Y27686000D02*
X7620000Y27686000D01*
X2540000Y25146000D02*
X2540000Y27686000D01*
X7620000Y27686000D02*
X7620000Y25146000D01*
X7620000Y25146000D02*
X2540000Y25146000D01*
%TO.C,J12*%
X17018000Y33528000D02*
X17018000Y38608000D01*
X19558000Y33528000D02*
X17018000Y33528000D01*
X17018000Y38608000D02*
X19558000Y38608000D01*
X19558000Y38608000D02*
X19558000Y33528000D01*
%TO.C,J13*%
X14478000Y33528000D02*
X14478000Y38608000D01*
X17018000Y33528000D02*
X14478000Y33528000D01*
X14478000Y38608000D02*
X17018000Y38608000D01*
X17018000Y38608000D02*
X17018000Y33528000D01*
%TO.C,J14*%
X20320000Y2286000D02*
X20320000Y7366000D01*
X30480000Y2286000D02*
X20320000Y2286000D01*
X20320000Y7366000D02*
X30480000Y7366000D01*
X30480000Y7366000D02*
X30480000Y2286000D01*
%TO.C,J15*%
X33020000Y19812000D02*
X38100000Y19812000D01*
X33020000Y9652000D02*
X33020000Y19812000D01*
X38100000Y19812000D02*
X38100000Y9652000D01*
X38100000Y9652000D02*
X33020000Y9652000D01*
%TO.C,J16*%
X33020000Y30988000D02*
X38100000Y30988000D01*
X33020000Y20828000D02*
X33020000Y30988000D01*
X38100000Y30988000D02*
X38100000Y20828000D01*
X38100000Y20828000D02*
X33020000Y20828000D01*
%TO.C,J17*%
X20320000Y33020000D02*
X20320000Y38100000D01*
X30480000Y33020000D02*
X20320000Y33020000D01*
X20320000Y38100000D02*
X30480000Y38100000D01*
X30480000Y38100000D02*
X30480000Y33020000D01*
%TO.C,J3*%
X27178000Y20320000D02*
X27178000Y22860000D01*
X32258000Y20320000D02*
X27178000Y20320000D01*
X27178000Y22860000D02*
X32258000Y22860000D01*
X32258000Y22860000D02*
X32258000Y20320000D01*
%TO.C,J18*%
X2540000Y12446000D02*
X7620000Y12446000D01*
X2540000Y9906000D02*
X2540000Y12446000D01*
X7620000Y12446000D02*
X7620000Y9906000D01*
X7620000Y9906000D02*
X2540000Y9906000D01*
%TD*%
D13*
%TO.C,J1*%
X17018000Y5414000D03*
X17018000Y10414000D03*
%TD*%
%TO.C,J2*%
X11938000Y5414000D03*
X11938000Y10414000D03*
%TD*%
D14*
%TO.C,J4*%
X3810000Y28956000D03*
X6350000Y28956000D03*
%TD*%
%TO.C,J5*%
X13208000Y34798000D03*
X13208000Y37338000D03*
%TD*%
%TO.C,J6*%
X3810000Y13716000D03*
X6350000Y13716000D03*
%TD*%
%TO.C,J7*%
X3810000Y16256000D03*
X6350000Y16256000D03*
%TD*%
%TO.C,J8*%
X3810000Y18796000D03*
X6350000Y18796000D03*
%TD*%
%TO.C,J9*%
X3810000Y21336000D03*
X6350000Y21336000D03*
%TD*%
%TO.C,J10*%
X3810000Y23876000D03*
X6350000Y23876000D03*
%TD*%
%TO.C,J11*%
X3810000Y26416000D03*
X6350000Y26416000D03*
%TD*%
%TO.C,J12*%
X18288000Y34798000D03*
X18288000Y37338000D03*
%TD*%
%TO.C,J13*%
X15748000Y34798000D03*
X15748000Y37338000D03*
%TD*%
%TO.C,J14*%
X21590000Y3556000D03*
X21590000Y6096000D03*
X24130000Y3556000D03*
X24130000Y6096000D03*
X26670000Y3556000D03*
X26670000Y6096000D03*
X29210000Y3556000D03*
X29210000Y6096000D03*
%TD*%
%TO.C,J15*%
X34290000Y18542000D03*
X36830000Y18542000D03*
X34290000Y16002000D03*
X36830000Y16002000D03*
X34290000Y13462000D03*
X36830000Y13462000D03*
X34290000Y10922000D03*
X36830000Y10922000D03*
%TD*%
%TO.C,J16*%
X34290000Y29718000D03*
X36830000Y29718000D03*
X34290000Y27178000D03*
X36830000Y27178000D03*
X34290000Y24638000D03*
X36830000Y24638000D03*
X34290000Y22098000D03*
X36830000Y22098000D03*
%TD*%
%TO.C,J17*%
X21590000Y34290000D03*
X21590000Y36830000D03*
X24130000Y34290000D03*
X24130000Y36830000D03*
X26670000Y34290000D03*
X26670000Y36830000D03*
X29210000Y34290000D03*
X29210000Y36830000D03*
%TD*%
%TO.C,J3*%
X28448000Y21590000D03*
X30988000Y21590000D03*
%TD*%
%TO.C,J18*%
X3810000Y11176000D03*
X6350000Y11176000D03*
%TD*%
M02*
